%TF.GenerationSoftware,KiCad,Pcbnew,8.0.5*%
%TF.CreationDate,2025-04-09T01:02:25+01:00*%
%TF.ProjectId,OBC2,4f424332-2e6b-4696-9361-645f70636258,A*%
%TF.SameCoordinates,Original*%
%TF.FileFunction,Soldermask,Top*%
%TF.FilePolarity,Negative*%
%FSLAX46Y46*%
G04 Gerber Fmt 4.6, Leading zero omitted, Abs format (unit mm)*
G04 Created by KiCad (PCBNEW 8.0.5) date 2025-04-09 01:02:25*
%MOMM*%
%LPD*%
G01*
G04 APERTURE LIST*
G04 Aperture macros list*
%AMRoundRect*
0 Rectangle with rounded corners*
0 $1 Rounding radius*
0 $2 $3 $4 $5 $6 $7 $8 $9 X,Y pos of 4 corners*
0 Add a 4 corners polygon primitive as box body*
4,1,4,$2,$3,$4,$5,$6,$7,$8,$9,$2,$3,0*
0 Add four circle primitives for the rounded corners*
1,1,$1+$1,$2,$3*
1,1,$1+$1,$4,$5*
1,1,$1+$1,$6,$7*
1,1,$1+$1,$8,$9*
0 Add four rect primitives between the rounded corners*
20,1,$1+$1,$2,$3,$4,$5,0*
20,1,$1+$1,$4,$5,$6,$7,0*
20,1,$1+$1,$6,$7,$8,$9,0*
20,1,$1+$1,$8,$9,$2,$3,0*%
%AMRotRect*
0 Rectangle, with rotation*
0 The origin of the aperture is its center*
0 $1 length*
0 $2 width*
0 $3 Rotation angle, in degrees counterclockwise*
0 Add horizontal line*
21,1,$1,$2,0,0,$3*%
G04 Aperture macros list end*
%ADD10RoundRect,0.250000X0.625000X-0.312500X0.625000X0.312500X-0.625000X0.312500X-0.625000X-0.312500X0*%
%ADD11RoundRect,0.150000X-0.512500X-0.150000X0.512500X-0.150000X0.512500X0.150000X-0.512500X0.150000X0*%
%ADD12RoundRect,0.150000X0.512500X0.150000X-0.512500X0.150000X-0.512500X-0.150000X0.512500X-0.150000X0*%
%ADD13C,1.000000*%
%ADD14RoundRect,0.250000X0.650000X-0.325000X0.650000X0.325000X-0.650000X0.325000X-0.650000X-0.325000X0*%
%ADD15RoundRect,0.250000X-0.312500X-0.625000X0.312500X-0.625000X0.312500X0.625000X-0.312500X0.625000X0*%
%ADD16R,2.400000X2.400000*%
%ADD17C,2.400000*%
%ADD18RoundRect,0.250000X-0.325000X-0.650000X0.325000X-0.650000X0.325000X0.650000X-0.325000X0.650000X0*%
%ADD19RoundRect,0.225000X-0.225000X-0.375000X0.225000X-0.375000X0.225000X0.375000X-0.225000X0.375000X0*%
%ADD20C,2.000000*%
%ADD21RoundRect,0.250000X0.325000X0.650000X-0.325000X0.650000X-0.325000X-0.650000X0.325000X-0.650000X0*%
%ADD22C,3.600000*%
%ADD23C,6.400000*%
%ADD24RoundRect,0.250000X-0.650000X0.325000X-0.650000X-0.325000X0.650000X-0.325000X0.650000X0.325000X0*%
%ADD25R,1.600000X1.600000*%
%ADD26C,1.600000*%
%ADD27O,1.350000X1.350000*%
%ADD28R,1.350000X1.350000*%
%ADD29RoundRect,0.250000X0.312500X0.625000X-0.312500X0.625000X-0.312500X-0.625000X0.312500X-0.625000X0*%
%ADD30C,4.000000*%
%ADD31RoundRect,0.250000X-0.625000X0.312500X-0.625000X-0.312500X0.625000X-0.312500X0.625000X0.312500X0*%
%ADD32R,1.500000X2.300000*%
%ADD33O,1.500000X2.300000*%
%ADD34C,3.250000*%
%ADD35RoundRect,0.248000X-0.552000X-0.552000X0.552000X-0.552000X0.552000X0.552000X-0.552000X0.552000X0*%
%ADD36C,2.200000*%
%ADD37RoundRect,0.250000X0.229810X-0.689429X0.689429X-0.229810X-0.229810X0.689429X-0.689429X0.229810X0*%
%ADD38R,1.800000X1.800000*%
%ADD39C,1.800000*%
%ADD40C,3.000000*%
%ADD41RoundRect,0.250000X-0.375000X-0.625000X0.375000X-0.625000X0.375000X0.625000X-0.375000X0.625000X0*%
%ADD42C,1.400000*%
%ADD43R,0.740000X2.400000*%
%ADD44RotRect,4.500000X2.000000X45.000000*%
%ADD45RoundRect,0.075000X-0.565685X0.459619X0.459619X-0.565685X0.565685X-0.459619X-0.459619X0.565685X0*%
%ADD46RoundRect,0.075000X-0.565685X-0.459619X-0.459619X-0.565685X0.565685X0.459619X0.459619X0.565685X0*%
%ADD47RoundRect,0.250000X-0.229810X0.689429X-0.689429X0.229810X0.229810X-0.689429X0.689429X-0.229810X0*%
%ADD48RoundRect,0.250000X0.662913X0.220971X0.220971X0.662913X-0.662913X-0.220971X-0.220971X-0.662913X0*%
%ADD49RoundRect,0.150000X0.150000X-0.512500X0.150000X0.512500X-0.150000X0.512500X-0.150000X-0.512500X0*%
%ADD50RoundRect,0.250000X-0.312500X-1.450000X0.312500X-1.450000X0.312500X1.450000X-0.312500X1.450000X0*%
%ADD51RoundRect,0.150000X-0.825000X-0.150000X0.825000X-0.150000X0.825000X0.150000X-0.825000X0.150000X0*%
%ADD52RoundRect,0.150000X-0.650000X-0.150000X0.650000X-0.150000X0.650000X0.150000X-0.650000X0.150000X0*%
%ADD53O,1.500000X1.050000*%
%ADD54R,1.500000X1.050000*%
%ADD55C,0.600000*%
G04 APERTURE END LIST*
D10*
%TO.C,R14*%
X98000000Y-64425000D03*
X98000000Y-61500000D03*
%TD*%
%TO.C,R13*%
X108000000Y-64425000D03*
X108000000Y-61500000D03*
%TD*%
D11*
%TO.C,IC2*%
X75112500Y-90550000D03*
X75112500Y-91500000D03*
X75112500Y-92450000D03*
X77387500Y-92450000D03*
X77387500Y-90550000D03*
%TD*%
D12*
%TO.C,IC1*%
X132000000Y-107250000D03*
X132000000Y-106300000D03*
X132000000Y-105350000D03*
X129725000Y-105350000D03*
X129725000Y-107250000D03*
%TD*%
D13*
%TO.C,Y2*%
X89656497Y-83156497D03*
X91000000Y-84500000D03*
%TD*%
D14*
%TO.C,C14*%
X98000000Y-109975000D03*
X98000000Y-107025000D03*
%TD*%
D15*
%TO.C,R3*%
X106750000Y-107250000D03*
X109675000Y-107250000D03*
%TD*%
%TO.C,R8*%
X106250000Y-104500000D03*
X109175000Y-104500000D03*
%TD*%
D16*
%TO.C,C19*%
X114500000Y-77000000D03*
D17*
X119500000Y-77000000D03*
%TD*%
D18*
%TO.C,C7*%
X80025000Y-95000000D03*
X82975000Y-95000000D03*
%TD*%
D19*
%TO.C,D1*%
X105700000Y-76500000D03*
X109000000Y-76500000D03*
%TD*%
D20*
%TO.C,H6*%
X62015000Y-62985000D03*
%TD*%
D14*
%TO.C,C29*%
X88000000Y-64450000D03*
X88000000Y-61500000D03*
%TD*%
D21*
%TO.C,C32*%
X115475000Y-108000000D03*
X112525000Y-108000000D03*
%TD*%
D14*
%TO.C,C11*%
X85500000Y-97975000D03*
X85500000Y-95025000D03*
%TD*%
D22*
%TO.C,H2*%
X140805000Y-55080000D03*
D23*
X140805000Y-55080000D03*
%TD*%
D24*
%TO.C,C4*%
X130000000Y-110525000D03*
X130000000Y-113475000D03*
%TD*%
D25*
%TO.C,C1*%
X130000000Y-124000000D03*
D26*
X130000000Y-122000000D03*
%TD*%
D21*
%TO.C,C10*%
X114450000Y-95750000D03*
X111500000Y-95750000D03*
%TD*%
D27*
%TO.C,J2*%
X57080000Y-123660000D03*
X57080000Y-121660000D03*
X57080000Y-119660000D03*
X57080000Y-117660000D03*
X57080000Y-115660000D03*
X57080000Y-113660000D03*
X57080000Y-111660000D03*
X57080000Y-109660000D03*
X57080000Y-107660000D03*
X57080000Y-105660000D03*
X57080000Y-103660000D03*
X57080000Y-101660000D03*
X57080000Y-99660000D03*
X57080000Y-97660000D03*
X57080000Y-95660000D03*
X57080000Y-93660000D03*
X57080000Y-91660000D03*
X57080000Y-89660000D03*
X57080000Y-87660000D03*
X57080000Y-85660000D03*
X57080000Y-83660000D03*
X57080000Y-81660000D03*
X57080000Y-79660000D03*
X57080000Y-77660000D03*
X57080000Y-75660000D03*
X57080000Y-73660000D03*
X57080000Y-71660000D03*
X57080000Y-69660000D03*
X57080000Y-67660000D03*
X57080000Y-65660000D03*
D28*
X55080000Y-123660000D03*
D27*
X55080000Y-121660000D03*
X55080000Y-119660000D03*
X55080000Y-117660000D03*
X55080000Y-115660000D03*
X55080000Y-113660000D03*
X55080000Y-111660000D03*
X55080000Y-109660000D03*
X55080000Y-107660000D03*
X55080000Y-105660000D03*
X55080000Y-103660000D03*
X55080000Y-101660000D03*
X55080000Y-99660000D03*
X55080000Y-97660000D03*
X55080000Y-95660000D03*
X55080000Y-93660000D03*
X55080000Y-91660000D03*
X55080000Y-89660000D03*
X55080000Y-87660000D03*
X55080000Y-85660000D03*
X55080000Y-83660000D03*
X55080000Y-81660000D03*
X55080000Y-79660000D03*
X55080000Y-77660000D03*
X55080000Y-75660000D03*
X55080000Y-73660000D03*
X55080000Y-71660000D03*
X55080000Y-69660000D03*
X55080000Y-67660000D03*
X55080000Y-65660000D03*
%TD*%
D18*
%TO.C,C12*%
X80025000Y-100000000D03*
X82975000Y-100000000D03*
%TD*%
D29*
%TO.C,R2*%
X109000000Y-79500000D03*
X106075000Y-79500000D03*
%TD*%
D21*
%TO.C,C6*%
X77975000Y-97500000D03*
X75025000Y-97500000D03*
%TD*%
D18*
%TO.C,C31*%
X75025000Y-100000000D03*
X77975000Y-100000000D03*
%TD*%
D25*
%TO.C,J3*%
X123000000Y-129000000D03*
D26*
X120500000Y-129000000D03*
X120500000Y-131000000D03*
X123000000Y-131000000D03*
D30*
X127750000Y-133860000D03*
X115750000Y-133860000D03*
%TD*%
D31*
%TO.C,R12*%
X105000000Y-133537500D03*
X105000000Y-136462500D03*
%TD*%
D32*
%TO.C,U2*%
X135960000Y-117000000D03*
D33*
X138500000Y-117000000D03*
X141040000Y-117000000D03*
%TD*%
D34*
%TO.C,J4*%
X79270000Y-132890000D03*
X67840000Y-132890000D03*
D35*
X78000000Y-124000000D03*
D26*
X76730000Y-126540000D03*
X75460000Y-124000000D03*
X74190000Y-126540000D03*
X72920000Y-124000000D03*
X71650000Y-126540000D03*
X70380000Y-124000000D03*
X69110000Y-126540000D03*
D36*
X81455000Y-129840000D03*
X65655000Y-129840000D03*
%TD*%
D37*
%TO.C,C16*%
X82664034Y-85335966D03*
X84750000Y-83250000D03*
%TD*%
%TO.C,C21*%
X93000000Y-83000000D03*
X95085966Y-80914034D03*
%TD*%
D24*
%TO.C,C27*%
X85000000Y-124025000D03*
X85000000Y-126975000D03*
%TD*%
D38*
%TO.C,D2*%
X128540000Y-58000000D03*
D39*
X126000000Y-58000000D03*
%TD*%
D10*
%TO.C,R7*%
X81000000Y-117462500D03*
X81000000Y-114537500D03*
%TD*%
D40*
%TO.C,TP1*%
X130000000Y-117000000D03*
%TD*%
D41*
%TO.C,F1*%
X123000000Y-124000000D03*
X125800000Y-124000000D03*
%TD*%
D38*
%TO.C,D3*%
X70000000Y-58000000D03*
D39*
X67460000Y-58000000D03*
%TD*%
D42*
%TO.C,S1*%
X113492500Y-64000000D03*
X113492500Y-61500000D03*
X113492500Y-59000000D03*
D39*
X114692500Y-67100000D03*
X111192500Y-55900000D03*
%TD*%
D18*
%TO.C,C5*%
X80025000Y-97500000D03*
X82975000Y-97500000D03*
%TD*%
D43*
%TO.C,J5*%
X94190000Y-136950000D03*
X94190000Y-133050000D03*
X95460000Y-136950000D03*
X95460000Y-133050000D03*
X96730000Y-136950000D03*
X96730000Y-133050000D03*
X98000000Y-136950000D03*
X98000000Y-133050000D03*
X99270000Y-136950000D03*
X99270000Y-133050000D03*
X100540000Y-136950000D03*
X100540000Y-133050000D03*
X101810000Y-136950000D03*
X101810000Y-133050000D03*
%TD*%
D22*
%TO.C,H3*%
X55080000Y-131280000D03*
D23*
X55080000Y-131280000D03*
%TD*%
D22*
%TO.C,H4*%
X140805000Y-135090000D03*
D23*
X140805000Y-135090000D03*
%TD*%
D24*
%TO.C,C9*%
X103000000Y-76550000D03*
X103000000Y-79500000D03*
%TD*%
D15*
%TO.C,R15*%
X79462500Y-70500000D03*
X76537500Y-70500000D03*
%TD*%
D44*
%TO.C,Y1*%
X79744796Y-82405204D03*
X85755204Y-76394796D03*
%TD*%
D21*
%TO.C,C13*%
X101475000Y-82000000D03*
X98525000Y-82000000D03*
%TD*%
D14*
%TO.C,C26*%
X85000000Y-122000000D03*
X85000000Y-119050000D03*
%TD*%
D42*
%TO.C,S3*%
X93492500Y-64000000D03*
X93492500Y-61500000D03*
X93492500Y-59000000D03*
D39*
X94692500Y-67100000D03*
X91192500Y-55900000D03*
%TD*%
D25*
%TO.C,C3*%
X138000000Y-107250000D03*
D26*
X138000000Y-104750000D03*
%TD*%
D21*
%TO.C,C8*%
X77975000Y-95000000D03*
X75025000Y-95000000D03*
%TD*%
D45*
%TO.C,U3*%
X96815596Y-85330315D03*
X96462043Y-85683868D03*
X96108489Y-86037422D03*
X95754936Y-86390975D03*
X95401383Y-86744528D03*
X95047829Y-87098082D03*
X94694276Y-87451635D03*
X94340722Y-87805189D03*
X93987169Y-88158742D03*
X93633616Y-88512295D03*
X93280062Y-88865849D03*
X92926509Y-89219402D03*
X92572955Y-89572955D03*
X92219402Y-89926509D03*
X91865849Y-90280062D03*
X91512295Y-90633616D03*
X91158742Y-90987169D03*
X90805189Y-91340722D03*
X90451635Y-91694276D03*
X90098082Y-92047829D03*
X89744528Y-92401383D03*
X89390975Y-92754936D03*
X89037422Y-93108489D03*
X88683868Y-93462043D03*
X88330315Y-93815596D03*
D46*
X88330315Y-96184404D03*
X88683868Y-96537957D03*
X89037422Y-96891511D03*
X89390975Y-97245064D03*
X89744528Y-97598617D03*
X90098082Y-97952171D03*
X90451635Y-98305724D03*
X90805189Y-98659278D03*
X91158742Y-99012831D03*
X91512295Y-99366384D03*
X91865849Y-99719938D03*
X92219402Y-100073491D03*
X92572955Y-100427045D03*
X92926509Y-100780598D03*
X93280062Y-101134151D03*
X93633616Y-101487705D03*
X93987169Y-101841258D03*
X94340722Y-102194811D03*
X94694276Y-102548365D03*
X95047829Y-102901918D03*
X95401383Y-103255472D03*
X95754936Y-103609025D03*
X96108489Y-103962578D03*
X96462043Y-104316132D03*
X96815596Y-104669685D03*
D45*
X99184404Y-104669685D03*
X99537957Y-104316132D03*
X99891511Y-103962578D03*
X100245064Y-103609025D03*
X100598617Y-103255472D03*
X100952171Y-102901918D03*
X101305724Y-102548365D03*
X101659278Y-102194811D03*
X102012831Y-101841258D03*
X102366384Y-101487705D03*
X102719938Y-101134151D03*
X103073491Y-100780598D03*
X103427045Y-100427045D03*
X103780598Y-100073491D03*
X104134151Y-99719938D03*
X104487705Y-99366384D03*
X104841258Y-99012831D03*
X105194811Y-98659278D03*
X105548365Y-98305724D03*
X105901918Y-97952171D03*
X106255472Y-97598617D03*
X106609025Y-97245064D03*
X106962578Y-96891511D03*
X107316132Y-96537957D03*
X107669685Y-96184404D03*
D46*
X107669685Y-93815596D03*
X107316132Y-93462043D03*
X106962578Y-93108489D03*
X106609025Y-92754936D03*
X106255472Y-92401383D03*
X105901918Y-92047829D03*
X105548365Y-91694276D03*
X105194811Y-91340722D03*
X104841258Y-90987169D03*
X104487705Y-90633616D03*
X104134151Y-90280062D03*
X103780598Y-89926509D03*
X103427045Y-89572955D03*
X103073491Y-89219402D03*
X102719938Y-88865849D03*
X102366384Y-88512295D03*
X102012831Y-88158742D03*
X101659278Y-87805189D03*
X101305724Y-87451635D03*
X100952171Y-87098082D03*
X100598617Y-86744528D03*
X100245064Y-86390975D03*
X99891511Y-86037422D03*
X99537957Y-85683868D03*
X99184404Y-85330315D03*
%TD*%
D21*
%TO.C,C18*%
X112950000Y-98500000D03*
X110000000Y-98500000D03*
%TD*%
D10*
%TO.C,R6*%
X78250000Y-117462500D03*
X78250000Y-114537500D03*
%TD*%
D14*
%TO.C,C17*%
X95000000Y-110975000D03*
X95000000Y-108025000D03*
%TD*%
D37*
%TO.C,C22*%
X91156497Y-81156497D03*
X93242463Y-79070531D03*
%TD*%
D42*
%TO.C,S2*%
X103492500Y-64000000D03*
X103492500Y-61500000D03*
X103492500Y-59000000D03*
D39*
X104692500Y-67100000D03*
X101192500Y-55900000D03*
%TD*%
D14*
%TO.C,C25*%
X88000000Y-126975000D03*
X88000000Y-124025000D03*
%TD*%
D47*
%TO.C,C15*%
X88685966Y-79314034D03*
X86600000Y-81400000D03*
%TD*%
D48*
%TO.C,R4*%
X109534144Y-87034144D03*
X107465856Y-84965856D03*
%TD*%
D24*
%TO.C,C20*%
X99500000Y-76550000D03*
X99500000Y-79500000D03*
%TD*%
D14*
%TO.C,C23*%
X88000000Y-122000000D03*
X88000000Y-119050000D03*
%TD*%
D20*
%TO.C,H5*%
X54145000Y-62985000D03*
%TD*%
%TO.C,H7*%
X54145000Y-126335000D03*
%TD*%
D49*
%TO.C,U1*%
X118600000Y-121862500D03*
X119550000Y-121862500D03*
X120500000Y-121862500D03*
X120500000Y-124137500D03*
X119550000Y-124137500D03*
X118600000Y-124137500D03*
%TD*%
D22*
%TO.C,H1*%
X55080000Y-57620000D03*
D23*
X55080000Y-57620000D03*
%TD*%
D27*
%TO.C,J1*%
X61080000Y-123660000D03*
X61080000Y-121660000D03*
X61080000Y-119660000D03*
X61080000Y-117660000D03*
X61080000Y-115660000D03*
X61080000Y-113660000D03*
X61080000Y-111660000D03*
X61080000Y-109660000D03*
X61080000Y-107660000D03*
X61080000Y-105660000D03*
X61080000Y-103660000D03*
X61080000Y-101660000D03*
X61080000Y-99660000D03*
X61080000Y-97660000D03*
X61080000Y-95660000D03*
X61080000Y-93660000D03*
X61080000Y-91660000D03*
X61080000Y-89660000D03*
X61080000Y-87660000D03*
X61080000Y-85660000D03*
X61080000Y-83660000D03*
X61080000Y-81660000D03*
X61080000Y-79660000D03*
X61080000Y-77660000D03*
X61080000Y-75660000D03*
X61080000Y-73660000D03*
X61080000Y-71660000D03*
X61080000Y-69660000D03*
X61080000Y-67660000D03*
X61080000Y-65660000D03*
D28*
X59080000Y-123660000D03*
D27*
X59080000Y-121660000D03*
X59080000Y-119660000D03*
X59080000Y-117660000D03*
X59080000Y-115660000D03*
X59080000Y-113660000D03*
X59080000Y-111660000D03*
X59080000Y-109660000D03*
X59080000Y-107660000D03*
X59080000Y-105660000D03*
X59080000Y-103660000D03*
X59080000Y-101660000D03*
X59080000Y-99660000D03*
X59080000Y-97660000D03*
X59080000Y-95660000D03*
X59080000Y-93660000D03*
X59080000Y-91660000D03*
X59080000Y-89660000D03*
X59080000Y-87660000D03*
X59080000Y-85660000D03*
X59080000Y-83660000D03*
X59080000Y-81660000D03*
X59080000Y-79660000D03*
X59080000Y-77660000D03*
X59080000Y-75660000D03*
X59080000Y-73660000D03*
X59080000Y-71660000D03*
X59080000Y-69660000D03*
X59080000Y-67660000D03*
X59080000Y-65660000D03*
%TD*%
D20*
%TO.C,H8*%
X62015000Y-126335000D03*
%TD*%
D15*
%TO.C,R1*%
X122937500Y-120000000D03*
X125862500Y-120000000D03*
%TD*%
D24*
%TO.C,C24*%
X100000000Y-118550000D03*
X100000000Y-121500000D03*
%TD*%
D21*
%TO.C,C30*%
X84475000Y-70500000D03*
X81525000Y-70500000D03*
%TD*%
D42*
%TO.C,S4*%
X83492500Y-64000000D03*
X83492500Y-61500000D03*
X83492500Y-59000000D03*
D39*
X84692500Y-67100000D03*
X81192500Y-55900000D03*
%TD*%
D25*
%TO.C,C2*%
X142000000Y-124000000D03*
D26*
X142000000Y-122000000D03*
%TD*%
D29*
%TO.C,R10*%
X70425000Y-62000000D03*
X67500000Y-62000000D03*
%TD*%
D50*
%TO.C,L1*%
X133862500Y-124000000D03*
X138137500Y-124000000D03*
%TD*%
D51*
%TO.C,U4*%
X91525000Y-120190000D03*
X91525000Y-121460000D03*
X91525000Y-122730000D03*
X91525000Y-124000000D03*
X91525000Y-125270000D03*
X91525000Y-126540000D03*
X91525000Y-127810000D03*
X91525000Y-129080000D03*
X96475000Y-129080000D03*
X96475000Y-127810000D03*
X96475000Y-126540000D03*
X96475000Y-125270000D03*
X96475000Y-124000000D03*
X96475000Y-122730000D03*
X96475000Y-121460000D03*
X96475000Y-120190000D03*
%TD*%
D52*
%TO.C,U5*%
X78900000Y-105095000D03*
X78900000Y-106365000D03*
X78900000Y-107635000D03*
X78900000Y-108905000D03*
X86100000Y-108905000D03*
X86100000Y-107635000D03*
X86100000Y-106365000D03*
X86100000Y-105095000D03*
%TD*%
D53*
%TO.C,U6*%
X113640000Y-113770000D03*
X113640000Y-112500000D03*
D54*
X113640000Y-111230000D03*
%TD*%
D48*
%TO.C,R5*%
X111534144Y-85034144D03*
X109465856Y-82965856D03*
%TD*%
D29*
%TO.C,R9*%
X128925000Y-62000000D03*
X126000000Y-62000000D03*
%TD*%
D31*
%TO.C,R11*%
X76000000Y-102537500D03*
X76000000Y-105462500D03*
%TD*%
D24*
%TO.C,C28*%
X76000000Y-107525000D03*
X76000000Y-110475000D03*
%TD*%
D55*
X90250000Y-102250000D03*
X108000000Y-69000000D03*
X103000000Y-84000000D03*
X104000000Y-84750000D03*
X63125000Y-83625000D03*
X63065000Y-82685000D03*
X88000000Y-90750000D03*
X71000000Y-102000000D03*
X71000000Y-94000000D03*
X106250000Y-118000000D03*
X105500000Y-117500000D03*
X104750000Y-117000000D03*
X104000000Y-116500000D03*
X103250000Y-116000000D03*
X102500000Y-115500000D03*
X101750000Y-115000000D03*
X91103850Y-93195020D03*
X100000000Y-82000000D03*
X86500000Y-103500000D03*
X102000000Y-95000000D03*
X96000000Y-98000000D03*
X81500000Y-100000000D03*
X65000000Y-112000000D03*
X94000000Y-96000000D03*
X85500000Y-99325735D03*
X82500000Y-114500000D03*
X108750000Y-97250000D03*
X100500000Y-84000000D03*
X96000000Y-84000000D03*
X110600000Y-104500000D03*
X87250000Y-98250000D03*
X87750000Y-105750000D03*
X100000000Y-114500000D03*
X100000000Y-120000000D03*
X100000000Y-109250000D03*
X95750000Y-106250000D03*
X92277818Y-87722182D03*
X95500000Y-135000000D03*
X111000000Y-76500000D03*
X111500000Y-100500000D03*
X111000000Y-81500000D03*
X98000000Y-131000000D03*
X110500000Y-123250000D03*
X105989949Y-88989949D03*
X110500000Y-110000000D03*
X108742641Y-92742641D03*
X109500000Y-122960000D03*
X109500000Y-110000000D03*
X96750000Y-131000000D03*
X95500000Y-131000000D03*
X123625000Y-116875000D03*
X103349564Y-102551907D03*
X71500000Y-65750000D03*
X97500000Y-69000000D03*
X91049265Y-101200735D03*
X88000000Y-99348529D03*
X88500000Y-106499999D03*
X92500000Y-75750000D03*
X95000000Y-72000000D03*
X95500000Y-71250000D03*
X92000000Y-76500000D03*
X98250000Y-119500000D03*
X98500000Y-129080000D03*
X87286657Y-92768329D03*
X96000000Y-70500000D03*
X87000000Y-97000000D03*
X89750000Y-129000000D03*
X98250000Y-122730000D03*
X98250000Y-124000000D03*
X89250000Y-90750000D03*
X100500000Y-105500000D03*
X85500000Y-92250000D03*
X81500000Y-75500000D03*
X66250000Y-114750000D03*
X101000000Y-114500000D03*
X65500000Y-115500000D03*
X95139088Y-84360912D03*
X94431980Y-85068020D03*
X94000000Y-73500000D03*
X94500000Y-72750000D03*
X93500000Y-74250000D03*
X93000000Y-75000000D03*
X119500000Y-125500000D03*
X73500000Y-90500000D03*
M02*
