%TF.GenerationSoftware,KiCad,Pcbnew,8.0.5*%
%TF.CreationDate,2025-04-09T01:05:41+01:00*%
%TF.ProjectId,OBC2,4f424332-2e6b-4696-9361-645f70636258,A*%
%TF.SameCoordinates,Original*%
%TF.FileFunction,Drillmap*%
%TF.FilePolarity,Positive*%
%FSLAX45Y45*%
G04 Gerber Fmt 4.5, Leading zero omitted, Abs format (unit mm)*
G04 Created by KiCad (PCBNEW 8.0.5) date 2025-04-09 01:05:41*
%MOMM*%
%LPD*%
G01*
G04 APERTURE LIST*
%ADD10C,0.050000*%
%ADD11C,0.200000*%
%ADD12C,0.325000*%
G04 APERTURE END LIST*
D10*
X14588500Y-13817000D02*
G75*
G02*
X14388500Y-14017000I-200000J0D01*
G01*
X14388500Y-14017000D02*
X5200000Y-14017000D01*
X5000000Y-13817000D02*
X5000000Y-5200000D01*
X14388500Y-5000000D02*
G75*
G02*
X14588500Y-5200000I0J-200000D01*
G01*
X14588500Y-5200000D02*
X14588500Y-13817000D01*
X5000000Y-5200000D02*
G75*
G02*
X5200000Y-5000000I200000J0D01*
G01*
X5200000Y-14017000D02*
G75*
G02*
X5000000Y-13817000I0J200000D01*
G01*
X5200000Y-5000000D02*
X14388500Y-5000000D01*
D11*
X5314500Y-6198500D02*
X5514500Y-6398500D01*
X5514500Y-6198500D02*
X5314500Y-6398500D01*
X5314500Y-12533500D02*
X5514500Y-12733500D01*
X5514500Y-12533500D02*
X5314500Y-12733500D01*
X6101500Y-6198500D02*
X6301500Y-6398500D01*
X6301500Y-6198500D02*
X6101500Y-6398500D01*
X6101500Y-12533500D02*
X6301500Y-12733500D01*
X6301500Y-12533500D02*
X6101500Y-12733500D01*
D12*
X6946500Y-13289000D02*
G75*
G02*
X6621500Y-13289000I-162500J0D01*
G01*
X6621500Y-13289000D02*
G75*
G02*
X6946500Y-13289000I162500J0D01*
G01*
X8089500Y-13289000D02*
G75*
G02*
X7764500Y-13289000I-162500J0D01*
G01*
X7764500Y-13289000D02*
G75*
G02*
X8089500Y-13289000I162500J0D01*
G01*
D11*
X5258277Y-14330984D02*
X5258277Y-14130984D01*
X5258277Y-14130984D02*
X5305896Y-14130984D01*
X5305896Y-14130984D02*
X5334467Y-14140508D01*
X5334467Y-14140508D02*
X5353515Y-14159555D01*
X5353515Y-14159555D02*
X5363039Y-14178603D01*
X5363039Y-14178603D02*
X5372563Y-14216698D01*
X5372563Y-14216698D02*
X5372563Y-14245269D01*
X5372563Y-14245269D02*
X5363039Y-14283365D01*
X5363039Y-14283365D02*
X5353515Y-14302412D01*
X5353515Y-14302412D02*
X5334467Y-14321460D01*
X5334467Y-14321460D02*
X5305896Y-14330984D01*
X5305896Y-14330984D02*
X5258277Y-14330984D01*
X5458277Y-14330984D02*
X5458277Y-14197650D01*
X5458277Y-14235746D02*
X5467801Y-14216698D01*
X5467801Y-14216698D02*
X5477324Y-14207174D01*
X5477324Y-14207174D02*
X5496372Y-14197650D01*
X5496372Y-14197650D02*
X5515420Y-14197650D01*
X5582086Y-14330984D02*
X5582086Y-14197650D01*
X5582086Y-14130984D02*
X5572563Y-14140508D01*
X5572563Y-14140508D02*
X5582086Y-14150031D01*
X5582086Y-14150031D02*
X5591610Y-14140508D01*
X5591610Y-14140508D02*
X5582086Y-14130984D01*
X5582086Y-14130984D02*
X5582086Y-14150031D01*
X5705896Y-14330984D02*
X5686848Y-14321460D01*
X5686848Y-14321460D02*
X5677324Y-14302412D01*
X5677324Y-14302412D02*
X5677324Y-14130984D01*
X5810658Y-14330984D02*
X5791610Y-14321460D01*
X5791610Y-14321460D02*
X5782086Y-14302412D01*
X5782086Y-14302412D02*
X5782086Y-14130984D01*
X6039229Y-14330984D02*
X6039229Y-14130984D01*
X6039229Y-14130984D02*
X6105896Y-14273841D01*
X6105896Y-14273841D02*
X6172562Y-14130984D01*
X6172562Y-14130984D02*
X6172562Y-14330984D01*
X6353515Y-14330984D02*
X6353515Y-14226222D01*
X6353515Y-14226222D02*
X6343991Y-14207174D01*
X6343991Y-14207174D02*
X6324943Y-14197650D01*
X6324943Y-14197650D02*
X6286848Y-14197650D01*
X6286848Y-14197650D02*
X6267801Y-14207174D01*
X6353515Y-14321460D02*
X6334467Y-14330984D01*
X6334467Y-14330984D02*
X6286848Y-14330984D01*
X6286848Y-14330984D02*
X6267801Y-14321460D01*
X6267801Y-14321460D02*
X6258277Y-14302412D01*
X6258277Y-14302412D02*
X6258277Y-14283365D01*
X6258277Y-14283365D02*
X6267801Y-14264317D01*
X6267801Y-14264317D02*
X6286848Y-14254793D01*
X6286848Y-14254793D02*
X6334467Y-14254793D01*
X6334467Y-14254793D02*
X6353515Y-14245269D01*
X6448753Y-14197650D02*
X6448753Y-14397650D01*
X6448753Y-14207174D02*
X6467801Y-14197650D01*
X6467801Y-14197650D02*
X6505896Y-14197650D01*
X6505896Y-14197650D02*
X6524943Y-14207174D01*
X6524943Y-14207174D02*
X6534467Y-14216698D01*
X6534467Y-14216698D02*
X6543991Y-14235746D01*
X6543991Y-14235746D02*
X6543991Y-14292888D01*
X6543991Y-14292888D02*
X6534467Y-14311936D01*
X6534467Y-14311936D02*
X6524943Y-14321460D01*
X6524943Y-14321460D02*
X6505896Y-14330984D01*
X6505896Y-14330984D02*
X6467801Y-14330984D01*
X6467801Y-14330984D02*
X6448753Y-14321460D01*
X6629705Y-14311936D02*
X6639229Y-14321460D01*
X6639229Y-14321460D02*
X6629705Y-14330984D01*
X6629705Y-14330984D02*
X6620182Y-14321460D01*
X6620182Y-14321460D02*
X6629705Y-14311936D01*
X6629705Y-14311936D02*
X6629705Y-14330984D01*
X6629705Y-14207174D02*
X6639229Y-14216698D01*
X6639229Y-14216698D02*
X6629705Y-14226222D01*
X6629705Y-14226222D02*
X6620182Y-14216698D01*
X6620182Y-14216698D02*
X6629705Y-14207174D01*
X6629705Y-14207174D02*
X6629705Y-14226222D01*
X4797500Y-14559500D02*
X4997500Y-14759500D01*
X4997500Y-14559500D02*
X4797500Y-14759500D01*
X5248753Y-14570031D02*
X5258277Y-14560508D01*
X5258277Y-14560508D02*
X5277324Y-14550984D01*
X5277324Y-14550984D02*
X5324944Y-14550984D01*
X5324944Y-14550984D02*
X5343991Y-14560508D01*
X5343991Y-14560508D02*
X5353515Y-14570031D01*
X5353515Y-14570031D02*
X5363039Y-14589079D01*
X5363039Y-14589079D02*
X5363039Y-14608127D01*
X5363039Y-14608127D02*
X5353515Y-14636698D01*
X5353515Y-14636698D02*
X5239229Y-14750984D01*
X5239229Y-14750984D02*
X5363039Y-14750984D01*
X5448753Y-14731936D02*
X5458277Y-14741460D01*
X5458277Y-14741460D02*
X5448753Y-14750984D01*
X5448753Y-14750984D02*
X5439229Y-14741460D01*
X5439229Y-14741460D02*
X5448753Y-14731936D01*
X5448753Y-14731936D02*
X5448753Y-14750984D01*
X5582086Y-14550984D02*
X5601134Y-14550984D01*
X5601134Y-14550984D02*
X5620182Y-14560508D01*
X5620182Y-14560508D02*
X5629705Y-14570031D01*
X5629705Y-14570031D02*
X5639229Y-14589079D01*
X5639229Y-14589079D02*
X5648753Y-14627174D01*
X5648753Y-14627174D02*
X5648753Y-14674793D01*
X5648753Y-14674793D02*
X5639229Y-14712888D01*
X5639229Y-14712888D02*
X5629705Y-14731936D01*
X5629705Y-14731936D02*
X5620182Y-14741460D01*
X5620182Y-14741460D02*
X5601134Y-14750984D01*
X5601134Y-14750984D02*
X5582086Y-14750984D01*
X5582086Y-14750984D02*
X5563039Y-14741460D01*
X5563039Y-14741460D02*
X5553515Y-14731936D01*
X5553515Y-14731936D02*
X5543991Y-14712888D01*
X5543991Y-14712888D02*
X5534467Y-14674793D01*
X5534467Y-14674793D02*
X5534467Y-14627174D01*
X5534467Y-14627174D02*
X5543991Y-14589079D01*
X5543991Y-14589079D02*
X5553515Y-14570031D01*
X5553515Y-14570031D02*
X5563039Y-14560508D01*
X5563039Y-14560508D02*
X5582086Y-14550984D01*
X5772562Y-14550984D02*
X5791610Y-14550984D01*
X5791610Y-14550984D02*
X5810658Y-14560508D01*
X5810658Y-14560508D02*
X5820182Y-14570031D01*
X5820182Y-14570031D02*
X5829705Y-14589079D01*
X5829705Y-14589079D02*
X5839229Y-14627174D01*
X5839229Y-14627174D02*
X5839229Y-14674793D01*
X5839229Y-14674793D02*
X5829705Y-14712888D01*
X5829705Y-14712888D02*
X5820182Y-14731936D01*
X5820182Y-14731936D02*
X5810658Y-14741460D01*
X5810658Y-14741460D02*
X5791610Y-14750984D01*
X5791610Y-14750984D02*
X5772562Y-14750984D01*
X5772562Y-14750984D02*
X5753515Y-14741460D01*
X5753515Y-14741460D02*
X5743991Y-14731936D01*
X5743991Y-14731936D02*
X5734467Y-14712888D01*
X5734467Y-14712888D02*
X5724943Y-14674793D01*
X5724943Y-14674793D02*
X5724943Y-14627174D01*
X5724943Y-14627174D02*
X5734467Y-14589079D01*
X5734467Y-14589079D02*
X5743991Y-14570031D01*
X5743991Y-14570031D02*
X5753515Y-14560508D01*
X5753515Y-14560508D02*
X5772562Y-14550984D01*
X5963039Y-14550984D02*
X5982086Y-14550984D01*
X5982086Y-14550984D02*
X6001134Y-14560508D01*
X6001134Y-14560508D02*
X6010658Y-14570031D01*
X6010658Y-14570031D02*
X6020182Y-14589079D01*
X6020182Y-14589079D02*
X6029705Y-14627174D01*
X6029705Y-14627174D02*
X6029705Y-14674793D01*
X6029705Y-14674793D02*
X6020182Y-14712888D01*
X6020182Y-14712888D02*
X6010658Y-14731936D01*
X6010658Y-14731936D02*
X6001134Y-14741460D01*
X6001134Y-14741460D02*
X5982086Y-14750984D01*
X5982086Y-14750984D02*
X5963039Y-14750984D01*
X5963039Y-14750984D02*
X5943991Y-14741460D01*
X5943991Y-14741460D02*
X5934467Y-14731936D01*
X5934467Y-14731936D02*
X5924943Y-14712888D01*
X5924943Y-14712888D02*
X5915420Y-14674793D01*
X5915420Y-14674793D02*
X5915420Y-14627174D01*
X5915420Y-14627174D02*
X5924943Y-14589079D01*
X5924943Y-14589079D02*
X5934467Y-14570031D01*
X5934467Y-14570031D02*
X5943991Y-14560508D01*
X5943991Y-14560508D02*
X5963039Y-14550984D01*
X6115420Y-14750984D02*
X6115420Y-14617650D01*
X6115420Y-14636698D02*
X6124943Y-14627174D01*
X6124943Y-14627174D02*
X6143991Y-14617650D01*
X6143991Y-14617650D02*
X6172563Y-14617650D01*
X6172563Y-14617650D02*
X6191610Y-14627174D01*
X6191610Y-14627174D02*
X6201134Y-14646222D01*
X6201134Y-14646222D02*
X6201134Y-14750984D01*
X6201134Y-14646222D02*
X6210658Y-14627174D01*
X6210658Y-14627174D02*
X6229705Y-14617650D01*
X6229705Y-14617650D02*
X6258277Y-14617650D01*
X6258277Y-14617650D02*
X6277324Y-14627174D01*
X6277324Y-14627174D02*
X6286848Y-14646222D01*
X6286848Y-14646222D02*
X6286848Y-14750984D01*
X6382086Y-14750984D02*
X6382086Y-14617650D01*
X6382086Y-14636698D02*
X6391610Y-14627174D01*
X6391610Y-14627174D02*
X6410658Y-14617650D01*
X6410658Y-14617650D02*
X6439229Y-14617650D01*
X6439229Y-14617650D02*
X6458277Y-14627174D01*
X6458277Y-14627174D02*
X6467801Y-14646222D01*
X6467801Y-14646222D02*
X6467801Y-14750984D01*
X6467801Y-14646222D02*
X6477324Y-14627174D01*
X6477324Y-14627174D02*
X6496372Y-14617650D01*
X6496372Y-14617650D02*
X6524943Y-14617650D01*
X6524943Y-14617650D02*
X6543991Y-14627174D01*
X6543991Y-14627174D02*
X6553515Y-14646222D01*
X6553515Y-14646222D02*
X6553515Y-14750984D01*
X6943991Y-14541460D02*
X6772563Y-14798603D01*
X7201134Y-14550984D02*
X7220182Y-14550984D01*
X7220182Y-14550984D02*
X7239229Y-14560508D01*
X7239229Y-14560508D02*
X7248753Y-14570031D01*
X7248753Y-14570031D02*
X7258277Y-14589079D01*
X7258277Y-14589079D02*
X7267801Y-14627174D01*
X7267801Y-14627174D02*
X7267801Y-14674793D01*
X7267801Y-14674793D02*
X7258277Y-14712888D01*
X7258277Y-14712888D02*
X7248753Y-14731936D01*
X7248753Y-14731936D02*
X7239229Y-14741460D01*
X7239229Y-14741460D02*
X7220182Y-14750984D01*
X7220182Y-14750984D02*
X7201134Y-14750984D01*
X7201134Y-14750984D02*
X7182086Y-14741460D01*
X7182086Y-14741460D02*
X7172563Y-14731936D01*
X7172563Y-14731936D02*
X7163039Y-14712888D01*
X7163039Y-14712888D02*
X7153515Y-14674793D01*
X7153515Y-14674793D02*
X7153515Y-14627174D01*
X7153515Y-14627174D02*
X7163039Y-14589079D01*
X7163039Y-14589079D02*
X7172563Y-14570031D01*
X7172563Y-14570031D02*
X7182086Y-14560508D01*
X7182086Y-14560508D02*
X7201134Y-14550984D01*
X7353515Y-14731936D02*
X7363039Y-14741460D01*
X7363039Y-14741460D02*
X7353515Y-14750984D01*
X7353515Y-14750984D02*
X7343991Y-14741460D01*
X7343991Y-14741460D02*
X7353515Y-14731936D01*
X7353515Y-14731936D02*
X7353515Y-14750984D01*
X7486848Y-14550984D02*
X7505896Y-14550984D01*
X7505896Y-14550984D02*
X7524944Y-14560508D01*
X7524944Y-14560508D02*
X7534467Y-14570031D01*
X7534467Y-14570031D02*
X7543991Y-14589079D01*
X7543991Y-14589079D02*
X7553515Y-14627174D01*
X7553515Y-14627174D02*
X7553515Y-14674793D01*
X7553515Y-14674793D02*
X7543991Y-14712888D01*
X7543991Y-14712888D02*
X7534467Y-14731936D01*
X7534467Y-14731936D02*
X7524944Y-14741460D01*
X7524944Y-14741460D02*
X7505896Y-14750984D01*
X7505896Y-14750984D02*
X7486848Y-14750984D01*
X7486848Y-14750984D02*
X7467801Y-14741460D01*
X7467801Y-14741460D02*
X7458277Y-14731936D01*
X7458277Y-14731936D02*
X7448753Y-14712888D01*
X7448753Y-14712888D02*
X7439229Y-14674793D01*
X7439229Y-14674793D02*
X7439229Y-14627174D01*
X7439229Y-14627174D02*
X7448753Y-14589079D01*
X7448753Y-14589079D02*
X7458277Y-14570031D01*
X7458277Y-14570031D02*
X7467801Y-14560508D01*
X7467801Y-14560508D02*
X7486848Y-14550984D01*
X7620182Y-14550984D02*
X7753515Y-14550984D01*
X7753515Y-14550984D02*
X7667801Y-14750984D01*
X7858277Y-14636698D02*
X7839229Y-14627174D01*
X7839229Y-14627174D02*
X7829706Y-14617650D01*
X7829706Y-14617650D02*
X7820182Y-14598603D01*
X7820182Y-14598603D02*
X7820182Y-14589079D01*
X7820182Y-14589079D02*
X7829706Y-14570031D01*
X7829706Y-14570031D02*
X7839229Y-14560508D01*
X7839229Y-14560508D02*
X7858277Y-14550984D01*
X7858277Y-14550984D02*
X7896372Y-14550984D01*
X7896372Y-14550984D02*
X7915420Y-14560508D01*
X7915420Y-14560508D02*
X7924944Y-14570031D01*
X7924944Y-14570031D02*
X7934467Y-14589079D01*
X7934467Y-14589079D02*
X7934467Y-14598603D01*
X7934467Y-14598603D02*
X7924944Y-14617650D01*
X7924944Y-14617650D02*
X7915420Y-14627174D01*
X7915420Y-14627174D02*
X7896372Y-14636698D01*
X7896372Y-14636698D02*
X7858277Y-14636698D01*
X7858277Y-14636698D02*
X7839229Y-14646222D01*
X7839229Y-14646222D02*
X7829706Y-14655746D01*
X7829706Y-14655746D02*
X7820182Y-14674793D01*
X7820182Y-14674793D02*
X7820182Y-14712888D01*
X7820182Y-14712888D02*
X7829706Y-14731936D01*
X7829706Y-14731936D02*
X7839229Y-14741460D01*
X7839229Y-14741460D02*
X7858277Y-14750984D01*
X7858277Y-14750984D02*
X7896372Y-14750984D01*
X7896372Y-14750984D02*
X7915420Y-14741460D01*
X7915420Y-14741460D02*
X7924944Y-14731936D01*
X7924944Y-14731936D02*
X7934467Y-14712888D01*
X7934467Y-14712888D02*
X7934467Y-14674793D01*
X7934467Y-14674793D02*
X7924944Y-14655746D01*
X7924944Y-14655746D02*
X7915420Y-14646222D01*
X7915420Y-14646222D02*
X7896372Y-14636698D01*
X8001134Y-14550984D02*
X8134467Y-14550984D01*
X8134467Y-14550984D02*
X8048753Y-14750984D01*
X8201134Y-14550984D02*
X8201134Y-14589079D01*
X8277325Y-14550984D02*
X8277325Y-14589079D01*
X8572563Y-14827174D02*
X8563039Y-14817650D01*
X8563039Y-14817650D02*
X8543991Y-14789079D01*
X8543991Y-14789079D02*
X8534468Y-14770031D01*
X8534468Y-14770031D02*
X8524944Y-14741460D01*
X8524944Y-14741460D02*
X8515420Y-14693841D01*
X8515420Y-14693841D02*
X8515420Y-14655746D01*
X8515420Y-14655746D02*
X8524944Y-14608127D01*
X8524944Y-14608127D02*
X8534468Y-14579555D01*
X8534468Y-14579555D02*
X8543991Y-14560508D01*
X8543991Y-14560508D02*
X8563039Y-14531936D01*
X8563039Y-14531936D02*
X8572563Y-14522412D01*
X8734468Y-14617650D02*
X8734468Y-14750984D01*
X8686849Y-14541460D02*
X8639230Y-14684317D01*
X8639230Y-14684317D02*
X8763039Y-14684317D01*
X8991611Y-14750984D02*
X8991611Y-14550984D01*
X9077325Y-14750984D02*
X9077325Y-14646222D01*
X9077325Y-14646222D02*
X9067801Y-14627174D01*
X9067801Y-14627174D02*
X9048753Y-14617650D01*
X9048753Y-14617650D02*
X9020182Y-14617650D01*
X9020182Y-14617650D02*
X9001134Y-14627174D01*
X9001134Y-14627174D02*
X8991611Y-14636698D01*
X9201134Y-14750984D02*
X9182087Y-14741460D01*
X9182087Y-14741460D02*
X9172563Y-14731936D01*
X9172563Y-14731936D02*
X9163039Y-14712888D01*
X9163039Y-14712888D02*
X9163039Y-14655746D01*
X9163039Y-14655746D02*
X9172563Y-14636698D01*
X9172563Y-14636698D02*
X9182087Y-14627174D01*
X9182087Y-14627174D02*
X9201134Y-14617650D01*
X9201134Y-14617650D02*
X9229706Y-14617650D01*
X9229706Y-14617650D02*
X9248753Y-14627174D01*
X9248753Y-14627174D02*
X9258277Y-14636698D01*
X9258277Y-14636698D02*
X9267801Y-14655746D01*
X9267801Y-14655746D02*
X9267801Y-14712888D01*
X9267801Y-14712888D02*
X9258277Y-14731936D01*
X9258277Y-14731936D02*
X9248753Y-14741460D01*
X9248753Y-14741460D02*
X9229706Y-14750984D01*
X9229706Y-14750984D02*
X9201134Y-14750984D01*
X9382087Y-14750984D02*
X9363039Y-14741460D01*
X9363039Y-14741460D02*
X9353515Y-14722412D01*
X9353515Y-14722412D02*
X9353515Y-14550984D01*
X9534468Y-14741460D02*
X9515420Y-14750984D01*
X9515420Y-14750984D02*
X9477325Y-14750984D01*
X9477325Y-14750984D02*
X9458277Y-14741460D01*
X9458277Y-14741460D02*
X9448753Y-14722412D01*
X9448753Y-14722412D02*
X9448753Y-14646222D01*
X9448753Y-14646222D02*
X9458277Y-14627174D01*
X9458277Y-14627174D02*
X9477325Y-14617650D01*
X9477325Y-14617650D02*
X9515420Y-14617650D01*
X9515420Y-14617650D02*
X9534468Y-14627174D01*
X9534468Y-14627174D02*
X9543992Y-14646222D01*
X9543992Y-14646222D02*
X9543992Y-14665269D01*
X9543992Y-14665269D02*
X9448753Y-14684317D01*
X9620182Y-14741460D02*
X9639230Y-14750984D01*
X9639230Y-14750984D02*
X9677325Y-14750984D01*
X9677325Y-14750984D02*
X9696373Y-14741460D01*
X9696373Y-14741460D02*
X9705896Y-14722412D01*
X9705896Y-14722412D02*
X9705896Y-14712888D01*
X9705896Y-14712888D02*
X9696373Y-14693841D01*
X9696373Y-14693841D02*
X9677325Y-14684317D01*
X9677325Y-14684317D02*
X9648753Y-14684317D01*
X9648753Y-14684317D02*
X9629706Y-14674793D01*
X9629706Y-14674793D02*
X9620182Y-14655746D01*
X9620182Y-14655746D02*
X9620182Y-14646222D01*
X9620182Y-14646222D02*
X9629706Y-14627174D01*
X9629706Y-14627174D02*
X9648753Y-14617650D01*
X9648753Y-14617650D02*
X9677325Y-14617650D01*
X9677325Y-14617650D02*
X9696373Y-14627174D01*
X9772563Y-14827174D02*
X9782087Y-14817650D01*
X9782087Y-14817650D02*
X9801134Y-14789079D01*
X9801134Y-14789079D02*
X9810658Y-14770031D01*
X9810658Y-14770031D02*
X9820182Y-14741460D01*
X9820182Y-14741460D02*
X9829706Y-14693841D01*
X9829706Y-14693841D02*
X9829706Y-14655746D01*
X9829706Y-14655746D02*
X9820182Y-14608127D01*
X9820182Y-14608127D02*
X9810658Y-14579555D01*
X9810658Y-14579555D02*
X9801134Y-14560508D01*
X9801134Y-14560508D02*
X9782087Y-14531936D01*
X9782087Y-14531936D02*
X9772563Y-14522412D01*
X10134468Y-14827174D02*
X10124944Y-14817650D01*
X10124944Y-14817650D02*
X10105896Y-14789079D01*
X10105896Y-14789079D02*
X10096373Y-14770031D01*
X10096373Y-14770031D02*
X10086849Y-14741460D01*
X10086849Y-14741460D02*
X10077325Y-14693841D01*
X10077325Y-14693841D02*
X10077325Y-14655746D01*
X10077325Y-14655746D02*
X10086849Y-14608127D01*
X10086849Y-14608127D02*
X10096373Y-14579555D01*
X10096373Y-14579555D02*
X10105896Y-14560508D01*
X10105896Y-14560508D02*
X10124944Y-14531936D01*
X10124944Y-14531936D02*
X10134468Y-14522412D01*
X10210658Y-14617650D02*
X10210658Y-14750984D01*
X10210658Y-14636698D02*
X10220182Y-14627174D01*
X10220182Y-14627174D02*
X10239230Y-14617650D01*
X10239230Y-14617650D02*
X10267801Y-14617650D01*
X10267801Y-14617650D02*
X10286849Y-14627174D01*
X10286849Y-14627174D02*
X10296373Y-14646222D01*
X10296373Y-14646222D02*
X10296373Y-14750984D01*
X10420182Y-14750984D02*
X10401134Y-14741460D01*
X10401134Y-14741460D02*
X10391611Y-14731936D01*
X10391611Y-14731936D02*
X10382087Y-14712888D01*
X10382087Y-14712888D02*
X10382087Y-14655746D01*
X10382087Y-14655746D02*
X10391611Y-14636698D01*
X10391611Y-14636698D02*
X10401134Y-14627174D01*
X10401134Y-14627174D02*
X10420182Y-14617650D01*
X10420182Y-14617650D02*
X10448754Y-14617650D01*
X10448754Y-14617650D02*
X10467801Y-14627174D01*
X10467801Y-14627174D02*
X10477325Y-14636698D01*
X10477325Y-14636698D02*
X10486849Y-14655746D01*
X10486849Y-14655746D02*
X10486849Y-14712888D01*
X10486849Y-14712888D02*
X10477325Y-14731936D01*
X10477325Y-14731936D02*
X10467801Y-14741460D01*
X10467801Y-14741460D02*
X10448754Y-14750984D01*
X10448754Y-14750984D02*
X10420182Y-14750984D01*
X10543992Y-14617650D02*
X10620182Y-14617650D01*
X10572563Y-14550984D02*
X10572563Y-14722412D01*
X10572563Y-14722412D02*
X10582087Y-14741460D01*
X10582087Y-14741460D02*
X10601134Y-14750984D01*
X10601134Y-14750984D02*
X10620182Y-14750984D01*
X10839230Y-14617650D02*
X10839230Y-14817650D01*
X10839230Y-14627174D02*
X10858277Y-14617650D01*
X10858277Y-14617650D02*
X10896373Y-14617650D01*
X10896373Y-14617650D02*
X10915420Y-14627174D01*
X10915420Y-14627174D02*
X10924944Y-14636698D01*
X10924944Y-14636698D02*
X10934468Y-14655746D01*
X10934468Y-14655746D02*
X10934468Y-14712888D01*
X10934468Y-14712888D02*
X10924944Y-14731936D01*
X10924944Y-14731936D02*
X10915420Y-14741460D01*
X10915420Y-14741460D02*
X10896373Y-14750984D01*
X10896373Y-14750984D02*
X10858277Y-14750984D01*
X10858277Y-14750984D02*
X10839230Y-14741460D01*
X11048754Y-14750984D02*
X11029706Y-14741460D01*
X11029706Y-14741460D02*
X11020182Y-14722412D01*
X11020182Y-14722412D02*
X11020182Y-14550984D01*
X11210658Y-14750984D02*
X11210658Y-14646222D01*
X11210658Y-14646222D02*
X11201134Y-14627174D01*
X11201134Y-14627174D02*
X11182087Y-14617650D01*
X11182087Y-14617650D02*
X11143992Y-14617650D01*
X11143992Y-14617650D02*
X11124944Y-14627174D01*
X11210658Y-14741460D02*
X11191611Y-14750984D01*
X11191611Y-14750984D02*
X11143992Y-14750984D01*
X11143992Y-14750984D02*
X11124944Y-14741460D01*
X11124944Y-14741460D02*
X11115420Y-14722412D01*
X11115420Y-14722412D02*
X11115420Y-14703365D01*
X11115420Y-14703365D02*
X11124944Y-14684317D01*
X11124944Y-14684317D02*
X11143992Y-14674793D01*
X11143992Y-14674793D02*
X11191611Y-14674793D01*
X11191611Y-14674793D02*
X11210658Y-14665269D01*
X11277325Y-14617650D02*
X11353515Y-14617650D01*
X11305896Y-14550984D02*
X11305896Y-14722412D01*
X11305896Y-14722412D02*
X11315420Y-14741460D01*
X11315420Y-14741460D02*
X11334468Y-14750984D01*
X11334468Y-14750984D02*
X11353515Y-14750984D01*
X11496373Y-14741460D02*
X11477325Y-14750984D01*
X11477325Y-14750984D02*
X11439230Y-14750984D01*
X11439230Y-14750984D02*
X11420182Y-14741460D01*
X11420182Y-14741460D02*
X11410658Y-14722412D01*
X11410658Y-14722412D02*
X11410658Y-14646222D01*
X11410658Y-14646222D02*
X11420182Y-14627174D01*
X11420182Y-14627174D02*
X11439230Y-14617650D01*
X11439230Y-14617650D02*
X11477325Y-14617650D01*
X11477325Y-14617650D02*
X11496373Y-14627174D01*
X11496373Y-14627174D02*
X11505896Y-14646222D01*
X11505896Y-14646222D02*
X11505896Y-14665269D01*
X11505896Y-14665269D02*
X11410658Y-14684317D01*
X11677325Y-14750984D02*
X11677325Y-14550984D01*
X11677325Y-14741460D02*
X11658277Y-14750984D01*
X11658277Y-14750984D02*
X11620182Y-14750984D01*
X11620182Y-14750984D02*
X11601134Y-14741460D01*
X11601134Y-14741460D02*
X11591611Y-14731936D01*
X11591611Y-14731936D02*
X11582087Y-14712888D01*
X11582087Y-14712888D02*
X11582087Y-14655746D01*
X11582087Y-14655746D02*
X11591611Y-14636698D01*
X11591611Y-14636698D02*
X11601134Y-14627174D01*
X11601134Y-14627174D02*
X11620182Y-14617650D01*
X11620182Y-14617650D02*
X11658277Y-14617650D01*
X11658277Y-14617650D02*
X11677325Y-14627174D01*
X11753515Y-14827174D02*
X11763039Y-14817650D01*
X11763039Y-14817650D02*
X11782087Y-14789079D01*
X11782087Y-14789079D02*
X11791611Y-14770031D01*
X11791611Y-14770031D02*
X11801134Y-14741460D01*
X11801134Y-14741460D02*
X11810658Y-14693841D01*
X11810658Y-14693841D02*
X11810658Y-14655746D01*
X11810658Y-14655746D02*
X11801134Y-14608127D01*
X11801134Y-14608127D02*
X11791611Y-14579555D01*
X11791611Y-14579555D02*
X11782087Y-14560508D01*
X11782087Y-14560508D02*
X11763039Y-14531936D01*
X11763039Y-14531936D02*
X11753515Y-14522412D01*
X4997500Y-14979500D02*
G75*
G02*
X4797500Y-14979500I-100000J0D01*
G01*
X4797500Y-14979500D02*
G75*
G02*
X4997500Y-14979500I100000J0D01*
G01*
X5239229Y-14870984D02*
X5363039Y-14870984D01*
X5363039Y-14870984D02*
X5296372Y-14947174D01*
X5296372Y-14947174D02*
X5324944Y-14947174D01*
X5324944Y-14947174D02*
X5343991Y-14956698D01*
X5343991Y-14956698D02*
X5353515Y-14966222D01*
X5353515Y-14966222D02*
X5363039Y-14985269D01*
X5363039Y-14985269D02*
X5363039Y-15032888D01*
X5363039Y-15032888D02*
X5353515Y-15051936D01*
X5353515Y-15051936D02*
X5343991Y-15061460D01*
X5343991Y-15061460D02*
X5324944Y-15070984D01*
X5324944Y-15070984D02*
X5267801Y-15070984D01*
X5267801Y-15070984D02*
X5248753Y-15061460D01*
X5248753Y-15061460D02*
X5239229Y-15051936D01*
X5448753Y-15051936D02*
X5458277Y-15061460D01*
X5458277Y-15061460D02*
X5448753Y-15070984D01*
X5448753Y-15070984D02*
X5439229Y-15061460D01*
X5439229Y-15061460D02*
X5448753Y-15051936D01*
X5448753Y-15051936D02*
X5448753Y-15070984D01*
X5534467Y-14890031D02*
X5543991Y-14880508D01*
X5543991Y-14880508D02*
X5563039Y-14870984D01*
X5563039Y-14870984D02*
X5610658Y-14870984D01*
X5610658Y-14870984D02*
X5629705Y-14880508D01*
X5629705Y-14880508D02*
X5639229Y-14890031D01*
X5639229Y-14890031D02*
X5648753Y-14909079D01*
X5648753Y-14909079D02*
X5648753Y-14928127D01*
X5648753Y-14928127D02*
X5639229Y-14956698D01*
X5639229Y-14956698D02*
X5524944Y-15070984D01*
X5524944Y-15070984D02*
X5648753Y-15070984D01*
X5829705Y-14870984D02*
X5734467Y-14870984D01*
X5734467Y-14870984D02*
X5724943Y-14966222D01*
X5724943Y-14966222D02*
X5734467Y-14956698D01*
X5734467Y-14956698D02*
X5753515Y-14947174D01*
X5753515Y-14947174D02*
X5801134Y-14947174D01*
X5801134Y-14947174D02*
X5820182Y-14956698D01*
X5820182Y-14956698D02*
X5829705Y-14966222D01*
X5829705Y-14966222D02*
X5839229Y-14985269D01*
X5839229Y-14985269D02*
X5839229Y-15032888D01*
X5839229Y-15032888D02*
X5829705Y-15051936D01*
X5829705Y-15051936D02*
X5820182Y-15061460D01*
X5820182Y-15061460D02*
X5801134Y-15070984D01*
X5801134Y-15070984D02*
X5753515Y-15070984D01*
X5753515Y-15070984D02*
X5734467Y-15061460D01*
X5734467Y-15061460D02*
X5724943Y-15051936D01*
X5963039Y-14870984D02*
X5982086Y-14870984D01*
X5982086Y-14870984D02*
X6001134Y-14880508D01*
X6001134Y-14880508D02*
X6010658Y-14890031D01*
X6010658Y-14890031D02*
X6020182Y-14909079D01*
X6020182Y-14909079D02*
X6029705Y-14947174D01*
X6029705Y-14947174D02*
X6029705Y-14994793D01*
X6029705Y-14994793D02*
X6020182Y-15032888D01*
X6020182Y-15032888D02*
X6010658Y-15051936D01*
X6010658Y-15051936D02*
X6001134Y-15061460D01*
X6001134Y-15061460D02*
X5982086Y-15070984D01*
X5982086Y-15070984D02*
X5963039Y-15070984D01*
X5963039Y-15070984D02*
X5943991Y-15061460D01*
X5943991Y-15061460D02*
X5934467Y-15051936D01*
X5934467Y-15051936D02*
X5924943Y-15032888D01*
X5924943Y-15032888D02*
X5915420Y-14994793D01*
X5915420Y-14994793D02*
X5915420Y-14947174D01*
X5915420Y-14947174D02*
X5924943Y-14909079D01*
X5924943Y-14909079D02*
X5934467Y-14890031D01*
X5934467Y-14890031D02*
X5943991Y-14880508D01*
X5943991Y-14880508D02*
X5963039Y-14870984D01*
X6115420Y-15070984D02*
X6115420Y-14937650D01*
X6115420Y-14956698D02*
X6124943Y-14947174D01*
X6124943Y-14947174D02*
X6143991Y-14937650D01*
X6143991Y-14937650D02*
X6172563Y-14937650D01*
X6172563Y-14937650D02*
X6191610Y-14947174D01*
X6191610Y-14947174D02*
X6201134Y-14966222D01*
X6201134Y-14966222D02*
X6201134Y-15070984D01*
X6201134Y-14966222D02*
X6210658Y-14947174D01*
X6210658Y-14947174D02*
X6229705Y-14937650D01*
X6229705Y-14937650D02*
X6258277Y-14937650D01*
X6258277Y-14937650D02*
X6277324Y-14947174D01*
X6277324Y-14947174D02*
X6286848Y-14966222D01*
X6286848Y-14966222D02*
X6286848Y-15070984D01*
X6382086Y-15070984D02*
X6382086Y-14937650D01*
X6382086Y-14956698D02*
X6391610Y-14947174D01*
X6391610Y-14947174D02*
X6410658Y-14937650D01*
X6410658Y-14937650D02*
X6439229Y-14937650D01*
X6439229Y-14937650D02*
X6458277Y-14947174D01*
X6458277Y-14947174D02*
X6467801Y-14966222D01*
X6467801Y-14966222D02*
X6467801Y-15070984D01*
X6467801Y-14966222D02*
X6477324Y-14947174D01*
X6477324Y-14947174D02*
X6496372Y-14937650D01*
X6496372Y-14937650D02*
X6524943Y-14937650D01*
X6524943Y-14937650D02*
X6543991Y-14947174D01*
X6543991Y-14947174D02*
X6553515Y-14966222D01*
X6553515Y-14966222D02*
X6553515Y-15070984D01*
X6943991Y-14861460D02*
X6772563Y-15118603D01*
X7201134Y-14870984D02*
X7220182Y-14870984D01*
X7220182Y-14870984D02*
X7239229Y-14880508D01*
X7239229Y-14880508D02*
X7248753Y-14890031D01*
X7248753Y-14890031D02*
X7258277Y-14909079D01*
X7258277Y-14909079D02*
X7267801Y-14947174D01*
X7267801Y-14947174D02*
X7267801Y-14994793D01*
X7267801Y-14994793D02*
X7258277Y-15032888D01*
X7258277Y-15032888D02*
X7248753Y-15051936D01*
X7248753Y-15051936D02*
X7239229Y-15061460D01*
X7239229Y-15061460D02*
X7220182Y-15070984D01*
X7220182Y-15070984D02*
X7201134Y-15070984D01*
X7201134Y-15070984D02*
X7182086Y-15061460D01*
X7182086Y-15061460D02*
X7172563Y-15051936D01*
X7172563Y-15051936D02*
X7163039Y-15032888D01*
X7163039Y-15032888D02*
X7153515Y-14994793D01*
X7153515Y-14994793D02*
X7153515Y-14947174D01*
X7153515Y-14947174D02*
X7163039Y-14909079D01*
X7163039Y-14909079D02*
X7172563Y-14890031D01*
X7172563Y-14890031D02*
X7182086Y-14880508D01*
X7182086Y-14880508D02*
X7201134Y-14870984D01*
X7353515Y-15051936D02*
X7363039Y-15061460D01*
X7363039Y-15061460D02*
X7353515Y-15070984D01*
X7353515Y-15070984D02*
X7343991Y-15061460D01*
X7343991Y-15061460D02*
X7353515Y-15051936D01*
X7353515Y-15051936D02*
X7353515Y-15070984D01*
X7553515Y-15070984D02*
X7439229Y-15070984D01*
X7496372Y-15070984D02*
X7496372Y-14870984D01*
X7496372Y-14870984D02*
X7477325Y-14899555D01*
X7477325Y-14899555D02*
X7458277Y-14918603D01*
X7458277Y-14918603D02*
X7439229Y-14928127D01*
X7629706Y-14890031D02*
X7639229Y-14880508D01*
X7639229Y-14880508D02*
X7658277Y-14870984D01*
X7658277Y-14870984D02*
X7705896Y-14870984D01*
X7705896Y-14870984D02*
X7724944Y-14880508D01*
X7724944Y-14880508D02*
X7734467Y-14890031D01*
X7734467Y-14890031D02*
X7743991Y-14909079D01*
X7743991Y-14909079D02*
X7743991Y-14928127D01*
X7743991Y-14928127D02*
X7734467Y-14956698D01*
X7734467Y-14956698D02*
X7620182Y-15070984D01*
X7620182Y-15070984D02*
X7743991Y-15070984D01*
X7858277Y-14956698D02*
X7839229Y-14947174D01*
X7839229Y-14947174D02*
X7829706Y-14937650D01*
X7829706Y-14937650D02*
X7820182Y-14918603D01*
X7820182Y-14918603D02*
X7820182Y-14909079D01*
X7820182Y-14909079D02*
X7829706Y-14890031D01*
X7829706Y-14890031D02*
X7839229Y-14880508D01*
X7839229Y-14880508D02*
X7858277Y-14870984D01*
X7858277Y-14870984D02*
X7896372Y-14870984D01*
X7896372Y-14870984D02*
X7915420Y-14880508D01*
X7915420Y-14880508D02*
X7924944Y-14890031D01*
X7924944Y-14890031D02*
X7934467Y-14909079D01*
X7934467Y-14909079D02*
X7934467Y-14918603D01*
X7934467Y-14918603D02*
X7924944Y-14937650D01*
X7924944Y-14937650D02*
X7915420Y-14947174D01*
X7915420Y-14947174D02*
X7896372Y-14956698D01*
X7896372Y-14956698D02*
X7858277Y-14956698D01*
X7858277Y-14956698D02*
X7839229Y-14966222D01*
X7839229Y-14966222D02*
X7829706Y-14975746D01*
X7829706Y-14975746D02*
X7820182Y-14994793D01*
X7820182Y-14994793D02*
X7820182Y-15032888D01*
X7820182Y-15032888D02*
X7829706Y-15051936D01*
X7829706Y-15051936D02*
X7839229Y-15061460D01*
X7839229Y-15061460D02*
X7858277Y-15070984D01*
X7858277Y-15070984D02*
X7896372Y-15070984D01*
X7896372Y-15070984D02*
X7915420Y-15061460D01*
X7915420Y-15061460D02*
X7924944Y-15051936D01*
X7924944Y-15051936D02*
X7934467Y-15032888D01*
X7934467Y-15032888D02*
X7934467Y-14994793D01*
X7934467Y-14994793D02*
X7924944Y-14975746D01*
X7924944Y-14975746D02*
X7915420Y-14966222D01*
X7915420Y-14966222D02*
X7896372Y-14956698D01*
X8058277Y-14870984D02*
X8077325Y-14870984D01*
X8077325Y-14870984D02*
X8096372Y-14880508D01*
X8096372Y-14880508D02*
X8105896Y-14890031D01*
X8105896Y-14890031D02*
X8115420Y-14909079D01*
X8115420Y-14909079D02*
X8124944Y-14947174D01*
X8124944Y-14947174D02*
X8124944Y-14994793D01*
X8124944Y-14994793D02*
X8115420Y-15032888D01*
X8115420Y-15032888D02*
X8105896Y-15051936D01*
X8105896Y-15051936D02*
X8096372Y-15061460D01*
X8096372Y-15061460D02*
X8077325Y-15070984D01*
X8077325Y-15070984D02*
X8058277Y-15070984D01*
X8058277Y-15070984D02*
X8039229Y-15061460D01*
X8039229Y-15061460D02*
X8029706Y-15051936D01*
X8029706Y-15051936D02*
X8020182Y-15032888D01*
X8020182Y-15032888D02*
X8010658Y-14994793D01*
X8010658Y-14994793D02*
X8010658Y-14947174D01*
X8010658Y-14947174D02*
X8020182Y-14909079D01*
X8020182Y-14909079D02*
X8029706Y-14890031D01*
X8029706Y-14890031D02*
X8039229Y-14880508D01*
X8039229Y-14880508D02*
X8058277Y-14870984D01*
X8201134Y-14870984D02*
X8201134Y-14909079D01*
X8277325Y-14870984D02*
X8277325Y-14909079D01*
X8572563Y-15147174D02*
X8563039Y-15137650D01*
X8563039Y-15137650D02*
X8543991Y-15109079D01*
X8543991Y-15109079D02*
X8534468Y-15090031D01*
X8534468Y-15090031D02*
X8524944Y-15061460D01*
X8524944Y-15061460D02*
X8515420Y-15013841D01*
X8515420Y-15013841D02*
X8515420Y-14975746D01*
X8515420Y-14975746D02*
X8524944Y-14928127D01*
X8524944Y-14928127D02*
X8534468Y-14899555D01*
X8534468Y-14899555D02*
X8543991Y-14880508D01*
X8543991Y-14880508D02*
X8563039Y-14851936D01*
X8563039Y-14851936D02*
X8572563Y-14842412D01*
X8639230Y-14890031D02*
X8648753Y-14880508D01*
X8648753Y-14880508D02*
X8667801Y-14870984D01*
X8667801Y-14870984D02*
X8715420Y-14870984D01*
X8715420Y-14870984D02*
X8734468Y-14880508D01*
X8734468Y-14880508D02*
X8743991Y-14890031D01*
X8743991Y-14890031D02*
X8753515Y-14909079D01*
X8753515Y-14909079D02*
X8753515Y-14928127D01*
X8753515Y-14928127D02*
X8743991Y-14956698D01*
X8743991Y-14956698D02*
X8629706Y-15070984D01*
X8629706Y-15070984D02*
X8753515Y-15070984D01*
X8991611Y-15070984D02*
X8991611Y-14870984D01*
X9077325Y-15070984D02*
X9077325Y-14966222D01*
X9077325Y-14966222D02*
X9067801Y-14947174D01*
X9067801Y-14947174D02*
X9048753Y-14937650D01*
X9048753Y-14937650D02*
X9020182Y-14937650D01*
X9020182Y-14937650D02*
X9001134Y-14947174D01*
X9001134Y-14947174D02*
X8991611Y-14956698D01*
X9201134Y-15070984D02*
X9182087Y-15061460D01*
X9182087Y-15061460D02*
X9172563Y-15051936D01*
X9172563Y-15051936D02*
X9163039Y-15032888D01*
X9163039Y-15032888D02*
X9163039Y-14975746D01*
X9163039Y-14975746D02*
X9172563Y-14956698D01*
X9172563Y-14956698D02*
X9182087Y-14947174D01*
X9182087Y-14947174D02*
X9201134Y-14937650D01*
X9201134Y-14937650D02*
X9229706Y-14937650D01*
X9229706Y-14937650D02*
X9248753Y-14947174D01*
X9248753Y-14947174D02*
X9258277Y-14956698D01*
X9258277Y-14956698D02*
X9267801Y-14975746D01*
X9267801Y-14975746D02*
X9267801Y-15032888D01*
X9267801Y-15032888D02*
X9258277Y-15051936D01*
X9258277Y-15051936D02*
X9248753Y-15061460D01*
X9248753Y-15061460D02*
X9229706Y-15070984D01*
X9229706Y-15070984D02*
X9201134Y-15070984D01*
X9382087Y-15070984D02*
X9363039Y-15061460D01*
X9363039Y-15061460D02*
X9353515Y-15042412D01*
X9353515Y-15042412D02*
X9353515Y-14870984D01*
X9534468Y-15061460D02*
X9515420Y-15070984D01*
X9515420Y-15070984D02*
X9477325Y-15070984D01*
X9477325Y-15070984D02*
X9458277Y-15061460D01*
X9458277Y-15061460D02*
X9448753Y-15042412D01*
X9448753Y-15042412D02*
X9448753Y-14966222D01*
X9448753Y-14966222D02*
X9458277Y-14947174D01*
X9458277Y-14947174D02*
X9477325Y-14937650D01*
X9477325Y-14937650D02*
X9515420Y-14937650D01*
X9515420Y-14937650D02*
X9534468Y-14947174D01*
X9534468Y-14947174D02*
X9543992Y-14966222D01*
X9543992Y-14966222D02*
X9543992Y-14985269D01*
X9543992Y-14985269D02*
X9448753Y-15004317D01*
X9620182Y-15061460D02*
X9639230Y-15070984D01*
X9639230Y-15070984D02*
X9677325Y-15070984D01*
X9677325Y-15070984D02*
X9696373Y-15061460D01*
X9696373Y-15061460D02*
X9705896Y-15042412D01*
X9705896Y-15042412D02*
X9705896Y-15032888D01*
X9705896Y-15032888D02*
X9696373Y-15013841D01*
X9696373Y-15013841D02*
X9677325Y-15004317D01*
X9677325Y-15004317D02*
X9648753Y-15004317D01*
X9648753Y-15004317D02*
X9629706Y-14994793D01*
X9629706Y-14994793D02*
X9620182Y-14975746D01*
X9620182Y-14975746D02*
X9620182Y-14966222D01*
X9620182Y-14966222D02*
X9629706Y-14947174D01*
X9629706Y-14947174D02*
X9648753Y-14937650D01*
X9648753Y-14937650D02*
X9677325Y-14937650D01*
X9677325Y-14937650D02*
X9696373Y-14947174D01*
X9772563Y-15147174D02*
X9782087Y-15137650D01*
X9782087Y-15137650D02*
X9801134Y-15109079D01*
X9801134Y-15109079D02*
X9810658Y-15090031D01*
X9810658Y-15090031D02*
X9820182Y-15061460D01*
X9820182Y-15061460D02*
X9829706Y-15013841D01*
X9829706Y-15013841D02*
X9829706Y-14975746D01*
X9829706Y-14975746D02*
X9820182Y-14928127D01*
X9820182Y-14928127D02*
X9810658Y-14899555D01*
X9810658Y-14899555D02*
X9801134Y-14880508D01*
X9801134Y-14880508D02*
X9782087Y-14851936D01*
X9782087Y-14851936D02*
X9772563Y-14842412D01*
X10134468Y-15147174D02*
X10124944Y-15137650D01*
X10124944Y-15137650D02*
X10105896Y-15109079D01*
X10105896Y-15109079D02*
X10096373Y-15090031D01*
X10096373Y-15090031D02*
X10086849Y-15061460D01*
X10086849Y-15061460D02*
X10077325Y-15013841D01*
X10077325Y-15013841D02*
X10077325Y-14975746D01*
X10077325Y-14975746D02*
X10086849Y-14928127D01*
X10086849Y-14928127D02*
X10096373Y-14899555D01*
X10096373Y-14899555D02*
X10105896Y-14880508D01*
X10105896Y-14880508D02*
X10124944Y-14851936D01*
X10124944Y-14851936D02*
X10134468Y-14842412D01*
X10210658Y-14937650D02*
X10210658Y-15070984D01*
X10210658Y-14956698D02*
X10220182Y-14947174D01*
X10220182Y-14947174D02*
X10239230Y-14937650D01*
X10239230Y-14937650D02*
X10267801Y-14937650D01*
X10267801Y-14937650D02*
X10286849Y-14947174D01*
X10286849Y-14947174D02*
X10296373Y-14966222D01*
X10296373Y-14966222D02*
X10296373Y-15070984D01*
X10420182Y-15070984D02*
X10401134Y-15061460D01*
X10401134Y-15061460D02*
X10391611Y-15051936D01*
X10391611Y-15051936D02*
X10382087Y-15032888D01*
X10382087Y-15032888D02*
X10382087Y-14975746D01*
X10382087Y-14975746D02*
X10391611Y-14956698D01*
X10391611Y-14956698D02*
X10401134Y-14947174D01*
X10401134Y-14947174D02*
X10420182Y-14937650D01*
X10420182Y-14937650D02*
X10448754Y-14937650D01*
X10448754Y-14937650D02*
X10467801Y-14947174D01*
X10467801Y-14947174D02*
X10477325Y-14956698D01*
X10477325Y-14956698D02*
X10486849Y-14975746D01*
X10486849Y-14975746D02*
X10486849Y-15032888D01*
X10486849Y-15032888D02*
X10477325Y-15051936D01*
X10477325Y-15051936D02*
X10467801Y-15061460D01*
X10467801Y-15061460D02*
X10448754Y-15070984D01*
X10448754Y-15070984D02*
X10420182Y-15070984D01*
X10543992Y-14937650D02*
X10620182Y-14937650D01*
X10572563Y-14870984D02*
X10572563Y-15042412D01*
X10572563Y-15042412D02*
X10582087Y-15061460D01*
X10582087Y-15061460D02*
X10601134Y-15070984D01*
X10601134Y-15070984D02*
X10620182Y-15070984D01*
X10839230Y-14937650D02*
X10839230Y-15137650D01*
X10839230Y-14947174D02*
X10858277Y-14937650D01*
X10858277Y-14937650D02*
X10896373Y-14937650D01*
X10896373Y-14937650D02*
X10915420Y-14947174D01*
X10915420Y-14947174D02*
X10924944Y-14956698D01*
X10924944Y-14956698D02*
X10934468Y-14975746D01*
X10934468Y-14975746D02*
X10934468Y-15032888D01*
X10934468Y-15032888D02*
X10924944Y-15051936D01*
X10924944Y-15051936D02*
X10915420Y-15061460D01*
X10915420Y-15061460D02*
X10896373Y-15070984D01*
X10896373Y-15070984D02*
X10858277Y-15070984D01*
X10858277Y-15070984D02*
X10839230Y-15061460D01*
X11048754Y-15070984D02*
X11029706Y-15061460D01*
X11029706Y-15061460D02*
X11020182Y-15042412D01*
X11020182Y-15042412D02*
X11020182Y-14870984D01*
X11210658Y-15070984D02*
X11210658Y-14966222D01*
X11210658Y-14966222D02*
X11201134Y-14947174D01*
X11201134Y-14947174D02*
X11182087Y-14937650D01*
X11182087Y-14937650D02*
X11143992Y-14937650D01*
X11143992Y-14937650D02*
X11124944Y-14947174D01*
X11210658Y-15061460D02*
X11191611Y-15070984D01*
X11191611Y-15070984D02*
X11143992Y-15070984D01*
X11143992Y-15070984D02*
X11124944Y-15061460D01*
X11124944Y-15061460D02*
X11115420Y-15042412D01*
X11115420Y-15042412D02*
X11115420Y-15023365D01*
X11115420Y-15023365D02*
X11124944Y-15004317D01*
X11124944Y-15004317D02*
X11143992Y-14994793D01*
X11143992Y-14994793D02*
X11191611Y-14994793D01*
X11191611Y-14994793D02*
X11210658Y-14985269D01*
X11277325Y-14937650D02*
X11353515Y-14937650D01*
X11305896Y-14870984D02*
X11305896Y-15042412D01*
X11305896Y-15042412D02*
X11315420Y-15061460D01*
X11315420Y-15061460D02*
X11334468Y-15070984D01*
X11334468Y-15070984D02*
X11353515Y-15070984D01*
X11496373Y-15061460D02*
X11477325Y-15070984D01*
X11477325Y-15070984D02*
X11439230Y-15070984D01*
X11439230Y-15070984D02*
X11420182Y-15061460D01*
X11420182Y-15061460D02*
X11410658Y-15042412D01*
X11410658Y-15042412D02*
X11410658Y-14966222D01*
X11410658Y-14966222D02*
X11420182Y-14947174D01*
X11420182Y-14947174D02*
X11439230Y-14937650D01*
X11439230Y-14937650D02*
X11477325Y-14937650D01*
X11477325Y-14937650D02*
X11496373Y-14947174D01*
X11496373Y-14947174D02*
X11505896Y-14966222D01*
X11505896Y-14966222D02*
X11505896Y-14985269D01*
X11505896Y-14985269D02*
X11410658Y-15004317D01*
X11677325Y-15070984D02*
X11677325Y-14870984D01*
X11677325Y-15061460D02*
X11658277Y-15070984D01*
X11658277Y-15070984D02*
X11620182Y-15070984D01*
X11620182Y-15070984D02*
X11601134Y-15061460D01*
X11601134Y-15061460D02*
X11591611Y-15051936D01*
X11591611Y-15051936D02*
X11582087Y-15032888D01*
X11582087Y-15032888D02*
X11582087Y-14975746D01*
X11582087Y-14975746D02*
X11591611Y-14956698D01*
X11591611Y-14956698D02*
X11601134Y-14947174D01*
X11601134Y-14947174D02*
X11620182Y-14937650D01*
X11620182Y-14937650D02*
X11658277Y-14937650D01*
X11658277Y-14937650D02*
X11677325Y-14947174D01*
X11753515Y-15147174D02*
X11763039Y-15137650D01*
X11763039Y-15137650D02*
X11782087Y-15109079D01*
X11782087Y-15109079D02*
X11791611Y-15090031D01*
X11791611Y-15090031D02*
X11801134Y-15061460D01*
X11801134Y-15061460D02*
X11810658Y-15013841D01*
X11810658Y-15013841D02*
X11810658Y-14975746D01*
X11810658Y-14975746D02*
X11801134Y-14928127D01*
X11801134Y-14928127D02*
X11791611Y-14899555D01*
X11791611Y-14899555D02*
X11782087Y-14880508D01*
X11782087Y-14880508D02*
X11763039Y-14851936D01*
X11763039Y-14851936D02*
X11753515Y-14842412D01*
M02*
