%TF.GenerationSoftware,KiCad,Pcbnew,8.0.5*%
%TF.CreationDate,2025-04-09T01:02:25+01:00*%
%TF.ProjectId,OBC2,4f424332-2e6b-4696-9361-645f70636258,A*%
%TF.SameCoordinates,Original*%
%TF.FileFunction,Legend,Bot*%
%TF.FilePolarity,Positive*%
%FSLAX46Y46*%
G04 Gerber Fmt 4.6, Leading zero omitted, Abs format (unit mm)*
G04 Created by KiCad (PCBNEW 8.0.5) date 2025-04-09 01:02:25*
%MOMM*%
%LPD*%
G01*
G04 APERTURE LIST*
G04 Aperture macros list*
%AMRoundRect*
0 Rectangle with rounded corners*
0 $1 Rounding radius*
0 $2 $3 $4 $5 $6 $7 $8 $9 X,Y pos of 4 corners*
0 Add a 4 corners polygon primitive as box body*
4,1,4,$2,$3,$4,$5,$6,$7,$8,$9,$2,$3,0*
0 Add four circle primitives for the rounded corners*
1,1,$1+$1,$2,$3*
1,1,$1+$1,$4,$5*
1,1,$1+$1,$6,$7*
1,1,$1+$1,$8,$9*
0 Add four rect primitives between the rounded corners*
20,1,$1+$1,$2,$3,$4,$5,0*
20,1,$1+$1,$4,$5,$6,$7,0*
20,1,$1+$1,$6,$7,$8,$9,0*
20,1,$1+$1,$8,$9,$2,$3,0*%
G04 Aperture macros list end*
%ADD10C,0.300000*%
%ADD11C,0.200000*%
%ADD12C,0.600000*%
%ADD13C,0.400000*%
%ADD14C,0.500000*%
%ADD15C,1.000000*%
%ADD16R,2.400000X2.400000*%
%ADD17C,2.400000*%
%ADD18C,2.000000*%
%ADD19C,3.600000*%
%ADD20C,6.400000*%
%ADD21R,1.600000X1.600000*%
%ADD22C,1.600000*%
%ADD23O,1.350000X1.350000*%
%ADD24R,1.350000X1.350000*%
%ADD25C,4.000000*%
%ADD26R,1.500000X2.300000*%
%ADD27O,1.500000X2.300000*%
%ADD28C,3.250000*%
%ADD29RoundRect,0.248000X-0.552000X-0.552000X0.552000X-0.552000X0.552000X0.552000X-0.552000X0.552000X0*%
%ADD30C,2.200000*%
%ADD31R,1.800000X1.800000*%
%ADD32C,1.800000*%
%ADD33C,3.000000*%
%ADD34C,1.400000*%
%ADD35O,1.500000X1.050000*%
%ADD36R,1.500000X1.050000*%
%ADD37C,0.600000*%
G04 APERTURE END LIST*
D10*
G36*
X135528328Y-99368514D02*
G01*
X135475794Y-99526116D01*
X135375188Y-99626721D01*
X135268828Y-99679902D01*
X135017007Y-99742857D01*
X134839649Y-99742857D01*
X134587827Y-99679901D01*
X134481468Y-99626722D01*
X134380861Y-99526115D01*
X134328328Y-99368516D01*
X134328328Y-99185714D01*
X135528328Y-99185714D01*
X135528328Y-99368514D01*
G37*
G36*
X135387354Y-97599729D02*
G01*
X135483621Y-97695996D01*
X135528328Y-97785409D01*
X135528328Y-98000304D01*
X135483621Y-98089716D01*
X135387354Y-98185983D01*
X135159863Y-98242857D01*
X134696792Y-98242857D01*
X134469301Y-98185983D01*
X134373035Y-98089717D01*
X134328328Y-98000303D01*
X134328328Y-97785410D01*
X134373035Y-97695996D01*
X134469302Y-97599729D01*
X134696792Y-97542857D01*
X135159864Y-97542857D01*
X135387354Y-97599729D01*
G37*
G36*
X135387354Y-92028300D02*
G01*
X135483621Y-92124567D01*
X135528328Y-92213980D01*
X135528328Y-92428875D01*
X135483621Y-92518287D01*
X135387354Y-92614554D01*
X135159863Y-92671428D01*
X134696792Y-92671428D01*
X134469301Y-92614554D01*
X134373035Y-92518288D01*
X134328328Y-92428874D01*
X134328328Y-92213981D01*
X134373035Y-92124567D01*
X134469302Y-92028300D01*
X134696792Y-91971428D01*
X135159864Y-91971428D01*
X135387354Y-92028300D01*
G37*
G36*
X135387354Y-90456871D02*
G01*
X135483621Y-90553138D01*
X135528328Y-90642551D01*
X135528328Y-90857446D01*
X135483621Y-90946858D01*
X135387354Y-91043125D01*
X135159863Y-91099999D01*
X134696792Y-91099999D01*
X134469301Y-91043125D01*
X134373035Y-90946859D01*
X134328328Y-90857445D01*
X134328328Y-90642552D01*
X134373035Y-90553138D01*
X134469302Y-90456871D01*
X134696792Y-90399999D01*
X135159864Y-90399999D01*
X135387354Y-90456871D01*
G37*
G36*
X135528328Y-89357446D02*
G01*
X135483621Y-89446859D01*
X135446616Y-89483864D01*
X135357204Y-89528570D01*
X135213738Y-89528570D01*
X135124324Y-89483863D01*
X135095147Y-89454686D01*
X135042614Y-89297084D01*
X135042614Y-88971427D01*
X135528328Y-88971427D01*
X135528328Y-89357446D01*
G37*
G36*
X134742614Y-89286017D02*
G01*
X134697907Y-89375431D01*
X134660903Y-89412434D01*
X134571490Y-89457142D01*
X134499452Y-89457142D01*
X134410039Y-89412435D01*
X134373035Y-89375431D01*
X134328328Y-89286017D01*
X134328328Y-88971427D01*
X134742614Y-88971427D01*
X134742614Y-89286017D01*
G37*
G36*
X135994995Y-101563785D02*
G01*
X133861661Y-101563785D01*
X133861661Y-100535714D01*
X134028328Y-100535714D01*
X134028328Y-101250000D01*
X134031210Y-101279264D01*
X134053608Y-101333336D01*
X134094992Y-101374720D01*
X134149064Y-101397118D01*
X134207592Y-101397118D01*
X134261664Y-101374720D01*
X134303048Y-101333336D01*
X134325446Y-101279264D01*
X134328328Y-101250000D01*
X134328328Y-100685714D01*
X134742614Y-100685714D01*
X134742614Y-101035714D01*
X134745496Y-101064978D01*
X134767894Y-101119050D01*
X134809278Y-101160434D01*
X134863350Y-101182832D01*
X134921878Y-101182832D01*
X134975950Y-101160434D01*
X135017334Y-101119050D01*
X135039732Y-101064978D01*
X135042614Y-101035714D01*
X135042614Y-100685714D01*
X135528328Y-100685714D01*
X135528328Y-101250000D01*
X135531210Y-101279264D01*
X135553608Y-101333336D01*
X135594992Y-101374720D01*
X135649064Y-101397118D01*
X135707592Y-101397118D01*
X135761664Y-101374720D01*
X135803048Y-101333336D01*
X135825446Y-101279264D01*
X135828328Y-101250000D01*
X135828328Y-100535714D01*
X135825446Y-100506450D01*
X135803048Y-100452378D01*
X135761664Y-100410994D01*
X135707592Y-100388596D01*
X135678328Y-100385714D01*
X134178328Y-100385714D01*
X134149064Y-100388596D01*
X134094992Y-100410994D01*
X134053608Y-100452378D01*
X134031210Y-100506450D01*
X134028328Y-100535714D01*
X133861661Y-100535714D01*
X133861661Y-99035714D01*
X134028328Y-99035714D01*
X134028328Y-99392857D01*
X134029786Y-99407668D01*
X134029506Y-99411618D01*
X134030687Y-99416812D01*
X134031210Y-99422121D01*
X134032727Y-99425783D01*
X134036026Y-99440291D01*
X134107454Y-99654577D01*
X134119443Y-99681428D01*
X134122973Y-99685498D01*
X134125036Y-99690478D01*
X134143691Y-99713209D01*
X134286548Y-99856066D01*
X134298050Y-99865506D01*
X134300646Y-99868499D01*
X134305155Y-99871337D01*
X134309278Y-99874721D01*
X134312940Y-99876237D01*
X134325532Y-99884164D01*
X134468388Y-99955593D01*
X134470530Y-99956412D01*
X134471400Y-99957057D01*
X134483671Y-99961441D01*
X134495852Y-99966102D01*
X134496932Y-99966178D01*
X134499091Y-99966950D01*
X134784805Y-100038378D01*
X134789876Y-100039127D01*
X134791921Y-100039975D01*
X134802943Y-100041060D01*
X134813894Y-100042680D01*
X134816081Y-100042354D01*
X134821185Y-100042857D01*
X135035471Y-100042857D01*
X135040574Y-100042354D01*
X135042762Y-100042680D01*
X135053712Y-100041060D01*
X135064735Y-100039975D01*
X135066779Y-100039127D01*
X135071851Y-100038378D01*
X135357565Y-99966950D01*
X135359723Y-99966178D01*
X135360804Y-99966102D01*
X135372978Y-99961443D01*
X135385256Y-99957057D01*
X135386126Y-99956412D01*
X135388267Y-99955593D01*
X135531124Y-99884164D01*
X135543717Y-99876236D01*
X135547377Y-99874721D01*
X135551496Y-99871339D01*
X135556010Y-99868499D01*
X135558606Y-99865505D01*
X135570108Y-99856066D01*
X135712966Y-99713209D01*
X135731621Y-99690479D01*
X135733683Y-99685499D01*
X135737215Y-99681428D01*
X135749203Y-99654577D01*
X135820631Y-99440291D01*
X135823930Y-99425778D01*
X135825446Y-99422121D01*
X135825968Y-99416818D01*
X135827151Y-99411617D01*
X135826869Y-99407662D01*
X135828328Y-99392857D01*
X135828328Y-99035714D01*
X135825446Y-99006450D01*
X135803048Y-98952378D01*
X135761664Y-98910994D01*
X135707592Y-98888596D01*
X135678328Y-98885714D01*
X134178328Y-98885714D01*
X134149064Y-98888596D01*
X134094992Y-98910994D01*
X134053608Y-98952378D01*
X134031210Y-99006450D01*
X134028328Y-99035714D01*
X133861661Y-99035714D01*
X133861661Y-97750000D01*
X134028328Y-97750000D01*
X134028328Y-98035714D01*
X134031210Y-98064978D01*
X134033273Y-98069958D01*
X134033655Y-98075333D01*
X134044164Y-98102796D01*
X134115593Y-98245653D01*
X134123520Y-98258246D01*
X134125036Y-98261906D01*
X134128417Y-98266025D01*
X134131258Y-98270539D01*
X134134251Y-98273135D01*
X134143691Y-98284637D01*
X134286548Y-98427494D01*
X134309278Y-98446149D01*
X134319581Y-98450416D01*
X134328542Y-98457056D01*
X134356233Y-98466949D01*
X134641947Y-98538378D01*
X134647019Y-98539128D01*
X134649064Y-98539975D01*
X134660083Y-98541060D01*
X134671036Y-98542680D01*
X134673224Y-98542354D01*
X134678328Y-98542857D01*
X135178328Y-98542857D01*
X135183431Y-98542354D01*
X135185619Y-98542680D01*
X135196570Y-98541060D01*
X135207592Y-98539975D01*
X135209636Y-98539128D01*
X135214709Y-98538378D01*
X135500422Y-98466949D01*
X135528113Y-98457056D01*
X135537073Y-98450416D01*
X135547377Y-98446149D01*
X135570108Y-98427494D01*
X135712966Y-98284637D01*
X135722409Y-98273130D01*
X135725399Y-98270538D01*
X135728235Y-98266032D01*
X135731621Y-98261907D01*
X135733138Y-98258243D01*
X135741064Y-98245653D01*
X135812492Y-98102795D01*
X135823002Y-98075332D01*
X135823383Y-98069956D01*
X135825446Y-98064978D01*
X135828328Y-98035714D01*
X135828328Y-97750000D01*
X135825446Y-97720736D01*
X135823383Y-97715757D01*
X135823002Y-97710382D01*
X135812492Y-97682919D01*
X135741064Y-97540061D01*
X135733137Y-97527469D01*
X135731621Y-97523808D01*
X135728237Y-97519685D01*
X135725399Y-97515176D01*
X135722407Y-97512581D01*
X135712966Y-97501077D01*
X135570108Y-97358219D01*
X135547377Y-97339564D01*
X135537073Y-97335296D01*
X135528113Y-97328657D01*
X135500422Y-97318764D01*
X135214708Y-97247336D01*
X135209636Y-97246586D01*
X135207592Y-97245739D01*
X135196569Y-97244653D01*
X135185619Y-97243034D01*
X135183431Y-97243359D01*
X135178328Y-97242857D01*
X134678328Y-97242857D01*
X134673224Y-97243359D01*
X134671037Y-97243034D01*
X134660086Y-97244653D01*
X134649064Y-97245739D01*
X134647019Y-97246586D01*
X134641948Y-97247336D01*
X134356234Y-97318764D01*
X134328543Y-97328657D01*
X134319583Y-97335295D01*
X134309278Y-97339564D01*
X134286548Y-97358219D01*
X134143691Y-97501077D01*
X134134251Y-97512578D01*
X134131258Y-97515175D01*
X134128417Y-97519688D01*
X134125036Y-97523808D01*
X134123520Y-97527467D01*
X134115593Y-97540061D01*
X134044164Y-97682918D01*
X134033655Y-97710381D01*
X134033273Y-97715755D01*
X134031210Y-97720736D01*
X134028328Y-97750000D01*
X133861661Y-97750000D01*
X133861661Y-95772774D01*
X134030067Y-95772774D01*
X134031210Y-95775917D01*
X134031210Y-95779263D01*
X134041171Y-95803311D01*
X134050068Y-95827777D01*
X134052327Y-95830244D01*
X134053608Y-95833335D01*
X134072005Y-95851732D01*
X134089595Y-95870940D01*
X134093563Y-95873290D01*
X134094992Y-95874719D01*
X134098260Y-95876072D01*
X134114895Y-95885926D01*
X134895050Y-96249999D01*
X134114895Y-96614072D01*
X134098260Y-96623925D01*
X134094992Y-96625279D01*
X134093563Y-96626707D01*
X134089595Y-96629058D01*
X134072005Y-96648265D01*
X134053608Y-96666663D01*
X134052327Y-96669753D01*
X134050068Y-96672221D01*
X134041171Y-96696686D01*
X134031210Y-96720735D01*
X134031210Y-96724080D01*
X134030067Y-96727224D01*
X134031210Y-96753228D01*
X134031210Y-96779263D01*
X134032490Y-96782353D01*
X134032637Y-96785694D01*
X134043647Y-96809289D01*
X134053608Y-96833335D01*
X134055971Y-96835698D01*
X134057387Y-96838732D01*
X134076594Y-96856321D01*
X134094992Y-96874719D01*
X134098082Y-96875999D01*
X134100550Y-96878259D01*
X134125015Y-96887155D01*
X134149064Y-96897117D01*
X134153652Y-96897568D01*
X134155553Y-96898260D01*
X134159091Y-96898104D01*
X134178328Y-96899999D01*
X135678328Y-96899999D01*
X135707592Y-96897117D01*
X135761664Y-96874719D01*
X135803048Y-96833335D01*
X135825446Y-96779263D01*
X135825446Y-96720735D01*
X135803048Y-96666663D01*
X135761664Y-96625279D01*
X135707592Y-96602881D01*
X135678328Y-96599999D01*
X134854462Y-96599999D01*
X135313190Y-96385926D01*
X135323903Y-96379579D01*
X135327535Y-96378259D01*
X135330103Y-96375907D01*
X135338490Y-96370939D01*
X135353880Y-96354133D01*
X135370698Y-96338732D01*
X135373518Y-96332688D01*
X135378017Y-96327776D01*
X135385803Y-96306364D01*
X135395449Y-96285695D01*
X135395741Y-96279033D01*
X135398018Y-96272774D01*
X135397017Y-96249999D01*
X135398018Y-96227224D01*
X135395741Y-96220964D01*
X135395449Y-96214303D01*
X135385803Y-96193633D01*
X135378017Y-96172222D01*
X135373518Y-96167309D01*
X135370698Y-96161266D01*
X135353880Y-96145864D01*
X135338490Y-96129059D01*
X135330103Y-96124090D01*
X135327535Y-96121739D01*
X135323903Y-96120418D01*
X135313190Y-96114072D01*
X134854462Y-95899999D01*
X135678328Y-95899999D01*
X135707592Y-95897117D01*
X135761664Y-95874719D01*
X135803048Y-95833335D01*
X135825446Y-95779263D01*
X135825446Y-95720735D01*
X135803048Y-95666663D01*
X135761664Y-95625279D01*
X135707592Y-95602881D01*
X135678328Y-95599999D01*
X134178328Y-95599999D01*
X134159091Y-95601893D01*
X134155553Y-95601738D01*
X134153652Y-95602429D01*
X134149064Y-95602881D01*
X134125015Y-95612842D01*
X134100550Y-95621739D01*
X134098082Y-95623998D01*
X134094992Y-95625279D01*
X134076594Y-95643676D01*
X134057387Y-95661266D01*
X134055971Y-95664299D01*
X134053608Y-95666663D01*
X134043647Y-95690708D01*
X134032637Y-95714304D01*
X134032490Y-95717644D01*
X134031210Y-95720735D01*
X134031210Y-95746769D01*
X134030067Y-95772774D01*
X133861661Y-95772774D01*
X133861661Y-93250000D01*
X134028328Y-93250000D01*
X134028328Y-94107143D01*
X134031210Y-94136407D01*
X134053608Y-94190479D01*
X134094992Y-94231863D01*
X134149064Y-94254261D01*
X134207592Y-94254261D01*
X134261664Y-94231863D01*
X134303048Y-94190479D01*
X134325446Y-94136407D01*
X134328328Y-94107143D01*
X134328328Y-93828571D01*
X135678328Y-93828571D01*
X135707592Y-93825689D01*
X135761664Y-93803291D01*
X135803048Y-93761907D01*
X135825446Y-93707835D01*
X135825446Y-93649307D01*
X135803048Y-93595235D01*
X135761664Y-93553851D01*
X135707592Y-93531453D01*
X135678328Y-93528571D01*
X134328328Y-93528571D01*
X134328328Y-93250000D01*
X134325446Y-93220736D01*
X134303048Y-93166664D01*
X134261664Y-93125280D01*
X134207592Y-93102882D01*
X134149064Y-93102882D01*
X134094992Y-93125280D01*
X134053608Y-93166664D01*
X134031210Y-93220736D01*
X134028328Y-93250000D01*
X133861661Y-93250000D01*
X133861661Y-92178571D01*
X134028328Y-92178571D01*
X134028328Y-92464285D01*
X134031210Y-92493549D01*
X134033273Y-92498529D01*
X134033655Y-92503904D01*
X134044164Y-92531367D01*
X134115593Y-92674224D01*
X134123520Y-92686817D01*
X134125036Y-92690477D01*
X134128417Y-92694596D01*
X134131258Y-92699110D01*
X134134251Y-92701706D01*
X134143691Y-92713208D01*
X134286548Y-92856065D01*
X134309278Y-92874720D01*
X134319581Y-92878987D01*
X134328542Y-92885627D01*
X134356233Y-92895520D01*
X134641947Y-92966949D01*
X134647019Y-92967699D01*
X134649064Y-92968546D01*
X134660083Y-92969631D01*
X134671036Y-92971251D01*
X134673224Y-92970925D01*
X134678328Y-92971428D01*
X135178328Y-92971428D01*
X135183431Y-92970925D01*
X135185619Y-92971251D01*
X135196570Y-92969631D01*
X135207592Y-92968546D01*
X135209636Y-92967699D01*
X135214709Y-92966949D01*
X135500422Y-92895520D01*
X135528113Y-92885627D01*
X135537073Y-92878987D01*
X135547377Y-92874720D01*
X135570108Y-92856065D01*
X135712966Y-92713208D01*
X135722409Y-92701701D01*
X135725399Y-92699109D01*
X135728235Y-92694603D01*
X135731621Y-92690478D01*
X135733138Y-92686814D01*
X135741064Y-92674224D01*
X135812492Y-92531366D01*
X135823002Y-92503903D01*
X135823383Y-92498527D01*
X135825446Y-92493549D01*
X135828328Y-92464285D01*
X135828328Y-92178571D01*
X135825446Y-92149307D01*
X135823383Y-92144328D01*
X135823002Y-92138953D01*
X135812492Y-92111490D01*
X135741064Y-91968632D01*
X135733137Y-91956040D01*
X135731621Y-91952379D01*
X135728237Y-91948256D01*
X135725399Y-91943747D01*
X135722407Y-91941152D01*
X135712966Y-91929648D01*
X135570108Y-91786790D01*
X135547377Y-91768135D01*
X135537073Y-91763867D01*
X135528113Y-91757228D01*
X135500422Y-91747335D01*
X135214708Y-91675907D01*
X135209636Y-91675157D01*
X135207592Y-91674310D01*
X135196569Y-91673224D01*
X135185619Y-91671605D01*
X135183431Y-91671930D01*
X135178328Y-91671428D01*
X134678328Y-91671428D01*
X134673224Y-91671930D01*
X134671037Y-91671605D01*
X134660086Y-91673224D01*
X134649064Y-91674310D01*
X134647019Y-91675157D01*
X134641948Y-91675907D01*
X134356234Y-91747335D01*
X134328543Y-91757228D01*
X134319583Y-91763866D01*
X134309278Y-91768135D01*
X134286548Y-91786790D01*
X134143691Y-91929648D01*
X134134251Y-91941149D01*
X134131258Y-91943746D01*
X134128417Y-91948259D01*
X134125036Y-91952379D01*
X134123520Y-91956038D01*
X134115593Y-91968632D01*
X134044164Y-92111489D01*
X134033655Y-92138952D01*
X134033273Y-92144326D01*
X134031210Y-92149307D01*
X134028328Y-92178571D01*
X133861661Y-92178571D01*
X133861661Y-90607142D01*
X134028328Y-90607142D01*
X134028328Y-90892856D01*
X134031210Y-90922120D01*
X134033273Y-90927100D01*
X134033655Y-90932475D01*
X134044164Y-90959938D01*
X134115593Y-91102795D01*
X134123520Y-91115388D01*
X134125036Y-91119048D01*
X134128417Y-91123167D01*
X134131258Y-91127681D01*
X134134251Y-91130277D01*
X134143691Y-91141779D01*
X134286548Y-91284636D01*
X134309278Y-91303291D01*
X134319581Y-91307558D01*
X134328542Y-91314198D01*
X134356233Y-91324091D01*
X134641947Y-91395520D01*
X134647019Y-91396270D01*
X134649064Y-91397117D01*
X134660083Y-91398202D01*
X134671036Y-91399822D01*
X134673224Y-91399496D01*
X134678328Y-91399999D01*
X135178328Y-91399999D01*
X135183431Y-91399496D01*
X135185619Y-91399822D01*
X135196570Y-91398202D01*
X135207592Y-91397117D01*
X135209636Y-91396270D01*
X135214709Y-91395520D01*
X135500422Y-91324091D01*
X135528113Y-91314198D01*
X135537073Y-91307558D01*
X135547377Y-91303291D01*
X135570108Y-91284636D01*
X135712966Y-91141779D01*
X135722409Y-91130272D01*
X135725399Y-91127680D01*
X135728235Y-91123174D01*
X135731621Y-91119049D01*
X135733138Y-91115385D01*
X135741064Y-91102795D01*
X135812492Y-90959937D01*
X135823002Y-90932474D01*
X135823383Y-90927098D01*
X135825446Y-90922120D01*
X135828328Y-90892856D01*
X135828328Y-90607142D01*
X135825446Y-90577878D01*
X135823383Y-90572899D01*
X135823002Y-90567524D01*
X135812492Y-90540061D01*
X135741064Y-90397203D01*
X135733137Y-90384611D01*
X135731621Y-90380950D01*
X135728237Y-90376827D01*
X135725399Y-90372318D01*
X135722407Y-90369723D01*
X135712966Y-90358219D01*
X135570108Y-90215361D01*
X135547377Y-90196706D01*
X135537073Y-90192438D01*
X135528113Y-90185799D01*
X135500422Y-90175906D01*
X135214708Y-90104478D01*
X135209636Y-90103728D01*
X135207592Y-90102881D01*
X135196569Y-90101795D01*
X135185619Y-90100176D01*
X135183431Y-90100501D01*
X135178328Y-90099999D01*
X134678328Y-90099999D01*
X134673224Y-90100501D01*
X134671037Y-90100176D01*
X134660086Y-90101795D01*
X134649064Y-90102881D01*
X134647019Y-90103728D01*
X134641948Y-90104478D01*
X134356234Y-90175906D01*
X134328543Y-90185799D01*
X134319583Y-90192437D01*
X134309278Y-90196706D01*
X134286548Y-90215361D01*
X134143691Y-90358219D01*
X134134251Y-90369720D01*
X134131258Y-90372317D01*
X134128417Y-90376830D01*
X134125036Y-90380950D01*
X134123520Y-90384609D01*
X134115593Y-90397203D01*
X134044164Y-90540060D01*
X134033655Y-90567523D01*
X134033273Y-90572897D01*
X134031210Y-90577878D01*
X134028328Y-90607142D01*
X133861661Y-90607142D01*
X133861661Y-88821427D01*
X134028328Y-88821427D01*
X134028328Y-89321427D01*
X134031210Y-89350691D01*
X134033271Y-89355668D01*
X134033654Y-89361046D01*
X134044164Y-89388509D01*
X134115593Y-89531367D01*
X134123520Y-89543960D01*
X134125036Y-89547620D01*
X134128417Y-89551739D01*
X134131258Y-89556253D01*
X134134251Y-89558849D01*
X134143691Y-89570351D01*
X134215119Y-89641779D01*
X134226621Y-89651219D01*
X134229217Y-89654212D01*
X134233726Y-89657050D01*
X134237849Y-89660434D01*
X134241511Y-89661950D01*
X134254103Y-89669877D01*
X134396959Y-89741306D01*
X134424423Y-89751815D01*
X134429797Y-89752196D01*
X134434778Y-89754260D01*
X134464042Y-89757142D01*
X134606900Y-89757142D01*
X134636164Y-89754260D01*
X134641144Y-89752196D01*
X134646519Y-89751815D01*
X134673982Y-89741306D01*
X134816839Y-89669877D01*
X134829432Y-89661949D01*
X134833092Y-89660434D01*
X134837211Y-89657052D01*
X134841725Y-89654212D01*
X134844321Y-89651218D01*
X134855823Y-89641779D01*
X134857005Y-89640596D01*
X134857976Y-89641779D01*
X134929405Y-89713208D01*
X134940909Y-89722649D01*
X134943504Y-89725641D01*
X134948013Y-89728479D01*
X134952136Y-89731863D01*
X134955797Y-89733379D01*
X134968389Y-89741306D01*
X135111247Y-89812734D01*
X135138710Y-89823244D01*
X135144085Y-89823625D01*
X135149064Y-89825688D01*
X135178328Y-89828570D01*
X135392614Y-89828570D01*
X135421878Y-89825688D01*
X135426856Y-89823625D01*
X135432232Y-89823244D01*
X135459696Y-89812734D01*
X135602553Y-89741306D01*
X135615146Y-89733378D01*
X135618806Y-89731863D01*
X135622925Y-89728481D01*
X135627439Y-89725641D01*
X135630035Y-89722647D01*
X135641537Y-89713208D01*
X135712966Y-89641779D01*
X135722407Y-89630274D01*
X135725399Y-89627680D01*
X135728237Y-89623170D01*
X135731621Y-89619048D01*
X135733137Y-89615386D01*
X135741064Y-89602795D01*
X135812492Y-89459937D01*
X135823002Y-89432474D01*
X135823383Y-89427098D01*
X135825446Y-89422120D01*
X135828328Y-89392856D01*
X135828328Y-88821427D01*
X135825446Y-88792163D01*
X135803048Y-88738091D01*
X135761664Y-88696707D01*
X135707592Y-88674309D01*
X135678328Y-88671427D01*
X134178328Y-88671427D01*
X134149064Y-88674309D01*
X134094992Y-88696707D01*
X134053608Y-88738091D01*
X134031210Y-88792163D01*
X134028328Y-88821427D01*
X133861661Y-88821427D01*
X133861661Y-88504760D01*
X135994995Y-88504760D01*
X135994995Y-101563785D01*
G37*
D11*
X129988720Y-101819600D02*
X129774435Y-101914838D01*
X129774435Y-101914838D02*
X129417292Y-101914838D01*
X129417292Y-101914838D02*
X129274435Y-101819600D01*
X129274435Y-101819600D02*
X129203006Y-101724361D01*
X129203006Y-101724361D02*
X129131577Y-101533885D01*
X129131577Y-101533885D02*
X129131577Y-101343409D01*
X129131577Y-101343409D02*
X129203006Y-101152933D01*
X129203006Y-101152933D02*
X129274435Y-101057695D01*
X129274435Y-101057695D02*
X129417292Y-100962457D01*
X129417292Y-100962457D02*
X129703006Y-100867219D01*
X129703006Y-100867219D02*
X129845863Y-100771980D01*
X129845863Y-100771980D02*
X129917292Y-100676742D01*
X129917292Y-100676742D02*
X129988720Y-100486266D01*
X129988720Y-100486266D02*
X129988720Y-100295790D01*
X129988720Y-100295790D02*
X129917292Y-100105314D01*
X129917292Y-100105314D02*
X129845863Y-100010076D01*
X129845863Y-100010076D02*
X129703006Y-99914838D01*
X129703006Y-99914838D02*
X129345863Y-99914838D01*
X129345863Y-99914838D02*
X129131577Y-100010076D01*
X128703006Y-100581504D02*
X128131578Y-100581504D01*
X128488721Y-99914838D02*
X128488721Y-101629123D01*
X128488721Y-101629123D02*
X128417292Y-101819600D01*
X128417292Y-101819600D02*
X128274435Y-101914838D01*
X128274435Y-101914838D02*
X128131578Y-101914838D01*
X126988721Y-101914838D02*
X126988721Y-100867219D01*
X126988721Y-100867219D02*
X127060149Y-100676742D01*
X127060149Y-100676742D02*
X127203006Y-100581504D01*
X127203006Y-100581504D02*
X127488721Y-100581504D01*
X127488721Y-100581504D02*
X127631578Y-100676742D01*
X126988721Y-101819600D02*
X127131578Y-101914838D01*
X127131578Y-101914838D02*
X127488721Y-101914838D01*
X127488721Y-101914838D02*
X127631578Y-101819600D01*
X127631578Y-101819600D02*
X127703006Y-101629123D01*
X127703006Y-101629123D02*
X127703006Y-101438647D01*
X127703006Y-101438647D02*
X127631578Y-101248171D01*
X127631578Y-101248171D02*
X127488721Y-101152933D01*
X127488721Y-101152933D02*
X127131578Y-101152933D01*
X127131578Y-101152933D02*
X126988721Y-101057695D01*
X126488720Y-100581504D02*
X125917292Y-100581504D01*
X126274435Y-99914838D02*
X126274435Y-101629123D01*
X126274435Y-101629123D02*
X126203006Y-101819600D01*
X126203006Y-101819600D02*
X126060149Y-101914838D01*
X126060149Y-101914838D02*
X125917292Y-101914838D01*
X125417292Y-101914838D02*
X125417292Y-100581504D01*
X125417292Y-99914838D02*
X125488720Y-100010076D01*
X125488720Y-100010076D02*
X125417292Y-100105314D01*
X125417292Y-100105314D02*
X125345863Y-100010076D01*
X125345863Y-100010076D02*
X125417292Y-99914838D01*
X125417292Y-99914838D02*
X125417292Y-100105314D01*
X124060149Y-101819600D02*
X124203006Y-101914838D01*
X124203006Y-101914838D02*
X124488720Y-101914838D01*
X124488720Y-101914838D02*
X124631577Y-101819600D01*
X124631577Y-101819600D02*
X124703006Y-101724361D01*
X124703006Y-101724361D02*
X124774434Y-101533885D01*
X124774434Y-101533885D02*
X124774434Y-100962457D01*
X124774434Y-100962457D02*
X124703006Y-100771980D01*
X124703006Y-100771980D02*
X124631577Y-100676742D01*
X124631577Y-100676742D02*
X124488720Y-100581504D01*
X124488720Y-100581504D02*
X124203006Y-100581504D01*
X124203006Y-100581504D02*
X124060149Y-100676742D01*
X121417292Y-101914838D02*
X121917292Y-100962457D01*
X122274435Y-101914838D02*
X122274435Y-99914838D01*
X122274435Y-99914838D02*
X121703006Y-99914838D01*
X121703006Y-99914838D02*
X121560149Y-100010076D01*
X121560149Y-100010076D02*
X121488720Y-100105314D01*
X121488720Y-100105314D02*
X121417292Y-100295790D01*
X121417292Y-100295790D02*
X121417292Y-100581504D01*
X121417292Y-100581504D02*
X121488720Y-100771980D01*
X121488720Y-100771980D02*
X121560149Y-100867219D01*
X121560149Y-100867219D02*
X121703006Y-100962457D01*
X121703006Y-100962457D02*
X122274435Y-100962457D01*
X120845863Y-101343409D02*
X120131578Y-101343409D01*
X120988720Y-101914838D02*
X120488720Y-99914838D01*
X120488720Y-99914838D02*
X119988720Y-101914838D01*
X119488721Y-101914838D02*
X119488721Y-99914838D01*
X119488721Y-99914838D02*
X118988721Y-101343409D01*
X118988721Y-101343409D02*
X118488721Y-99914838D01*
X118488721Y-99914838D02*
X118488721Y-101914838D01*
X129417292Y-96867219D02*
X129203006Y-96962457D01*
X129203006Y-96962457D02*
X129131577Y-97057695D01*
X129131577Y-97057695D02*
X129060149Y-97248171D01*
X129060149Y-97248171D02*
X129060149Y-97533885D01*
X129060149Y-97533885D02*
X129131577Y-97724361D01*
X129131577Y-97724361D02*
X129203006Y-97819600D01*
X129203006Y-97819600D02*
X129345863Y-97914838D01*
X129345863Y-97914838D02*
X129917292Y-97914838D01*
X129917292Y-97914838D02*
X129917292Y-95914838D01*
X129917292Y-95914838D02*
X129417292Y-95914838D01*
X129417292Y-95914838D02*
X129274435Y-96010076D01*
X129274435Y-96010076D02*
X129203006Y-96105314D01*
X129203006Y-96105314D02*
X129131577Y-96295790D01*
X129131577Y-96295790D02*
X129131577Y-96486266D01*
X129131577Y-96486266D02*
X129203006Y-96676742D01*
X129203006Y-96676742D02*
X129274435Y-96771980D01*
X129274435Y-96771980D02*
X129417292Y-96867219D01*
X129417292Y-96867219D02*
X129917292Y-96867219D01*
X128203006Y-97914838D02*
X128345863Y-97819600D01*
X128345863Y-97819600D02*
X128417292Y-97724361D01*
X128417292Y-97724361D02*
X128488720Y-97533885D01*
X128488720Y-97533885D02*
X128488720Y-96962457D01*
X128488720Y-96962457D02*
X128417292Y-96771980D01*
X128417292Y-96771980D02*
X128345863Y-96676742D01*
X128345863Y-96676742D02*
X128203006Y-96581504D01*
X128203006Y-96581504D02*
X127988720Y-96581504D01*
X127988720Y-96581504D02*
X127845863Y-96676742D01*
X127845863Y-96676742D02*
X127774435Y-96771980D01*
X127774435Y-96771980D02*
X127703006Y-96962457D01*
X127703006Y-96962457D02*
X127703006Y-97533885D01*
X127703006Y-97533885D02*
X127774435Y-97724361D01*
X127774435Y-97724361D02*
X127845863Y-97819600D01*
X127845863Y-97819600D02*
X127988720Y-97914838D01*
X127988720Y-97914838D02*
X128203006Y-97914838D01*
X126845863Y-97914838D02*
X126988720Y-97819600D01*
X126988720Y-97819600D02*
X127060149Y-97724361D01*
X127060149Y-97724361D02*
X127131577Y-97533885D01*
X127131577Y-97533885D02*
X127131577Y-96962457D01*
X127131577Y-96962457D02*
X127060149Y-96771980D01*
X127060149Y-96771980D02*
X126988720Y-96676742D01*
X126988720Y-96676742D02*
X126845863Y-96581504D01*
X126845863Y-96581504D02*
X126631577Y-96581504D01*
X126631577Y-96581504D02*
X126488720Y-96676742D01*
X126488720Y-96676742D02*
X126417292Y-96771980D01*
X126417292Y-96771980D02*
X126345863Y-96962457D01*
X126345863Y-96962457D02*
X126345863Y-97533885D01*
X126345863Y-97533885D02*
X126417292Y-97724361D01*
X126417292Y-97724361D02*
X126488720Y-97819600D01*
X126488720Y-97819600D02*
X126631577Y-97914838D01*
X126631577Y-97914838D02*
X126845863Y-97914838D01*
X125917291Y-96581504D02*
X125345863Y-96581504D01*
X125703006Y-95914838D02*
X125703006Y-97629123D01*
X125703006Y-97629123D02*
X125631577Y-97819600D01*
X125631577Y-97819600D02*
X125488720Y-97914838D01*
X125488720Y-97914838D02*
X125345863Y-97914838D01*
X124631577Y-97914838D02*
X124774434Y-97819600D01*
X124774434Y-97819600D02*
X124845863Y-97629123D01*
X124845863Y-97629123D02*
X124845863Y-95914838D01*
X123845863Y-97914838D02*
X123988720Y-97819600D01*
X123988720Y-97819600D02*
X124060149Y-97724361D01*
X124060149Y-97724361D02*
X124131577Y-97533885D01*
X124131577Y-97533885D02*
X124131577Y-96962457D01*
X124131577Y-96962457D02*
X124060149Y-96771980D01*
X124060149Y-96771980D02*
X123988720Y-96676742D01*
X123988720Y-96676742D02*
X123845863Y-96581504D01*
X123845863Y-96581504D02*
X123631577Y-96581504D01*
X123631577Y-96581504D02*
X123488720Y-96676742D01*
X123488720Y-96676742D02*
X123417292Y-96771980D01*
X123417292Y-96771980D02*
X123345863Y-96962457D01*
X123345863Y-96962457D02*
X123345863Y-97533885D01*
X123345863Y-97533885D02*
X123417292Y-97724361D01*
X123417292Y-97724361D02*
X123488720Y-97819600D01*
X123488720Y-97819600D02*
X123631577Y-97914838D01*
X123631577Y-97914838D02*
X123845863Y-97914838D01*
X122060149Y-97914838D02*
X122060149Y-96867219D01*
X122060149Y-96867219D02*
X122131577Y-96676742D01*
X122131577Y-96676742D02*
X122274434Y-96581504D01*
X122274434Y-96581504D02*
X122560149Y-96581504D01*
X122560149Y-96581504D02*
X122703006Y-96676742D01*
X122060149Y-97819600D02*
X122203006Y-97914838D01*
X122203006Y-97914838D02*
X122560149Y-97914838D01*
X122560149Y-97914838D02*
X122703006Y-97819600D01*
X122703006Y-97819600D02*
X122774434Y-97629123D01*
X122774434Y-97629123D02*
X122774434Y-97438647D01*
X122774434Y-97438647D02*
X122703006Y-97248171D01*
X122703006Y-97248171D02*
X122560149Y-97152933D01*
X122560149Y-97152933D02*
X122203006Y-97152933D01*
X122203006Y-97152933D02*
X122060149Y-97057695D01*
X120703006Y-97914838D02*
X120703006Y-95914838D01*
X120703006Y-97819600D02*
X120845863Y-97914838D01*
X120845863Y-97914838D02*
X121131577Y-97914838D01*
X121131577Y-97914838D02*
X121274434Y-97819600D01*
X121274434Y-97819600D02*
X121345863Y-97724361D01*
X121345863Y-97724361D02*
X121417291Y-97533885D01*
X121417291Y-97533885D02*
X121417291Y-96962457D01*
X121417291Y-96962457D02*
X121345863Y-96771980D01*
X121345863Y-96771980D02*
X121274434Y-96676742D01*
X121274434Y-96676742D02*
X121131577Y-96581504D01*
X121131577Y-96581504D02*
X120845863Y-96581504D01*
X120845863Y-96581504D02*
X120703006Y-96676742D01*
X119417291Y-97819600D02*
X119560148Y-97914838D01*
X119560148Y-97914838D02*
X119845863Y-97914838D01*
X119845863Y-97914838D02*
X119988720Y-97819600D01*
X119988720Y-97819600D02*
X120060148Y-97629123D01*
X120060148Y-97629123D02*
X120060148Y-96867219D01*
X120060148Y-96867219D02*
X119988720Y-96676742D01*
X119988720Y-96676742D02*
X119845863Y-96581504D01*
X119845863Y-96581504D02*
X119560148Y-96581504D01*
X119560148Y-96581504D02*
X119417291Y-96676742D01*
X119417291Y-96676742D02*
X119345863Y-96867219D01*
X119345863Y-96867219D02*
X119345863Y-97057695D01*
X119345863Y-97057695D02*
X120060148Y-97248171D01*
X118703006Y-97914838D02*
X118703006Y-96581504D01*
X118703006Y-96962457D02*
X118631577Y-96771980D01*
X118631577Y-96771980D02*
X118560149Y-96676742D01*
X118560149Y-96676742D02*
X118417291Y-96581504D01*
X118417291Y-96581504D02*
X118274434Y-96581504D01*
X129917292Y-91914838D02*
X129917292Y-93533885D01*
X129917292Y-93533885D02*
X129845863Y-93724361D01*
X129845863Y-93724361D02*
X129774435Y-93819600D01*
X129774435Y-93819600D02*
X129631577Y-93914838D01*
X129631577Y-93914838D02*
X129345863Y-93914838D01*
X129345863Y-93914838D02*
X129203006Y-93819600D01*
X129203006Y-93819600D02*
X129131577Y-93724361D01*
X129131577Y-93724361D02*
X129060149Y-93533885D01*
X129060149Y-93533885D02*
X129060149Y-91914838D01*
X128417291Y-93819600D02*
X128274434Y-93914838D01*
X128274434Y-93914838D02*
X127988720Y-93914838D01*
X127988720Y-93914838D02*
X127845863Y-93819600D01*
X127845863Y-93819600D02*
X127774434Y-93629123D01*
X127774434Y-93629123D02*
X127774434Y-93533885D01*
X127774434Y-93533885D02*
X127845863Y-93343409D01*
X127845863Y-93343409D02*
X127988720Y-93248171D01*
X127988720Y-93248171D02*
X128203006Y-93248171D01*
X128203006Y-93248171D02*
X128345863Y-93152933D01*
X128345863Y-93152933D02*
X128417291Y-92962457D01*
X128417291Y-92962457D02*
X128417291Y-92867219D01*
X128417291Y-92867219D02*
X128345863Y-92676742D01*
X128345863Y-92676742D02*
X128203006Y-92581504D01*
X128203006Y-92581504D02*
X127988720Y-92581504D01*
X127988720Y-92581504D02*
X127845863Y-92676742D01*
X126560148Y-93819600D02*
X126703005Y-93914838D01*
X126703005Y-93914838D02*
X126988720Y-93914838D01*
X126988720Y-93914838D02*
X127131577Y-93819600D01*
X127131577Y-93819600D02*
X127203005Y-93629123D01*
X127203005Y-93629123D02*
X127203005Y-92867219D01*
X127203005Y-92867219D02*
X127131577Y-92676742D01*
X127131577Y-92676742D02*
X126988720Y-92581504D01*
X126988720Y-92581504D02*
X126703005Y-92581504D01*
X126703005Y-92581504D02*
X126560148Y-92676742D01*
X126560148Y-92676742D02*
X126488720Y-92867219D01*
X126488720Y-92867219D02*
X126488720Y-93057695D01*
X126488720Y-93057695D02*
X127203005Y-93248171D01*
X125845863Y-93914838D02*
X125845863Y-92581504D01*
X125845863Y-92962457D02*
X125774434Y-92771980D01*
X125774434Y-92771980D02*
X125703006Y-92676742D01*
X125703006Y-92676742D02*
X125560148Y-92581504D01*
X125560148Y-92581504D02*
X125417291Y-92581504D01*
X123274435Y-92867219D02*
X123774435Y-92867219D01*
X123774435Y-93914838D02*
X123774435Y-91914838D01*
X123774435Y-91914838D02*
X123060149Y-91914838D01*
X122274435Y-93914838D02*
X122417292Y-93819600D01*
X122417292Y-93819600D02*
X122488721Y-93629123D01*
X122488721Y-93629123D02*
X122488721Y-91914838D01*
X121060150Y-93914838D02*
X121060150Y-92867219D01*
X121060150Y-92867219D02*
X121131578Y-92676742D01*
X121131578Y-92676742D02*
X121274435Y-92581504D01*
X121274435Y-92581504D02*
X121560150Y-92581504D01*
X121560150Y-92581504D02*
X121703007Y-92676742D01*
X121060150Y-93819600D02*
X121203007Y-93914838D01*
X121203007Y-93914838D02*
X121560150Y-93914838D01*
X121560150Y-93914838D02*
X121703007Y-93819600D01*
X121703007Y-93819600D02*
X121774435Y-93629123D01*
X121774435Y-93629123D02*
X121774435Y-93438647D01*
X121774435Y-93438647D02*
X121703007Y-93248171D01*
X121703007Y-93248171D02*
X121560150Y-93152933D01*
X121560150Y-93152933D02*
X121203007Y-93152933D01*
X121203007Y-93152933D02*
X121060150Y-93057695D01*
X120417292Y-93819600D02*
X120274435Y-93914838D01*
X120274435Y-93914838D02*
X119988721Y-93914838D01*
X119988721Y-93914838D02*
X119845864Y-93819600D01*
X119845864Y-93819600D02*
X119774435Y-93629123D01*
X119774435Y-93629123D02*
X119774435Y-93533885D01*
X119774435Y-93533885D02*
X119845864Y-93343409D01*
X119845864Y-93343409D02*
X119988721Y-93248171D01*
X119988721Y-93248171D02*
X120203007Y-93248171D01*
X120203007Y-93248171D02*
X120345864Y-93152933D01*
X120345864Y-93152933D02*
X120417292Y-92962457D01*
X120417292Y-92962457D02*
X120417292Y-92867219D01*
X120417292Y-92867219D02*
X120345864Y-92676742D01*
X120345864Y-92676742D02*
X120203007Y-92581504D01*
X120203007Y-92581504D02*
X119988721Y-92581504D01*
X119988721Y-92581504D02*
X119845864Y-92676742D01*
X119131578Y-93914838D02*
X119131578Y-91914838D01*
X118488721Y-93914838D02*
X118488721Y-92867219D01*
X118488721Y-92867219D02*
X118560149Y-92676742D01*
X118560149Y-92676742D02*
X118703006Y-92581504D01*
X118703006Y-92581504D02*
X118917292Y-92581504D01*
X118917292Y-92581504D02*
X119060149Y-92676742D01*
X119060149Y-92676742D02*
X119131578Y-92771980D01*
X129917292Y-87914838D02*
X129917292Y-89533885D01*
X129917292Y-89533885D02*
X129845863Y-89724361D01*
X129845863Y-89724361D02*
X129774435Y-89819600D01*
X129774435Y-89819600D02*
X129631577Y-89914838D01*
X129631577Y-89914838D02*
X129345863Y-89914838D01*
X129345863Y-89914838D02*
X129203006Y-89819600D01*
X129203006Y-89819600D02*
X129131577Y-89724361D01*
X129131577Y-89724361D02*
X129060149Y-89533885D01*
X129060149Y-89533885D02*
X129060149Y-87914838D01*
X128417291Y-89819600D02*
X128274434Y-89914838D01*
X128274434Y-89914838D02*
X127988720Y-89914838D01*
X127988720Y-89914838D02*
X127845863Y-89819600D01*
X127845863Y-89819600D02*
X127774434Y-89629123D01*
X127774434Y-89629123D02*
X127774434Y-89533885D01*
X127774434Y-89533885D02*
X127845863Y-89343409D01*
X127845863Y-89343409D02*
X127988720Y-89248171D01*
X127988720Y-89248171D02*
X128203006Y-89248171D01*
X128203006Y-89248171D02*
X128345863Y-89152933D01*
X128345863Y-89152933D02*
X128417291Y-88962457D01*
X128417291Y-88962457D02*
X128417291Y-88867219D01*
X128417291Y-88867219D02*
X128345863Y-88676742D01*
X128345863Y-88676742D02*
X128203006Y-88581504D01*
X128203006Y-88581504D02*
X127988720Y-88581504D01*
X127988720Y-88581504D02*
X127845863Y-88676742D01*
X126560148Y-89819600D02*
X126703005Y-89914838D01*
X126703005Y-89914838D02*
X126988720Y-89914838D01*
X126988720Y-89914838D02*
X127131577Y-89819600D01*
X127131577Y-89819600D02*
X127203005Y-89629123D01*
X127203005Y-89629123D02*
X127203005Y-88867219D01*
X127203005Y-88867219D02*
X127131577Y-88676742D01*
X127131577Y-88676742D02*
X126988720Y-88581504D01*
X126988720Y-88581504D02*
X126703005Y-88581504D01*
X126703005Y-88581504D02*
X126560148Y-88676742D01*
X126560148Y-88676742D02*
X126488720Y-88867219D01*
X126488720Y-88867219D02*
X126488720Y-89057695D01*
X126488720Y-89057695D02*
X127203005Y-89248171D01*
X125845863Y-89914838D02*
X125845863Y-88581504D01*
X125845863Y-88962457D02*
X125774434Y-88771980D01*
X125774434Y-88771980D02*
X125703006Y-88676742D01*
X125703006Y-88676742D02*
X125560148Y-88581504D01*
X125560148Y-88581504D02*
X125417291Y-88581504D01*
X123274435Y-88867219D02*
X123774435Y-88867219D01*
X123774435Y-89914838D02*
X123774435Y-87914838D01*
X123774435Y-87914838D02*
X123060149Y-87914838D01*
X122274435Y-89914838D02*
X122417292Y-89819600D01*
X122417292Y-89819600D02*
X122488721Y-89629123D01*
X122488721Y-89629123D02*
X122488721Y-87914838D01*
X121060150Y-89914838D02*
X121060150Y-88867219D01*
X121060150Y-88867219D02*
X121131578Y-88676742D01*
X121131578Y-88676742D02*
X121274435Y-88581504D01*
X121274435Y-88581504D02*
X121560150Y-88581504D01*
X121560150Y-88581504D02*
X121703007Y-88676742D01*
X121060150Y-89819600D02*
X121203007Y-89914838D01*
X121203007Y-89914838D02*
X121560150Y-89914838D01*
X121560150Y-89914838D02*
X121703007Y-89819600D01*
X121703007Y-89819600D02*
X121774435Y-89629123D01*
X121774435Y-89629123D02*
X121774435Y-89438647D01*
X121774435Y-89438647D02*
X121703007Y-89248171D01*
X121703007Y-89248171D02*
X121560150Y-89152933D01*
X121560150Y-89152933D02*
X121203007Y-89152933D01*
X121203007Y-89152933D02*
X121060150Y-89057695D01*
X120417292Y-89819600D02*
X120274435Y-89914838D01*
X120274435Y-89914838D02*
X119988721Y-89914838D01*
X119988721Y-89914838D02*
X119845864Y-89819600D01*
X119845864Y-89819600D02*
X119774435Y-89629123D01*
X119774435Y-89629123D02*
X119774435Y-89533885D01*
X119774435Y-89533885D02*
X119845864Y-89343409D01*
X119845864Y-89343409D02*
X119988721Y-89248171D01*
X119988721Y-89248171D02*
X120203007Y-89248171D01*
X120203007Y-89248171D02*
X120345864Y-89152933D01*
X120345864Y-89152933D02*
X120417292Y-88962457D01*
X120417292Y-88962457D02*
X120417292Y-88867219D01*
X120417292Y-88867219D02*
X120345864Y-88676742D01*
X120345864Y-88676742D02*
X120203007Y-88581504D01*
X120203007Y-88581504D02*
X119988721Y-88581504D01*
X119988721Y-88581504D02*
X119845864Y-88676742D01*
X119131578Y-89914838D02*
X119131578Y-87914838D01*
X118488721Y-89914838D02*
X118488721Y-88867219D01*
X118488721Y-88867219D02*
X118560149Y-88676742D01*
X118560149Y-88676742D02*
X118703006Y-88581504D01*
X118703006Y-88581504D02*
X118917292Y-88581504D01*
X118917292Y-88581504D02*
X119060149Y-88676742D01*
X119060149Y-88676742D02*
X119131578Y-88771980D01*
D10*
X103000000Y-86000000D02*
X103000000Y-84500000D01*
X102000000Y-93000000D02*
X104000000Y-93000000D01*
X104000000Y-94000000D01*
X102000000Y-94000000D01*
X102000000Y-93000000D01*
G36*
X102000000Y-93000000D02*
G01*
X104000000Y-93000000D01*
X104000000Y-94000000D01*
X102000000Y-94000000D01*
X102000000Y-93000000D01*
G37*
X101000000Y-94000000D02*
X105000000Y-94000000D01*
X102000000Y-88000000D02*
X104000000Y-88000000D01*
X104000000Y-90000000D01*
X102000000Y-90000000D01*
X102000000Y-88000000D01*
G36*
X102000000Y-88000000D02*
G01*
X104000000Y-88000000D01*
X104000000Y-90000000D01*
X102000000Y-90000000D01*
X102000000Y-88000000D01*
G37*
X101000000Y-90000000D02*
X105000000Y-90000000D01*
X111000000Y-90000000D02*
X115000000Y-90000000D01*
X112000000Y-88000000D02*
X114000000Y-88000000D01*
X114000000Y-90000000D01*
X112000000Y-90000000D01*
X112000000Y-88000000D01*
G36*
X112000000Y-88000000D02*
G01*
X114000000Y-88000000D01*
X114000000Y-90000000D01*
X112000000Y-90000000D01*
X112000000Y-88000000D01*
G37*
X101000000Y-102000000D02*
X105000000Y-102000000D01*
X111000000Y-102000000D02*
X115000000Y-102000000D01*
X102000000Y-101000000D02*
X104000000Y-101000000D01*
X104000000Y-102000000D01*
X102000000Y-102000000D01*
X102000000Y-101000000D01*
G36*
X102000000Y-101000000D02*
G01*
X104000000Y-101000000D01*
X104000000Y-102000000D01*
X102000000Y-102000000D01*
X102000000Y-101000000D01*
G37*
X112000000Y-101000000D02*
X114000000Y-101000000D01*
X114000000Y-102000000D01*
X112000000Y-102000000D01*
X112000000Y-101000000D01*
G36*
X112000000Y-101000000D02*
G01*
X114000000Y-101000000D01*
X114000000Y-102000000D01*
X112000000Y-102000000D01*
X112000000Y-101000000D01*
G37*
X101000000Y-98000000D02*
X105000000Y-98000000D01*
X102000000Y-96000000D02*
X104000000Y-96000000D01*
X104000000Y-98000000D01*
X102000000Y-98000000D01*
X102000000Y-96000000D01*
G36*
X102000000Y-96000000D02*
G01*
X104000000Y-96000000D01*
X104000000Y-98000000D01*
X102000000Y-98000000D01*
X102000000Y-96000000D01*
G37*
X111000000Y-98000000D02*
X115000000Y-98000000D01*
X112000000Y-97000000D02*
X114000000Y-97000000D01*
X114000000Y-98000000D01*
X112000000Y-98000000D01*
X112000000Y-97000000D01*
G36*
X112000000Y-97000000D02*
G01*
X114000000Y-97000000D01*
X114000000Y-98000000D01*
X112000000Y-98000000D01*
X112000000Y-97000000D01*
G37*
X112000000Y-92000000D02*
X114000000Y-92000000D01*
X114000000Y-94000000D01*
X112000000Y-94000000D01*
X112000000Y-92000000D01*
G36*
X112000000Y-92000000D02*
G01*
X114000000Y-92000000D01*
X114000000Y-94000000D01*
X112000000Y-94000000D01*
X112000000Y-92000000D01*
G37*
X111000000Y-94000000D02*
X115000000Y-94000000D01*
D12*
G36*
X133954514Y-75798057D02*
G01*
X133060340Y-75500000D01*
X133954514Y-75201942D01*
X133954514Y-75798057D01*
G37*
G36*
X135744236Y-77132578D02*
G01*
X131479079Y-77132578D01*
X131479079Y-75478733D01*
X131812412Y-75478733D01*
X131813688Y-75500000D01*
X131812412Y-75521267D01*
X131816024Y-75538919D01*
X131817104Y-75556908D01*
X131823842Y-75577122D01*
X131828113Y-75597992D01*
X131836170Y-75614107D01*
X131841870Y-75631205D01*
X131853610Y-75648987D01*
X131863137Y-75668040D01*
X131875090Y-75681520D01*
X131885021Y-75696561D01*
X131900961Y-75710695D01*
X131915096Y-75726636D01*
X131930136Y-75736566D01*
X131943617Y-75748520D01*
X131962669Y-75758046D01*
X131980452Y-75769787D01*
X132011355Y-75782389D01*
X132013665Y-75783544D01*
X132014713Y-75783758D01*
X132016789Y-75784605D01*
X135016789Y-76784605D01*
X135054749Y-76794553D01*
X135132924Y-76799245D01*
X135209649Y-76783544D01*
X135279698Y-76748520D01*
X135338294Y-76696561D01*
X135381444Y-76631205D01*
X135406210Y-76556908D01*
X135410903Y-76478733D01*
X135395202Y-76402008D01*
X135360178Y-76331960D01*
X135308218Y-76273364D01*
X135242862Y-76230213D01*
X135206526Y-76215395D01*
X134554514Y-75998057D01*
X134554514Y-75001942D01*
X135206526Y-74784605D01*
X135242862Y-74769787D01*
X135308218Y-74726636D01*
X135360178Y-74668040D01*
X135395202Y-74597992D01*
X135410903Y-74521267D01*
X135406210Y-74443092D01*
X135381444Y-74368795D01*
X135338294Y-74303439D01*
X135279698Y-74251480D01*
X135209649Y-74216456D01*
X135132924Y-74200755D01*
X135054749Y-74205447D01*
X135016789Y-74215395D01*
X132016789Y-75215395D01*
X132014713Y-75216241D01*
X132013665Y-75216456D01*
X132011355Y-75217610D01*
X131980452Y-75230213D01*
X131962669Y-75241953D01*
X131943617Y-75251480D01*
X131930136Y-75263433D01*
X131915096Y-75273364D01*
X131900961Y-75289304D01*
X131885021Y-75303439D01*
X131875090Y-75318479D01*
X131863137Y-75331960D01*
X131853610Y-75351012D01*
X131841870Y-75368795D01*
X131836170Y-75385892D01*
X131828113Y-75402008D01*
X131823842Y-75422877D01*
X131817104Y-75443092D01*
X131816024Y-75461080D01*
X131812412Y-75478733D01*
X131479079Y-75478733D01*
X131479079Y-73867422D01*
X135744236Y-73867422D01*
X135744236Y-77132578D01*
G37*
D13*
X135122057Y-63786966D02*
X133693485Y-62953633D01*
X135122057Y-62358395D02*
X132122057Y-62358395D01*
X132122057Y-62358395D02*
X132122057Y-63310776D01*
X132122057Y-63310776D02*
X132264914Y-63548871D01*
X132264914Y-63548871D02*
X132407771Y-63667918D01*
X132407771Y-63667918D02*
X132693485Y-63786966D01*
X132693485Y-63786966D02*
X133122057Y-63786966D01*
X133122057Y-63786966D02*
X133407771Y-63667918D01*
X133407771Y-63667918D02*
X133550628Y-63548871D01*
X133550628Y-63548871D02*
X133693485Y-63310776D01*
X133693485Y-63310776D02*
X133693485Y-62358395D01*
X134979200Y-65810776D02*
X135122057Y-65572680D01*
X135122057Y-65572680D02*
X135122057Y-65096490D01*
X135122057Y-65096490D02*
X134979200Y-64858395D01*
X134979200Y-64858395D02*
X134693485Y-64739347D01*
X134693485Y-64739347D02*
X133550628Y-64739347D01*
X133550628Y-64739347D02*
X133264914Y-64858395D01*
X133264914Y-64858395D02*
X133122057Y-65096490D01*
X133122057Y-65096490D02*
X133122057Y-65572680D01*
X133122057Y-65572680D02*
X133264914Y-65810776D01*
X133264914Y-65810776D02*
X133550628Y-65929823D01*
X133550628Y-65929823D02*
X133836342Y-65929823D01*
X133836342Y-65929823D02*
X134122057Y-64739347D01*
X133122057Y-66763156D02*
X135122057Y-67358394D01*
X135122057Y-67358394D02*
X133122057Y-67953633D01*
X134836342Y-68906014D02*
X134979200Y-69025061D01*
X134979200Y-69025061D02*
X135122057Y-68906014D01*
X135122057Y-68906014D02*
X134979200Y-68786966D01*
X134979200Y-68786966D02*
X134836342Y-68906014D01*
X134836342Y-68906014D02*
X135122057Y-68906014D01*
D14*
X131000000Y-60500000D02*
X141000000Y-60500000D01*
X141000000Y-80500000D01*
X131000000Y-80500000D01*
X131000000Y-60500000D01*
D10*
G36*
X71946860Y-137123035D02*
G01*
X72043126Y-137219301D01*
X72099999Y-137446791D01*
X72099999Y-137909864D01*
X72043126Y-138137354D01*
X71946860Y-138233621D01*
X71857447Y-138278328D01*
X71642552Y-138278328D01*
X71553139Y-138233621D01*
X71456872Y-138137354D01*
X71399999Y-137909862D01*
X71399999Y-137446793D01*
X71456872Y-137219301D01*
X71553139Y-137123034D01*
X71642552Y-137078328D01*
X71857446Y-137078328D01*
X71946860Y-137123035D01*
G37*
G36*
X76518289Y-137123035D02*
G01*
X76614555Y-137219301D01*
X76671428Y-137446791D01*
X76671428Y-137909864D01*
X76614555Y-138137354D01*
X76518289Y-138233621D01*
X76428876Y-138278328D01*
X76213981Y-138278328D01*
X76124568Y-138233621D01*
X76028301Y-138137354D01*
X75971428Y-137909862D01*
X75971428Y-137446793D01*
X76028301Y-137219301D01*
X76124568Y-137123034D01*
X76213981Y-137078328D01*
X76428875Y-137078328D01*
X76518289Y-137123035D01*
G37*
G36*
X78638095Y-138744995D02*
G01*
X68364785Y-138744995D01*
X68364785Y-136899064D01*
X68531452Y-136899064D01*
X68531452Y-136957592D01*
X68553850Y-137011664D01*
X68595234Y-137053048D01*
X68649306Y-137075446D01*
X68678570Y-137078328D01*
X69242856Y-137078328D01*
X69242856Y-137492614D01*
X68892856Y-137492614D01*
X68863592Y-137495496D01*
X68809520Y-137517894D01*
X68768136Y-137559278D01*
X68745738Y-137613350D01*
X68745738Y-137671878D01*
X68768136Y-137725950D01*
X68809520Y-137767334D01*
X68863592Y-137789732D01*
X68892856Y-137792614D01*
X69242856Y-137792614D01*
X69242856Y-138278328D01*
X68678570Y-138278328D01*
X68649306Y-138281210D01*
X68595234Y-138303608D01*
X68553850Y-138344992D01*
X68531452Y-138399064D01*
X68531452Y-138457592D01*
X68553850Y-138511664D01*
X68595234Y-138553048D01*
X68649306Y-138575446D01*
X68678570Y-138578328D01*
X69392856Y-138578328D01*
X69422120Y-138575446D01*
X69476192Y-138553048D01*
X69517576Y-138511664D01*
X69539974Y-138457592D01*
X69542856Y-138428328D01*
X69542856Y-138399064D01*
X69745738Y-138399064D01*
X69745738Y-138457592D01*
X69768136Y-138511664D01*
X69809520Y-138553048D01*
X69863592Y-138575446D01*
X69892856Y-138578328D01*
X70607142Y-138578328D01*
X70636406Y-138575446D01*
X70690478Y-138553048D01*
X70731862Y-138511664D01*
X70754260Y-138457592D01*
X70757142Y-138428328D01*
X70757142Y-137428328D01*
X71099999Y-137428328D01*
X71099999Y-137928328D01*
X71100501Y-137933431D01*
X71100176Y-137935619D01*
X71101795Y-137946570D01*
X71102881Y-137957592D01*
X71103727Y-137959636D01*
X71104478Y-137964709D01*
X71175907Y-138250422D01*
X71185800Y-138278113D01*
X71192439Y-138287073D01*
X71196707Y-138297377D01*
X71215362Y-138320108D01*
X71358219Y-138462966D01*
X71369725Y-138472409D01*
X71372318Y-138475399D01*
X71376823Y-138478235D01*
X71380949Y-138481621D01*
X71384612Y-138483138D01*
X71397203Y-138491064D01*
X71540061Y-138562492D01*
X71567524Y-138573002D01*
X71572899Y-138573383D01*
X71577878Y-138575446D01*
X71607142Y-138578328D01*
X71892856Y-138578328D01*
X71922120Y-138575446D01*
X71927098Y-138573383D01*
X71932474Y-138573002D01*
X71959937Y-138562492D01*
X72102796Y-138491064D01*
X72115386Y-138483138D01*
X72119050Y-138481621D01*
X72123175Y-138478235D01*
X72127681Y-138475399D01*
X72130274Y-138472409D01*
X72141780Y-138462966D01*
X72284637Y-138320108D01*
X72303292Y-138297377D01*
X72307559Y-138287073D01*
X72314199Y-138278113D01*
X72324092Y-138250422D01*
X72386758Y-137999757D01*
X72671427Y-137999757D01*
X72671427Y-138142614D01*
X72674309Y-138171878D01*
X72676372Y-138176858D01*
X72676754Y-138182233D01*
X72687263Y-138209696D01*
X72758692Y-138352553D01*
X72766619Y-138365146D01*
X72768135Y-138368806D01*
X72771516Y-138372925D01*
X72774357Y-138377439D01*
X72777350Y-138380035D01*
X72786790Y-138391537D01*
X72858219Y-138462966D01*
X72869723Y-138472407D01*
X72872318Y-138475399D01*
X72876827Y-138478237D01*
X72880950Y-138481621D01*
X72884611Y-138483137D01*
X72897203Y-138491064D01*
X73040061Y-138562492D01*
X73067524Y-138573002D01*
X73072899Y-138573383D01*
X73077878Y-138575446D01*
X73107142Y-138578328D01*
X73464285Y-138578328D01*
X73479090Y-138576869D01*
X73483045Y-138577151D01*
X73488246Y-138575968D01*
X73493549Y-138575446D01*
X73497206Y-138573930D01*
X73511719Y-138570631D01*
X73726004Y-138499203D01*
X73752855Y-138487214D01*
X73797069Y-138448867D01*
X73823243Y-138396520D01*
X73827392Y-138338140D01*
X73808884Y-138282615D01*
X73770537Y-138238401D01*
X73718190Y-138212227D01*
X73659810Y-138208078D01*
X73631136Y-138214597D01*
X73439942Y-138278328D01*
X73142552Y-138278328D01*
X73053138Y-138233621D01*
X73016134Y-138196617D01*
X72971427Y-138107203D01*
X72971427Y-138035167D01*
X73016134Y-137945753D01*
X73053139Y-137908748D01*
X73159498Y-137855569D01*
X73429236Y-137788135D01*
X73431394Y-137787363D01*
X73432475Y-137787287D01*
X73444649Y-137782628D01*
X73456927Y-137778242D01*
X73457797Y-137777597D01*
X73459938Y-137776778D01*
X73602795Y-137705349D01*
X73615390Y-137697420D01*
X73619047Y-137695906D01*
X73623164Y-137692526D01*
X73627681Y-137689684D01*
X73630278Y-137686689D01*
X73641778Y-137677252D01*
X73713207Y-137605824D01*
X73722649Y-137594318D01*
X73725641Y-137591724D01*
X73728480Y-137587213D01*
X73731862Y-137583093D01*
X73733377Y-137579433D01*
X73741306Y-137566839D01*
X73812734Y-137423981D01*
X73823244Y-137396518D01*
X73823625Y-137391142D01*
X73825688Y-137386164D01*
X73828570Y-137356900D01*
X73828570Y-137214042D01*
X73825688Y-137184778D01*
X73823625Y-137179799D01*
X73823244Y-137174424D01*
X73812734Y-137146961D01*
X73741306Y-137004103D01*
X73733377Y-136991508D01*
X73731862Y-136987849D01*
X73728480Y-136983728D01*
X73725641Y-136979218D01*
X73722649Y-136976623D01*
X73713207Y-136965118D01*
X73676416Y-136928328D01*
X74171428Y-136928328D01*
X74171428Y-138428328D01*
X74172169Y-138435853D01*
X74171794Y-138438805D01*
X74172836Y-138442625D01*
X74174310Y-138457592D01*
X74181945Y-138476024D01*
X74187194Y-138495269D01*
X74193048Y-138502828D01*
X74196708Y-138511664D01*
X74210815Y-138525771D01*
X74223029Y-138541543D01*
X74231331Y-138546287D01*
X74238092Y-138553048D01*
X74256522Y-138560682D01*
X74273845Y-138570581D01*
X74283330Y-138571786D01*
X74292164Y-138575446D01*
X74312114Y-138575446D01*
X74331905Y-138577962D01*
X74341130Y-138575446D01*
X74350692Y-138575446D01*
X74369124Y-138567810D01*
X74388369Y-138562562D01*
X74395928Y-138556707D01*
X74404764Y-138553048D01*
X74418871Y-138538940D01*
X74434643Y-138526727D01*
X74443348Y-138514463D01*
X74446148Y-138511664D01*
X74447286Y-138508916D01*
X74451664Y-138502749D01*
X75028571Y-137493163D01*
X75028571Y-138428328D01*
X75031453Y-138457592D01*
X75053851Y-138511664D01*
X75095235Y-138553048D01*
X75149307Y-138575446D01*
X75207835Y-138575446D01*
X75261907Y-138553048D01*
X75303291Y-138511664D01*
X75325689Y-138457592D01*
X75328571Y-138428328D01*
X75328571Y-137428328D01*
X75671428Y-137428328D01*
X75671428Y-137928328D01*
X75671930Y-137933431D01*
X75671605Y-137935619D01*
X75673224Y-137946570D01*
X75674310Y-137957592D01*
X75675156Y-137959636D01*
X75675907Y-137964709D01*
X75747336Y-138250422D01*
X75757229Y-138278113D01*
X75763868Y-138287073D01*
X75768136Y-138297377D01*
X75786791Y-138320108D01*
X75929648Y-138462966D01*
X75941154Y-138472409D01*
X75943747Y-138475399D01*
X75948252Y-138478235D01*
X75952378Y-138481621D01*
X75956041Y-138483138D01*
X75968632Y-138491064D01*
X76111490Y-138562492D01*
X76138953Y-138573002D01*
X76144328Y-138573383D01*
X76149307Y-138575446D01*
X76178571Y-138578328D01*
X76464285Y-138578328D01*
X76493549Y-138575446D01*
X76498527Y-138573383D01*
X76503903Y-138573002D01*
X76531366Y-138562492D01*
X76674225Y-138491064D01*
X76686815Y-138483138D01*
X76690479Y-138481621D01*
X76694604Y-138478235D01*
X76699110Y-138475399D01*
X76701703Y-138472409D01*
X76713209Y-138462966D01*
X76856066Y-138320108D01*
X76874721Y-138297377D01*
X76878988Y-138287073D01*
X76885628Y-138278113D01*
X76895521Y-138250422D01*
X76966949Y-137964708D01*
X76967698Y-137959636D01*
X76968546Y-137957592D01*
X76969631Y-137946569D01*
X76971251Y-137935619D01*
X76970925Y-137933431D01*
X76971428Y-137928328D01*
X76971428Y-137428328D01*
X76970925Y-137423224D01*
X76971251Y-137421037D01*
X76969631Y-137410086D01*
X76968546Y-137399064D01*
X76967698Y-137397019D01*
X76966949Y-137391948D01*
X76895521Y-137106234D01*
X76885628Y-137078543D01*
X76878989Y-137069583D01*
X76874721Y-137059278D01*
X76860477Y-137041922D01*
X77245739Y-137041922D01*
X77245739Y-137100448D01*
X77268136Y-137154520D01*
X77309522Y-137195906D01*
X77363594Y-137218303D01*
X77422120Y-137218303D01*
X77476192Y-137195906D01*
X77498923Y-137177251D01*
X77545312Y-137130861D01*
X77702914Y-137078328D01*
X77797088Y-137078328D01*
X77954686Y-137130861D01*
X78055293Y-137231468D01*
X78108472Y-137337827D01*
X78171428Y-137589648D01*
X78171428Y-137767007D01*
X78108472Y-138018828D01*
X78055293Y-138125188D01*
X77954687Y-138225794D01*
X77797085Y-138278328D01*
X77702914Y-138278328D01*
X77545311Y-138225794D01*
X77498924Y-138179406D01*
X77476193Y-138160751D01*
X77422121Y-138138353D01*
X77363595Y-138138353D01*
X77309523Y-138160750D01*
X77268137Y-138202135D01*
X77245739Y-138256207D01*
X77245739Y-138314733D01*
X77268136Y-138368805D01*
X77286790Y-138391536D01*
X77358218Y-138462965D01*
X77380949Y-138481620D01*
X77385925Y-138483681D01*
X77390000Y-138487215D01*
X77416851Y-138499203D01*
X77631137Y-138570631D01*
X77645649Y-138573930D01*
X77649307Y-138575446D01*
X77654609Y-138575968D01*
X77659811Y-138577151D01*
X77663765Y-138576869D01*
X77678571Y-138578328D01*
X77821428Y-138578328D01*
X77836233Y-138576869D01*
X77840188Y-138577151D01*
X77845389Y-138575968D01*
X77850692Y-138575446D01*
X77854349Y-138573930D01*
X77868862Y-138570631D01*
X78083148Y-138499203D01*
X78109999Y-138487215D01*
X78114070Y-138483683D01*
X78119050Y-138481621D01*
X78141780Y-138462966D01*
X78284637Y-138320108D01*
X78294075Y-138308606D01*
X78297070Y-138306010D01*
X78299910Y-138301496D01*
X78303292Y-138297377D01*
X78304807Y-138293717D01*
X78312735Y-138281124D01*
X78384164Y-138138268D01*
X78384983Y-138136125D01*
X78385628Y-138135256D01*
X78390012Y-138122984D01*
X78394673Y-138110804D01*
X78394749Y-138109723D01*
X78395521Y-138107565D01*
X78466949Y-137821851D01*
X78467698Y-137816779D01*
X78468546Y-137814735D01*
X78469631Y-137803712D01*
X78471251Y-137792762D01*
X78470925Y-137790574D01*
X78471428Y-137785471D01*
X78471428Y-137571185D01*
X78470925Y-137566081D01*
X78471251Y-137563894D01*
X78469631Y-137552943D01*
X78468546Y-137541921D01*
X78467698Y-137539876D01*
X78466949Y-137534805D01*
X78395521Y-137249091D01*
X78394749Y-137246932D01*
X78394673Y-137245852D01*
X78390012Y-137233671D01*
X78385628Y-137221400D01*
X78384983Y-137220530D01*
X78384164Y-137218388D01*
X78312735Y-137075532D01*
X78304808Y-137062940D01*
X78303292Y-137059278D01*
X78299908Y-137055155D01*
X78297070Y-137050646D01*
X78294077Y-137048050D01*
X78284637Y-137036548D01*
X78141780Y-136893691D01*
X78119049Y-136875036D01*
X78114069Y-136872973D01*
X78109999Y-136869443D01*
X78083148Y-136857454D01*
X77868862Y-136786026D01*
X77854354Y-136782727D01*
X77850692Y-136781210D01*
X77845383Y-136780687D01*
X77840189Y-136779506D01*
X77836239Y-136779786D01*
X77821428Y-136778328D01*
X77678571Y-136778328D01*
X77663759Y-136779786D01*
X77659810Y-136779506D01*
X77654615Y-136780687D01*
X77649307Y-136781210D01*
X77645645Y-136782726D01*
X77631136Y-136786026D01*
X77416851Y-136857455D01*
X77390000Y-136869443D01*
X77385929Y-136872972D01*
X77380949Y-136875036D01*
X77358219Y-136893691D01*
X77286791Y-136965119D01*
X77268136Y-136987850D01*
X77245739Y-137041922D01*
X76860477Y-137041922D01*
X76856066Y-137036548D01*
X76713209Y-136893691D01*
X76701707Y-136884251D01*
X76699111Y-136881258D01*
X76694597Y-136878417D01*
X76690478Y-136875036D01*
X76686818Y-136873520D01*
X76674225Y-136865593D01*
X76531367Y-136794164D01*
X76503904Y-136783654D01*
X76498526Y-136783271D01*
X76493549Y-136781210D01*
X76464285Y-136778328D01*
X76178571Y-136778328D01*
X76149307Y-136781210D01*
X76144326Y-136783273D01*
X76138952Y-136783655D01*
X76111488Y-136794164D01*
X75968632Y-136865593D01*
X75956040Y-136873519D01*
X75952378Y-136875036D01*
X75948255Y-136878419D01*
X75943746Y-136881258D01*
X75941150Y-136884250D01*
X75929648Y-136893691D01*
X75786791Y-137036548D01*
X75768136Y-137059279D01*
X75763868Y-137069582D01*
X75757229Y-137078543D01*
X75747336Y-137106234D01*
X75675907Y-137391947D01*
X75675156Y-137397019D01*
X75674310Y-137399064D01*
X75673224Y-137410085D01*
X75671605Y-137421037D01*
X75671930Y-137423224D01*
X75671428Y-137428328D01*
X75328571Y-137428328D01*
X75328571Y-136928328D01*
X75327829Y-136920801D01*
X75328205Y-136917850D01*
X75327162Y-136914028D01*
X75325689Y-136899064D01*
X75318053Y-136880631D01*
X75312805Y-136861387D01*
X75306950Y-136853827D01*
X75303291Y-136844992D01*
X75289183Y-136830884D01*
X75276970Y-136815113D01*
X75268667Y-136810368D01*
X75261907Y-136803608D01*
X75243476Y-136795973D01*
X75226154Y-136786075D01*
X75216668Y-136784869D01*
X75207835Y-136781210D01*
X75187885Y-136781210D01*
X75168094Y-136778694D01*
X75158869Y-136781210D01*
X75149307Y-136781210D01*
X75130878Y-136788843D01*
X75111630Y-136794093D01*
X75104068Y-136799949D01*
X75095235Y-136803608D01*
X75081129Y-136817713D01*
X75065356Y-136829929D01*
X75056650Y-136842192D01*
X75053851Y-136844992D01*
X75052712Y-136847739D01*
X75048335Y-136853907D01*
X74471428Y-137863494D01*
X74471428Y-136928328D01*
X74468546Y-136899064D01*
X74446148Y-136844992D01*
X74404764Y-136803608D01*
X74350692Y-136781210D01*
X74292164Y-136781210D01*
X74238092Y-136803608D01*
X74196708Y-136844992D01*
X74174310Y-136899064D01*
X74171428Y-136928328D01*
X73676416Y-136928328D01*
X73641778Y-136893690D01*
X73630278Y-136884252D01*
X73627681Y-136881258D01*
X73623164Y-136878415D01*
X73619047Y-136875036D01*
X73615390Y-136873521D01*
X73602795Y-136865593D01*
X73459938Y-136794164D01*
X73432475Y-136783655D01*
X73427100Y-136783273D01*
X73422120Y-136781210D01*
X73392856Y-136778328D01*
X73035713Y-136778328D01*
X73020901Y-136779786D01*
X73016952Y-136779506D01*
X73011757Y-136780687D01*
X73006449Y-136781210D01*
X73002787Y-136782726D01*
X72988278Y-136786026D01*
X72773993Y-136857455D01*
X72747142Y-136869443D01*
X72702927Y-136907791D01*
X72676754Y-136960138D01*
X72672605Y-137018518D01*
X72691113Y-137074042D01*
X72729461Y-137118257D01*
X72781808Y-137144430D01*
X72840188Y-137148579D01*
X72868861Y-137142059D01*
X73060056Y-137078328D01*
X73357446Y-137078328D01*
X73446860Y-137123035D01*
X73483864Y-137160039D01*
X73528570Y-137249451D01*
X73528570Y-137321490D01*
X73483864Y-137410902D01*
X73446860Y-137447906D01*
X73340499Y-137501087D01*
X73070762Y-137568521D01*
X73068603Y-137569292D01*
X73067523Y-137569369D01*
X73055342Y-137574029D01*
X73043071Y-137578414D01*
X73042201Y-137579058D01*
X73040059Y-137579878D01*
X72897203Y-137651307D01*
X72884609Y-137659234D01*
X72880950Y-137660750D01*
X72876830Y-137664131D01*
X72872317Y-137666972D01*
X72869720Y-137669966D01*
X72858219Y-137679405D01*
X72786790Y-137750834D01*
X72777350Y-137762335D01*
X72774357Y-137764932D01*
X72771516Y-137769445D01*
X72768135Y-137773565D01*
X72766619Y-137777224D01*
X72758692Y-137789818D01*
X72687263Y-137932675D01*
X72676754Y-137960138D01*
X72676372Y-137965512D01*
X72674309Y-137970493D01*
X72671427Y-137999757D01*
X72386758Y-137999757D01*
X72395520Y-137964708D01*
X72396269Y-137959636D01*
X72397117Y-137957592D01*
X72398202Y-137946569D01*
X72399822Y-137935619D01*
X72399496Y-137933431D01*
X72399999Y-137928328D01*
X72399999Y-137428328D01*
X72399496Y-137423224D01*
X72399822Y-137421037D01*
X72398202Y-137410086D01*
X72397117Y-137399064D01*
X72396269Y-137397019D01*
X72395520Y-137391948D01*
X72324092Y-137106234D01*
X72314199Y-137078543D01*
X72307560Y-137069583D01*
X72303292Y-137059278D01*
X72284637Y-137036548D01*
X72141780Y-136893691D01*
X72130278Y-136884251D01*
X72127682Y-136881258D01*
X72123168Y-136878417D01*
X72119049Y-136875036D01*
X72115389Y-136873520D01*
X72102796Y-136865593D01*
X71959938Y-136794164D01*
X71932475Y-136783654D01*
X71927097Y-136783271D01*
X71922120Y-136781210D01*
X71892856Y-136778328D01*
X71607142Y-136778328D01*
X71577878Y-136781210D01*
X71572897Y-136783273D01*
X71567523Y-136783655D01*
X71540059Y-136794164D01*
X71397203Y-136865593D01*
X71384611Y-136873519D01*
X71380949Y-136875036D01*
X71376826Y-136878419D01*
X71372317Y-136881258D01*
X71369721Y-136884250D01*
X71358219Y-136893691D01*
X71215362Y-137036548D01*
X71196707Y-137059279D01*
X71192439Y-137069582D01*
X71185800Y-137078543D01*
X71175907Y-137106234D01*
X71104478Y-137391947D01*
X71103727Y-137397019D01*
X71102881Y-137399064D01*
X71101795Y-137410085D01*
X71100176Y-137421037D01*
X71100501Y-137423224D01*
X71099999Y-137428328D01*
X70757142Y-137428328D01*
X70757142Y-136928328D01*
X70754260Y-136899064D01*
X70731862Y-136844992D01*
X70690478Y-136803608D01*
X70636406Y-136781210D01*
X70577878Y-136781210D01*
X70523806Y-136803608D01*
X70482422Y-136844992D01*
X70460024Y-136899064D01*
X70457142Y-136928328D01*
X70457142Y-138278328D01*
X69892856Y-138278328D01*
X69863592Y-138281210D01*
X69809520Y-138303608D01*
X69768136Y-138344992D01*
X69745738Y-138399064D01*
X69542856Y-138399064D01*
X69542856Y-136928328D01*
X69539974Y-136899064D01*
X69517576Y-136844992D01*
X69476192Y-136803608D01*
X69422120Y-136781210D01*
X69392856Y-136778328D01*
X68678570Y-136778328D01*
X68649306Y-136781210D01*
X68595234Y-136803608D01*
X68553850Y-136844992D01*
X68531452Y-136899064D01*
X68364785Y-136899064D01*
X68364785Y-136611661D01*
X78638095Y-136611661D01*
X78638095Y-138744995D01*
G37*
G36*
X120492857Y-138278328D02*
G01*
X120106838Y-138278328D01*
X120017424Y-138233621D01*
X119980419Y-138196616D01*
X119935714Y-138107204D01*
X119935714Y-137963737D01*
X119980419Y-137874325D01*
X120009597Y-137845147D01*
X120167200Y-137792614D01*
X120492857Y-137792614D01*
X120492857Y-138278328D01*
G37*
G36*
X120492857Y-137492614D02*
G01*
X120178267Y-137492614D01*
X120088853Y-137447906D01*
X120051849Y-137410903D01*
X120007142Y-137321489D01*
X120007142Y-137249452D01*
X120051849Y-137160038D01*
X120088853Y-137123035D01*
X120178267Y-137078328D01*
X120492857Y-137078328D01*
X120492857Y-137492614D01*
G37*
G36*
X123959524Y-138744995D02*
G01*
X119469047Y-138744995D01*
X119469047Y-137928328D01*
X119635714Y-137928328D01*
X119635714Y-138142614D01*
X119638596Y-138171878D01*
X119640658Y-138176856D01*
X119641040Y-138182232D01*
X119651550Y-138209696D01*
X119722978Y-138352553D01*
X119730905Y-138365146D01*
X119732421Y-138368806D01*
X119735802Y-138372925D01*
X119738643Y-138377439D01*
X119741636Y-138380035D01*
X119751076Y-138391537D01*
X119822505Y-138462966D01*
X119834009Y-138472407D01*
X119836604Y-138475399D01*
X119841113Y-138478237D01*
X119845236Y-138481621D01*
X119848897Y-138483137D01*
X119861489Y-138491064D01*
X120004347Y-138562492D01*
X120031810Y-138573002D01*
X120037185Y-138573383D01*
X120042164Y-138575446D01*
X120071428Y-138578328D01*
X120642857Y-138578328D01*
X120672121Y-138575446D01*
X120726193Y-138553048D01*
X120767577Y-138511664D01*
X120789975Y-138457592D01*
X120792857Y-138428328D01*
X120792857Y-137999757D01*
X121135713Y-137999757D01*
X121135713Y-138142614D01*
X121138595Y-138171878D01*
X121140658Y-138176858D01*
X121141040Y-138182233D01*
X121151549Y-138209696D01*
X121222978Y-138352553D01*
X121230905Y-138365146D01*
X121232421Y-138368806D01*
X121235802Y-138372925D01*
X121238643Y-138377439D01*
X121241636Y-138380035D01*
X121251076Y-138391537D01*
X121322505Y-138462966D01*
X121334009Y-138472407D01*
X121336604Y-138475399D01*
X121341113Y-138478237D01*
X121345236Y-138481621D01*
X121348897Y-138483137D01*
X121361489Y-138491064D01*
X121504347Y-138562492D01*
X121531810Y-138573002D01*
X121537185Y-138573383D01*
X121542164Y-138575446D01*
X121571428Y-138578328D01*
X121928571Y-138578328D01*
X121943376Y-138576869D01*
X121947331Y-138577151D01*
X121952532Y-138575968D01*
X121957835Y-138575446D01*
X121961492Y-138573930D01*
X121976005Y-138570631D01*
X122190290Y-138499203D01*
X122217141Y-138487214D01*
X122261355Y-138448867D01*
X122287529Y-138396520D01*
X122291678Y-138338140D01*
X122273170Y-138282615D01*
X122234823Y-138238401D01*
X122182476Y-138212227D01*
X122124096Y-138208078D01*
X122095422Y-138214597D01*
X121904228Y-138278328D01*
X121606838Y-138278328D01*
X121517424Y-138233621D01*
X121480420Y-138196617D01*
X121435713Y-138107203D01*
X121435713Y-138035167D01*
X121480420Y-137945753D01*
X121517425Y-137908748D01*
X121623784Y-137855569D01*
X121893522Y-137788135D01*
X121895680Y-137787363D01*
X121896761Y-137787287D01*
X121908935Y-137782628D01*
X121921213Y-137778242D01*
X121922083Y-137777597D01*
X121924224Y-137776778D01*
X122067081Y-137705349D01*
X122079676Y-137697420D01*
X122083333Y-137695906D01*
X122087450Y-137692526D01*
X122091967Y-137689684D01*
X122094564Y-137686689D01*
X122106064Y-137677252D01*
X122177493Y-137605824D01*
X122186935Y-137594318D01*
X122189927Y-137591724D01*
X122192766Y-137587213D01*
X122196148Y-137583093D01*
X122197663Y-137579433D01*
X122205592Y-137566839D01*
X122277020Y-137423981D01*
X122287530Y-137396518D01*
X122287911Y-137391142D01*
X122289974Y-137386164D01*
X122292856Y-137356900D01*
X122292856Y-137214042D01*
X122289974Y-137184778D01*
X122287911Y-137179799D01*
X122287530Y-137174424D01*
X122277020Y-137146961D01*
X122205592Y-137004103D01*
X122197663Y-136991508D01*
X122196148Y-136987849D01*
X122192766Y-136983728D01*
X122189927Y-136979218D01*
X122186935Y-136976623D01*
X122177493Y-136965118D01*
X122140702Y-136928328D01*
X122635714Y-136928328D01*
X122635714Y-138142614D01*
X122638596Y-138171878D01*
X122640658Y-138176856D01*
X122641040Y-138182232D01*
X122651550Y-138209696D01*
X122722978Y-138352553D01*
X122730905Y-138365146D01*
X122732421Y-138368806D01*
X122735802Y-138372925D01*
X122738643Y-138377439D01*
X122741636Y-138380035D01*
X122751076Y-138391537D01*
X122822505Y-138462966D01*
X122834009Y-138472407D01*
X122836604Y-138475399D01*
X122841113Y-138478237D01*
X122845236Y-138481621D01*
X122848897Y-138483137D01*
X122861489Y-138491064D01*
X123004347Y-138562492D01*
X123031810Y-138573002D01*
X123037185Y-138573383D01*
X123042164Y-138575446D01*
X123071428Y-138578328D01*
X123357142Y-138578328D01*
X123386406Y-138575446D01*
X123391384Y-138573383D01*
X123396760Y-138573002D01*
X123424223Y-138562492D01*
X123567082Y-138491064D01*
X123579676Y-138483135D01*
X123583336Y-138481620D01*
X123587456Y-138478238D01*
X123591967Y-138475399D01*
X123594561Y-138472407D01*
X123606067Y-138462965D01*
X123677495Y-138391536D01*
X123686933Y-138380035D01*
X123689927Y-138377439D01*
X123692767Y-138372926D01*
X123696149Y-138368806D01*
X123697664Y-138365146D01*
X123705592Y-138352553D01*
X123777021Y-138209697D01*
X123787530Y-138182233D01*
X123787911Y-138176858D01*
X123789975Y-138171878D01*
X123792857Y-138142614D01*
X123792857Y-136928328D01*
X123789975Y-136899064D01*
X123767577Y-136844992D01*
X123726193Y-136803608D01*
X123672121Y-136781210D01*
X123613593Y-136781210D01*
X123559521Y-136803608D01*
X123518137Y-136844992D01*
X123495739Y-136899064D01*
X123492857Y-136928328D01*
X123492857Y-138107203D01*
X123448149Y-138196617D01*
X123411146Y-138233621D01*
X123321733Y-138278328D01*
X123106838Y-138278328D01*
X123017424Y-138233621D01*
X122980419Y-138196616D01*
X122935714Y-138107204D01*
X122935714Y-136928328D01*
X122932832Y-136899064D01*
X122910434Y-136844992D01*
X122869050Y-136803608D01*
X122814978Y-136781210D01*
X122756450Y-136781210D01*
X122702378Y-136803608D01*
X122660994Y-136844992D01*
X122638596Y-136899064D01*
X122635714Y-136928328D01*
X122140702Y-136928328D01*
X122106064Y-136893690D01*
X122094564Y-136884252D01*
X122091967Y-136881258D01*
X122087450Y-136878415D01*
X122083333Y-136875036D01*
X122079676Y-136873521D01*
X122067081Y-136865593D01*
X121924224Y-136794164D01*
X121896761Y-136783655D01*
X121891386Y-136783273D01*
X121886406Y-136781210D01*
X121857142Y-136778328D01*
X121499999Y-136778328D01*
X121485187Y-136779786D01*
X121481238Y-136779506D01*
X121476043Y-136780687D01*
X121470735Y-136781210D01*
X121467073Y-136782726D01*
X121452564Y-136786026D01*
X121238279Y-136857455D01*
X121211428Y-136869443D01*
X121167213Y-136907791D01*
X121141040Y-136960138D01*
X121136891Y-137018518D01*
X121155399Y-137074042D01*
X121193747Y-137118257D01*
X121246094Y-137144430D01*
X121304474Y-137148579D01*
X121333147Y-137142059D01*
X121524342Y-137078328D01*
X121821732Y-137078328D01*
X121911146Y-137123035D01*
X121948150Y-137160039D01*
X121992856Y-137249451D01*
X121992856Y-137321490D01*
X121948150Y-137410902D01*
X121911146Y-137447906D01*
X121804785Y-137501087D01*
X121535048Y-137568521D01*
X121532889Y-137569292D01*
X121531809Y-137569369D01*
X121519628Y-137574029D01*
X121507357Y-137578414D01*
X121506487Y-137579058D01*
X121504345Y-137579878D01*
X121361489Y-137651307D01*
X121348895Y-137659234D01*
X121345236Y-137660750D01*
X121341116Y-137664131D01*
X121336603Y-137666972D01*
X121334006Y-137669966D01*
X121322505Y-137679405D01*
X121251076Y-137750834D01*
X121241636Y-137762335D01*
X121238643Y-137764932D01*
X121235802Y-137769445D01*
X121232421Y-137773565D01*
X121230905Y-137777224D01*
X121222978Y-137789818D01*
X121151549Y-137932675D01*
X121141040Y-137960138D01*
X121140658Y-137965512D01*
X121138595Y-137970493D01*
X121135713Y-137999757D01*
X120792857Y-137999757D01*
X120792857Y-136928328D01*
X120789975Y-136899064D01*
X120767577Y-136844992D01*
X120726193Y-136803608D01*
X120672121Y-136781210D01*
X120642857Y-136778328D01*
X120142857Y-136778328D01*
X120113593Y-136781210D01*
X120108612Y-136783273D01*
X120103238Y-136783655D01*
X120075774Y-136794164D01*
X119932918Y-136865593D01*
X119920324Y-136873520D01*
X119916665Y-136875036D01*
X119912544Y-136878417D01*
X119908032Y-136881258D01*
X119905435Y-136884251D01*
X119893935Y-136893690D01*
X119822506Y-136965118D01*
X119813066Y-136976620D01*
X119810072Y-136979217D01*
X119807230Y-136983731D01*
X119803851Y-136987849D01*
X119802335Y-136991507D01*
X119794407Y-137004103D01*
X119722978Y-137146960D01*
X119712469Y-137174423D01*
X119712087Y-137179797D01*
X119710024Y-137184778D01*
X119707142Y-137214042D01*
X119707142Y-137356900D01*
X119710024Y-137386164D01*
X119712087Y-137391144D01*
X119712469Y-137396519D01*
X119722978Y-137423982D01*
X119794407Y-137566839D01*
X119802335Y-137579434D01*
X119803851Y-137583093D01*
X119807230Y-137587210D01*
X119810072Y-137591725D01*
X119813066Y-137594321D01*
X119822506Y-137605824D01*
X119823687Y-137607005D01*
X119822505Y-137607976D01*
X119751076Y-137679405D01*
X119741636Y-137690906D01*
X119738643Y-137693503D01*
X119735802Y-137698016D01*
X119732421Y-137702136D01*
X119730905Y-137705795D01*
X119722978Y-137718389D01*
X119651550Y-137861246D01*
X119641040Y-137888710D01*
X119640658Y-137894085D01*
X119638596Y-137899064D01*
X119635714Y-137928328D01*
X119469047Y-137928328D01*
X119469047Y-136611661D01*
X123959524Y-136611661D01*
X123959524Y-138744995D01*
G37*
G36*
X96671428Y-138278328D02*
G01*
X96488628Y-138278328D01*
X96331025Y-138225794D01*
X96230420Y-138125188D01*
X96177239Y-138018828D01*
X96114285Y-137767007D01*
X96114285Y-137589648D01*
X96177239Y-137337827D01*
X96230420Y-137231467D01*
X96331026Y-137130861D01*
X96488628Y-137078328D01*
X96671428Y-137078328D01*
X96671428Y-138278328D01*
G37*
G36*
X100352380Y-138744995D02*
G01*
X95647618Y-138744995D01*
X95647618Y-137571185D01*
X95814285Y-137571185D01*
X95814285Y-137785471D01*
X95814787Y-137790574D01*
X95814462Y-137792762D01*
X95816081Y-137803712D01*
X95817167Y-137814735D01*
X95818014Y-137816779D01*
X95818764Y-137821851D01*
X95890192Y-138107565D01*
X95890963Y-138109723D01*
X95891040Y-138110804D01*
X95895698Y-138122978D01*
X95900085Y-138135256D01*
X95900729Y-138136126D01*
X95901549Y-138138267D01*
X95972978Y-138281124D01*
X95980905Y-138293717D01*
X95982421Y-138297377D01*
X95985802Y-138301496D01*
X95988643Y-138306010D01*
X95991636Y-138308606D01*
X96001076Y-138320108D01*
X96143933Y-138462966D01*
X96166663Y-138481621D01*
X96171642Y-138483683D01*
X96175714Y-138487215D01*
X96202565Y-138499203D01*
X96416851Y-138570631D01*
X96431363Y-138573930D01*
X96435021Y-138575446D01*
X96440323Y-138575968D01*
X96445525Y-138577151D01*
X96449479Y-138576869D01*
X96464285Y-138578328D01*
X96821428Y-138578328D01*
X96850692Y-138575446D01*
X96904764Y-138553048D01*
X96946148Y-138511664D01*
X96968546Y-138457592D01*
X96971428Y-138428328D01*
X96971428Y-136933935D01*
X97242962Y-136933935D01*
X97246936Y-136963071D01*
X97604078Y-138463071D01*
X97607539Y-138473114D01*
X97608018Y-138476714D01*
X97609901Y-138479967D01*
X97613660Y-138490872D01*
X97626431Y-138508519D01*
X97637341Y-138527364D01*
X97643456Y-138532045D01*
X97647973Y-138538286D01*
X97666523Y-138549701D01*
X97683816Y-138562938D01*
X97691257Y-138564922D01*
X97697817Y-138568959D01*
X97719324Y-138572407D01*
X97740368Y-138578019D01*
X97748000Y-138577004D01*
X97755606Y-138578224D01*
X97776801Y-138573177D01*
X97798385Y-138570309D01*
X97805047Y-138566451D01*
X97812543Y-138564667D01*
X97830188Y-138551896D01*
X97849035Y-138540986D01*
X97853717Y-138534869D01*
X97859956Y-138530354D01*
X97871369Y-138511807D01*
X97884609Y-138494511D01*
X97888657Y-138483715D01*
X97890630Y-138480510D01*
X97891205Y-138476920D01*
X97894934Y-138466978D01*
X98035713Y-137939055D01*
X98176493Y-138466977D01*
X98180221Y-138476919D01*
X98180797Y-138480510D01*
X98182770Y-138483716D01*
X98186818Y-138494511D01*
X98200054Y-138511803D01*
X98211470Y-138530354D01*
X98217710Y-138534870D01*
X98222392Y-138540986D01*
X98241236Y-138551895D01*
X98258884Y-138564667D01*
X98266378Y-138566451D01*
X98273042Y-138570309D01*
X98294631Y-138573178D01*
X98315821Y-138578223D01*
X98323423Y-138577004D01*
X98331059Y-138578019D01*
X98352106Y-138572406D01*
X98373610Y-138568959D01*
X98380169Y-138564922D01*
X98387611Y-138562938D01*
X98404903Y-138549701D01*
X98423454Y-138538286D01*
X98427970Y-138532045D01*
X98434086Y-138527364D01*
X98444995Y-138508519D01*
X98457767Y-138490872D01*
X98461525Y-138479967D01*
X98463409Y-138476714D01*
X98463887Y-138473114D01*
X98467349Y-138463071D01*
X98577662Y-137999757D01*
X99028570Y-137999757D01*
X99028570Y-138142614D01*
X99031452Y-138171878D01*
X99033515Y-138176858D01*
X99033897Y-138182233D01*
X99044406Y-138209696D01*
X99115835Y-138352553D01*
X99123762Y-138365146D01*
X99125278Y-138368806D01*
X99128659Y-138372925D01*
X99131500Y-138377439D01*
X99134493Y-138380035D01*
X99143933Y-138391537D01*
X99215362Y-138462966D01*
X99226866Y-138472407D01*
X99229461Y-138475399D01*
X99233970Y-138478237D01*
X99238093Y-138481621D01*
X99241754Y-138483137D01*
X99254346Y-138491064D01*
X99397204Y-138562492D01*
X99424667Y-138573002D01*
X99430042Y-138573383D01*
X99435021Y-138575446D01*
X99464285Y-138578328D01*
X99821428Y-138578328D01*
X99836233Y-138576869D01*
X99840188Y-138577151D01*
X99845389Y-138575968D01*
X99850692Y-138575446D01*
X99854349Y-138573930D01*
X99868862Y-138570631D01*
X100083147Y-138499203D01*
X100109998Y-138487214D01*
X100154212Y-138448867D01*
X100180386Y-138396520D01*
X100184535Y-138338140D01*
X100166027Y-138282615D01*
X100127680Y-138238401D01*
X100075333Y-138212227D01*
X100016953Y-138208078D01*
X99988279Y-138214597D01*
X99797085Y-138278328D01*
X99499695Y-138278328D01*
X99410281Y-138233621D01*
X99373277Y-138196617D01*
X99328570Y-138107203D01*
X99328570Y-138035167D01*
X99373277Y-137945753D01*
X99410282Y-137908748D01*
X99516641Y-137855569D01*
X99786379Y-137788135D01*
X99788537Y-137787363D01*
X99789618Y-137787287D01*
X99801792Y-137782628D01*
X99814070Y-137778242D01*
X99814940Y-137777597D01*
X99817081Y-137776778D01*
X99959938Y-137705349D01*
X99972533Y-137697420D01*
X99976190Y-137695906D01*
X99980307Y-137692526D01*
X99984824Y-137689684D01*
X99987421Y-137686689D01*
X99998921Y-137677252D01*
X100070350Y-137605824D01*
X100079792Y-137594318D01*
X100082784Y-137591724D01*
X100085623Y-137587213D01*
X100089005Y-137583093D01*
X100090520Y-137579433D01*
X100098449Y-137566839D01*
X100169877Y-137423981D01*
X100180387Y-137396518D01*
X100180768Y-137391142D01*
X100182831Y-137386164D01*
X100185713Y-137356900D01*
X100185713Y-137214042D01*
X100182831Y-137184778D01*
X100180768Y-137179799D01*
X100180387Y-137174424D01*
X100169877Y-137146961D01*
X100098449Y-137004103D01*
X100090520Y-136991508D01*
X100089005Y-136987849D01*
X100085623Y-136983728D01*
X100082784Y-136979218D01*
X100079792Y-136976623D01*
X100070350Y-136965118D01*
X99998921Y-136893690D01*
X99987421Y-136884252D01*
X99984824Y-136881258D01*
X99980307Y-136878415D01*
X99976190Y-136875036D01*
X99972533Y-136873521D01*
X99959938Y-136865593D01*
X99817081Y-136794164D01*
X99789618Y-136783655D01*
X99784243Y-136783273D01*
X99779263Y-136781210D01*
X99749999Y-136778328D01*
X99392856Y-136778328D01*
X99378044Y-136779786D01*
X99374095Y-136779506D01*
X99368900Y-136780687D01*
X99363592Y-136781210D01*
X99359930Y-136782726D01*
X99345421Y-136786026D01*
X99131136Y-136857455D01*
X99104285Y-136869443D01*
X99060070Y-136907791D01*
X99033897Y-136960138D01*
X99029748Y-137018518D01*
X99048256Y-137074042D01*
X99086604Y-137118257D01*
X99138951Y-137144430D01*
X99197331Y-137148579D01*
X99226004Y-137142059D01*
X99417199Y-137078328D01*
X99714589Y-137078328D01*
X99804003Y-137123035D01*
X99841007Y-137160039D01*
X99885713Y-137249451D01*
X99885713Y-137321490D01*
X99841007Y-137410902D01*
X99804003Y-137447906D01*
X99697642Y-137501087D01*
X99427905Y-137568521D01*
X99425746Y-137569292D01*
X99424666Y-137569369D01*
X99412485Y-137574029D01*
X99400214Y-137578414D01*
X99399344Y-137579058D01*
X99397202Y-137579878D01*
X99254346Y-137651307D01*
X99241752Y-137659234D01*
X99238093Y-137660750D01*
X99233973Y-137664131D01*
X99229460Y-137666972D01*
X99226863Y-137669966D01*
X99215362Y-137679405D01*
X99143933Y-137750834D01*
X99134493Y-137762335D01*
X99131500Y-137764932D01*
X99128659Y-137769445D01*
X99125278Y-137773565D01*
X99123762Y-137777224D01*
X99115835Y-137789818D01*
X99044406Y-137932675D01*
X99033897Y-137960138D01*
X99033515Y-137965512D01*
X99031452Y-137970493D01*
X99028570Y-137999757D01*
X98577662Y-137999757D01*
X98824492Y-136963071D01*
X98828466Y-136933935D01*
X98819202Y-136876146D01*
X98788529Y-136826302D01*
X98741115Y-136791989D01*
X98684178Y-136778433D01*
X98626389Y-136787697D01*
X98576545Y-136818370D01*
X98542232Y-136865784D01*
X98532650Y-136893585D01*
X98313194Y-137815297D01*
X98180649Y-137318251D01*
X98178077Y-137311394D01*
X98177695Y-137308514D01*
X98175715Y-137305094D01*
X98170324Y-137290717D01*
X98158289Y-137274995D01*
X98148372Y-137257864D01*
X98140656Y-137251957D01*
X98134750Y-137244242D01*
X98117618Y-137234324D01*
X98101897Y-137222290D01*
X98092506Y-137219785D01*
X98084100Y-137214919D01*
X98064478Y-137212311D01*
X98045345Y-137207209D01*
X98035714Y-137208488D01*
X98026083Y-137207209D01*
X98006949Y-137212311D01*
X97987328Y-137214919D01*
X97978921Y-137219785D01*
X97969531Y-137222290D01*
X97953809Y-137234324D01*
X97936678Y-137244242D01*
X97930771Y-137251957D01*
X97923056Y-137257864D01*
X97913138Y-137274995D01*
X97901104Y-137290717D01*
X97895712Y-137305094D01*
X97893733Y-137308514D01*
X97893350Y-137311394D01*
X97890779Y-137318251D01*
X97758232Y-137815297D01*
X97538778Y-136893585D01*
X97529196Y-136865784D01*
X97494883Y-136818371D01*
X97445039Y-136787697D01*
X97387250Y-136778433D01*
X97330313Y-136791989D01*
X97282900Y-136826302D01*
X97252226Y-136876146D01*
X97242962Y-136933935D01*
X96971428Y-136933935D01*
X96971428Y-136928328D01*
X96968546Y-136899064D01*
X96946148Y-136844992D01*
X96904764Y-136803608D01*
X96850692Y-136781210D01*
X96821428Y-136778328D01*
X96464285Y-136778328D01*
X96449473Y-136779786D01*
X96445524Y-136779506D01*
X96440329Y-136780687D01*
X96435021Y-136781210D01*
X96431359Y-136782726D01*
X96416850Y-136786026D01*
X96202565Y-136857455D01*
X96175714Y-136869443D01*
X96171644Y-136872972D01*
X96166663Y-136875036D01*
X96143933Y-136893691D01*
X96001076Y-137036548D01*
X95991636Y-137048049D01*
X95988643Y-137050646D01*
X95985802Y-137055159D01*
X95982421Y-137059279D01*
X95980905Y-137062938D01*
X95972978Y-137075532D01*
X95901549Y-137218389D01*
X95900729Y-137220529D01*
X95900085Y-137221400D01*
X95895698Y-137233677D01*
X95891040Y-137245852D01*
X95890963Y-137246932D01*
X95890192Y-137249091D01*
X95818764Y-137534805D01*
X95818014Y-137539876D01*
X95817167Y-137541921D01*
X95816081Y-137552943D01*
X95814462Y-137563894D01*
X95814787Y-137566081D01*
X95814285Y-137571185D01*
X95647618Y-137571185D01*
X95647618Y-136611661D01*
X100352380Y-136611661D01*
X100352380Y-138744995D01*
G37*
G36*
X102946860Y-51873035D02*
G01*
X103043126Y-51969301D01*
X103099999Y-52196791D01*
X103099999Y-52659864D01*
X103043126Y-52887354D01*
X102946860Y-52983621D01*
X102857447Y-53028328D01*
X102642552Y-53028328D01*
X102553139Y-52983621D01*
X102456872Y-52887354D01*
X102399999Y-52659862D01*
X102399999Y-52196793D01*
X102456872Y-51969301D01*
X102553139Y-51873034D01*
X102642552Y-51828328D01*
X102857446Y-51828328D01*
X102946860Y-51873035D01*
G37*
G36*
X104518289Y-51873035D02*
G01*
X104614555Y-51969301D01*
X104671428Y-52196791D01*
X104671428Y-52659864D01*
X104614555Y-52887354D01*
X104518289Y-52983621D01*
X104428876Y-53028328D01*
X104213981Y-53028328D01*
X104124568Y-52983621D01*
X104028301Y-52887354D01*
X103971428Y-52659862D01*
X103971428Y-52196793D01*
X104028301Y-51969301D01*
X104124568Y-51873034D01*
X104213981Y-51828328D01*
X104428875Y-51828328D01*
X104518289Y-51873035D01*
G37*
G36*
X106100000Y-53028328D02*
G01*
X105713981Y-53028328D01*
X105624567Y-52983621D01*
X105587562Y-52946616D01*
X105542857Y-52857204D01*
X105542857Y-52713737D01*
X105587562Y-52624325D01*
X105616740Y-52595147D01*
X105774343Y-52542614D01*
X106100000Y-52542614D01*
X106100000Y-53028328D01*
G37*
G36*
X106100000Y-52242614D02*
G01*
X105785410Y-52242614D01*
X105695996Y-52197906D01*
X105658992Y-52160903D01*
X105614285Y-52071489D01*
X105614285Y-51999452D01*
X105658992Y-51910038D01*
X105695996Y-51873035D01*
X105785410Y-51828328D01*
X106100000Y-51828328D01*
X106100000Y-52242614D01*
G37*
G36*
X106566667Y-53494995D02*
G01*
X99364785Y-53494995D01*
X99364785Y-53149064D01*
X99531452Y-53149064D01*
X99531452Y-53207592D01*
X99553850Y-53261664D01*
X99595234Y-53303048D01*
X99649306Y-53325446D01*
X99678570Y-53328328D01*
X100535713Y-53328328D01*
X100564977Y-53325446D01*
X100619049Y-53303048D01*
X100660433Y-53261664D01*
X100682831Y-53207592D01*
X100682831Y-53149064D01*
X100660433Y-53094992D01*
X100619049Y-53053608D01*
X100564977Y-53031210D01*
X100535713Y-53028328D01*
X100257142Y-53028328D01*
X100257142Y-52111889D01*
X100286790Y-52141537D01*
X100298292Y-52150977D01*
X100300888Y-52153970D01*
X100305397Y-52156808D01*
X100309520Y-52160192D01*
X100313182Y-52161708D01*
X100325774Y-52169635D01*
X100468630Y-52241064D01*
X100496094Y-52251573D01*
X100554474Y-52255722D01*
X100609996Y-52237215D01*
X100654212Y-52198868D01*
X100680386Y-52146519D01*
X100684535Y-52088139D01*
X100666027Y-52032616D01*
X100627681Y-51988401D01*
X100602795Y-51972736D01*
X100481710Y-51912193D01*
X100366569Y-51797052D01*
X100267911Y-51649064D01*
X100817167Y-51649064D01*
X100817167Y-51707592D01*
X100839565Y-51761664D01*
X100880949Y-51803048D01*
X100935021Y-51825446D01*
X100964285Y-51828328D01*
X101242856Y-51828328D01*
X101242856Y-53178328D01*
X101245738Y-53207592D01*
X101268136Y-53261664D01*
X101309520Y-53303048D01*
X101363592Y-53325446D01*
X101422120Y-53325446D01*
X101476192Y-53303048D01*
X101517576Y-53261664D01*
X101539974Y-53207592D01*
X101542856Y-53178328D01*
X101542856Y-52178328D01*
X102099999Y-52178328D01*
X102099999Y-52678328D01*
X102100501Y-52683431D01*
X102100176Y-52685619D01*
X102101795Y-52696570D01*
X102102881Y-52707592D01*
X102103727Y-52709636D01*
X102104478Y-52714709D01*
X102175907Y-53000422D01*
X102185800Y-53028113D01*
X102192439Y-53037073D01*
X102196707Y-53047377D01*
X102215362Y-53070108D01*
X102358219Y-53212966D01*
X102369725Y-53222409D01*
X102372318Y-53225399D01*
X102376823Y-53228235D01*
X102380949Y-53231621D01*
X102384612Y-53233138D01*
X102397203Y-53241064D01*
X102540061Y-53312492D01*
X102567524Y-53323002D01*
X102572899Y-53323383D01*
X102577878Y-53325446D01*
X102607142Y-53328328D01*
X102892856Y-53328328D01*
X102922120Y-53325446D01*
X102927098Y-53323383D01*
X102932474Y-53323002D01*
X102959937Y-53312492D01*
X103102796Y-53241064D01*
X103115386Y-53233138D01*
X103119050Y-53231621D01*
X103123175Y-53228235D01*
X103127681Y-53225399D01*
X103130274Y-53222409D01*
X103141780Y-53212966D01*
X103284637Y-53070108D01*
X103303292Y-53047377D01*
X103307559Y-53037073D01*
X103314199Y-53028113D01*
X103324092Y-53000422D01*
X103395520Y-52714708D01*
X103396269Y-52709636D01*
X103397117Y-52707592D01*
X103398202Y-52696569D01*
X103399822Y-52685619D01*
X103399496Y-52683431D01*
X103399999Y-52678328D01*
X103399999Y-52178328D01*
X103671428Y-52178328D01*
X103671428Y-52678328D01*
X103671930Y-52683431D01*
X103671605Y-52685619D01*
X103673224Y-52696570D01*
X103674310Y-52707592D01*
X103675156Y-52709636D01*
X103675907Y-52714709D01*
X103747336Y-53000422D01*
X103757229Y-53028113D01*
X103763868Y-53037073D01*
X103768136Y-53047377D01*
X103786791Y-53070108D01*
X103929648Y-53212966D01*
X103941154Y-53222409D01*
X103943747Y-53225399D01*
X103948252Y-53228235D01*
X103952378Y-53231621D01*
X103956041Y-53233138D01*
X103968632Y-53241064D01*
X104111490Y-53312492D01*
X104138953Y-53323002D01*
X104144328Y-53323383D01*
X104149307Y-53325446D01*
X104178571Y-53328328D01*
X104464285Y-53328328D01*
X104493549Y-53325446D01*
X104498527Y-53323383D01*
X104503903Y-53323002D01*
X104531366Y-53312492D01*
X104674225Y-53241064D01*
X104686815Y-53233138D01*
X104690479Y-53231621D01*
X104694604Y-53228235D01*
X104699110Y-53225399D01*
X104701703Y-53222409D01*
X104713209Y-53212966D01*
X104856066Y-53070108D01*
X104874721Y-53047377D01*
X104878988Y-53037073D01*
X104885628Y-53028113D01*
X104895521Y-53000422D01*
X104966949Y-52714708D01*
X104967698Y-52709636D01*
X104968546Y-52707592D01*
X104969631Y-52696569D01*
X104971251Y-52685619D01*
X104970925Y-52683431D01*
X104971428Y-52678328D01*
X105242857Y-52678328D01*
X105242857Y-52892614D01*
X105245739Y-52921878D01*
X105247801Y-52926856D01*
X105248183Y-52932232D01*
X105258693Y-52959696D01*
X105330121Y-53102553D01*
X105338048Y-53115146D01*
X105339564Y-53118806D01*
X105342945Y-53122925D01*
X105345786Y-53127439D01*
X105348779Y-53130035D01*
X105358219Y-53141537D01*
X105429648Y-53212966D01*
X105441152Y-53222407D01*
X105443747Y-53225399D01*
X105448256Y-53228237D01*
X105452379Y-53231621D01*
X105456040Y-53233137D01*
X105468632Y-53241064D01*
X105611490Y-53312492D01*
X105638953Y-53323002D01*
X105644328Y-53323383D01*
X105649307Y-53325446D01*
X105678571Y-53328328D01*
X106250000Y-53328328D01*
X106279264Y-53325446D01*
X106333336Y-53303048D01*
X106374720Y-53261664D01*
X106397118Y-53207592D01*
X106400000Y-53178328D01*
X106400000Y-51678328D01*
X106397118Y-51649064D01*
X106374720Y-51594992D01*
X106333336Y-51553608D01*
X106279264Y-51531210D01*
X106250000Y-51528328D01*
X105750000Y-51528328D01*
X105720736Y-51531210D01*
X105715755Y-51533273D01*
X105710381Y-51533655D01*
X105682917Y-51544164D01*
X105540061Y-51615593D01*
X105527467Y-51623520D01*
X105523808Y-51625036D01*
X105519687Y-51628417D01*
X105515175Y-51631258D01*
X105512578Y-51634251D01*
X105501078Y-51643690D01*
X105429649Y-51715118D01*
X105420209Y-51726620D01*
X105417215Y-51729217D01*
X105414373Y-51733731D01*
X105410994Y-51737849D01*
X105409478Y-51741507D01*
X105401550Y-51754103D01*
X105330121Y-51896960D01*
X105319612Y-51924423D01*
X105319230Y-51929797D01*
X105317167Y-51934778D01*
X105314285Y-51964042D01*
X105314285Y-52106900D01*
X105317167Y-52136164D01*
X105319230Y-52141144D01*
X105319612Y-52146519D01*
X105330121Y-52173982D01*
X105401550Y-52316839D01*
X105409478Y-52329434D01*
X105410994Y-52333093D01*
X105414373Y-52337210D01*
X105417215Y-52341725D01*
X105420209Y-52344321D01*
X105429649Y-52355824D01*
X105430830Y-52357005D01*
X105429648Y-52357976D01*
X105358219Y-52429405D01*
X105348779Y-52440906D01*
X105345786Y-52443503D01*
X105342945Y-52448016D01*
X105339564Y-52452136D01*
X105338048Y-52455795D01*
X105330121Y-52468389D01*
X105258693Y-52611246D01*
X105248183Y-52638710D01*
X105247801Y-52644085D01*
X105245739Y-52649064D01*
X105242857Y-52678328D01*
X104971428Y-52678328D01*
X104971428Y-52178328D01*
X104970925Y-52173224D01*
X104971251Y-52171037D01*
X104969631Y-52160086D01*
X104968546Y-52149064D01*
X104967698Y-52147019D01*
X104966949Y-52141948D01*
X104895521Y-51856234D01*
X104885628Y-51828543D01*
X104878989Y-51819583D01*
X104874721Y-51809278D01*
X104856066Y-51786548D01*
X104713209Y-51643691D01*
X104701707Y-51634251D01*
X104699111Y-51631258D01*
X104694597Y-51628417D01*
X104690478Y-51625036D01*
X104686818Y-51623520D01*
X104674225Y-51615593D01*
X104531367Y-51544164D01*
X104503904Y-51533654D01*
X104498526Y-51533271D01*
X104493549Y-51531210D01*
X104464285Y-51528328D01*
X104178571Y-51528328D01*
X104149307Y-51531210D01*
X104144326Y-51533273D01*
X104138952Y-51533655D01*
X104111488Y-51544164D01*
X103968632Y-51615593D01*
X103956040Y-51623519D01*
X103952378Y-51625036D01*
X103948255Y-51628419D01*
X103943746Y-51631258D01*
X103941150Y-51634250D01*
X103929648Y-51643691D01*
X103786791Y-51786548D01*
X103768136Y-51809279D01*
X103763868Y-51819582D01*
X103757229Y-51828543D01*
X103747336Y-51856234D01*
X103675907Y-52141947D01*
X103675156Y-52147019D01*
X103674310Y-52149064D01*
X103673224Y-52160085D01*
X103671605Y-52171037D01*
X103671930Y-52173224D01*
X103671428Y-52178328D01*
X103399999Y-52178328D01*
X103399496Y-52173224D01*
X103399822Y-52171037D01*
X103398202Y-52160086D01*
X103397117Y-52149064D01*
X103396269Y-52147019D01*
X103395520Y-52141948D01*
X103324092Y-51856234D01*
X103314199Y-51828543D01*
X103307560Y-51819583D01*
X103303292Y-51809278D01*
X103284637Y-51786548D01*
X103141780Y-51643691D01*
X103130278Y-51634251D01*
X103127682Y-51631258D01*
X103123168Y-51628417D01*
X103119049Y-51625036D01*
X103115389Y-51623520D01*
X103102796Y-51615593D01*
X102959938Y-51544164D01*
X102932475Y-51533654D01*
X102927097Y-51533271D01*
X102922120Y-51531210D01*
X102892856Y-51528328D01*
X102607142Y-51528328D01*
X102577878Y-51531210D01*
X102572897Y-51533273D01*
X102567523Y-51533655D01*
X102540059Y-51544164D01*
X102397203Y-51615593D01*
X102384611Y-51623519D01*
X102380949Y-51625036D01*
X102376826Y-51628419D01*
X102372317Y-51631258D01*
X102369721Y-51634250D01*
X102358219Y-51643691D01*
X102215362Y-51786548D01*
X102196707Y-51809279D01*
X102192439Y-51819582D01*
X102185800Y-51828543D01*
X102175907Y-51856234D01*
X102104478Y-52141947D01*
X102103727Y-52147019D01*
X102102881Y-52149064D01*
X102101795Y-52160085D01*
X102100176Y-52171037D01*
X102100501Y-52173224D01*
X102099999Y-52178328D01*
X101542856Y-52178328D01*
X101542856Y-51828328D01*
X101821427Y-51828328D01*
X101850691Y-51825446D01*
X101904763Y-51803048D01*
X101946147Y-51761664D01*
X101968545Y-51707592D01*
X101968545Y-51649064D01*
X101946147Y-51594992D01*
X101904763Y-51553608D01*
X101850691Y-51531210D01*
X101821427Y-51528328D01*
X100964285Y-51528328D01*
X100935021Y-51531210D01*
X100880949Y-51553608D01*
X100839565Y-51594992D01*
X100817167Y-51649064D01*
X100267911Y-51649064D01*
X100231950Y-51595123D01*
X100231881Y-51595039D01*
X100231862Y-51594992D01*
X100231755Y-51594885D01*
X100213319Y-51572373D01*
X100200979Y-51564109D01*
X100190478Y-51553608D01*
X100176900Y-51547983D01*
X100164689Y-51539806D01*
X100150126Y-51536893D01*
X100136406Y-51531210D01*
X100121710Y-51531210D01*
X100107300Y-51528328D01*
X100092731Y-51531210D01*
X100077878Y-51531210D01*
X100064299Y-51536834D01*
X100049885Y-51539686D01*
X100037527Y-51547924D01*
X100023806Y-51553608D01*
X100013414Y-51563999D01*
X100001187Y-51572151D01*
X99992923Y-51584490D01*
X99982422Y-51594992D01*
X99976797Y-51608569D01*
X99968620Y-51620781D01*
X99965707Y-51635343D01*
X99960024Y-51649064D01*
X99957172Y-51678016D01*
X99957142Y-51678170D01*
X99957152Y-51678222D01*
X99957142Y-51678328D01*
X99957142Y-53028328D01*
X99678570Y-53028328D01*
X99649306Y-53031210D01*
X99595234Y-53053608D01*
X99553850Y-53094992D01*
X99531452Y-53149064D01*
X99364785Y-53149064D01*
X99364785Y-51361661D01*
X106566667Y-51361661D01*
X106566667Y-53494995D01*
G37*
G36*
X110232574Y-51873035D02*
G01*
X110269578Y-51910039D01*
X110322757Y-52016398D01*
X110385713Y-52268220D01*
X110385713Y-52588436D01*
X110322757Y-52840257D01*
X110269577Y-52946617D01*
X110232574Y-52983621D01*
X110143161Y-53028328D01*
X110071123Y-53028328D01*
X109981710Y-52983622D01*
X109944706Y-52946618D01*
X109891526Y-52840258D01*
X109828570Y-52588434D01*
X109828570Y-52268221D01*
X109891526Y-52016397D01*
X109944706Y-51910038D01*
X109981710Y-51873034D01*
X110071123Y-51828328D01*
X110143160Y-51828328D01*
X110232574Y-51873035D01*
G37*
G36*
X112946860Y-51873035D02*
G01*
X113043126Y-51969301D01*
X113099999Y-52196791D01*
X113099999Y-52659864D01*
X113043126Y-52887354D01*
X112946860Y-52983621D01*
X112857447Y-53028328D01*
X112642552Y-53028328D01*
X112553139Y-52983621D01*
X112456872Y-52887354D01*
X112399999Y-52659862D01*
X112399999Y-52196793D01*
X112456872Y-51969301D01*
X112553139Y-51873034D01*
X112642552Y-51828328D01*
X112857446Y-51828328D01*
X112946860Y-51873035D01*
G37*
G36*
X114518289Y-51873035D02*
G01*
X114614555Y-51969301D01*
X114671428Y-52196791D01*
X114671428Y-52659864D01*
X114614555Y-52887354D01*
X114518289Y-52983621D01*
X114428876Y-53028328D01*
X114213981Y-53028328D01*
X114124568Y-52983621D01*
X114028301Y-52887354D01*
X113971428Y-52659862D01*
X113971428Y-52196793D01*
X114028301Y-51969301D01*
X114124568Y-51873034D01*
X114213981Y-51828328D01*
X114428875Y-51828328D01*
X114518289Y-51873035D01*
G37*
G36*
X116100000Y-53028328D02*
G01*
X115713981Y-53028328D01*
X115624567Y-52983621D01*
X115587562Y-52946616D01*
X115542857Y-52857204D01*
X115542857Y-52713737D01*
X115587562Y-52624325D01*
X115616740Y-52595147D01*
X115774343Y-52542614D01*
X116100000Y-52542614D01*
X116100000Y-53028328D01*
G37*
G36*
X116100000Y-52242614D02*
G01*
X115785410Y-52242614D01*
X115695996Y-52197906D01*
X115658992Y-52160903D01*
X115614285Y-52071489D01*
X115614285Y-51999452D01*
X115658992Y-51910038D01*
X115695996Y-51873035D01*
X115785410Y-51828328D01*
X116100000Y-51828328D01*
X116100000Y-52242614D01*
G37*
G36*
X116566667Y-53494995D02*
G01*
X109361903Y-53494995D01*
X109361903Y-52249757D01*
X109528570Y-52249757D01*
X109528570Y-52606900D01*
X109529072Y-52612003D01*
X109528747Y-52614191D01*
X109530366Y-52625142D01*
X109531452Y-52636164D01*
X109532298Y-52638208D01*
X109533049Y-52643281D01*
X109604478Y-52928994D01*
X109605249Y-52931152D01*
X109605326Y-52932233D01*
X109609984Y-52944407D01*
X109614371Y-52956685D01*
X109615015Y-52957555D01*
X109615835Y-52959696D01*
X109687264Y-53102553D01*
X109695192Y-53115148D01*
X109696707Y-53118805D01*
X109700086Y-53122922D01*
X109702929Y-53127439D01*
X109705923Y-53130036D01*
X109715361Y-53141536D01*
X109786789Y-53212965D01*
X109798294Y-53222407D01*
X109800889Y-53225399D01*
X109805399Y-53228238D01*
X109809520Y-53231620D01*
X109813179Y-53233135D01*
X109825774Y-53241064D01*
X109968632Y-53312492D01*
X109996095Y-53323002D01*
X110001470Y-53323383D01*
X110006449Y-53325446D01*
X110035713Y-53328328D01*
X110178570Y-53328328D01*
X110207834Y-53325446D01*
X110212812Y-53323383D01*
X110218188Y-53323002D01*
X110245651Y-53312492D01*
X110388510Y-53241064D01*
X110401104Y-53233135D01*
X110404764Y-53231620D01*
X110408884Y-53228238D01*
X110413395Y-53225399D01*
X110415989Y-53222407D01*
X110427495Y-53212965D01*
X110498923Y-53141536D01*
X110508361Y-53130035D01*
X110511355Y-53127439D01*
X110514195Y-53122926D01*
X110517577Y-53118806D01*
X110519092Y-53115146D01*
X110527020Y-53102553D01*
X110598449Y-52959697D01*
X110599268Y-52957554D01*
X110599913Y-52956685D01*
X110604297Y-52944413D01*
X110608958Y-52932233D01*
X110609034Y-52931152D01*
X110609806Y-52928994D01*
X110681234Y-52643280D01*
X110681983Y-52638208D01*
X110682831Y-52636164D01*
X110683916Y-52625141D01*
X110685536Y-52614191D01*
X110685210Y-52612003D01*
X110685713Y-52606900D01*
X110685713Y-52249757D01*
X110685210Y-52244653D01*
X110685536Y-52242466D01*
X110683916Y-52231515D01*
X110682831Y-52220493D01*
X110681983Y-52218448D01*
X110681234Y-52213377D01*
X110609806Y-51927662D01*
X110609034Y-51925503D01*
X110608958Y-51924423D01*
X110604297Y-51912242D01*
X110599913Y-51899971D01*
X110599268Y-51899101D01*
X110598449Y-51896959D01*
X110527020Y-51754103D01*
X110519093Y-51741511D01*
X110517577Y-51737849D01*
X110514193Y-51733726D01*
X110511355Y-51729217D01*
X110508362Y-51726621D01*
X110498922Y-51715119D01*
X110432867Y-51649064D01*
X110817167Y-51649064D01*
X110817167Y-51707592D01*
X110839565Y-51761664D01*
X110880949Y-51803048D01*
X110935021Y-51825446D01*
X110964285Y-51828328D01*
X111242856Y-51828328D01*
X111242856Y-53178328D01*
X111245738Y-53207592D01*
X111268136Y-53261664D01*
X111309520Y-53303048D01*
X111363592Y-53325446D01*
X111422120Y-53325446D01*
X111476192Y-53303048D01*
X111517576Y-53261664D01*
X111539974Y-53207592D01*
X111542856Y-53178328D01*
X111542856Y-52178328D01*
X112099999Y-52178328D01*
X112099999Y-52678328D01*
X112100501Y-52683431D01*
X112100176Y-52685619D01*
X112101795Y-52696570D01*
X112102881Y-52707592D01*
X112103727Y-52709636D01*
X112104478Y-52714709D01*
X112175907Y-53000422D01*
X112185800Y-53028113D01*
X112192439Y-53037073D01*
X112196707Y-53047377D01*
X112215362Y-53070108D01*
X112358219Y-53212966D01*
X112369725Y-53222409D01*
X112372318Y-53225399D01*
X112376823Y-53228235D01*
X112380949Y-53231621D01*
X112384612Y-53233138D01*
X112397203Y-53241064D01*
X112540061Y-53312492D01*
X112567524Y-53323002D01*
X112572899Y-53323383D01*
X112577878Y-53325446D01*
X112607142Y-53328328D01*
X112892856Y-53328328D01*
X112922120Y-53325446D01*
X112927098Y-53323383D01*
X112932474Y-53323002D01*
X112959937Y-53312492D01*
X113102796Y-53241064D01*
X113115386Y-53233138D01*
X113119050Y-53231621D01*
X113123175Y-53228235D01*
X113127681Y-53225399D01*
X113130274Y-53222409D01*
X113141780Y-53212966D01*
X113284637Y-53070108D01*
X113303292Y-53047377D01*
X113307559Y-53037073D01*
X113314199Y-53028113D01*
X113324092Y-53000422D01*
X113395520Y-52714708D01*
X113396269Y-52709636D01*
X113397117Y-52707592D01*
X113398202Y-52696569D01*
X113399822Y-52685619D01*
X113399496Y-52683431D01*
X113399999Y-52678328D01*
X113399999Y-52178328D01*
X113671428Y-52178328D01*
X113671428Y-52678328D01*
X113671930Y-52683431D01*
X113671605Y-52685619D01*
X113673224Y-52696570D01*
X113674310Y-52707592D01*
X113675156Y-52709636D01*
X113675907Y-52714709D01*
X113747336Y-53000422D01*
X113757229Y-53028113D01*
X113763868Y-53037073D01*
X113768136Y-53047377D01*
X113786791Y-53070108D01*
X113929648Y-53212966D01*
X113941154Y-53222409D01*
X113943747Y-53225399D01*
X113948252Y-53228235D01*
X113952378Y-53231621D01*
X113956041Y-53233138D01*
X113968632Y-53241064D01*
X114111490Y-53312492D01*
X114138953Y-53323002D01*
X114144328Y-53323383D01*
X114149307Y-53325446D01*
X114178571Y-53328328D01*
X114464285Y-53328328D01*
X114493549Y-53325446D01*
X114498527Y-53323383D01*
X114503903Y-53323002D01*
X114531366Y-53312492D01*
X114674225Y-53241064D01*
X114686815Y-53233138D01*
X114690479Y-53231621D01*
X114694604Y-53228235D01*
X114699110Y-53225399D01*
X114701703Y-53222409D01*
X114713209Y-53212966D01*
X114856066Y-53070108D01*
X114874721Y-53047377D01*
X114878988Y-53037073D01*
X114885628Y-53028113D01*
X114895521Y-53000422D01*
X114966949Y-52714708D01*
X114967698Y-52709636D01*
X114968546Y-52707592D01*
X114969631Y-52696569D01*
X114971251Y-52685619D01*
X114970925Y-52683431D01*
X114971428Y-52678328D01*
X115242857Y-52678328D01*
X115242857Y-52892614D01*
X115245739Y-52921878D01*
X115247801Y-52926856D01*
X115248183Y-52932232D01*
X115258693Y-52959696D01*
X115330121Y-53102553D01*
X115338048Y-53115146D01*
X115339564Y-53118806D01*
X115342945Y-53122925D01*
X115345786Y-53127439D01*
X115348779Y-53130035D01*
X115358219Y-53141537D01*
X115429648Y-53212966D01*
X115441152Y-53222407D01*
X115443747Y-53225399D01*
X115448256Y-53228237D01*
X115452379Y-53231621D01*
X115456040Y-53233137D01*
X115468632Y-53241064D01*
X115611490Y-53312492D01*
X115638953Y-53323002D01*
X115644328Y-53323383D01*
X115649307Y-53325446D01*
X115678571Y-53328328D01*
X116250000Y-53328328D01*
X116279264Y-53325446D01*
X116333336Y-53303048D01*
X116374720Y-53261664D01*
X116397118Y-53207592D01*
X116400000Y-53178328D01*
X116400000Y-51678328D01*
X116397118Y-51649064D01*
X116374720Y-51594992D01*
X116333336Y-51553608D01*
X116279264Y-51531210D01*
X116250000Y-51528328D01*
X115750000Y-51528328D01*
X115720736Y-51531210D01*
X115715755Y-51533273D01*
X115710381Y-51533655D01*
X115682917Y-51544164D01*
X115540061Y-51615593D01*
X115527467Y-51623520D01*
X115523808Y-51625036D01*
X115519687Y-51628417D01*
X115515175Y-51631258D01*
X115512578Y-51634251D01*
X115501078Y-51643690D01*
X115429649Y-51715118D01*
X115420209Y-51726620D01*
X115417215Y-51729217D01*
X115414373Y-51733731D01*
X115410994Y-51737849D01*
X115409478Y-51741507D01*
X115401550Y-51754103D01*
X115330121Y-51896960D01*
X115319612Y-51924423D01*
X115319230Y-51929797D01*
X115317167Y-51934778D01*
X115314285Y-51964042D01*
X115314285Y-52106900D01*
X115317167Y-52136164D01*
X115319230Y-52141144D01*
X115319612Y-52146519D01*
X115330121Y-52173982D01*
X115401550Y-52316839D01*
X115409478Y-52329434D01*
X115410994Y-52333093D01*
X115414373Y-52337210D01*
X115417215Y-52341725D01*
X115420209Y-52344321D01*
X115429649Y-52355824D01*
X115430830Y-52357005D01*
X115429648Y-52357976D01*
X115358219Y-52429405D01*
X115348779Y-52440906D01*
X115345786Y-52443503D01*
X115342945Y-52448016D01*
X115339564Y-52452136D01*
X115338048Y-52455795D01*
X115330121Y-52468389D01*
X115258693Y-52611246D01*
X115248183Y-52638710D01*
X115247801Y-52644085D01*
X115245739Y-52649064D01*
X115242857Y-52678328D01*
X114971428Y-52678328D01*
X114971428Y-52178328D01*
X114970925Y-52173224D01*
X114971251Y-52171037D01*
X114969631Y-52160086D01*
X114968546Y-52149064D01*
X114967698Y-52147019D01*
X114966949Y-52141948D01*
X114895521Y-51856234D01*
X114885628Y-51828543D01*
X114878989Y-51819583D01*
X114874721Y-51809278D01*
X114856066Y-51786548D01*
X114713209Y-51643691D01*
X114701707Y-51634251D01*
X114699111Y-51631258D01*
X114694597Y-51628417D01*
X114690478Y-51625036D01*
X114686818Y-51623520D01*
X114674225Y-51615593D01*
X114531367Y-51544164D01*
X114503904Y-51533654D01*
X114498526Y-51533271D01*
X114493549Y-51531210D01*
X114464285Y-51528328D01*
X114178571Y-51528328D01*
X114149307Y-51531210D01*
X114144326Y-51533273D01*
X114138952Y-51533655D01*
X114111488Y-51544164D01*
X113968632Y-51615593D01*
X113956040Y-51623519D01*
X113952378Y-51625036D01*
X113948255Y-51628419D01*
X113943746Y-51631258D01*
X113941150Y-51634250D01*
X113929648Y-51643691D01*
X113786791Y-51786548D01*
X113768136Y-51809279D01*
X113763868Y-51819582D01*
X113757229Y-51828543D01*
X113747336Y-51856234D01*
X113675907Y-52141947D01*
X113675156Y-52147019D01*
X113674310Y-52149064D01*
X113673224Y-52160085D01*
X113671605Y-52171037D01*
X113671930Y-52173224D01*
X113671428Y-52178328D01*
X113399999Y-52178328D01*
X113399496Y-52173224D01*
X113399822Y-52171037D01*
X113398202Y-52160086D01*
X113397117Y-52149064D01*
X113396269Y-52147019D01*
X113395520Y-52141948D01*
X113324092Y-51856234D01*
X113314199Y-51828543D01*
X113307560Y-51819583D01*
X113303292Y-51809278D01*
X113284637Y-51786548D01*
X113141780Y-51643691D01*
X113130278Y-51634251D01*
X113127682Y-51631258D01*
X113123168Y-51628417D01*
X113119049Y-51625036D01*
X113115389Y-51623520D01*
X113102796Y-51615593D01*
X112959938Y-51544164D01*
X112932475Y-51533654D01*
X112927097Y-51533271D01*
X112922120Y-51531210D01*
X112892856Y-51528328D01*
X112607142Y-51528328D01*
X112577878Y-51531210D01*
X112572897Y-51533273D01*
X112567523Y-51533655D01*
X112540059Y-51544164D01*
X112397203Y-51615593D01*
X112384611Y-51623519D01*
X112380949Y-51625036D01*
X112376826Y-51628419D01*
X112372317Y-51631258D01*
X112369721Y-51634250D01*
X112358219Y-51643691D01*
X112215362Y-51786548D01*
X112196707Y-51809279D01*
X112192439Y-51819582D01*
X112185800Y-51828543D01*
X112175907Y-51856234D01*
X112104478Y-52141947D01*
X112103727Y-52147019D01*
X112102881Y-52149064D01*
X112101795Y-52160085D01*
X112100176Y-52171037D01*
X112100501Y-52173224D01*
X112099999Y-52178328D01*
X111542856Y-52178328D01*
X111542856Y-51828328D01*
X111821427Y-51828328D01*
X111850691Y-51825446D01*
X111904763Y-51803048D01*
X111946147Y-51761664D01*
X111968545Y-51707592D01*
X111968545Y-51649064D01*
X111946147Y-51594992D01*
X111904763Y-51553608D01*
X111850691Y-51531210D01*
X111821427Y-51528328D01*
X110964285Y-51528328D01*
X110935021Y-51531210D01*
X110880949Y-51553608D01*
X110839565Y-51594992D01*
X110817167Y-51649064D01*
X110432867Y-51649064D01*
X110427494Y-51643691D01*
X110415992Y-51634251D01*
X110413396Y-51631258D01*
X110408882Y-51628417D01*
X110404763Y-51625036D01*
X110401103Y-51623520D01*
X110388510Y-51615593D01*
X110245652Y-51544164D01*
X110218189Y-51533654D01*
X110212811Y-51533271D01*
X110207834Y-51531210D01*
X110178570Y-51528328D01*
X110035713Y-51528328D01*
X110006449Y-51531210D01*
X110001468Y-51533273D01*
X109996094Y-51533655D01*
X109968630Y-51544164D01*
X109825774Y-51615593D01*
X109813182Y-51623519D01*
X109809520Y-51625036D01*
X109805397Y-51628419D01*
X109800888Y-51631258D01*
X109798292Y-51634250D01*
X109786790Y-51643691D01*
X109715362Y-51715119D01*
X109705922Y-51726620D01*
X109702929Y-51729217D01*
X109700088Y-51733730D01*
X109696707Y-51737850D01*
X109695191Y-51741509D01*
X109687264Y-51754103D01*
X109615835Y-51896960D01*
X109615015Y-51899100D01*
X109614371Y-51899971D01*
X109609984Y-51912248D01*
X109605326Y-51924423D01*
X109605249Y-51925503D01*
X109604478Y-51927662D01*
X109533049Y-52213377D01*
X109532299Y-52218448D01*
X109531452Y-52220493D01*
X109530366Y-52231515D01*
X109528747Y-52242466D01*
X109529072Y-52244653D01*
X109528570Y-52249757D01*
X109361903Y-52249757D01*
X109361903Y-51361661D01*
X116566667Y-51361661D01*
X116566667Y-53494995D01*
G37*
G36*
X81064285Y-52314042D02*
G01*
X80678266Y-52314042D01*
X80588852Y-52269335D01*
X80551847Y-52232330D01*
X80507142Y-52142918D01*
X80507142Y-51999451D01*
X80551847Y-51910040D01*
X80588852Y-51873035D01*
X80678266Y-51828328D01*
X81064285Y-51828328D01*
X81064285Y-52314042D01*
G37*
G36*
X85888095Y-53494995D02*
G01*
X80040475Y-53494995D01*
X80040475Y-51964042D01*
X80207142Y-51964042D01*
X80207142Y-52178328D01*
X80210024Y-52207592D01*
X80212086Y-52212570D01*
X80212468Y-52217946D01*
X80222978Y-52245410D01*
X80294406Y-52388267D01*
X80302333Y-52400860D01*
X80303849Y-52404520D01*
X80307230Y-52408639D01*
X80310071Y-52413153D01*
X80313064Y-52415749D01*
X80322504Y-52427251D01*
X80393933Y-52498680D01*
X80405437Y-52508121D01*
X80408032Y-52511113D01*
X80412541Y-52513951D01*
X80416664Y-52517335D01*
X80420325Y-52518851D01*
X80432917Y-52526778D01*
X80575775Y-52598206D01*
X80579209Y-52599520D01*
X80234257Y-53092309D01*
X80219836Y-53117935D01*
X80207177Y-53175077D01*
X80217348Y-53232713D01*
X80248801Y-53282070D01*
X80296749Y-53315634D01*
X80353891Y-53328293D01*
X80411527Y-53318122D01*
X80460884Y-53286669D01*
X80480027Y-53264347D01*
X80935240Y-52614042D01*
X81064285Y-52614042D01*
X81064285Y-53178328D01*
X81067167Y-53207592D01*
X81089565Y-53261664D01*
X81130949Y-53303048D01*
X81185021Y-53325446D01*
X81243549Y-53325446D01*
X81297621Y-53303048D01*
X81339005Y-53261664D01*
X81361403Y-53207592D01*
X81364285Y-53178328D01*
X81364285Y-51678328D01*
X81361403Y-51649064D01*
X81710024Y-51649064D01*
X81710024Y-51707592D01*
X81732422Y-51761664D01*
X81773806Y-51803048D01*
X81827878Y-51825446D01*
X81857142Y-51828328D01*
X82421428Y-51828328D01*
X82421428Y-52242614D01*
X82071428Y-52242614D01*
X82042164Y-52245496D01*
X81988092Y-52267894D01*
X81946708Y-52309278D01*
X81924310Y-52363350D01*
X81924310Y-52421878D01*
X81946708Y-52475950D01*
X81988092Y-52517334D01*
X82042164Y-52539732D01*
X82071428Y-52542614D01*
X82421428Y-52542614D01*
X82421428Y-53028328D01*
X81857142Y-53028328D01*
X81827878Y-53031210D01*
X81773806Y-53053608D01*
X81732422Y-53094992D01*
X81710024Y-53149064D01*
X81710024Y-53207592D01*
X81732422Y-53261664D01*
X81773806Y-53303048D01*
X81827878Y-53325446D01*
X81857142Y-53328328D01*
X82571428Y-53328328D01*
X82600692Y-53325446D01*
X82654764Y-53303048D01*
X82696148Y-53261664D01*
X82718546Y-53207592D01*
X82721428Y-53178328D01*
X82721428Y-52749757D01*
X83064284Y-52749757D01*
X83064284Y-52892614D01*
X83067166Y-52921878D01*
X83069229Y-52926858D01*
X83069611Y-52932233D01*
X83080120Y-52959696D01*
X83151549Y-53102553D01*
X83159476Y-53115146D01*
X83160992Y-53118806D01*
X83164373Y-53122925D01*
X83167214Y-53127439D01*
X83170207Y-53130035D01*
X83179647Y-53141537D01*
X83251076Y-53212966D01*
X83262580Y-53222407D01*
X83265175Y-53225399D01*
X83269684Y-53228237D01*
X83273807Y-53231621D01*
X83277468Y-53233137D01*
X83290060Y-53241064D01*
X83432918Y-53312492D01*
X83460381Y-53323002D01*
X83465756Y-53323383D01*
X83470735Y-53325446D01*
X83499999Y-53328328D01*
X83857142Y-53328328D01*
X83871947Y-53326869D01*
X83875902Y-53327151D01*
X83881103Y-53325968D01*
X83886406Y-53325446D01*
X83890063Y-53323930D01*
X83904576Y-53320631D01*
X84118861Y-53249203D01*
X84145712Y-53237214D01*
X84189926Y-53198867D01*
X84216100Y-53146520D01*
X84220249Y-53088140D01*
X84201741Y-53032615D01*
X84163394Y-52988401D01*
X84111047Y-52962227D01*
X84052667Y-52958078D01*
X84023993Y-52964597D01*
X83832799Y-53028328D01*
X83535409Y-53028328D01*
X83445995Y-52983621D01*
X83408991Y-52946617D01*
X83364284Y-52857203D01*
X83364284Y-52785167D01*
X83408991Y-52695753D01*
X83445996Y-52658748D01*
X83552355Y-52605569D01*
X83822093Y-52538135D01*
X83824251Y-52537363D01*
X83825332Y-52537287D01*
X83837506Y-52532628D01*
X83849784Y-52528242D01*
X83850654Y-52527597D01*
X83852795Y-52526778D01*
X83995652Y-52455349D01*
X84008247Y-52447420D01*
X84011904Y-52445906D01*
X84016021Y-52442526D01*
X84020538Y-52439684D01*
X84023135Y-52436689D01*
X84034635Y-52427252D01*
X84106064Y-52355824D01*
X84115506Y-52344318D01*
X84118498Y-52341724D01*
X84121337Y-52337213D01*
X84124719Y-52333093D01*
X84126234Y-52329433D01*
X84134163Y-52316839D01*
X84205591Y-52173981D01*
X84216101Y-52146518D01*
X84216482Y-52141142D01*
X84218545Y-52136164D01*
X84221427Y-52106900D01*
X84221427Y-51964042D01*
X84218545Y-51934778D01*
X84216482Y-51929799D01*
X84216101Y-51924424D01*
X84205591Y-51896961D01*
X84134163Y-51754103D01*
X84126234Y-51741508D01*
X84124719Y-51737849D01*
X84121337Y-51733728D01*
X84118498Y-51729218D01*
X84115506Y-51726623D01*
X84106064Y-51715118D01*
X84069273Y-51678328D01*
X84564285Y-51678328D01*
X84564285Y-52892614D01*
X84567167Y-52921878D01*
X84569229Y-52926856D01*
X84569611Y-52932232D01*
X84580121Y-52959696D01*
X84651549Y-53102553D01*
X84659476Y-53115146D01*
X84660992Y-53118806D01*
X84664373Y-53122925D01*
X84667214Y-53127439D01*
X84670207Y-53130035D01*
X84679647Y-53141537D01*
X84751076Y-53212966D01*
X84762580Y-53222407D01*
X84765175Y-53225399D01*
X84769684Y-53228237D01*
X84773807Y-53231621D01*
X84777468Y-53233137D01*
X84790060Y-53241064D01*
X84932918Y-53312492D01*
X84960381Y-53323002D01*
X84965756Y-53323383D01*
X84970735Y-53325446D01*
X84999999Y-53328328D01*
X85285713Y-53328328D01*
X85314977Y-53325446D01*
X85319955Y-53323383D01*
X85325331Y-53323002D01*
X85352794Y-53312492D01*
X85495653Y-53241064D01*
X85508247Y-53233135D01*
X85511907Y-53231620D01*
X85516027Y-53228238D01*
X85520538Y-53225399D01*
X85523132Y-53222407D01*
X85534638Y-53212965D01*
X85606066Y-53141536D01*
X85615504Y-53130035D01*
X85618498Y-53127439D01*
X85621338Y-53122926D01*
X85624720Y-53118806D01*
X85626235Y-53115146D01*
X85634163Y-53102553D01*
X85705592Y-52959697D01*
X85716101Y-52932233D01*
X85716482Y-52926858D01*
X85718546Y-52921878D01*
X85721428Y-52892614D01*
X85721428Y-51678328D01*
X85718546Y-51649064D01*
X85696148Y-51594992D01*
X85654764Y-51553608D01*
X85600692Y-51531210D01*
X85542164Y-51531210D01*
X85488092Y-51553608D01*
X85446708Y-51594992D01*
X85424310Y-51649064D01*
X85421428Y-51678328D01*
X85421428Y-52857203D01*
X85376720Y-52946617D01*
X85339717Y-52983621D01*
X85250304Y-53028328D01*
X85035409Y-53028328D01*
X84945995Y-52983621D01*
X84908990Y-52946616D01*
X84864285Y-52857204D01*
X84864285Y-51678328D01*
X84861403Y-51649064D01*
X84839005Y-51594992D01*
X84797621Y-51553608D01*
X84743549Y-51531210D01*
X84685021Y-51531210D01*
X84630949Y-51553608D01*
X84589565Y-51594992D01*
X84567167Y-51649064D01*
X84564285Y-51678328D01*
X84069273Y-51678328D01*
X84034635Y-51643690D01*
X84023135Y-51634252D01*
X84020538Y-51631258D01*
X84016021Y-51628415D01*
X84011904Y-51625036D01*
X84008247Y-51623521D01*
X83995652Y-51615593D01*
X83852795Y-51544164D01*
X83825332Y-51533655D01*
X83819957Y-51533273D01*
X83814977Y-51531210D01*
X83785713Y-51528328D01*
X83428570Y-51528328D01*
X83413758Y-51529786D01*
X83409809Y-51529506D01*
X83404614Y-51530687D01*
X83399306Y-51531210D01*
X83395644Y-51532726D01*
X83381135Y-51536026D01*
X83166850Y-51607455D01*
X83139999Y-51619443D01*
X83095784Y-51657791D01*
X83069611Y-51710138D01*
X83065462Y-51768518D01*
X83083970Y-51824042D01*
X83122318Y-51868257D01*
X83174665Y-51894430D01*
X83233045Y-51898579D01*
X83261718Y-51892059D01*
X83452913Y-51828328D01*
X83750303Y-51828328D01*
X83839717Y-51873035D01*
X83876721Y-51910039D01*
X83921427Y-51999451D01*
X83921427Y-52071490D01*
X83876721Y-52160902D01*
X83839717Y-52197906D01*
X83733356Y-52251087D01*
X83463619Y-52318521D01*
X83461460Y-52319292D01*
X83460380Y-52319369D01*
X83448199Y-52324029D01*
X83435928Y-52328414D01*
X83435058Y-52329058D01*
X83432916Y-52329878D01*
X83290060Y-52401307D01*
X83277466Y-52409234D01*
X83273807Y-52410750D01*
X83269687Y-52414131D01*
X83265174Y-52416972D01*
X83262577Y-52419966D01*
X83251076Y-52429405D01*
X83179647Y-52500834D01*
X83170207Y-52512335D01*
X83167214Y-52514932D01*
X83164373Y-52519445D01*
X83160992Y-52523565D01*
X83159476Y-52527224D01*
X83151549Y-52539818D01*
X83080120Y-52682675D01*
X83069611Y-52710138D01*
X83069229Y-52715512D01*
X83067166Y-52720493D01*
X83064284Y-52749757D01*
X82721428Y-52749757D01*
X82721428Y-51678328D01*
X82718546Y-51649064D01*
X82696148Y-51594992D01*
X82654764Y-51553608D01*
X82600692Y-51531210D01*
X82571428Y-51528328D01*
X81857142Y-51528328D01*
X81827878Y-51531210D01*
X81773806Y-51553608D01*
X81732422Y-51594992D01*
X81710024Y-51649064D01*
X81361403Y-51649064D01*
X81339005Y-51594992D01*
X81297621Y-51553608D01*
X81243549Y-51531210D01*
X81214285Y-51528328D01*
X80642856Y-51528328D01*
X80613592Y-51531210D01*
X80608611Y-51533273D01*
X80603237Y-51533655D01*
X80575773Y-51544164D01*
X80432917Y-51615593D01*
X80420323Y-51623520D01*
X80416664Y-51625036D01*
X80412543Y-51628417D01*
X80408031Y-51631258D01*
X80405434Y-51634251D01*
X80393934Y-51643690D01*
X80322505Y-51715118D01*
X80313065Y-51726620D01*
X80310071Y-51729217D01*
X80307229Y-51733731D01*
X80303850Y-51737849D01*
X80302334Y-51741507D01*
X80294406Y-51754103D01*
X80222978Y-51896960D01*
X80212468Y-51924424D01*
X80212086Y-51929799D01*
X80210024Y-51934778D01*
X80207142Y-51964042D01*
X80040475Y-51964042D01*
X80040475Y-51361661D01*
X85888095Y-51361661D01*
X85888095Y-53494995D01*
G37*
G36*
X95885714Y-52314042D02*
G01*
X95499695Y-52314042D01*
X95410281Y-52269335D01*
X95373276Y-52232330D01*
X95328571Y-52142918D01*
X95328571Y-51999451D01*
X95373276Y-51910040D01*
X95410281Y-51873035D01*
X95499695Y-51828328D01*
X95885714Y-51828328D01*
X95885714Y-52314042D01*
G37*
G36*
X96352381Y-53494995D02*
G01*
X89436215Y-53494995D01*
X89436215Y-51649064D01*
X89602882Y-51649064D01*
X89602882Y-51707592D01*
X89625280Y-51761664D01*
X89666664Y-51803048D01*
X89720736Y-51825446D01*
X89750000Y-51828328D01*
X90028571Y-51828328D01*
X90028571Y-53178328D01*
X90031453Y-53207592D01*
X90053851Y-53261664D01*
X90095235Y-53303048D01*
X90149307Y-53325446D01*
X90207835Y-53325446D01*
X90261907Y-53303048D01*
X90303291Y-53261664D01*
X90325689Y-53207592D01*
X90328571Y-53178328D01*
X90328571Y-51828328D01*
X90607142Y-51828328D01*
X90636406Y-51825446D01*
X90690478Y-51803048D01*
X90731862Y-51761664D01*
X90754260Y-51707592D01*
X90754260Y-51649064D01*
X90888596Y-51649064D01*
X90888596Y-51707592D01*
X90910994Y-51761664D01*
X90952378Y-51803048D01*
X91006450Y-51825446D01*
X91035714Y-51828328D01*
X91600000Y-51828328D01*
X91600000Y-52242614D01*
X91250000Y-52242614D01*
X91220736Y-52245496D01*
X91166664Y-52267894D01*
X91125280Y-52309278D01*
X91102882Y-52363350D01*
X91102882Y-52421878D01*
X91125280Y-52475950D01*
X91166664Y-52517334D01*
X91220736Y-52539732D01*
X91250000Y-52542614D01*
X91600000Y-52542614D01*
X91600000Y-53028328D01*
X91035714Y-53028328D01*
X91006450Y-53031210D01*
X90952378Y-53053608D01*
X90910994Y-53094992D01*
X90888596Y-53149064D01*
X90888596Y-53207592D01*
X90910994Y-53261664D01*
X90952378Y-53303048D01*
X91006450Y-53325446D01*
X91035714Y-53328328D01*
X91750000Y-53328328D01*
X91779264Y-53325446D01*
X91833336Y-53303048D01*
X91874720Y-53261664D01*
X91897118Y-53207592D01*
X91900000Y-53178328D01*
X91900000Y-52749757D01*
X92242856Y-52749757D01*
X92242856Y-52892614D01*
X92245738Y-52921878D01*
X92247801Y-52926858D01*
X92248183Y-52932233D01*
X92258692Y-52959696D01*
X92330121Y-53102553D01*
X92338048Y-53115146D01*
X92339564Y-53118806D01*
X92342945Y-53122925D01*
X92345786Y-53127439D01*
X92348779Y-53130035D01*
X92358219Y-53141537D01*
X92429648Y-53212966D01*
X92441152Y-53222407D01*
X92443747Y-53225399D01*
X92448256Y-53228237D01*
X92452379Y-53231621D01*
X92456040Y-53233137D01*
X92468632Y-53241064D01*
X92611490Y-53312492D01*
X92638953Y-53323002D01*
X92644328Y-53323383D01*
X92649307Y-53325446D01*
X92678571Y-53328328D01*
X93035714Y-53328328D01*
X93050519Y-53326869D01*
X93054474Y-53327151D01*
X93059675Y-53325968D01*
X93064978Y-53325446D01*
X93068635Y-53323930D01*
X93083148Y-53320631D01*
X93297433Y-53249203D01*
X93324284Y-53237214D01*
X93368498Y-53198867D01*
X93394672Y-53146520D01*
X93398821Y-53088140D01*
X93380313Y-53032615D01*
X93341966Y-52988401D01*
X93289619Y-52962227D01*
X93231239Y-52958078D01*
X93202565Y-52964597D01*
X93011371Y-53028328D01*
X92713981Y-53028328D01*
X92624567Y-52983621D01*
X92587563Y-52946617D01*
X92542856Y-52857203D01*
X92542856Y-52785167D01*
X92587563Y-52695753D01*
X92624568Y-52658748D01*
X92730927Y-52605569D01*
X93000665Y-52538135D01*
X93002823Y-52537363D01*
X93003904Y-52537287D01*
X93016078Y-52532628D01*
X93028356Y-52528242D01*
X93029226Y-52527597D01*
X93031367Y-52526778D01*
X93174224Y-52455349D01*
X93186819Y-52447420D01*
X93190476Y-52445906D01*
X93194593Y-52442526D01*
X93199110Y-52439684D01*
X93201707Y-52436689D01*
X93213207Y-52427252D01*
X93284636Y-52355824D01*
X93294078Y-52344318D01*
X93297070Y-52341724D01*
X93299909Y-52337213D01*
X93303291Y-52333093D01*
X93304806Y-52329433D01*
X93312735Y-52316839D01*
X93384163Y-52173981D01*
X93394673Y-52146518D01*
X93395054Y-52141142D01*
X93397117Y-52136164D01*
X93399999Y-52106900D01*
X93399999Y-51964042D01*
X93397117Y-51934778D01*
X93395054Y-51929799D01*
X93394673Y-51924424D01*
X93384163Y-51896961D01*
X93312735Y-51754103D01*
X93304806Y-51741508D01*
X93303291Y-51737849D01*
X93299909Y-51733728D01*
X93297070Y-51729218D01*
X93294078Y-51726623D01*
X93284636Y-51715118D01*
X93218581Y-51649064D01*
X93674310Y-51649064D01*
X93674310Y-51707592D01*
X93696708Y-51761664D01*
X93738092Y-51803048D01*
X93792164Y-51825446D01*
X93821428Y-51828328D01*
X94385714Y-51828328D01*
X94385714Y-52242614D01*
X94035714Y-52242614D01*
X94006450Y-52245496D01*
X93952378Y-52267894D01*
X93910994Y-52309278D01*
X93888596Y-52363350D01*
X93888596Y-52421878D01*
X93910994Y-52475950D01*
X93952378Y-52517334D01*
X94006450Y-52539732D01*
X94035714Y-52542614D01*
X94385714Y-52542614D01*
X94385714Y-53028328D01*
X93821428Y-53028328D01*
X93792164Y-53031210D01*
X93738092Y-53053608D01*
X93696708Y-53094992D01*
X93674310Y-53149064D01*
X93674310Y-53207592D01*
X93696708Y-53261664D01*
X93738092Y-53303048D01*
X93792164Y-53325446D01*
X93821428Y-53328328D01*
X94535714Y-53328328D01*
X94564978Y-53325446D01*
X94619050Y-53303048D01*
X94660434Y-53261664D01*
X94682832Y-53207592D01*
X94685714Y-53178328D01*
X94685714Y-51964042D01*
X95028571Y-51964042D01*
X95028571Y-52178328D01*
X95031453Y-52207592D01*
X95033515Y-52212570D01*
X95033897Y-52217946D01*
X95044407Y-52245410D01*
X95115835Y-52388267D01*
X95123762Y-52400860D01*
X95125278Y-52404520D01*
X95128659Y-52408639D01*
X95131500Y-52413153D01*
X95134493Y-52415749D01*
X95143933Y-52427251D01*
X95215362Y-52498680D01*
X95226866Y-52508121D01*
X95229461Y-52511113D01*
X95233970Y-52513951D01*
X95238093Y-52517335D01*
X95241754Y-52518851D01*
X95254346Y-52526778D01*
X95397204Y-52598206D01*
X95400638Y-52599520D01*
X95055686Y-53092309D01*
X95041265Y-53117935D01*
X95028606Y-53175077D01*
X95038777Y-53232713D01*
X95070230Y-53282070D01*
X95118178Y-53315634D01*
X95175320Y-53328293D01*
X95232956Y-53318122D01*
X95282313Y-53286669D01*
X95301456Y-53264347D01*
X95756669Y-52614042D01*
X95885714Y-52614042D01*
X95885714Y-53178328D01*
X95888596Y-53207592D01*
X95910994Y-53261664D01*
X95952378Y-53303048D01*
X96006450Y-53325446D01*
X96064978Y-53325446D01*
X96119050Y-53303048D01*
X96160434Y-53261664D01*
X96182832Y-53207592D01*
X96185714Y-53178328D01*
X96185714Y-51678328D01*
X96182832Y-51649064D01*
X96160434Y-51594992D01*
X96119050Y-51553608D01*
X96064978Y-51531210D01*
X96035714Y-51528328D01*
X95464285Y-51528328D01*
X95435021Y-51531210D01*
X95430040Y-51533273D01*
X95424666Y-51533655D01*
X95397202Y-51544164D01*
X95254346Y-51615593D01*
X95241752Y-51623520D01*
X95238093Y-51625036D01*
X95233972Y-51628417D01*
X95229460Y-51631258D01*
X95226863Y-51634251D01*
X95215363Y-51643690D01*
X95143934Y-51715118D01*
X95134494Y-51726620D01*
X95131500Y-51729217D01*
X95128658Y-51733731D01*
X95125279Y-51737849D01*
X95123763Y-51741507D01*
X95115835Y-51754103D01*
X95044407Y-51896960D01*
X95033897Y-51924424D01*
X95033515Y-51929799D01*
X95031453Y-51934778D01*
X95028571Y-51964042D01*
X94685714Y-51964042D01*
X94685714Y-51678328D01*
X94682832Y-51649064D01*
X94660434Y-51594992D01*
X94619050Y-51553608D01*
X94564978Y-51531210D01*
X94535714Y-51528328D01*
X93821428Y-51528328D01*
X93792164Y-51531210D01*
X93738092Y-51553608D01*
X93696708Y-51594992D01*
X93674310Y-51649064D01*
X93218581Y-51649064D01*
X93213207Y-51643690D01*
X93201707Y-51634252D01*
X93199110Y-51631258D01*
X93194593Y-51628415D01*
X93190476Y-51625036D01*
X93186819Y-51623521D01*
X93174224Y-51615593D01*
X93031367Y-51544164D01*
X93003904Y-51533655D01*
X92998529Y-51533273D01*
X92993549Y-51531210D01*
X92964285Y-51528328D01*
X92607142Y-51528328D01*
X92592330Y-51529786D01*
X92588381Y-51529506D01*
X92583186Y-51530687D01*
X92577878Y-51531210D01*
X92574216Y-51532726D01*
X92559707Y-51536026D01*
X92345422Y-51607455D01*
X92318571Y-51619443D01*
X92274356Y-51657791D01*
X92248183Y-51710138D01*
X92244034Y-51768518D01*
X92262542Y-51824042D01*
X92300890Y-51868257D01*
X92353237Y-51894430D01*
X92411617Y-51898579D01*
X92440290Y-51892059D01*
X92631485Y-51828328D01*
X92928875Y-51828328D01*
X93018289Y-51873035D01*
X93055293Y-51910039D01*
X93099999Y-51999451D01*
X93099999Y-52071490D01*
X93055293Y-52160902D01*
X93018289Y-52197906D01*
X92911928Y-52251087D01*
X92642191Y-52318521D01*
X92640032Y-52319292D01*
X92638952Y-52319369D01*
X92626771Y-52324029D01*
X92614500Y-52328414D01*
X92613630Y-52329058D01*
X92611488Y-52329878D01*
X92468632Y-52401307D01*
X92456038Y-52409234D01*
X92452379Y-52410750D01*
X92448259Y-52414131D01*
X92443746Y-52416972D01*
X92441149Y-52419966D01*
X92429648Y-52429405D01*
X92358219Y-52500834D01*
X92348779Y-52512335D01*
X92345786Y-52514932D01*
X92342945Y-52519445D01*
X92339564Y-52523565D01*
X92338048Y-52527224D01*
X92330121Y-52539818D01*
X92258692Y-52682675D01*
X92248183Y-52710138D01*
X92247801Y-52715512D01*
X92245738Y-52720493D01*
X92242856Y-52749757D01*
X91900000Y-52749757D01*
X91900000Y-51678328D01*
X91897118Y-51649064D01*
X91874720Y-51594992D01*
X91833336Y-51553608D01*
X91779264Y-51531210D01*
X91750000Y-51528328D01*
X91035714Y-51528328D01*
X91006450Y-51531210D01*
X90952378Y-51553608D01*
X90910994Y-51594992D01*
X90888596Y-51649064D01*
X90754260Y-51649064D01*
X90731862Y-51594992D01*
X90690478Y-51553608D01*
X90636406Y-51531210D01*
X90607142Y-51528328D01*
X89750000Y-51528328D01*
X89720736Y-51531210D01*
X89666664Y-51553608D01*
X89625280Y-51594992D01*
X89602882Y-51649064D01*
X89436215Y-51649064D01*
X89436215Y-51361661D01*
X96352381Y-51361661D01*
X96352381Y-53494995D01*
G37*
D13*
X139469200Y-62239347D02*
X139612057Y-62596490D01*
X139612057Y-62596490D02*
X139612057Y-63191728D01*
X139612057Y-63191728D02*
X139469200Y-63429823D01*
X139469200Y-63429823D02*
X139326342Y-63548871D01*
X139326342Y-63548871D02*
X139040628Y-63667918D01*
X139040628Y-63667918D02*
X138754914Y-63667918D01*
X138754914Y-63667918D02*
X138469200Y-63548871D01*
X138469200Y-63548871D02*
X138326342Y-63429823D01*
X138326342Y-63429823D02*
X138183485Y-63191728D01*
X138183485Y-63191728D02*
X138040628Y-62715537D01*
X138040628Y-62715537D02*
X137897771Y-62477442D01*
X137897771Y-62477442D02*
X137754914Y-62358395D01*
X137754914Y-62358395D02*
X137469200Y-62239347D01*
X137469200Y-62239347D02*
X137183485Y-62239347D01*
X137183485Y-62239347D02*
X136897771Y-62358395D01*
X136897771Y-62358395D02*
X136754914Y-62477442D01*
X136754914Y-62477442D02*
X136612057Y-62715537D01*
X136612057Y-62715537D02*
X136612057Y-63310776D01*
X136612057Y-63310776D02*
X136754914Y-63667918D01*
X136469200Y-66525061D02*
X140326342Y-64382204D01*
X139612057Y-67358395D02*
X136612057Y-67358395D01*
X136612057Y-67358395D02*
X139612057Y-68786966D01*
X139612057Y-68786966D02*
X136612057Y-68786966D01*
D10*
X113000000Y-70000000D02*
X113000000Y-86000000D01*
X103000000Y-70000000D02*
X103000000Y-83500000D01*
X100000000Y-70000000D02*
X106000000Y-70000000D01*
X110000000Y-70000000D02*
X116000000Y-70000000D01*
G36*
X106943039Y-51019685D02*
G01*
X106988794Y-51072489D01*
X107000000Y-51124000D01*
X107000000Y-53876000D01*
X106980315Y-53943039D01*
X106927511Y-53988794D01*
X106876000Y-54000000D01*
X99124000Y-54000000D01*
X99056961Y-53980315D01*
X99011206Y-53927511D01*
X99000000Y-53876000D01*
X99000000Y-53335053D01*
X99523570Y-53335053D01*
X106405000Y-53335053D01*
X106405000Y-51520484D01*
X99523570Y-51520484D01*
X99523570Y-53335053D01*
X99000000Y-53335053D01*
X99000000Y-51124000D01*
X99019685Y-51056961D01*
X99072489Y-51011206D01*
X99124000Y-51000000D01*
X106876000Y-51000000D01*
X106943039Y-51019685D01*
G37*
G36*
X116943039Y-51019685D02*
G01*
X116988794Y-51072489D01*
X117000000Y-51124000D01*
X117000000Y-53876000D01*
X116980315Y-53943039D01*
X116927511Y-53988794D01*
X116876000Y-54000000D01*
X109124000Y-54000000D01*
X109056961Y-53980315D01*
X109011206Y-53927511D01*
X109000000Y-53876000D01*
X109000000Y-53335053D01*
X109520866Y-53335053D01*
X116405000Y-53335053D01*
X116405000Y-51521603D01*
X109520866Y-51521603D01*
X109520866Y-53335053D01*
X109000000Y-53335053D01*
X109000000Y-51124000D01*
X109019685Y-51056961D01*
X109072489Y-51011206D01*
X109124000Y-51000000D01*
X116876000Y-51000000D01*
X116943039Y-51019685D01*
G37*
G36*
X96943039Y-51019685D02*
G01*
X96988794Y-51072489D01*
X97000000Y-51124000D01*
X97000000Y-53876000D01*
X96980315Y-53943039D01*
X96927511Y-53988794D01*
X96876000Y-54000000D01*
X89124000Y-54000000D01*
X89056961Y-53980315D01*
X89011206Y-53927511D01*
X89000000Y-53876000D01*
X89000000Y-53336155D01*
X89595000Y-53336155D01*
X96190714Y-53336155D01*
X96190714Y-51521603D01*
X89595000Y-51521603D01*
X89595000Y-53336155D01*
X89000000Y-53336155D01*
X89000000Y-51124000D01*
X89019685Y-51056961D01*
X89072489Y-51011206D01*
X89124000Y-51000000D01*
X96876000Y-51000000D01*
X96943039Y-51019685D01*
G37*
G36*
X102943039Y-136269685D02*
G01*
X102988794Y-136322489D01*
X103000000Y-136374000D01*
X103000000Y-139126000D01*
X102980315Y-139193039D01*
X102927511Y-139238794D01*
X102876000Y-139250000D01*
X93124000Y-139250000D01*
X93056961Y-139230315D01*
X93011206Y-139177511D01*
X93000000Y-139126000D01*
X93000000Y-138586097D01*
X95806581Y-138586097D01*
X100192438Y-138586097D01*
X100192438Y-136770559D01*
X95806581Y-136770559D01*
X95806581Y-138586097D01*
X93000000Y-138586097D01*
X93000000Y-136374000D01*
X93019685Y-136306961D01*
X93072489Y-136261206D01*
X93124000Y-136250000D01*
X102876000Y-136250000D01*
X102943039Y-136269685D01*
G37*
G36*
X86943039Y-51019685D02*
G01*
X86988794Y-51072489D01*
X87000000Y-51124000D01*
X87000000Y-53876000D01*
X86980315Y-53943039D01*
X86927511Y-53988794D01*
X86876000Y-54000000D01*
X79124000Y-54000000D01*
X79056961Y-53980315D01*
X79011206Y-53927511D01*
X79000000Y-53876000D01*
X79000000Y-53336155D01*
X80199315Y-53336155D01*
X85728153Y-53336155D01*
X85728153Y-51521603D01*
X80199315Y-51521603D01*
X80199315Y-53336155D01*
X79000000Y-53336155D01*
X79000000Y-51124000D01*
X79019685Y-51056961D01*
X79072489Y-51011206D01*
X79124000Y-51000000D01*
X86876000Y-51000000D01*
X86943039Y-51019685D01*
G37*
G36*
X127693039Y-136269685D02*
G01*
X127738794Y-136322489D01*
X127750000Y-136374000D01*
X127750000Y-139126000D01*
X127730315Y-139193039D01*
X127677511Y-139238794D01*
X127626000Y-139250000D01*
X115874000Y-139250000D01*
X115806961Y-139230315D01*
X115761206Y-139177511D01*
X115750000Y-139126000D01*
X115750000Y-138585053D01*
X119628989Y-138585053D01*
X123799582Y-138585053D01*
X123799582Y-136771603D01*
X119628989Y-136771603D01*
X119628989Y-138585053D01*
X115750000Y-138585053D01*
X115750000Y-136374000D01*
X115769685Y-136306961D01*
X115822489Y-136261206D01*
X115874000Y-136250000D01*
X127626000Y-136250000D01*
X127693039Y-136269685D01*
G37*
G36*
X81443039Y-136269685D02*
G01*
X81488794Y-136322489D01*
X81500000Y-136374000D01*
X81500000Y-139126000D01*
X81480315Y-139193039D01*
X81427511Y-139238794D01*
X81376000Y-139250000D01*
X65624000Y-139250000D01*
X65556961Y-139230315D01*
X65511206Y-139177511D01*
X65500000Y-139126000D01*
X65500000Y-138585853D01*
X68523570Y-138585853D01*
X78479132Y-138585853D01*
X78479132Y-136770803D01*
X68523570Y-136770803D01*
X68523570Y-138585853D01*
X65500000Y-138585853D01*
X65500000Y-136374000D01*
X65519685Y-136306961D01*
X65572489Y-136261206D01*
X65624000Y-136250000D01*
X81376000Y-136250000D01*
X81443039Y-136269685D01*
G37*
G36*
X140943039Y-70519685D02*
G01*
X140988794Y-70572489D01*
X141000000Y-70624000D01*
X141000000Y-80376000D01*
X140980315Y-80443039D01*
X140927511Y-80488794D01*
X140876000Y-80500000D01*
X131124000Y-80500000D01*
X131056961Y-80480315D01*
X131011206Y-80427511D01*
X131000000Y-80376000D01*
X131000000Y-76806819D01*
X131804838Y-76806819D01*
X135418476Y-76806819D01*
X135418476Y-74193181D01*
X131804838Y-74193181D01*
X131804838Y-76806819D01*
X131000000Y-76806819D01*
X131000000Y-70624000D01*
X131019685Y-70556961D01*
X131072489Y-70511206D01*
X131124000Y-70500000D01*
X140876000Y-70500000D01*
X140943039Y-70519685D01*
G37*
G36*
X136443039Y-87019685D02*
G01*
X136488794Y-87072489D01*
X136500000Y-87124000D01*
X136500000Y-102876000D01*
X136480315Y-102943039D01*
X136427511Y-102988794D01*
X136376000Y-103000000D01*
X133624000Y-103000000D01*
X133556961Y-102980315D01*
X133511206Y-102927511D01*
X133500000Y-102876000D01*
X133500000Y-101405000D01*
X134021603Y-101405000D01*
X135835053Y-101405000D01*
X135835053Y-88666427D01*
X134021603Y-88666427D01*
X134021603Y-101405000D01*
X133500000Y-101405000D01*
X133500000Y-87124000D01*
X133519685Y-87056961D01*
X133572489Y-87011206D01*
X133624000Y-87000000D01*
X136376000Y-87000000D01*
X136443039Y-87019685D01*
G37*
%LPC*%
D15*
%TO.C,Y2*%
X89656497Y-83156497D03*
X91000000Y-84500000D03*
%TD*%
D16*
%TO.C,C19*%
X114500000Y-77000000D03*
D17*
X119500000Y-77000000D03*
%TD*%
D18*
%TO.C,H6*%
X62015000Y-62985000D03*
%TD*%
D19*
%TO.C,H2*%
X140805000Y-55080000D03*
D20*
X140805000Y-55080000D03*
%TD*%
D21*
%TO.C,C1*%
X130000000Y-124000000D03*
D22*
X130000000Y-122000000D03*
%TD*%
D23*
%TO.C,J2*%
X57080000Y-123660000D03*
X57080000Y-121660000D03*
X57080000Y-119660000D03*
X57080000Y-117660000D03*
X57080000Y-115660000D03*
X57080000Y-113660000D03*
X57080000Y-111660000D03*
X57080000Y-109660000D03*
X57080000Y-107660000D03*
X57080000Y-105660000D03*
X57080000Y-103660000D03*
X57080000Y-101660000D03*
X57080000Y-99660000D03*
X57080000Y-97660000D03*
X57080000Y-95660000D03*
X57080000Y-93660000D03*
X57080000Y-91660000D03*
X57080000Y-89660000D03*
X57080000Y-87660000D03*
X57080000Y-85660000D03*
X57080000Y-83660000D03*
X57080000Y-81660000D03*
X57080000Y-79660000D03*
X57080000Y-77660000D03*
X57080000Y-75660000D03*
X57080000Y-73660000D03*
X57080000Y-71660000D03*
X57080000Y-69660000D03*
X57080000Y-67660000D03*
X57080000Y-65660000D03*
D24*
X55080000Y-123660000D03*
D23*
X55080000Y-121660000D03*
X55080000Y-119660000D03*
X55080000Y-117660000D03*
X55080000Y-115660000D03*
X55080000Y-113660000D03*
X55080000Y-111660000D03*
X55080000Y-109660000D03*
X55080000Y-107660000D03*
X55080000Y-105660000D03*
X55080000Y-103660000D03*
X55080000Y-101660000D03*
X55080000Y-99660000D03*
X55080000Y-97660000D03*
X55080000Y-95660000D03*
X55080000Y-93660000D03*
X55080000Y-91660000D03*
X55080000Y-89660000D03*
X55080000Y-87660000D03*
X55080000Y-85660000D03*
X55080000Y-83660000D03*
X55080000Y-81660000D03*
X55080000Y-79660000D03*
X55080000Y-77660000D03*
X55080000Y-75660000D03*
X55080000Y-73660000D03*
X55080000Y-71660000D03*
X55080000Y-69660000D03*
X55080000Y-67660000D03*
X55080000Y-65660000D03*
%TD*%
D21*
%TO.C,J3*%
X123000000Y-129000000D03*
D22*
X120500000Y-129000000D03*
X120500000Y-131000000D03*
X123000000Y-131000000D03*
D25*
X127750000Y-133860000D03*
X115750000Y-133860000D03*
%TD*%
D26*
%TO.C,U2*%
X135960000Y-117000000D03*
D27*
X138500000Y-117000000D03*
X141040000Y-117000000D03*
%TD*%
D28*
%TO.C,J4*%
X79270000Y-132890000D03*
X67840000Y-132890000D03*
D29*
X78000000Y-124000000D03*
D22*
X76730000Y-126540000D03*
X75460000Y-124000000D03*
X74190000Y-126540000D03*
X72920000Y-124000000D03*
X71650000Y-126540000D03*
X70380000Y-124000000D03*
X69110000Y-126540000D03*
D30*
X81455000Y-129840000D03*
X65655000Y-129840000D03*
%TD*%
D31*
%TO.C,D2*%
X128540000Y-58000000D03*
D32*
X126000000Y-58000000D03*
%TD*%
D33*
%TO.C,TP1*%
X130000000Y-117000000D03*
%TD*%
D31*
%TO.C,D3*%
X70000000Y-58000000D03*
D32*
X67460000Y-58000000D03*
%TD*%
D34*
%TO.C,S1*%
X113492500Y-64000000D03*
X113492500Y-61500000D03*
X113492500Y-59000000D03*
D32*
X114692500Y-67100000D03*
X111192500Y-55900000D03*
%TD*%
D19*
%TO.C,H3*%
X55080000Y-131280000D03*
D20*
X55080000Y-131280000D03*
%TD*%
D19*
%TO.C,H4*%
X140805000Y-135090000D03*
D20*
X140805000Y-135090000D03*
%TD*%
D34*
%TO.C,S3*%
X93492500Y-64000000D03*
X93492500Y-61500000D03*
X93492500Y-59000000D03*
D32*
X94692500Y-67100000D03*
X91192500Y-55900000D03*
%TD*%
D21*
%TO.C,C3*%
X138000000Y-107250000D03*
D22*
X138000000Y-104750000D03*
%TD*%
D34*
%TO.C,S2*%
X103492500Y-64000000D03*
X103492500Y-61500000D03*
X103492500Y-59000000D03*
D32*
X104692500Y-67100000D03*
X101192500Y-55900000D03*
%TD*%
D18*
%TO.C,H5*%
X54145000Y-62985000D03*
%TD*%
%TO.C,H7*%
X54145000Y-126335000D03*
%TD*%
D19*
%TO.C,H1*%
X55080000Y-57620000D03*
D20*
X55080000Y-57620000D03*
%TD*%
D23*
%TO.C,J1*%
X61080000Y-123660000D03*
X61080000Y-121660000D03*
X61080000Y-119660000D03*
X61080000Y-117660000D03*
X61080000Y-115660000D03*
X61080000Y-113660000D03*
X61080000Y-111660000D03*
X61080000Y-109660000D03*
X61080000Y-107660000D03*
X61080000Y-105660000D03*
X61080000Y-103660000D03*
X61080000Y-101660000D03*
X61080000Y-99660000D03*
X61080000Y-97660000D03*
X61080000Y-95660000D03*
X61080000Y-93660000D03*
X61080000Y-91660000D03*
X61080000Y-89660000D03*
X61080000Y-87660000D03*
X61080000Y-85660000D03*
X61080000Y-83660000D03*
X61080000Y-81660000D03*
X61080000Y-79660000D03*
X61080000Y-77660000D03*
X61080000Y-75660000D03*
X61080000Y-73660000D03*
X61080000Y-71660000D03*
X61080000Y-69660000D03*
X61080000Y-67660000D03*
X61080000Y-65660000D03*
D24*
X59080000Y-123660000D03*
D23*
X59080000Y-121660000D03*
X59080000Y-119660000D03*
X59080000Y-117660000D03*
X59080000Y-115660000D03*
X59080000Y-113660000D03*
X59080000Y-111660000D03*
X59080000Y-109660000D03*
X59080000Y-107660000D03*
X59080000Y-105660000D03*
X59080000Y-103660000D03*
X59080000Y-101660000D03*
X59080000Y-99660000D03*
X59080000Y-97660000D03*
X59080000Y-95660000D03*
X59080000Y-93660000D03*
X59080000Y-91660000D03*
X59080000Y-89660000D03*
X59080000Y-87660000D03*
X59080000Y-85660000D03*
X59080000Y-83660000D03*
X59080000Y-81660000D03*
X59080000Y-79660000D03*
X59080000Y-77660000D03*
X59080000Y-75660000D03*
X59080000Y-73660000D03*
X59080000Y-71660000D03*
X59080000Y-69660000D03*
X59080000Y-67660000D03*
X59080000Y-65660000D03*
%TD*%
D18*
%TO.C,H8*%
X62015000Y-126335000D03*
%TD*%
D34*
%TO.C,S4*%
X83492500Y-64000000D03*
X83492500Y-61500000D03*
X83492500Y-59000000D03*
D32*
X84692500Y-67100000D03*
X81192500Y-55900000D03*
%TD*%
D21*
%TO.C,C2*%
X142000000Y-124000000D03*
D22*
X142000000Y-122000000D03*
%TD*%
D35*
%TO.C,U6*%
X113640000Y-113770000D03*
X113640000Y-112500000D03*
D36*
X113640000Y-111230000D03*
%TD*%
D37*
X90250000Y-102250000D03*
X108000000Y-69000000D03*
X103000000Y-84000000D03*
X104000000Y-84750000D03*
X63125000Y-83625000D03*
X63065000Y-82685000D03*
X88000000Y-90750000D03*
X71000000Y-102000000D03*
X71000000Y-94000000D03*
X106250000Y-118000000D03*
X105500000Y-117500000D03*
X104750000Y-117000000D03*
X104000000Y-116500000D03*
X103250000Y-116000000D03*
X102500000Y-115500000D03*
X101750000Y-115000000D03*
X91103850Y-93195020D03*
X100000000Y-82000000D03*
X86500000Y-103500000D03*
X102000000Y-95000000D03*
X96000000Y-98000000D03*
X81500000Y-100000000D03*
X65000000Y-112000000D03*
X94000000Y-96000000D03*
X85500000Y-99325735D03*
X82500000Y-114500000D03*
X108750000Y-97250000D03*
X100500000Y-84000000D03*
X96000000Y-84000000D03*
X110600000Y-104500000D03*
X87250000Y-98250000D03*
X87750000Y-105750000D03*
X100000000Y-114500000D03*
X100000000Y-120000000D03*
X100000000Y-109250000D03*
X95750000Y-106250000D03*
X92277818Y-87722182D03*
X95500000Y-135000000D03*
X111000000Y-76500000D03*
X111500000Y-100500000D03*
X111000000Y-81500000D03*
X98000000Y-131000000D03*
X110500000Y-123250000D03*
X105989949Y-88989949D03*
X110500000Y-110000000D03*
X108742641Y-92742641D03*
X109500000Y-122960000D03*
X109500000Y-110000000D03*
X96750000Y-131000000D03*
X95500000Y-131000000D03*
X123625000Y-116875000D03*
X103349564Y-102551907D03*
X71500000Y-65750000D03*
X97500000Y-69000000D03*
X91049265Y-101200735D03*
X88000000Y-99348529D03*
X88500000Y-106499999D03*
X92500000Y-75750000D03*
X95000000Y-72000000D03*
X95500000Y-71250000D03*
X92000000Y-76500000D03*
X98250000Y-119500000D03*
X98500000Y-129080000D03*
X87286657Y-92768329D03*
X96000000Y-70500000D03*
X87000000Y-97000000D03*
X89750000Y-129000000D03*
X98250000Y-122730000D03*
X98250000Y-124000000D03*
X89250000Y-90750000D03*
X100500000Y-105500000D03*
X85500000Y-92250000D03*
X81500000Y-75500000D03*
X66250000Y-114750000D03*
X101000000Y-114500000D03*
X65500000Y-115500000D03*
X95139088Y-84360912D03*
X94431980Y-85068020D03*
X94000000Y-73500000D03*
X94500000Y-72750000D03*
X93500000Y-74250000D03*
X93000000Y-75000000D03*
X119500000Y-125500000D03*
X73500000Y-90500000D03*
%LPD*%
M02*
