%TF.GenerationSoftware,KiCad,Pcbnew,8.0.5*%
%TF.CreationDate,2025-04-09T01:05:41+01:00*%
%TF.ProjectId,OBC2,4f424332-2e6b-4696-9361-645f70636258,A*%
%TF.SameCoordinates,Original*%
%TF.FileFunction,Drillmap*%
%TF.FilePolarity,Positive*%
%FSLAX45Y45*%
G04 Gerber Fmt 4.5, Leading zero omitted, Abs format (unit mm)*
G04 Created by KiCad (PCBNEW 8.0.5) date 2025-04-09 01:05:41*
%MOMM*%
%LPD*%
G01*
G04 APERTURE LIST*
%ADD10C,0.050000*%
%ADD11C,0.200000*%
%ADD12C,0.100000*%
%ADD13C,0.120000*%
%ADD14C,0.160000*%
%ADD15C,0.230000*%
%ADD16C,0.320000*%
G04 APERTURE END LIST*
D10*
X14588500Y-13817000D02*
G75*
G02*
X14388500Y-14017000I-200000J0D01*
G01*
X14388500Y-14017000D02*
X5200000Y-14017000D01*
X5000000Y-13817000D02*
X5000000Y-5200000D01*
X14388500Y-5000000D02*
G75*
G02*
X14588500Y-5200000I0J-200000D01*
G01*
X14588500Y-5200000D02*
X14588500Y-13817000D01*
X5000000Y-5200000D02*
G75*
G02*
X5200000Y-5000000I200000J0D01*
G01*
X5200000Y-14017000D02*
G75*
G02*
X5000000Y-13817000I0J200000D01*
G01*
X5200000Y-5000000D02*
X14388500Y-5000000D01*
D11*
D12*
X6291500Y-8253500D02*
X6321500Y-8283500D01*
X6321500Y-8253500D02*
X6291500Y-8283500D01*
X6297500Y-8347500D02*
X6327500Y-8377500D01*
X6327500Y-8347500D02*
X6297500Y-8377500D01*
X6485000Y-11185000D02*
X6515000Y-11215000D01*
X6515000Y-11185000D02*
X6485000Y-11215000D01*
X6535000Y-11535000D02*
X6565000Y-11565000D01*
X6565000Y-11535000D02*
X6535000Y-11565000D01*
X6610000Y-11460000D02*
X6640000Y-11490000D01*
X6640000Y-11460000D02*
X6610000Y-11490000D01*
X7085000Y-9385000D02*
X7115000Y-9415000D01*
X7115000Y-9385000D02*
X7085000Y-9415000D01*
X7085000Y-10185000D02*
X7115000Y-10215000D01*
X7115000Y-10185000D02*
X7085000Y-10215000D01*
X7135000Y-6560000D02*
X7165000Y-6590000D01*
X7165000Y-6560000D02*
X7135000Y-6590000D01*
X7335000Y-9035000D02*
X7365000Y-9065000D01*
X7365000Y-9035000D02*
X7335000Y-9065000D01*
X8135000Y-7535000D02*
X8165000Y-7565000D01*
X8165000Y-7535000D02*
X8135000Y-7565000D01*
X8135000Y-9985000D02*
X8165000Y-10015000D01*
X8165000Y-9985000D02*
X8135000Y-10015000D01*
X8235000Y-11435000D02*
X8265000Y-11465000D01*
X8265000Y-11435000D02*
X8235000Y-11465000D01*
X8535000Y-9210000D02*
X8565000Y-9240000D01*
X8565000Y-9210000D02*
X8535000Y-9240000D01*
X8535000Y-9917574D02*
X8565000Y-9947574D01*
X8565000Y-9917574D02*
X8535000Y-9947574D01*
X8635000Y-10335000D02*
X8665000Y-10365000D01*
X8665000Y-10335000D02*
X8635000Y-10365000D01*
X8685000Y-9685000D02*
X8715000Y-9715000D01*
X8715000Y-9685000D02*
X8685000Y-9715000D01*
X8710000Y-9810000D02*
X8740000Y-9840000D01*
X8740000Y-9810000D02*
X8710000Y-9840000D01*
X8713666Y-9261833D02*
X8743666Y-9291833D01*
X8743666Y-9261833D02*
X8713666Y-9291833D01*
X8760000Y-10560000D02*
X8790000Y-10590000D01*
X8790000Y-10560000D02*
X8760000Y-10590000D01*
X8785000Y-9060000D02*
X8815000Y-9090000D01*
X8815000Y-9060000D02*
X8785000Y-9090000D01*
X8785000Y-9919853D02*
X8815000Y-9949853D01*
X8815000Y-9919853D02*
X8785000Y-9949853D01*
X8835000Y-10635000D02*
X8865000Y-10665000D01*
X8865000Y-10635000D02*
X8835000Y-10665000D01*
X8910000Y-9060000D02*
X8940000Y-9090000D01*
X8940000Y-9060000D02*
X8910000Y-9090000D01*
X8960000Y-12885000D02*
X8990000Y-12915000D01*
X8990000Y-12885000D02*
X8960000Y-12915000D01*
X9010000Y-10210000D02*
X9040000Y-10240000D01*
X9040000Y-10210000D02*
X9010000Y-10240000D01*
X9089927Y-10105074D02*
X9119927Y-10135074D01*
X9119927Y-10105074D02*
X9089927Y-10135074D01*
X9095385Y-9304502D02*
X9125385Y-9334502D01*
X9125385Y-9304502D02*
X9095385Y-9334502D01*
X9185000Y-7635000D02*
X9215000Y-7665000D01*
X9215000Y-7635000D02*
X9185000Y-7665000D01*
X9212782Y-8757218D02*
X9242782Y-8787218D01*
X9242782Y-8757218D02*
X9212782Y-8787218D01*
X9235000Y-7560000D02*
X9265000Y-7590000D01*
X9265000Y-7560000D02*
X9235000Y-7590000D01*
X9285000Y-7485000D02*
X9315000Y-7515000D01*
X9315000Y-7485000D02*
X9285000Y-7515000D01*
X9335000Y-7410000D02*
X9365000Y-7440000D01*
X9365000Y-7410000D02*
X9335000Y-7440000D01*
X9385000Y-7335000D02*
X9415000Y-7365000D01*
X9415000Y-7335000D02*
X9385000Y-7365000D01*
X9385000Y-9585000D02*
X9415000Y-9615000D01*
X9415000Y-9585000D02*
X9385000Y-9615000D01*
X9428198Y-8491802D02*
X9458198Y-8521802D01*
X9458198Y-8491802D02*
X9428198Y-8521802D01*
X9435000Y-7260000D02*
X9465000Y-7290000D01*
X9465000Y-7260000D02*
X9435000Y-7290000D01*
X9485000Y-7185000D02*
X9515000Y-7215000D01*
X9515000Y-7185000D02*
X9485000Y-7215000D01*
X9498909Y-8421091D02*
X9528909Y-8451091D01*
X9528909Y-8421091D02*
X9498909Y-8451091D01*
X9535000Y-7110000D02*
X9565000Y-7140000D01*
X9565000Y-7110000D02*
X9535000Y-7140000D01*
X9535000Y-13085000D02*
X9565000Y-13115000D01*
X9565000Y-13085000D02*
X9535000Y-13115000D01*
X9535000Y-13485000D02*
X9565000Y-13515000D01*
X9565000Y-13485000D02*
X9535000Y-13515000D01*
X9560000Y-10610000D02*
X9590000Y-10640000D01*
X9590000Y-10610000D02*
X9560000Y-10640000D01*
X9585000Y-7035000D02*
X9615000Y-7065000D01*
X9615000Y-7035000D02*
X9585000Y-7065000D01*
X9585000Y-8385000D02*
X9615000Y-8415000D01*
X9615000Y-8385000D02*
X9585000Y-8415000D01*
X9585000Y-9785000D02*
X9615000Y-9815000D01*
X9615000Y-9785000D02*
X9585000Y-9815000D01*
X9660000Y-13085000D02*
X9690000Y-13115000D01*
X9690000Y-13085000D02*
X9660000Y-13115000D01*
X9735000Y-6885000D02*
X9765000Y-6915000D01*
X9765000Y-6885000D02*
X9735000Y-6915000D01*
X9785000Y-13085000D02*
X9815000Y-13115000D01*
X9815000Y-13085000D02*
X9785000Y-13115000D01*
X9810000Y-11935000D02*
X9840000Y-11965000D01*
X9840000Y-11935000D02*
X9810000Y-11965000D01*
X9810000Y-12258000D02*
X9840000Y-12288000D01*
X9840000Y-12258000D02*
X9810000Y-12288000D01*
X9810000Y-12385000D02*
X9840000Y-12415000D01*
X9840000Y-12385000D02*
X9810000Y-12415000D01*
X9835000Y-12893000D02*
X9865000Y-12923000D01*
X9865000Y-12893000D02*
X9835000Y-12923000D01*
X9985000Y-8185000D02*
X10015000Y-8215000D01*
X10015000Y-8185000D02*
X9985000Y-8215000D01*
X9985000Y-10910000D02*
X10015000Y-10940000D01*
X10015000Y-10910000D02*
X9985000Y-10940000D01*
X9985000Y-11435000D02*
X10015000Y-11465000D01*
X10015000Y-11435000D02*
X9985000Y-11465000D01*
X9985000Y-11985000D02*
X10015000Y-12015000D01*
X10015000Y-11985000D02*
X9985000Y-12015000D01*
X10035000Y-8385000D02*
X10065000Y-8415000D01*
X10065000Y-8385000D02*
X10035000Y-8415000D01*
X10035000Y-10535000D02*
X10065000Y-10565000D01*
X10065000Y-10535000D02*
X10035000Y-10565000D01*
X10085000Y-11435000D02*
X10115000Y-11465000D01*
X10115000Y-11435000D02*
X10085000Y-11465000D01*
X10160000Y-11485000D02*
X10190000Y-11515000D01*
X10190000Y-11485000D02*
X10160000Y-11515000D01*
X10185000Y-9485000D02*
X10215000Y-9515000D01*
X10215000Y-9485000D02*
X10185000Y-9515000D01*
X10235000Y-11535000D02*
X10265000Y-11565000D01*
X10265000Y-11535000D02*
X10235000Y-11565000D01*
X10285000Y-8385000D02*
X10315000Y-8415000D01*
X10315000Y-8385000D02*
X10285000Y-8415000D01*
X10310000Y-11585000D02*
X10340000Y-11615000D01*
X10340000Y-11585000D02*
X10310000Y-11615000D01*
X10319956Y-10240191D02*
X10349956Y-10270191D01*
X10349956Y-10240191D02*
X10319956Y-10270191D01*
X10385000Y-8460000D02*
X10415000Y-8490000D01*
X10415000Y-8460000D02*
X10385000Y-8490000D01*
X10385000Y-11635000D02*
X10415000Y-11665000D01*
X10415000Y-11635000D02*
X10385000Y-11665000D01*
X10460000Y-11685000D02*
X10490000Y-11715000D01*
X10490000Y-11685000D02*
X10460000Y-11715000D01*
X10535000Y-11735000D02*
X10565000Y-11765000D01*
X10565000Y-11735000D02*
X10535000Y-11765000D01*
X10583995Y-8883995D02*
X10613995Y-8913995D01*
X10613995Y-8883995D02*
X10583995Y-8913995D01*
X10610000Y-11785000D02*
X10640000Y-11815000D01*
X10640000Y-11785000D02*
X10610000Y-11815000D01*
X10785000Y-6885000D02*
X10815000Y-6915000D01*
X10815000Y-6885000D02*
X10785000Y-6915000D01*
X10859264Y-9259264D02*
X10889264Y-9289264D01*
X10889264Y-9259264D02*
X10859264Y-9289264D01*
X10860000Y-9710000D02*
X10890000Y-9740000D01*
X10890000Y-9710000D02*
X10860000Y-9740000D01*
X10935000Y-10985000D02*
X10965000Y-11015000D01*
X10965000Y-10985000D02*
X10935000Y-11015000D01*
X10935000Y-12281000D02*
X10965000Y-12311000D01*
X10965000Y-12281000D02*
X10935000Y-12311000D01*
X11035000Y-10985000D02*
X11065000Y-11015000D01*
X11065000Y-10985000D02*
X11035000Y-11015000D01*
X11035000Y-12310000D02*
X11065000Y-12340000D01*
X11065000Y-12310000D02*
X11035000Y-12340000D01*
X11045000Y-10435000D02*
X11075000Y-10465000D01*
X11075000Y-10435000D02*
X11045000Y-10465000D01*
X11085000Y-7635000D02*
X11115000Y-7665000D01*
X11115000Y-7635000D02*
X11085000Y-7665000D01*
X11085000Y-8135000D02*
X11115000Y-8165000D01*
X11115000Y-8135000D02*
X11085000Y-8165000D01*
X11135000Y-10035000D02*
X11165000Y-10065000D01*
X11165000Y-10035000D02*
X11135000Y-10065000D01*
X11935000Y-12535000D02*
X11965000Y-12565000D01*
X11965000Y-12535000D02*
X11935000Y-12565000D01*
X12347500Y-11672500D02*
X12377500Y-11702500D01*
X12377500Y-11672500D02*
X12347500Y-11702500D01*
X8990650Y-8315650D02*
G75*
G02*
X8940650Y-8315650I-25000J0D01*
G01*
X8940650Y-8315650D02*
G75*
G02*
X8990650Y-8315650I25000J0D01*
G01*
X9125000Y-8450000D02*
G75*
G02*
X9075000Y-8450000I-25000J0D01*
G01*
X9075000Y-8450000D02*
G75*
G02*
X9125000Y-8450000I25000J0D01*
G01*
X11364000Y-11085500D02*
X11364000Y-11160500D01*
X11326500Y-11123000D02*
X11401500Y-11123000D01*
X11364000Y-11212500D02*
X11364000Y-11287500D01*
X11326500Y-11250000D02*
X11401500Y-11250000D01*
X11364000Y-11339500D02*
X11364000Y-11414500D01*
X11326500Y-11377000D02*
X11401500Y-11377000D01*
X5536285Y-6594284D02*
X5536285Y-6537715D01*
X5479716Y-6537715D01*
X5479716Y-6594284D01*
X5536285Y-6594284D01*
X5536285Y-6794284D02*
X5536285Y-6737715D01*
X5479716Y-6737715D01*
X5479716Y-6794284D01*
X5536285Y-6794284D01*
X5536285Y-6994284D02*
X5536285Y-6937715D01*
X5479716Y-6937715D01*
X5479716Y-6994284D01*
X5536285Y-6994284D01*
X5536285Y-7194284D02*
X5536285Y-7137715D01*
X5479716Y-7137715D01*
X5479716Y-7194284D01*
X5536285Y-7194284D01*
X5536285Y-7394284D02*
X5536285Y-7337715D01*
X5479716Y-7337715D01*
X5479716Y-7394284D01*
X5536285Y-7394284D01*
X5536285Y-7594284D02*
X5536285Y-7537715D01*
X5479716Y-7537715D01*
X5479716Y-7594284D01*
X5536285Y-7594284D01*
X5536285Y-7794284D02*
X5536285Y-7737715D01*
X5479716Y-7737715D01*
X5479716Y-7794284D01*
X5536285Y-7794284D01*
X5536285Y-7994284D02*
X5536285Y-7937715D01*
X5479716Y-7937715D01*
X5479716Y-7994284D01*
X5536285Y-7994284D01*
X5536285Y-8194284D02*
X5536285Y-8137715D01*
X5479716Y-8137715D01*
X5479716Y-8194284D01*
X5536285Y-8194284D01*
X5536285Y-8394285D02*
X5536285Y-8337715D01*
X5479716Y-8337715D01*
X5479716Y-8394285D01*
X5536285Y-8394285D01*
X5536285Y-8594285D02*
X5536285Y-8537716D01*
X5479716Y-8537716D01*
X5479716Y-8594285D01*
X5536285Y-8594285D01*
X5536285Y-8794285D02*
X5536285Y-8737716D01*
X5479716Y-8737716D01*
X5479716Y-8794285D01*
X5536285Y-8794285D01*
X5536285Y-8994285D02*
X5536285Y-8937716D01*
X5479716Y-8937716D01*
X5479716Y-8994285D01*
X5536285Y-8994285D01*
X5536285Y-9194285D02*
X5536285Y-9137716D01*
X5479716Y-9137716D01*
X5479716Y-9194285D01*
X5536285Y-9194285D01*
X5536285Y-9394285D02*
X5536285Y-9337716D01*
X5479716Y-9337716D01*
X5479716Y-9394285D01*
X5536285Y-9394285D01*
X5536285Y-9594285D02*
X5536285Y-9537716D01*
X5479716Y-9537716D01*
X5479716Y-9594285D01*
X5536285Y-9594285D01*
X5536285Y-9794285D02*
X5536285Y-9737716D01*
X5479716Y-9737716D01*
X5479716Y-9794285D01*
X5536285Y-9794285D01*
X5536285Y-9994285D02*
X5536285Y-9937716D01*
X5479716Y-9937716D01*
X5479716Y-9994285D01*
X5536285Y-9994285D01*
X5536285Y-10194285D02*
X5536285Y-10137716D01*
X5479716Y-10137716D01*
X5479716Y-10194285D01*
X5536285Y-10194285D01*
X5536285Y-10394285D02*
X5536285Y-10337716D01*
X5479716Y-10337716D01*
X5479716Y-10394285D01*
X5536285Y-10394285D01*
X5536285Y-10594285D02*
X5536285Y-10537716D01*
X5479716Y-10537716D01*
X5479716Y-10594285D01*
X5536285Y-10594285D01*
X5536285Y-10794285D02*
X5536285Y-10737716D01*
X5479716Y-10737716D01*
X5479716Y-10794285D01*
X5536285Y-10794285D01*
X5536285Y-10994285D02*
X5536285Y-10937716D01*
X5479716Y-10937716D01*
X5479716Y-10994285D01*
X5536285Y-10994285D01*
X5536285Y-11194284D02*
X5536285Y-11137716D01*
X5479716Y-11137716D01*
X5479716Y-11194284D01*
X5536285Y-11194284D01*
X5536285Y-11394284D02*
X5536285Y-11337715D01*
X5479716Y-11337715D01*
X5479716Y-11394284D01*
X5536285Y-11394284D01*
X5536285Y-11594284D02*
X5536285Y-11537715D01*
X5479716Y-11537715D01*
X5479716Y-11594284D01*
X5536285Y-11594284D01*
X5536285Y-11794284D02*
X5536285Y-11737715D01*
X5479716Y-11737715D01*
X5479716Y-11794284D01*
X5536285Y-11794284D01*
X5536285Y-11994284D02*
X5536285Y-11937715D01*
X5479716Y-11937715D01*
X5479716Y-11994284D01*
X5536285Y-11994284D01*
X5536285Y-12194284D02*
X5536285Y-12137715D01*
X5479716Y-12137715D01*
X5479716Y-12194284D01*
X5536285Y-12194284D01*
X5536285Y-12394284D02*
X5536285Y-12337715D01*
X5479716Y-12337715D01*
X5479716Y-12394284D01*
X5536285Y-12394284D01*
X5736284Y-6594284D02*
X5736284Y-6537715D01*
X5679715Y-6537715D01*
X5679715Y-6594284D01*
X5736284Y-6594284D01*
X5736284Y-6794284D02*
X5736284Y-6737715D01*
X5679715Y-6737715D01*
X5679715Y-6794284D01*
X5736284Y-6794284D01*
X5736284Y-6994284D02*
X5736284Y-6937715D01*
X5679715Y-6937715D01*
X5679715Y-6994284D01*
X5736284Y-6994284D01*
X5736284Y-7194284D02*
X5736284Y-7137715D01*
X5679715Y-7137715D01*
X5679715Y-7194284D01*
X5736284Y-7194284D01*
X5736284Y-7394284D02*
X5736284Y-7337715D01*
X5679715Y-7337715D01*
X5679715Y-7394284D01*
X5736284Y-7394284D01*
X5736284Y-7594284D02*
X5736284Y-7537715D01*
X5679715Y-7537715D01*
X5679715Y-7594284D01*
X5736284Y-7594284D01*
X5736284Y-7794284D02*
X5736284Y-7737715D01*
X5679715Y-7737715D01*
X5679715Y-7794284D01*
X5736284Y-7794284D01*
X5736284Y-7994284D02*
X5736284Y-7937715D01*
X5679715Y-7937715D01*
X5679715Y-7994284D01*
X5736284Y-7994284D01*
X5736284Y-8194284D02*
X5736284Y-8137715D01*
X5679715Y-8137715D01*
X5679715Y-8194284D01*
X5736284Y-8194284D01*
X5736284Y-8394285D02*
X5736284Y-8337715D01*
X5679715Y-8337715D01*
X5679715Y-8394285D01*
X5736284Y-8394285D01*
X5736284Y-8594285D02*
X5736284Y-8537716D01*
X5679715Y-8537716D01*
X5679715Y-8594285D01*
X5736284Y-8594285D01*
X5736284Y-8794285D02*
X5736284Y-8737716D01*
X5679715Y-8737716D01*
X5679715Y-8794285D01*
X5736284Y-8794285D01*
X5736284Y-8994285D02*
X5736284Y-8937716D01*
X5679715Y-8937716D01*
X5679715Y-8994285D01*
X5736284Y-8994285D01*
X5736284Y-9194285D02*
X5736284Y-9137716D01*
X5679715Y-9137716D01*
X5679715Y-9194285D01*
X5736284Y-9194285D01*
X5736284Y-9394285D02*
X5736284Y-9337716D01*
X5679715Y-9337716D01*
X5679715Y-9394285D01*
X5736284Y-9394285D01*
X5736284Y-9594285D02*
X5736284Y-9537716D01*
X5679715Y-9537716D01*
X5679715Y-9594285D01*
X5736284Y-9594285D01*
X5736284Y-9794285D02*
X5736284Y-9737716D01*
X5679715Y-9737716D01*
X5679715Y-9794285D01*
X5736284Y-9794285D01*
X5736284Y-9994285D02*
X5736284Y-9937716D01*
X5679715Y-9937716D01*
X5679715Y-9994285D01*
X5736284Y-9994285D01*
X5736284Y-10194285D02*
X5736284Y-10137716D01*
X5679715Y-10137716D01*
X5679715Y-10194285D01*
X5736284Y-10194285D01*
X5736284Y-10394285D02*
X5736284Y-10337716D01*
X5679715Y-10337716D01*
X5679715Y-10394285D01*
X5736284Y-10394285D01*
X5736284Y-10594285D02*
X5736284Y-10537716D01*
X5679715Y-10537716D01*
X5679715Y-10594285D01*
X5736284Y-10594285D01*
X5736284Y-10794285D02*
X5736284Y-10737716D01*
X5679715Y-10737716D01*
X5679715Y-10794285D01*
X5736284Y-10794285D01*
X5736284Y-10994285D02*
X5736284Y-10937716D01*
X5679715Y-10937716D01*
X5679715Y-10994285D01*
X5736284Y-10994285D01*
X5736284Y-11194284D02*
X5736284Y-11137716D01*
X5679715Y-11137716D01*
X5679715Y-11194284D01*
X5736284Y-11194284D01*
X5736284Y-11394284D02*
X5736284Y-11337715D01*
X5679715Y-11337715D01*
X5679715Y-11394284D01*
X5736284Y-11394284D01*
X5736284Y-11594284D02*
X5736284Y-11537715D01*
X5679715Y-11537715D01*
X5679715Y-11594284D01*
X5736284Y-11594284D01*
X5736284Y-11794284D02*
X5736284Y-11737715D01*
X5679715Y-11737715D01*
X5679715Y-11794284D01*
X5736284Y-11794284D01*
X5736284Y-11994284D02*
X5736284Y-11937715D01*
X5679715Y-11937715D01*
X5679715Y-11994284D01*
X5736284Y-11994284D01*
X5736284Y-12194284D02*
X5736284Y-12137715D01*
X5679715Y-12137715D01*
X5679715Y-12194284D01*
X5736284Y-12194284D01*
X5736284Y-12394284D02*
X5736284Y-12337715D01*
X5679715Y-12337715D01*
X5679715Y-12394284D01*
X5736284Y-12394284D01*
X5936284Y-6594284D02*
X5936284Y-6537715D01*
X5879715Y-6537715D01*
X5879715Y-6594284D01*
X5936284Y-6594284D01*
X5936284Y-6794284D02*
X5936284Y-6737715D01*
X5879715Y-6737715D01*
X5879715Y-6794284D01*
X5936284Y-6794284D01*
X5936284Y-6994284D02*
X5936284Y-6937715D01*
X5879715Y-6937715D01*
X5879715Y-6994284D01*
X5936284Y-6994284D01*
X5936284Y-7194284D02*
X5936284Y-7137715D01*
X5879715Y-7137715D01*
X5879715Y-7194284D01*
X5936284Y-7194284D01*
X5936284Y-7394284D02*
X5936284Y-7337715D01*
X5879715Y-7337715D01*
X5879715Y-7394284D01*
X5936284Y-7394284D01*
X5936284Y-7594284D02*
X5936284Y-7537715D01*
X5879715Y-7537715D01*
X5879715Y-7594284D01*
X5936284Y-7594284D01*
X5936284Y-7794284D02*
X5936284Y-7737715D01*
X5879715Y-7737715D01*
X5879715Y-7794284D01*
X5936284Y-7794284D01*
X5936284Y-7994284D02*
X5936284Y-7937715D01*
X5879715Y-7937715D01*
X5879715Y-7994284D01*
X5936284Y-7994284D01*
X5936284Y-8194284D02*
X5936284Y-8137715D01*
X5879715Y-8137715D01*
X5879715Y-8194284D01*
X5936284Y-8194284D01*
X5936284Y-8394285D02*
X5936284Y-8337715D01*
X5879715Y-8337715D01*
X5879715Y-8394285D01*
X5936284Y-8394285D01*
X5936284Y-8594285D02*
X5936284Y-8537716D01*
X5879715Y-8537716D01*
X5879715Y-8594285D01*
X5936284Y-8594285D01*
X5936284Y-8794285D02*
X5936284Y-8737716D01*
X5879715Y-8737716D01*
X5879715Y-8794285D01*
X5936284Y-8794285D01*
X5936284Y-8994285D02*
X5936284Y-8937716D01*
X5879715Y-8937716D01*
X5879715Y-8994285D01*
X5936284Y-8994285D01*
X5936284Y-9194285D02*
X5936284Y-9137716D01*
X5879715Y-9137716D01*
X5879715Y-9194285D01*
X5936284Y-9194285D01*
X5936284Y-9394285D02*
X5936284Y-9337716D01*
X5879715Y-9337716D01*
X5879715Y-9394285D01*
X5936284Y-9394285D01*
X5936284Y-9594285D02*
X5936284Y-9537716D01*
X5879715Y-9537716D01*
X5879715Y-9594285D01*
X5936284Y-9594285D01*
X5936284Y-9794285D02*
X5936284Y-9737716D01*
X5879715Y-9737716D01*
X5879715Y-9794285D01*
X5936284Y-9794285D01*
X5936284Y-9994285D02*
X5936284Y-9937716D01*
X5879715Y-9937716D01*
X5879715Y-9994285D01*
X5936284Y-9994285D01*
X5936284Y-10194285D02*
X5936284Y-10137716D01*
X5879715Y-10137716D01*
X5879715Y-10194285D01*
X5936284Y-10194285D01*
X5936284Y-10394285D02*
X5936284Y-10337716D01*
X5879715Y-10337716D01*
X5879715Y-10394285D01*
X5936284Y-10394285D01*
X5936284Y-10594285D02*
X5936284Y-10537716D01*
X5879715Y-10537716D01*
X5879715Y-10594285D01*
X5936284Y-10594285D01*
X5936284Y-10794285D02*
X5936284Y-10737716D01*
X5879715Y-10737716D01*
X5879715Y-10794285D01*
X5936284Y-10794285D01*
X5936284Y-10994285D02*
X5936284Y-10937716D01*
X5879715Y-10937716D01*
X5879715Y-10994285D01*
X5936284Y-10994285D01*
X5936284Y-11194284D02*
X5936284Y-11137716D01*
X5879715Y-11137716D01*
X5879715Y-11194284D01*
X5936284Y-11194284D01*
X5936284Y-11394284D02*
X5936284Y-11337715D01*
X5879715Y-11337715D01*
X5879715Y-11394284D01*
X5936284Y-11394284D01*
X5936284Y-11594284D02*
X5936284Y-11537715D01*
X5879715Y-11537715D01*
X5879715Y-11594284D01*
X5936284Y-11594284D01*
X5936284Y-11794284D02*
X5936284Y-11737715D01*
X5879715Y-11737715D01*
X5879715Y-11794284D01*
X5936284Y-11794284D01*
X5936284Y-11994284D02*
X5936284Y-11937715D01*
X5879715Y-11937715D01*
X5879715Y-11994284D01*
X5936284Y-11994284D01*
X5936284Y-12194284D02*
X5936284Y-12137715D01*
X5879715Y-12137715D01*
X5879715Y-12194284D01*
X5936284Y-12194284D01*
X5936284Y-12394284D02*
X5936284Y-12337715D01*
X5879715Y-12337715D01*
X5879715Y-12394284D01*
X5936284Y-12394284D01*
X6136284Y-6594284D02*
X6136284Y-6537715D01*
X6079715Y-6537715D01*
X6079715Y-6594284D01*
X6136284Y-6594284D01*
X6136284Y-6794284D02*
X6136284Y-6737715D01*
X6079715Y-6737715D01*
X6079715Y-6794284D01*
X6136284Y-6794284D01*
X6136284Y-6994284D02*
X6136284Y-6937715D01*
X6079715Y-6937715D01*
X6079715Y-6994284D01*
X6136284Y-6994284D01*
X6136284Y-7194284D02*
X6136284Y-7137715D01*
X6079715Y-7137715D01*
X6079715Y-7194284D01*
X6136284Y-7194284D01*
X6136284Y-7394284D02*
X6136284Y-7337715D01*
X6079715Y-7337715D01*
X6079715Y-7394284D01*
X6136284Y-7394284D01*
X6136284Y-7594284D02*
X6136284Y-7537715D01*
X6079715Y-7537715D01*
X6079715Y-7594284D01*
X6136284Y-7594284D01*
X6136284Y-7794284D02*
X6136284Y-7737715D01*
X6079715Y-7737715D01*
X6079715Y-7794284D01*
X6136284Y-7794284D01*
X6136284Y-7994284D02*
X6136284Y-7937715D01*
X6079715Y-7937715D01*
X6079715Y-7994284D01*
X6136284Y-7994284D01*
X6136284Y-8194284D02*
X6136284Y-8137715D01*
X6079715Y-8137715D01*
X6079715Y-8194284D01*
X6136284Y-8194284D01*
X6136284Y-8394285D02*
X6136284Y-8337715D01*
X6079715Y-8337715D01*
X6079715Y-8394285D01*
X6136284Y-8394285D01*
X6136284Y-8594285D02*
X6136284Y-8537716D01*
X6079715Y-8537716D01*
X6079715Y-8594285D01*
X6136284Y-8594285D01*
X6136284Y-8794285D02*
X6136284Y-8737716D01*
X6079715Y-8737716D01*
X6079715Y-8794285D01*
X6136284Y-8794285D01*
X6136284Y-8994285D02*
X6136284Y-8937716D01*
X6079715Y-8937716D01*
X6079715Y-8994285D01*
X6136284Y-8994285D01*
X6136284Y-9194285D02*
X6136284Y-9137716D01*
X6079715Y-9137716D01*
X6079715Y-9194285D01*
X6136284Y-9194285D01*
X6136284Y-9394285D02*
X6136284Y-9337716D01*
X6079715Y-9337716D01*
X6079715Y-9394285D01*
X6136284Y-9394285D01*
X6136284Y-9594285D02*
X6136284Y-9537716D01*
X6079715Y-9537716D01*
X6079715Y-9594285D01*
X6136284Y-9594285D01*
X6136284Y-9794285D02*
X6136284Y-9737716D01*
X6079715Y-9737716D01*
X6079715Y-9794285D01*
X6136284Y-9794285D01*
X6136284Y-9994285D02*
X6136284Y-9937716D01*
X6079715Y-9937716D01*
X6079715Y-9994285D01*
X6136284Y-9994285D01*
X6136284Y-10194285D02*
X6136284Y-10137716D01*
X6079715Y-10137716D01*
X6079715Y-10194285D01*
X6136284Y-10194285D01*
X6136284Y-10394285D02*
X6136284Y-10337716D01*
X6079715Y-10337716D01*
X6079715Y-10394285D01*
X6136284Y-10394285D01*
X6136284Y-10594285D02*
X6136284Y-10537716D01*
X6079715Y-10537716D01*
X6079715Y-10594285D01*
X6136284Y-10594285D01*
X6136284Y-10794285D02*
X6136284Y-10737716D01*
X6079715Y-10737716D01*
X6079715Y-10794285D01*
X6136284Y-10794285D01*
X6136284Y-10994285D02*
X6136284Y-10937716D01*
X6079715Y-10937716D01*
X6079715Y-10994285D01*
X6136284Y-10994285D01*
X6136284Y-11194284D02*
X6136284Y-11137716D01*
X6079715Y-11137716D01*
X6079715Y-11194284D01*
X6136284Y-11194284D01*
X6136284Y-11394284D02*
X6136284Y-11337715D01*
X6079715Y-11337715D01*
X6079715Y-11394284D01*
X6136284Y-11394284D01*
X6136284Y-11594284D02*
X6136284Y-11537715D01*
X6079715Y-11537715D01*
X6079715Y-11594284D01*
X6136284Y-11594284D01*
X6136284Y-11794284D02*
X6136284Y-11737715D01*
X6079715Y-11737715D01*
X6079715Y-11794284D01*
X6136284Y-11794284D01*
X6136284Y-11994284D02*
X6136284Y-11937715D01*
X6079715Y-11937715D01*
X6079715Y-11994284D01*
X6136284Y-11994284D01*
X6136284Y-12194284D02*
X6136284Y-12137715D01*
X6079715Y-12137715D01*
X6079715Y-12194284D01*
X6136284Y-12194284D01*
X6136284Y-12394284D02*
X6136284Y-12337715D01*
X6079715Y-12337715D01*
X6079715Y-12394284D01*
X6136284Y-12394284D01*
X13028284Y-12228284D02*
X13028284Y-12171715D01*
X12971715Y-12171715D01*
X12971715Y-12228284D01*
X13028284Y-12228284D01*
X13028284Y-12428284D02*
X13028284Y-12371715D01*
X12971715Y-12371715D01*
X12971715Y-12428284D01*
X13028284Y-12428284D01*
X13828284Y-10503285D02*
X13828284Y-10446716D01*
X13771715Y-10446716D01*
X13771715Y-10503285D01*
X13828284Y-10503285D01*
X13828284Y-10753285D02*
X13828284Y-10696716D01*
X13771715Y-10696716D01*
X13771715Y-10753285D01*
X13828284Y-10753285D01*
X14228284Y-12228284D02*
X14228284Y-12171715D01*
X14171715Y-12171715D01*
X14171715Y-12228284D01*
X14228284Y-12228284D01*
X14228284Y-12428284D02*
X14228284Y-12371715D01*
X14171715Y-12371715D01*
X14171715Y-12428284D01*
X14228284Y-12428284D01*
X6746000Y-5845000D02*
X6791000Y-5800000D01*
X6746000Y-5755000D01*
X6701000Y-5800000D01*
X6746000Y-5845000D01*
X6911000Y-12699000D02*
X6956000Y-12654000D01*
X6911000Y-12609000D01*
X6866000Y-12654000D01*
X6911000Y-12699000D01*
X7000000Y-5845000D02*
X7045000Y-5800000D01*
X7000000Y-5755000D01*
X6955000Y-5800000D01*
X7000000Y-5845000D01*
X7038000Y-12445000D02*
X7083000Y-12400000D01*
X7038000Y-12355000D01*
X6993000Y-12400000D01*
X7038000Y-12445000D01*
X7165000Y-12699000D02*
X7210000Y-12654000D01*
X7165000Y-12609000D01*
X7120000Y-12654000D01*
X7165000Y-12699000D01*
X7292000Y-12445000D02*
X7337000Y-12400000D01*
X7292000Y-12355000D01*
X7247000Y-12400000D01*
X7292000Y-12445000D01*
X7419000Y-12699000D02*
X7464000Y-12654000D01*
X7419000Y-12609000D01*
X7374000Y-12654000D01*
X7419000Y-12699000D01*
X7546000Y-12445000D02*
X7591000Y-12400000D01*
X7546000Y-12355000D01*
X7501000Y-12400000D01*
X7546000Y-12445000D01*
X7673000Y-12699000D02*
X7718000Y-12654000D01*
X7673000Y-12609000D01*
X7628000Y-12654000D01*
X7673000Y-12699000D01*
X7800000Y-12445000D02*
X7845000Y-12400000D01*
X7800000Y-12355000D01*
X7755000Y-12400000D01*
X7800000Y-12445000D01*
X8349250Y-5945000D02*
X8394250Y-5900000D01*
X8349250Y-5855000D01*
X8304250Y-5900000D01*
X8349250Y-5945000D01*
X8349250Y-6195000D02*
X8394250Y-6150000D01*
X8349250Y-6105000D01*
X8304250Y-6150000D01*
X8349250Y-6195000D01*
X8349250Y-6445000D02*
X8394250Y-6400000D01*
X8349250Y-6355000D01*
X8304250Y-6400000D01*
X8349250Y-6445000D01*
X9349250Y-5945000D02*
X9394250Y-5900000D01*
X9349250Y-5855000D01*
X9304250Y-5900000D01*
X9349250Y-5945000D01*
X9349250Y-6195000D02*
X9394250Y-6150000D01*
X9349250Y-6105000D01*
X9304250Y-6150000D01*
X9349250Y-6195000D01*
X9349250Y-6445000D02*
X9394250Y-6400000D01*
X9349250Y-6355000D01*
X9304250Y-6400000D01*
X9349250Y-6445000D01*
X10349250Y-5945000D02*
X10394250Y-5900000D01*
X10349250Y-5855000D01*
X10304250Y-5900000D01*
X10349250Y-5945000D01*
X10349250Y-6195000D02*
X10394250Y-6150000D01*
X10349250Y-6105000D01*
X10304250Y-6150000D01*
X10349250Y-6195000D01*
X10349250Y-6445000D02*
X10394250Y-6400000D01*
X10349250Y-6355000D01*
X10304250Y-6400000D01*
X10349250Y-6445000D01*
X11349250Y-5945000D02*
X11394250Y-5900000D01*
X11349250Y-5855000D01*
X11304250Y-5900000D01*
X11349250Y-5945000D01*
X11349250Y-6195000D02*
X11394250Y-6150000D01*
X11349250Y-6105000D01*
X11304250Y-6150000D01*
X11349250Y-6195000D01*
X11349250Y-6445000D02*
X11394250Y-6400000D01*
X11349250Y-6355000D01*
X11304250Y-6400000D01*
X11349250Y-6445000D01*
X12600000Y-5845000D02*
X12645000Y-5800000D01*
X12600000Y-5755000D01*
X12555000Y-5800000D01*
X12600000Y-5845000D01*
X12854000Y-5845000D02*
X12899000Y-5800000D01*
X12854000Y-5755000D01*
X12809000Y-5800000D01*
X12854000Y-5845000D01*
X12002500Y-12852500D02*
X12097500Y-12947500D01*
X12097500Y-12852500D02*
X12002500Y-12947500D01*
X12097500Y-12900000D02*
G75*
G02*
X12002500Y-12900000I-47500J0D01*
G01*
X12002500Y-12900000D02*
G75*
G02*
X12097500Y-12900000I47500J0D01*
G01*
X12002500Y-13052500D02*
X12097500Y-13147500D01*
X12097500Y-13052500D02*
X12002500Y-13147500D01*
X12097500Y-13100000D02*
G75*
G02*
X12002500Y-13100000I-47500J0D01*
G01*
X12002500Y-13100000D02*
G75*
G02*
X12097500Y-13100000I47500J0D01*
G01*
X12252500Y-12852500D02*
X12347500Y-12947500D01*
X12347500Y-12852500D02*
X12252500Y-12947500D01*
X12347500Y-12900000D02*
G75*
G02*
X12252500Y-12900000I-47500J0D01*
G01*
X12252500Y-12900000D02*
G75*
G02*
X12347500Y-12900000I47500J0D01*
G01*
X12252500Y-13052500D02*
X12347500Y-13147500D01*
X12347500Y-13052500D02*
X12252500Y-13147500D01*
X12347500Y-13100000D02*
G75*
G02*
X12252500Y-13100000I-47500J0D01*
G01*
X12252500Y-13100000D02*
G75*
G02*
X12347500Y-13100000I47500J0D01*
G01*
X13546000Y-11650000D02*
X13646000Y-11750000D01*
X13646000Y-11650000D02*
X13546000Y-11750000D01*
X13596000Y-11650000D02*
X13596000Y-11750000D01*
X13546000Y-11700000D02*
X13646000Y-11700000D01*
X13800000Y-11650000D02*
X13900000Y-11750000D01*
X13900000Y-11650000D02*
X13800000Y-11750000D01*
X13850000Y-11650000D02*
X13850000Y-11750000D01*
X13800000Y-11700000D02*
X13900000Y-11700000D01*
X14054000Y-11650000D02*
X14154000Y-11750000D01*
X14154000Y-11650000D02*
X14054000Y-11750000D01*
X14104000Y-11650000D02*
X14104000Y-11750000D01*
X14054000Y-11700000D02*
X14154000Y-11700000D01*
D13*
X8059250Y-5530000D02*
X8179250Y-5650000D01*
X8179250Y-5530000D02*
X8059250Y-5650000D01*
X8161677Y-5632427D02*
X8161677Y-5547573D01*
X8076823Y-5547573D01*
X8076823Y-5632427D01*
X8161677Y-5632427D01*
X8409250Y-6650000D02*
X8529250Y-6770000D01*
X8529250Y-6650000D02*
X8409250Y-6770000D01*
X8511677Y-6752427D02*
X8511677Y-6667573D01*
X8426823Y-6667573D01*
X8426823Y-6752427D01*
X8511677Y-6752427D01*
X9059250Y-5530000D02*
X9179250Y-5650000D01*
X9179250Y-5530000D02*
X9059250Y-5650000D01*
X9161677Y-5632427D02*
X9161677Y-5547573D01*
X9076823Y-5547573D01*
X9076823Y-5632427D01*
X9161677Y-5632427D01*
X9409250Y-6650000D02*
X9529250Y-6770000D01*
X9529250Y-6650000D02*
X9409250Y-6770000D01*
X9511677Y-6752427D02*
X9511677Y-6667573D01*
X9426823Y-6667573D01*
X9426823Y-6752427D01*
X9511677Y-6752427D01*
X10059250Y-5530000D02*
X10179250Y-5650000D01*
X10179250Y-5530000D02*
X10059250Y-5650000D01*
X10161677Y-5632427D02*
X10161677Y-5547573D01*
X10076823Y-5547573D01*
X10076823Y-5632427D01*
X10161677Y-5632427D01*
X10409250Y-6650000D02*
X10529250Y-6770000D01*
X10529250Y-6650000D02*
X10409250Y-6770000D01*
X10511677Y-6752427D02*
X10511677Y-6667573D01*
X10426823Y-6667573D01*
X10426823Y-6752427D01*
X10511677Y-6752427D01*
X11059250Y-5530000D02*
X11179250Y-5650000D01*
X11179250Y-5530000D02*
X11059250Y-5650000D01*
X11161677Y-5632427D02*
X11161677Y-5547573D01*
X11076823Y-5547573D01*
X11076823Y-5632427D01*
X11161677Y-5632427D01*
X11390000Y-7640000D02*
X11510000Y-7760000D01*
X11510000Y-7640000D02*
X11390000Y-7760000D01*
X11492427Y-7742427D02*
X11492427Y-7657573D01*
X11407573Y-7657573D01*
X11407573Y-7742427D01*
X11492427Y-7742427D01*
X11409250Y-6650000D02*
X11529250Y-6770000D01*
X11529250Y-6650000D02*
X11409250Y-6770000D01*
X11511677Y-6752427D02*
X11511677Y-6667573D01*
X11426823Y-6667573D01*
X11426823Y-6752427D01*
X11511677Y-6752427D01*
X11890000Y-7640000D02*
X12010000Y-7760000D01*
X12010000Y-7640000D02*
X11890000Y-7760000D01*
X11992427Y-7742427D02*
X11992427Y-7657573D01*
X11907573Y-7657573D01*
X11907573Y-7742427D01*
X11992427Y-7742427D01*
D14*
X6485500Y-12904000D02*
X6645500Y-13064000D01*
X6645500Y-12904000D02*
X6485500Y-13064000D01*
X6565500Y-13064000D02*
X6645500Y-12984000D01*
X6565500Y-12904000D01*
X6485500Y-12984000D01*
X6565500Y-13064000D01*
X8065500Y-12904000D02*
X8225500Y-13064000D01*
X8225500Y-12904000D02*
X8065500Y-13064000D01*
X8145500Y-13064000D02*
X8225500Y-12984000D01*
X8145500Y-12904000D01*
X8065500Y-12984000D01*
X8145500Y-13064000D01*
X12920000Y-11620000D02*
X13080000Y-11780000D01*
X13080000Y-11620000D02*
X12920000Y-11780000D01*
X13000000Y-11780000D02*
X13080000Y-11700000D01*
X13000000Y-11620000D01*
X12920000Y-11700000D01*
X13000000Y-11780000D01*
D15*
X11575000Y-13271000D02*
X11575000Y-13501000D01*
X11460000Y-13386000D02*
X11690000Y-13386000D01*
X11690000Y-13386000D02*
G75*
G02*
X11460000Y-13386000I-115000J0D01*
G01*
X11460000Y-13386000D02*
G75*
G02*
X11690000Y-13386000I115000J0D01*
G01*
X12775000Y-13271000D02*
X12775000Y-13501000D01*
X12660000Y-13386000D02*
X12890000Y-13386000D01*
X12890000Y-13386000D02*
G75*
G02*
X12660000Y-13386000I-115000J0D01*
G01*
X12660000Y-13386000D02*
G75*
G02*
X12890000Y-13386000I115000J0D01*
G01*
D16*
X5621138Y-5875138D02*
X5621138Y-5648862D01*
X5394862Y-5648862D01*
X5394862Y-5875138D01*
X5621138Y-5875138D01*
X5668000Y-5762000D02*
G75*
G02*
X5348000Y-5762000I-160000J0D01*
G01*
X5348000Y-5762000D02*
G75*
G02*
X5668000Y-5762000I160000J0D01*
G01*
X5621138Y-13241138D02*
X5621138Y-13014862D01*
X5394862Y-13014862D01*
X5394862Y-13241138D01*
X5621138Y-13241138D01*
X5668000Y-13128000D02*
G75*
G02*
X5348000Y-13128000I-160000J0D01*
G01*
X5348000Y-13128000D02*
G75*
G02*
X5668000Y-13128000I160000J0D01*
G01*
X14193638Y-5621138D02*
X14193638Y-5394862D01*
X13967362Y-5394862D01*
X13967362Y-5621138D01*
X14193638Y-5621138D01*
X14240500Y-5508000D02*
G75*
G02*
X13920500Y-5508000I-160000J0D01*
G01*
X13920500Y-5508000D02*
G75*
G02*
X14240500Y-5508000I160000J0D01*
G01*
X14193638Y-13622138D02*
X14193638Y-13395862D01*
X13967362Y-13395862D01*
X13967362Y-13622138D01*
X14193638Y-13622138D01*
X14240500Y-13509000D02*
G75*
G02*
X13920500Y-13509000I-160000J0D01*
G01*
X13920500Y-13509000D02*
G75*
G02*
X14240500Y-13509000I160000J0D01*
G01*
D11*
X5258277Y-14330984D02*
X5258277Y-14130984D01*
X5258277Y-14130984D02*
X5305896Y-14130984D01*
X5305896Y-14130984D02*
X5334467Y-14140508D01*
X5334467Y-14140508D02*
X5353515Y-14159555D01*
X5353515Y-14159555D02*
X5363039Y-14178603D01*
X5363039Y-14178603D02*
X5372563Y-14216698D01*
X5372563Y-14216698D02*
X5372563Y-14245269D01*
X5372563Y-14245269D02*
X5363039Y-14283365D01*
X5363039Y-14283365D02*
X5353515Y-14302412D01*
X5353515Y-14302412D02*
X5334467Y-14321460D01*
X5334467Y-14321460D02*
X5305896Y-14330984D01*
X5305896Y-14330984D02*
X5258277Y-14330984D01*
X5458277Y-14330984D02*
X5458277Y-14197650D01*
X5458277Y-14235746D02*
X5467801Y-14216698D01*
X5467801Y-14216698D02*
X5477324Y-14207174D01*
X5477324Y-14207174D02*
X5496372Y-14197650D01*
X5496372Y-14197650D02*
X5515420Y-14197650D01*
X5582086Y-14330984D02*
X5582086Y-14197650D01*
X5582086Y-14130984D02*
X5572563Y-14140508D01*
X5572563Y-14140508D02*
X5582086Y-14150031D01*
X5582086Y-14150031D02*
X5591610Y-14140508D01*
X5591610Y-14140508D02*
X5582086Y-14130984D01*
X5582086Y-14130984D02*
X5582086Y-14150031D01*
X5705896Y-14330984D02*
X5686848Y-14321460D01*
X5686848Y-14321460D02*
X5677324Y-14302412D01*
X5677324Y-14302412D02*
X5677324Y-14130984D01*
X5810658Y-14330984D02*
X5791610Y-14321460D01*
X5791610Y-14321460D02*
X5782086Y-14302412D01*
X5782086Y-14302412D02*
X5782086Y-14130984D01*
X6039229Y-14330984D02*
X6039229Y-14130984D01*
X6039229Y-14130984D02*
X6105896Y-14273841D01*
X6105896Y-14273841D02*
X6172562Y-14130984D01*
X6172562Y-14130984D02*
X6172562Y-14330984D01*
X6353515Y-14330984D02*
X6353515Y-14226222D01*
X6353515Y-14226222D02*
X6343991Y-14207174D01*
X6343991Y-14207174D02*
X6324943Y-14197650D01*
X6324943Y-14197650D02*
X6286848Y-14197650D01*
X6286848Y-14197650D02*
X6267801Y-14207174D01*
X6353515Y-14321460D02*
X6334467Y-14330984D01*
X6334467Y-14330984D02*
X6286848Y-14330984D01*
X6286848Y-14330984D02*
X6267801Y-14321460D01*
X6267801Y-14321460D02*
X6258277Y-14302412D01*
X6258277Y-14302412D02*
X6258277Y-14283365D01*
X6258277Y-14283365D02*
X6267801Y-14264317D01*
X6267801Y-14264317D02*
X6286848Y-14254793D01*
X6286848Y-14254793D02*
X6334467Y-14254793D01*
X6334467Y-14254793D02*
X6353515Y-14245269D01*
X6448753Y-14197650D02*
X6448753Y-14397650D01*
X6448753Y-14207174D02*
X6467801Y-14197650D01*
X6467801Y-14197650D02*
X6505896Y-14197650D01*
X6505896Y-14197650D02*
X6524943Y-14207174D01*
X6524943Y-14207174D02*
X6534467Y-14216698D01*
X6534467Y-14216698D02*
X6543991Y-14235746D01*
X6543991Y-14235746D02*
X6543991Y-14292888D01*
X6543991Y-14292888D02*
X6534467Y-14311936D01*
X6534467Y-14311936D02*
X6524943Y-14321460D01*
X6524943Y-14321460D02*
X6505896Y-14330984D01*
X6505896Y-14330984D02*
X6467801Y-14330984D01*
X6467801Y-14330984D02*
X6448753Y-14321460D01*
X6629705Y-14311936D02*
X6639229Y-14321460D01*
X6639229Y-14321460D02*
X6629705Y-14330984D01*
X6629705Y-14330984D02*
X6620182Y-14321460D01*
X6620182Y-14321460D02*
X6629705Y-14311936D01*
X6629705Y-14311936D02*
X6629705Y-14330984D01*
X6629705Y-14207174D02*
X6639229Y-14216698D01*
X6639229Y-14216698D02*
X6629705Y-14226222D01*
X6629705Y-14226222D02*
X6620182Y-14216698D01*
X6620182Y-14216698D02*
X6629705Y-14207174D01*
X6629705Y-14207174D02*
X6629705Y-14226222D01*
D12*
X4967500Y-14644500D02*
X4997500Y-14674500D01*
X4997500Y-14644500D02*
X4967500Y-14674500D01*
D11*
X5296372Y-14550984D02*
X5315420Y-14550984D01*
X5315420Y-14550984D02*
X5334467Y-14560508D01*
X5334467Y-14560508D02*
X5343991Y-14570031D01*
X5343991Y-14570031D02*
X5353515Y-14589079D01*
X5353515Y-14589079D02*
X5363039Y-14627174D01*
X5363039Y-14627174D02*
X5363039Y-14674793D01*
X5363039Y-14674793D02*
X5353515Y-14712888D01*
X5353515Y-14712888D02*
X5343991Y-14731936D01*
X5343991Y-14731936D02*
X5334467Y-14741460D01*
X5334467Y-14741460D02*
X5315420Y-14750984D01*
X5315420Y-14750984D02*
X5296372Y-14750984D01*
X5296372Y-14750984D02*
X5277324Y-14741460D01*
X5277324Y-14741460D02*
X5267801Y-14731936D01*
X5267801Y-14731936D02*
X5258277Y-14712888D01*
X5258277Y-14712888D02*
X5248753Y-14674793D01*
X5248753Y-14674793D02*
X5248753Y-14627174D01*
X5248753Y-14627174D02*
X5258277Y-14589079D01*
X5258277Y-14589079D02*
X5267801Y-14570031D01*
X5267801Y-14570031D02*
X5277324Y-14560508D01*
X5277324Y-14560508D02*
X5296372Y-14550984D01*
X5448753Y-14731936D02*
X5458277Y-14741460D01*
X5458277Y-14741460D02*
X5448753Y-14750984D01*
X5448753Y-14750984D02*
X5439229Y-14741460D01*
X5439229Y-14741460D02*
X5448753Y-14731936D01*
X5448753Y-14731936D02*
X5448753Y-14750984D01*
X5524944Y-14550984D02*
X5648753Y-14550984D01*
X5648753Y-14550984D02*
X5582086Y-14627174D01*
X5582086Y-14627174D02*
X5610658Y-14627174D01*
X5610658Y-14627174D02*
X5629705Y-14636698D01*
X5629705Y-14636698D02*
X5639229Y-14646222D01*
X5639229Y-14646222D02*
X5648753Y-14665269D01*
X5648753Y-14665269D02*
X5648753Y-14712888D01*
X5648753Y-14712888D02*
X5639229Y-14731936D01*
X5639229Y-14731936D02*
X5629705Y-14741460D01*
X5629705Y-14741460D02*
X5610658Y-14750984D01*
X5610658Y-14750984D02*
X5553515Y-14750984D01*
X5553515Y-14750984D02*
X5534467Y-14741460D01*
X5534467Y-14741460D02*
X5524944Y-14731936D01*
X5772562Y-14550984D02*
X5791610Y-14550984D01*
X5791610Y-14550984D02*
X5810658Y-14560508D01*
X5810658Y-14560508D02*
X5820182Y-14570031D01*
X5820182Y-14570031D02*
X5829705Y-14589079D01*
X5829705Y-14589079D02*
X5839229Y-14627174D01*
X5839229Y-14627174D02*
X5839229Y-14674793D01*
X5839229Y-14674793D02*
X5829705Y-14712888D01*
X5829705Y-14712888D02*
X5820182Y-14731936D01*
X5820182Y-14731936D02*
X5810658Y-14741460D01*
X5810658Y-14741460D02*
X5791610Y-14750984D01*
X5791610Y-14750984D02*
X5772562Y-14750984D01*
X5772562Y-14750984D02*
X5753515Y-14741460D01*
X5753515Y-14741460D02*
X5743991Y-14731936D01*
X5743991Y-14731936D02*
X5734467Y-14712888D01*
X5734467Y-14712888D02*
X5724943Y-14674793D01*
X5724943Y-14674793D02*
X5724943Y-14627174D01*
X5724943Y-14627174D02*
X5734467Y-14589079D01*
X5734467Y-14589079D02*
X5743991Y-14570031D01*
X5743991Y-14570031D02*
X5753515Y-14560508D01*
X5753515Y-14560508D02*
X5772562Y-14550984D01*
X5963039Y-14550984D02*
X5982086Y-14550984D01*
X5982086Y-14550984D02*
X6001134Y-14560508D01*
X6001134Y-14560508D02*
X6010658Y-14570031D01*
X6010658Y-14570031D02*
X6020182Y-14589079D01*
X6020182Y-14589079D02*
X6029705Y-14627174D01*
X6029705Y-14627174D02*
X6029705Y-14674793D01*
X6029705Y-14674793D02*
X6020182Y-14712888D01*
X6020182Y-14712888D02*
X6010658Y-14731936D01*
X6010658Y-14731936D02*
X6001134Y-14741460D01*
X6001134Y-14741460D02*
X5982086Y-14750984D01*
X5982086Y-14750984D02*
X5963039Y-14750984D01*
X5963039Y-14750984D02*
X5943991Y-14741460D01*
X5943991Y-14741460D02*
X5934467Y-14731936D01*
X5934467Y-14731936D02*
X5924943Y-14712888D01*
X5924943Y-14712888D02*
X5915420Y-14674793D01*
X5915420Y-14674793D02*
X5915420Y-14627174D01*
X5915420Y-14627174D02*
X5924943Y-14589079D01*
X5924943Y-14589079D02*
X5934467Y-14570031D01*
X5934467Y-14570031D02*
X5943991Y-14560508D01*
X5943991Y-14560508D02*
X5963039Y-14550984D01*
X6115420Y-14750984D02*
X6115420Y-14617650D01*
X6115420Y-14636698D02*
X6124943Y-14627174D01*
X6124943Y-14627174D02*
X6143991Y-14617650D01*
X6143991Y-14617650D02*
X6172563Y-14617650D01*
X6172563Y-14617650D02*
X6191610Y-14627174D01*
X6191610Y-14627174D02*
X6201134Y-14646222D01*
X6201134Y-14646222D02*
X6201134Y-14750984D01*
X6201134Y-14646222D02*
X6210658Y-14627174D01*
X6210658Y-14627174D02*
X6229705Y-14617650D01*
X6229705Y-14617650D02*
X6258277Y-14617650D01*
X6258277Y-14617650D02*
X6277324Y-14627174D01*
X6277324Y-14627174D02*
X6286848Y-14646222D01*
X6286848Y-14646222D02*
X6286848Y-14750984D01*
X6382086Y-14750984D02*
X6382086Y-14617650D01*
X6382086Y-14636698D02*
X6391610Y-14627174D01*
X6391610Y-14627174D02*
X6410658Y-14617650D01*
X6410658Y-14617650D02*
X6439229Y-14617650D01*
X6439229Y-14617650D02*
X6458277Y-14627174D01*
X6458277Y-14627174D02*
X6467801Y-14646222D01*
X6467801Y-14646222D02*
X6467801Y-14750984D01*
X6467801Y-14646222D02*
X6477324Y-14627174D01*
X6477324Y-14627174D02*
X6496372Y-14617650D01*
X6496372Y-14617650D02*
X6524943Y-14617650D01*
X6524943Y-14617650D02*
X6543991Y-14627174D01*
X6543991Y-14627174D02*
X6553515Y-14646222D01*
X6553515Y-14646222D02*
X6553515Y-14750984D01*
X6943991Y-14541460D02*
X6772563Y-14798603D01*
X7201134Y-14550984D02*
X7220182Y-14550984D01*
X7220182Y-14550984D02*
X7239229Y-14560508D01*
X7239229Y-14560508D02*
X7248753Y-14570031D01*
X7248753Y-14570031D02*
X7258277Y-14589079D01*
X7258277Y-14589079D02*
X7267801Y-14627174D01*
X7267801Y-14627174D02*
X7267801Y-14674793D01*
X7267801Y-14674793D02*
X7258277Y-14712888D01*
X7258277Y-14712888D02*
X7248753Y-14731936D01*
X7248753Y-14731936D02*
X7239229Y-14741460D01*
X7239229Y-14741460D02*
X7220182Y-14750984D01*
X7220182Y-14750984D02*
X7201134Y-14750984D01*
X7201134Y-14750984D02*
X7182086Y-14741460D01*
X7182086Y-14741460D02*
X7172563Y-14731936D01*
X7172563Y-14731936D02*
X7163039Y-14712888D01*
X7163039Y-14712888D02*
X7153515Y-14674793D01*
X7153515Y-14674793D02*
X7153515Y-14627174D01*
X7153515Y-14627174D02*
X7163039Y-14589079D01*
X7163039Y-14589079D02*
X7172563Y-14570031D01*
X7172563Y-14570031D02*
X7182086Y-14560508D01*
X7182086Y-14560508D02*
X7201134Y-14550984D01*
X7353515Y-14731936D02*
X7363039Y-14741460D01*
X7363039Y-14741460D02*
X7353515Y-14750984D01*
X7353515Y-14750984D02*
X7343991Y-14741460D01*
X7343991Y-14741460D02*
X7353515Y-14731936D01*
X7353515Y-14731936D02*
X7353515Y-14750984D01*
X7486848Y-14550984D02*
X7505896Y-14550984D01*
X7505896Y-14550984D02*
X7524944Y-14560508D01*
X7524944Y-14560508D02*
X7534467Y-14570031D01*
X7534467Y-14570031D02*
X7543991Y-14589079D01*
X7543991Y-14589079D02*
X7553515Y-14627174D01*
X7553515Y-14627174D02*
X7553515Y-14674793D01*
X7553515Y-14674793D02*
X7543991Y-14712888D01*
X7543991Y-14712888D02*
X7534467Y-14731936D01*
X7534467Y-14731936D02*
X7524944Y-14741460D01*
X7524944Y-14741460D02*
X7505896Y-14750984D01*
X7505896Y-14750984D02*
X7486848Y-14750984D01*
X7486848Y-14750984D02*
X7467801Y-14741460D01*
X7467801Y-14741460D02*
X7458277Y-14731936D01*
X7458277Y-14731936D02*
X7448753Y-14712888D01*
X7448753Y-14712888D02*
X7439229Y-14674793D01*
X7439229Y-14674793D02*
X7439229Y-14627174D01*
X7439229Y-14627174D02*
X7448753Y-14589079D01*
X7448753Y-14589079D02*
X7458277Y-14570031D01*
X7458277Y-14570031D02*
X7467801Y-14560508D01*
X7467801Y-14560508D02*
X7486848Y-14550984D01*
X7743991Y-14750984D02*
X7629706Y-14750984D01*
X7686848Y-14750984D02*
X7686848Y-14550984D01*
X7686848Y-14550984D02*
X7667801Y-14579555D01*
X7667801Y-14579555D02*
X7648753Y-14598603D01*
X7648753Y-14598603D02*
X7629706Y-14608127D01*
X7934467Y-14750984D02*
X7820182Y-14750984D01*
X7877325Y-14750984D02*
X7877325Y-14550984D01*
X7877325Y-14550984D02*
X7858277Y-14579555D01*
X7858277Y-14579555D02*
X7839229Y-14598603D01*
X7839229Y-14598603D02*
X7820182Y-14608127D01*
X8048753Y-14636698D02*
X8029706Y-14627174D01*
X8029706Y-14627174D02*
X8020182Y-14617650D01*
X8020182Y-14617650D02*
X8010658Y-14598603D01*
X8010658Y-14598603D02*
X8010658Y-14589079D01*
X8010658Y-14589079D02*
X8020182Y-14570031D01*
X8020182Y-14570031D02*
X8029706Y-14560508D01*
X8029706Y-14560508D02*
X8048753Y-14550984D01*
X8048753Y-14550984D02*
X8086848Y-14550984D01*
X8086848Y-14550984D02*
X8105896Y-14560508D01*
X8105896Y-14560508D02*
X8115420Y-14570031D01*
X8115420Y-14570031D02*
X8124944Y-14589079D01*
X8124944Y-14589079D02*
X8124944Y-14598603D01*
X8124944Y-14598603D02*
X8115420Y-14617650D01*
X8115420Y-14617650D02*
X8105896Y-14627174D01*
X8105896Y-14627174D02*
X8086848Y-14636698D01*
X8086848Y-14636698D02*
X8048753Y-14636698D01*
X8048753Y-14636698D02*
X8029706Y-14646222D01*
X8029706Y-14646222D02*
X8020182Y-14655746D01*
X8020182Y-14655746D02*
X8010658Y-14674793D01*
X8010658Y-14674793D02*
X8010658Y-14712888D01*
X8010658Y-14712888D02*
X8020182Y-14731936D01*
X8020182Y-14731936D02*
X8029706Y-14741460D01*
X8029706Y-14741460D02*
X8048753Y-14750984D01*
X8048753Y-14750984D02*
X8086848Y-14750984D01*
X8086848Y-14750984D02*
X8105896Y-14741460D01*
X8105896Y-14741460D02*
X8115420Y-14731936D01*
X8115420Y-14731936D02*
X8124944Y-14712888D01*
X8124944Y-14712888D02*
X8124944Y-14674793D01*
X8124944Y-14674793D02*
X8115420Y-14655746D01*
X8115420Y-14655746D02*
X8105896Y-14646222D01*
X8105896Y-14646222D02*
X8086848Y-14636698D01*
X8201134Y-14550984D02*
X8201134Y-14589079D01*
X8277325Y-14550984D02*
X8277325Y-14589079D01*
X8572563Y-14827174D02*
X8563039Y-14817650D01*
X8563039Y-14817650D02*
X8543991Y-14789079D01*
X8543991Y-14789079D02*
X8534468Y-14770031D01*
X8534468Y-14770031D02*
X8524944Y-14741460D01*
X8524944Y-14741460D02*
X8515420Y-14693841D01*
X8515420Y-14693841D02*
X8515420Y-14655746D01*
X8515420Y-14655746D02*
X8524944Y-14608127D01*
X8524944Y-14608127D02*
X8534468Y-14579555D01*
X8534468Y-14579555D02*
X8543991Y-14560508D01*
X8543991Y-14560508D02*
X8563039Y-14531936D01*
X8563039Y-14531936D02*
X8572563Y-14522412D01*
X8677325Y-14636698D02*
X8658277Y-14627174D01*
X8658277Y-14627174D02*
X8648753Y-14617650D01*
X8648753Y-14617650D02*
X8639230Y-14598603D01*
X8639230Y-14598603D02*
X8639230Y-14589079D01*
X8639230Y-14589079D02*
X8648753Y-14570031D01*
X8648753Y-14570031D02*
X8658277Y-14560508D01*
X8658277Y-14560508D02*
X8677325Y-14550984D01*
X8677325Y-14550984D02*
X8715420Y-14550984D01*
X8715420Y-14550984D02*
X8734468Y-14560508D01*
X8734468Y-14560508D02*
X8743991Y-14570031D01*
X8743991Y-14570031D02*
X8753515Y-14589079D01*
X8753515Y-14589079D02*
X8753515Y-14598603D01*
X8753515Y-14598603D02*
X8743991Y-14617650D01*
X8743991Y-14617650D02*
X8734468Y-14627174D01*
X8734468Y-14627174D02*
X8715420Y-14636698D01*
X8715420Y-14636698D02*
X8677325Y-14636698D01*
X8677325Y-14636698D02*
X8658277Y-14646222D01*
X8658277Y-14646222D02*
X8648753Y-14655746D01*
X8648753Y-14655746D02*
X8639230Y-14674793D01*
X8639230Y-14674793D02*
X8639230Y-14712888D01*
X8639230Y-14712888D02*
X8648753Y-14731936D01*
X8648753Y-14731936D02*
X8658277Y-14741460D01*
X8658277Y-14741460D02*
X8677325Y-14750984D01*
X8677325Y-14750984D02*
X8715420Y-14750984D01*
X8715420Y-14750984D02*
X8734468Y-14741460D01*
X8734468Y-14741460D02*
X8743991Y-14731936D01*
X8743991Y-14731936D02*
X8753515Y-14712888D01*
X8753515Y-14712888D02*
X8753515Y-14674793D01*
X8753515Y-14674793D02*
X8743991Y-14655746D01*
X8743991Y-14655746D02*
X8734468Y-14646222D01*
X8734468Y-14646222D02*
X8715420Y-14636698D01*
X8924944Y-14617650D02*
X8924944Y-14750984D01*
X8877325Y-14541460D02*
X8829706Y-14684317D01*
X8829706Y-14684317D02*
X8953515Y-14684317D01*
X9182087Y-14750984D02*
X9182087Y-14550984D01*
X9267801Y-14750984D02*
X9267801Y-14646222D01*
X9267801Y-14646222D02*
X9258277Y-14627174D01*
X9258277Y-14627174D02*
X9239230Y-14617650D01*
X9239230Y-14617650D02*
X9210658Y-14617650D01*
X9210658Y-14617650D02*
X9191611Y-14627174D01*
X9191611Y-14627174D02*
X9182087Y-14636698D01*
X9391611Y-14750984D02*
X9372563Y-14741460D01*
X9372563Y-14741460D02*
X9363039Y-14731936D01*
X9363039Y-14731936D02*
X9353515Y-14712888D01*
X9353515Y-14712888D02*
X9353515Y-14655746D01*
X9353515Y-14655746D02*
X9363039Y-14636698D01*
X9363039Y-14636698D02*
X9372563Y-14627174D01*
X9372563Y-14627174D02*
X9391611Y-14617650D01*
X9391611Y-14617650D02*
X9420182Y-14617650D01*
X9420182Y-14617650D02*
X9439230Y-14627174D01*
X9439230Y-14627174D02*
X9448753Y-14636698D01*
X9448753Y-14636698D02*
X9458277Y-14655746D01*
X9458277Y-14655746D02*
X9458277Y-14712888D01*
X9458277Y-14712888D02*
X9448753Y-14731936D01*
X9448753Y-14731936D02*
X9439230Y-14741460D01*
X9439230Y-14741460D02*
X9420182Y-14750984D01*
X9420182Y-14750984D02*
X9391611Y-14750984D01*
X9572563Y-14750984D02*
X9553515Y-14741460D01*
X9553515Y-14741460D02*
X9543992Y-14722412D01*
X9543992Y-14722412D02*
X9543992Y-14550984D01*
X9724944Y-14741460D02*
X9705896Y-14750984D01*
X9705896Y-14750984D02*
X9667801Y-14750984D01*
X9667801Y-14750984D02*
X9648753Y-14741460D01*
X9648753Y-14741460D02*
X9639230Y-14722412D01*
X9639230Y-14722412D02*
X9639230Y-14646222D01*
X9639230Y-14646222D02*
X9648753Y-14627174D01*
X9648753Y-14627174D02*
X9667801Y-14617650D01*
X9667801Y-14617650D02*
X9705896Y-14617650D01*
X9705896Y-14617650D02*
X9724944Y-14627174D01*
X9724944Y-14627174D02*
X9734468Y-14646222D01*
X9734468Y-14646222D02*
X9734468Y-14665269D01*
X9734468Y-14665269D02*
X9639230Y-14684317D01*
X9810658Y-14741460D02*
X9829706Y-14750984D01*
X9829706Y-14750984D02*
X9867801Y-14750984D01*
X9867801Y-14750984D02*
X9886849Y-14741460D01*
X9886849Y-14741460D02*
X9896373Y-14722412D01*
X9896373Y-14722412D02*
X9896373Y-14712888D01*
X9896373Y-14712888D02*
X9886849Y-14693841D01*
X9886849Y-14693841D02*
X9867801Y-14684317D01*
X9867801Y-14684317D02*
X9839230Y-14684317D01*
X9839230Y-14684317D02*
X9820182Y-14674793D01*
X9820182Y-14674793D02*
X9810658Y-14655746D01*
X9810658Y-14655746D02*
X9810658Y-14646222D01*
X9810658Y-14646222D02*
X9820182Y-14627174D01*
X9820182Y-14627174D02*
X9839230Y-14617650D01*
X9839230Y-14617650D02*
X9867801Y-14617650D01*
X9867801Y-14617650D02*
X9886849Y-14627174D01*
X9963039Y-14827174D02*
X9972563Y-14817650D01*
X9972563Y-14817650D02*
X9991611Y-14789079D01*
X9991611Y-14789079D02*
X10001134Y-14770031D01*
X10001134Y-14770031D02*
X10010658Y-14741460D01*
X10010658Y-14741460D02*
X10020182Y-14693841D01*
X10020182Y-14693841D02*
X10020182Y-14655746D01*
X10020182Y-14655746D02*
X10010658Y-14608127D01*
X10010658Y-14608127D02*
X10001134Y-14579555D01*
X10001134Y-14579555D02*
X9991611Y-14560508D01*
X9991611Y-14560508D02*
X9972563Y-14531936D01*
X9972563Y-14531936D02*
X9963039Y-14522412D01*
D12*
X4997500Y-14923500D02*
G75*
G02*
X4947500Y-14923500I-25000J0D01*
G01*
X4947500Y-14923500D02*
G75*
G02*
X4997500Y-14923500I25000J0D01*
G01*
D11*
X5296372Y-14814984D02*
X5315420Y-14814984D01*
X5315420Y-14814984D02*
X5334467Y-14824508D01*
X5334467Y-14824508D02*
X5343991Y-14834031D01*
X5343991Y-14834031D02*
X5353515Y-14853079D01*
X5353515Y-14853079D02*
X5363039Y-14891174D01*
X5363039Y-14891174D02*
X5363039Y-14938793D01*
X5363039Y-14938793D02*
X5353515Y-14976888D01*
X5353515Y-14976888D02*
X5343991Y-14995936D01*
X5343991Y-14995936D02*
X5334467Y-15005460D01*
X5334467Y-15005460D02*
X5315420Y-15014984D01*
X5315420Y-15014984D02*
X5296372Y-15014984D01*
X5296372Y-15014984D02*
X5277324Y-15005460D01*
X5277324Y-15005460D02*
X5267801Y-14995936D01*
X5267801Y-14995936D02*
X5258277Y-14976888D01*
X5258277Y-14976888D02*
X5248753Y-14938793D01*
X5248753Y-14938793D02*
X5248753Y-14891174D01*
X5248753Y-14891174D02*
X5258277Y-14853079D01*
X5258277Y-14853079D02*
X5267801Y-14834031D01*
X5267801Y-14834031D02*
X5277324Y-14824508D01*
X5277324Y-14824508D02*
X5296372Y-14814984D01*
X5448753Y-14995936D02*
X5458277Y-15005460D01*
X5458277Y-15005460D02*
X5448753Y-15014984D01*
X5448753Y-15014984D02*
X5439229Y-15005460D01*
X5439229Y-15005460D02*
X5448753Y-14995936D01*
X5448753Y-14995936D02*
X5448753Y-15014984D01*
X5639229Y-14814984D02*
X5543991Y-14814984D01*
X5543991Y-14814984D02*
X5534467Y-14910222D01*
X5534467Y-14910222D02*
X5543991Y-14900698D01*
X5543991Y-14900698D02*
X5563039Y-14891174D01*
X5563039Y-14891174D02*
X5610658Y-14891174D01*
X5610658Y-14891174D02*
X5629705Y-14900698D01*
X5629705Y-14900698D02*
X5639229Y-14910222D01*
X5639229Y-14910222D02*
X5648753Y-14929269D01*
X5648753Y-14929269D02*
X5648753Y-14976888D01*
X5648753Y-14976888D02*
X5639229Y-14995936D01*
X5639229Y-14995936D02*
X5629705Y-15005460D01*
X5629705Y-15005460D02*
X5610658Y-15014984D01*
X5610658Y-15014984D02*
X5563039Y-15014984D01*
X5563039Y-15014984D02*
X5543991Y-15005460D01*
X5543991Y-15005460D02*
X5534467Y-14995936D01*
X5772562Y-14814984D02*
X5791610Y-14814984D01*
X5791610Y-14814984D02*
X5810658Y-14824508D01*
X5810658Y-14824508D02*
X5820182Y-14834031D01*
X5820182Y-14834031D02*
X5829705Y-14853079D01*
X5829705Y-14853079D02*
X5839229Y-14891174D01*
X5839229Y-14891174D02*
X5839229Y-14938793D01*
X5839229Y-14938793D02*
X5829705Y-14976888D01*
X5829705Y-14976888D02*
X5820182Y-14995936D01*
X5820182Y-14995936D02*
X5810658Y-15005460D01*
X5810658Y-15005460D02*
X5791610Y-15014984D01*
X5791610Y-15014984D02*
X5772562Y-15014984D01*
X5772562Y-15014984D02*
X5753515Y-15005460D01*
X5753515Y-15005460D02*
X5743991Y-14995936D01*
X5743991Y-14995936D02*
X5734467Y-14976888D01*
X5734467Y-14976888D02*
X5724943Y-14938793D01*
X5724943Y-14938793D02*
X5724943Y-14891174D01*
X5724943Y-14891174D02*
X5734467Y-14853079D01*
X5734467Y-14853079D02*
X5743991Y-14834031D01*
X5743991Y-14834031D02*
X5753515Y-14824508D01*
X5753515Y-14824508D02*
X5772562Y-14814984D01*
X5963039Y-14814984D02*
X5982086Y-14814984D01*
X5982086Y-14814984D02*
X6001134Y-14824508D01*
X6001134Y-14824508D02*
X6010658Y-14834031D01*
X6010658Y-14834031D02*
X6020182Y-14853079D01*
X6020182Y-14853079D02*
X6029705Y-14891174D01*
X6029705Y-14891174D02*
X6029705Y-14938793D01*
X6029705Y-14938793D02*
X6020182Y-14976888D01*
X6020182Y-14976888D02*
X6010658Y-14995936D01*
X6010658Y-14995936D02*
X6001134Y-15005460D01*
X6001134Y-15005460D02*
X5982086Y-15014984D01*
X5982086Y-15014984D02*
X5963039Y-15014984D01*
X5963039Y-15014984D02*
X5943991Y-15005460D01*
X5943991Y-15005460D02*
X5934467Y-14995936D01*
X5934467Y-14995936D02*
X5924943Y-14976888D01*
X5924943Y-14976888D02*
X5915420Y-14938793D01*
X5915420Y-14938793D02*
X5915420Y-14891174D01*
X5915420Y-14891174D02*
X5924943Y-14853079D01*
X5924943Y-14853079D02*
X5934467Y-14834031D01*
X5934467Y-14834031D02*
X5943991Y-14824508D01*
X5943991Y-14824508D02*
X5963039Y-14814984D01*
X6115420Y-15014984D02*
X6115420Y-14881650D01*
X6115420Y-14900698D02*
X6124943Y-14891174D01*
X6124943Y-14891174D02*
X6143991Y-14881650D01*
X6143991Y-14881650D02*
X6172563Y-14881650D01*
X6172563Y-14881650D02*
X6191610Y-14891174D01*
X6191610Y-14891174D02*
X6201134Y-14910222D01*
X6201134Y-14910222D02*
X6201134Y-15014984D01*
X6201134Y-14910222D02*
X6210658Y-14891174D01*
X6210658Y-14891174D02*
X6229705Y-14881650D01*
X6229705Y-14881650D02*
X6258277Y-14881650D01*
X6258277Y-14881650D02*
X6277324Y-14891174D01*
X6277324Y-14891174D02*
X6286848Y-14910222D01*
X6286848Y-14910222D02*
X6286848Y-15014984D01*
X6382086Y-15014984D02*
X6382086Y-14881650D01*
X6382086Y-14900698D02*
X6391610Y-14891174D01*
X6391610Y-14891174D02*
X6410658Y-14881650D01*
X6410658Y-14881650D02*
X6439229Y-14881650D01*
X6439229Y-14881650D02*
X6458277Y-14891174D01*
X6458277Y-14891174D02*
X6467801Y-14910222D01*
X6467801Y-14910222D02*
X6467801Y-15014984D01*
X6467801Y-14910222D02*
X6477324Y-14891174D01*
X6477324Y-14891174D02*
X6496372Y-14881650D01*
X6496372Y-14881650D02*
X6524943Y-14881650D01*
X6524943Y-14881650D02*
X6543991Y-14891174D01*
X6543991Y-14891174D02*
X6553515Y-14910222D01*
X6553515Y-14910222D02*
X6553515Y-15014984D01*
X6943991Y-14805460D02*
X6772563Y-15062603D01*
X7201134Y-14814984D02*
X7220182Y-14814984D01*
X7220182Y-14814984D02*
X7239229Y-14824508D01*
X7239229Y-14824508D02*
X7248753Y-14834031D01*
X7248753Y-14834031D02*
X7258277Y-14853079D01*
X7258277Y-14853079D02*
X7267801Y-14891174D01*
X7267801Y-14891174D02*
X7267801Y-14938793D01*
X7267801Y-14938793D02*
X7258277Y-14976888D01*
X7258277Y-14976888D02*
X7248753Y-14995936D01*
X7248753Y-14995936D02*
X7239229Y-15005460D01*
X7239229Y-15005460D02*
X7220182Y-15014984D01*
X7220182Y-15014984D02*
X7201134Y-15014984D01*
X7201134Y-15014984D02*
X7182086Y-15005460D01*
X7182086Y-15005460D02*
X7172563Y-14995936D01*
X7172563Y-14995936D02*
X7163039Y-14976888D01*
X7163039Y-14976888D02*
X7153515Y-14938793D01*
X7153515Y-14938793D02*
X7153515Y-14891174D01*
X7153515Y-14891174D02*
X7163039Y-14853079D01*
X7163039Y-14853079D02*
X7172563Y-14834031D01*
X7172563Y-14834031D02*
X7182086Y-14824508D01*
X7182086Y-14824508D02*
X7201134Y-14814984D01*
X7353515Y-14995936D02*
X7363039Y-15005460D01*
X7363039Y-15005460D02*
X7353515Y-15014984D01*
X7353515Y-15014984D02*
X7343991Y-15005460D01*
X7343991Y-15005460D02*
X7353515Y-14995936D01*
X7353515Y-14995936D02*
X7353515Y-15014984D01*
X7486848Y-14814984D02*
X7505896Y-14814984D01*
X7505896Y-14814984D02*
X7524944Y-14824508D01*
X7524944Y-14824508D02*
X7534467Y-14834031D01*
X7534467Y-14834031D02*
X7543991Y-14853079D01*
X7543991Y-14853079D02*
X7553515Y-14891174D01*
X7553515Y-14891174D02*
X7553515Y-14938793D01*
X7553515Y-14938793D02*
X7543991Y-14976888D01*
X7543991Y-14976888D02*
X7534467Y-14995936D01*
X7534467Y-14995936D02*
X7524944Y-15005460D01*
X7524944Y-15005460D02*
X7505896Y-15014984D01*
X7505896Y-15014984D02*
X7486848Y-15014984D01*
X7486848Y-15014984D02*
X7467801Y-15005460D01*
X7467801Y-15005460D02*
X7458277Y-14995936D01*
X7458277Y-14995936D02*
X7448753Y-14976888D01*
X7448753Y-14976888D02*
X7439229Y-14938793D01*
X7439229Y-14938793D02*
X7439229Y-14891174D01*
X7439229Y-14891174D02*
X7448753Y-14853079D01*
X7448753Y-14853079D02*
X7458277Y-14834031D01*
X7458277Y-14834031D02*
X7467801Y-14824508D01*
X7467801Y-14824508D02*
X7486848Y-14814984D01*
X7743991Y-15014984D02*
X7629706Y-15014984D01*
X7686848Y-15014984D02*
X7686848Y-14814984D01*
X7686848Y-14814984D02*
X7667801Y-14843555D01*
X7667801Y-14843555D02*
X7648753Y-14862603D01*
X7648753Y-14862603D02*
X7629706Y-14872127D01*
X7839229Y-15014984D02*
X7877325Y-15014984D01*
X7877325Y-15014984D02*
X7896372Y-15005460D01*
X7896372Y-15005460D02*
X7905896Y-14995936D01*
X7905896Y-14995936D02*
X7924944Y-14967365D01*
X7924944Y-14967365D02*
X7934467Y-14929269D01*
X7934467Y-14929269D02*
X7934467Y-14853079D01*
X7934467Y-14853079D02*
X7924944Y-14834031D01*
X7924944Y-14834031D02*
X7915420Y-14824508D01*
X7915420Y-14824508D02*
X7896372Y-14814984D01*
X7896372Y-14814984D02*
X7858277Y-14814984D01*
X7858277Y-14814984D02*
X7839229Y-14824508D01*
X7839229Y-14824508D02*
X7829706Y-14834031D01*
X7829706Y-14834031D02*
X7820182Y-14853079D01*
X7820182Y-14853079D02*
X7820182Y-14900698D01*
X7820182Y-14900698D02*
X7829706Y-14919746D01*
X7829706Y-14919746D02*
X7839229Y-14929269D01*
X7839229Y-14929269D02*
X7858277Y-14938793D01*
X7858277Y-14938793D02*
X7896372Y-14938793D01*
X7896372Y-14938793D02*
X7915420Y-14929269D01*
X7915420Y-14929269D02*
X7924944Y-14919746D01*
X7924944Y-14919746D02*
X7934467Y-14900698D01*
X8001134Y-14814984D02*
X8134467Y-14814984D01*
X8134467Y-14814984D02*
X8048753Y-15014984D01*
X8201134Y-14814984D02*
X8201134Y-14853079D01*
X8277325Y-14814984D02*
X8277325Y-14853079D01*
X8572563Y-15091174D02*
X8563039Y-15081650D01*
X8563039Y-15081650D02*
X8543991Y-15053079D01*
X8543991Y-15053079D02*
X8534468Y-15034031D01*
X8534468Y-15034031D02*
X8524944Y-15005460D01*
X8524944Y-15005460D02*
X8515420Y-14957841D01*
X8515420Y-14957841D02*
X8515420Y-14919746D01*
X8515420Y-14919746D02*
X8524944Y-14872127D01*
X8524944Y-14872127D02*
X8534468Y-14843555D01*
X8534468Y-14843555D02*
X8543991Y-14824508D01*
X8543991Y-14824508D02*
X8563039Y-14795936D01*
X8563039Y-14795936D02*
X8572563Y-14786412D01*
X8639230Y-14834031D02*
X8648753Y-14824508D01*
X8648753Y-14824508D02*
X8667801Y-14814984D01*
X8667801Y-14814984D02*
X8715420Y-14814984D01*
X8715420Y-14814984D02*
X8734468Y-14824508D01*
X8734468Y-14824508D02*
X8743991Y-14834031D01*
X8743991Y-14834031D02*
X8753515Y-14853079D01*
X8753515Y-14853079D02*
X8753515Y-14872127D01*
X8753515Y-14872127D02*
X8743991Y-14900698D01*
X8743991Y-14900698D02*
X8629706Y-15014984D01*
X8629706Y-15014984D02*
X8753515Y-15014984D01*
X8991611Y-15014984D02*
X8991611Y-14814984D01*
X9077325Y-15014984D02*
X9077325Y-14910222D01*
X9077325Y-14910222D02*
X9067801Y-14891174D01*
X9067801Y-14891174D02*
X9048753Y-14881650D01*
X9048753Y-14881650D02*
X9020182Y-14881650D01*
X9020182Y-14881650D02*
X9001134Y-14891174D01*
X9001134Y-14891174D02*
X8991611Y-14900698D01*
X9201134Y-15014984D02*
X9182087Y-15005460D01*
X9182087Y-15005460D02*
X9172563Y-14995936D01*
X9172563Y-14995936D02*
X9163039Y-14976888D01*
X9163039Y-14976888D02*
X9163039Y-14919746D01*
X9163039Y-14919746D02*
X9172563Y-14900698D01*
X9172563Y-14900698D02*
X9182087Y-14891174D01*
X9182087Y-14891174D02*
X9201134Y-14881650D01*
X9201134Y-14881650D02*
X9229706Y-14881650D01*
X9229706Y-14881650D02*
X9248753Y-14891174D01*
X9248753Y-14891174D02*
X9258277Y-14900698D01*
X9258277Y-14900698D02*
X9267801Y-14919746D01*
X9267801Y-14919746D02*
X9267801Y-14976888D01*
X9267801Y-14976888D02*
X9258277Y-14995936D01*
X9258277Y-14995936D02*
X9248753Y-15005460D01*
X9248753Y-15005460D02*
X9229706Y-15014984D01*
X9229706Y-15014984D02*
X9201134Y-15014984D01*
X9382087Y-15014984D02*
X9363039Y-15005460D01*
X9363039Y-15005460D02*
X9353515Y-14986412D01*
X9353515Y-14986412D02*
X9353515Y-14814984D01*
X9534468Y-15005460D02*
X9515420Y-15014984D01*
X9515420Y-15014984D02*
X9477325Y-15014984D01*
X9477325Y-15014984D02*
X9458277Y-15005460D01*
X9458277Y-15005460D02*
X9448753Y-14986412D01*
X9448753Y-14986412D02*
X9448753Y-14910222D01*
X9448753Y-14910222D02*
X9458277Y-14891174D01*
X9458277Y-14891174D02*
X9477325Y-14881650D01*
X9477325Y-14881650D02*
X9515420Y-14881650D01*
X9515420Y-14881650D02*
X9534468Y-14891174D01*
X9534468Y-14891174D02*
X9543992Y-14910222D01*
X9543992Y-14910222D02*
X9543992Y-14929269D01*
X9543992Y-14929269D02*
X9448753Y-14948317D01*
X9620182Y-15005460D02*
X9639230Y-15014984D01*
X9639230Y-15014984D02*
X9677325Y-15014984D01*
X9677325Y-15014984D02*
X9696373Y-15005460D01*
X9696373Y-15005460D02*
X9705896Y-14986412D01*
X9705896Y-14986412D02*
X9705896Y-14976888D01*
X9705896Y-14976888D02*
X9696373Y-14957841D01*
X9696373Y-14957841D02*
X9677325Y-14948317D01*
X9677325Y-14948317D02*
X9648753Y-14948317D01*
X9648753Y-14948317D02*
X9629706Y-14938793D01*
X9629706Y-14938793D02*
X9620182Y-14919746D01*
X9620182Y-14919746D02*
X9620182Y-14910222D01*
X9620182Y-14910222D02*
X9629706Y-14891174D01*
X9629706Y-14891174D02*
X9648753Y-14881650D01*
X9648753Y-14881650D02*
X9677325Y-14881650D01*
X9677325Y-14881650D02*
X9696373Y-14891174D01*
X9772563Y-15091174D02*
X9782087Y-15081650D01*
X9782087Y-15081650D02*
X9801134Y-15053079D01*
X9801134Y-15053079D02*
X9810658Y-15034031D01*
X9810658Y-15034031D02*
X9820182Y-15005460D01*
X9820182Y-15005460D02*
X9829706Y-14957841D01*
X9829706Y-14957841D02*
X9829706Y-14919746D01*
X9829706Y-14919746D02*
X9820182Y-14872127D01*
X9820182Y-14872127D02*
X9810658Y-14843555D01*
X9810658Y-14843555D02*
X9801134Y-14824508D01*
X9801134Y-14824508D02*
X9782087Y-14795936D01*
X9782087Y-14795936D02*
X9772563Y-14786412D01*
D12*
X4960000Y-15150000D02*
X4960000Y-15225000D01*
X4922500Y-15187500D02*
X4997500Y-15187500D01*
D11*
X5296372Y-15078984D02*
X5315420Y-15078984D01*
X5315420Y-15078984D02*
X5334467Y-15088508D01*
X5334467Y-15088508D02*
X5343991Y-15098031D01*
X5343991Y-15098031D02*
X5353515Y-15117079D01*
X5353515Y-15117079D02*
X5363039Y-15155174D01*
X5363039Y-15155174D02*
X5363039Y-15202793D01*
X5363039Y-15202793D02*
X5353515Y-15240888D01*
X5353515Y-15240888D02*
X5343991Y-15259936D01*
X5343991Y-15259936D02*
X5334467Y-15269460D01*
X5334467Y-15269460D02*
X5315420Y-15278984D01*
X5315420Y-15278984D02*
X5296372Y-15278984D01*
X5296372Y-15278984D02*
X5277324Y-15269460D01*
X5277324Y-15269460D02*
X5267801Y-15259936D01*
X5267801Y-15259936D02*
X5258277Y-15240888D01*
X5258277Y-15240888D02*
X5248753Y-15202793D01*
X5248753Y-15202793D02*
X5248753Y-15155174D01*
X5248753Y-15155174D02*
X5258277Y-15117079D01*
X5258277Y-15117079D02*
X5267801Y-15098031D01*
X5267801Y-15098031D02*
X5277324Y-15088508D01*
X5277324Y-15088508D02*
X5296372Y-15078984D01*
X5448753Y-15259936D02*
X5458277Y-15269460D01*
X5458277Y-15269460D02*
X5448753Y-15278984D01*
X5448753Y-15278984D02*
X5439229Y-15269460D01*
X5439229Y-15269460D02*
X5448753Y-15259936D01*
X5448753Y-15259936D02*
X5448753Y-15278984D01*
X5524944Y-15078984D02*
X5658277Y-15078984D01*
X5658277Y-15078984D02*
X5572563Y-15278984D01*
X5829705Y-15078984D02*
X5734467Y-15078984D01*
X5734467Y-15078984D02*
X5724943Y-15174222D01*
X5724943Y-15174222D02*
X5734467Y-15164698D01*
X5734467Y-15164698D02*
X5753515Y-15155174D01*
X5753515Y-15155174D02*
X5801134Y-15155174D01*
X5801134Y-15155174D02*
X5820182Y-15164698D01*
X5820182Y-15164698D02*
X5829705Y-15174222D01*
X5829705Y-15174222D02*
X5839229Y-15193269D01*
X5839229Y-15193269D02*
X5839229Y-15240888D01*
X5839229Y-15240888D02*
X5829705Y-15259936D01*
X5829705Y-15259936D02*
X5820182Y-15269460D01*
X5820182Y-15269460D02*
X5801134Y-15278984D01*
X5801134Y-15278984D02*
X5753515Y-15278984D01*
X5753515Y-15278984D02*
X5734467Y-15269460D01*
X5734467Y-15269460D02*
X5724943Y-15259936D01*
X5963039Y-15078984D02*
X5982086Y-15078984D01*
X5982086Y-15078984D02*
X6001134Y-15088508D01*
X6001134Y-15088508D02*
X6010658Y-15098031D01*
X6010658Y-15098031D02*
X6020182Y-15117079D01*
X6020182Y-15117079D02*
X6029705Y-15155174D01*
X6029705Y-15155174D02*
X6029705Y-15202793D01*
X6029705Y-15202793D02*
X6020182Y-15240888D01*
X6020182Y-15240888D02*
X6010658Y-15259936D01*
X6010658Y-15259936D02*
X6001134Y-15269460D01*
X6001134Y-15269460D02*
X5982086Y-15278984D01*
X5982086Y-15278984D02*
X5963039Y-15278984D01*
X5963039Y-15278984D02*
X5943991Y-15269460D01*
X5943991Y-15269460D02*
X5934467Y-15259936D01*
X5934467Y-15259936D02*
X5924943Y-15240888D01*
X5924943Y-15240888D02*
X5915420Y-15202793D01*
X5915420Y-15202793D02*
X5915420Y-15155174D01*
X5915420Y-15155174D02*
X5924943Y-15117079D01*
X5924943Y-15117079D02*
X5934467Y-15098031D01*
X5934467Y-15098031D02*
X5943991Y-15088508D01*
X5943991Y-15088508D02*
X5963039Y-15078984D01*
X6115420Y-15278984D02*
X6115420Y-15145650D01*
X6115420Y-15164698D02*
X6124943Y-15155174D01*
X6124943Y-15155174D02*
X6143991Y-15145650D01*
X6143991Y-15145650D02*
X6172563Y-15145650D01*
X6172563Y-15145650D02*
X6191610Y-15155174D01*
X6191610Y-15155174D02*
X6201134Y-15174222D01*
X6201134Y-15174222D02*
X6201134Y-15278984D01*
X6201134Y-15174222D02*
X6210658Y-15155174D01*
X6210658Y-15155174D02*
X6229705Y-15145650D01*
X6229705Y-15145650D02*
X6258277Y-15145650D01*
X6258277Y-15145650D02*
X6277324Y-15155174D01*
X6277324Y-15155174D02*
X6286848Y-15174222D01*
X6286848Y-15174222D02*
X6286848Y-15278984D01*
X6382086Y-15278984D02*
X6382086Y-15145650D01*
X6382086Y-15164698D02*
X6391610Y-15155174D01*
X6391610Y-15155174D02*
X6410658Y-15145650D01*
X6410658Y-15145650D02*
X6439229Y-15145650D01*
X6439229Y-15145650D02*
X6458277Y-15155174D01*
X6458277Y-15155174D02*
X6467801Y-15174222D01*
X6467801Y-15174222D02*
X6467801Y-15278984D01*
X6467801Y-15174222D02*
X6477324Y-15155174D01*
X6477324Y-15155174D02*
X6496372Y-15145650D01*
X6496372Y-15145650D02*
X6524943Y-15145650D01*
X6524943Y-15145650D02*
X6543991Y-15155174D01*
X6543991Y-15155174D02*
X6553515Y-15174222D01*
X6553515Y-15174222D02*
X6553515Y-15278984D01*
X6943991Y-15069460D02*
X6772563Y-15326603D01*
X7201134Y-15078984D02*
X7220182Y-15078984D01*
X7220182Y-15078984D02*
X7239229Y-15088508D01*
X7239229Y-15088508D02*
X7248753Y-15098031D01*
X7248753Y-15098031D02*
X7258277Y-15117079D01*
X7258277Y-15117079D02*
X7267801Y-15155174D01*
X7267801Y-15155174D02*
X7267801Y-15202793D01*
X7267801Y-15202793D02*
X7258277Y-15240888D01*
X7258277Y-15240888D02*
X7248753Y-15259936D01*
X7248753Y-15259936D02*
X7239229Y-15269460D01*
X7239229Y-15269460D02*
X7220182Y-15278984D01*
X7220182Y-15278984D02*
X7201134Y-15278984D01*
X7201134Y-15278984D02*
X7182086Y-15269460D01*
X7182086Y-15269460D02*
X7172563Y-15259936D01*
X7172563Y-15259936D02*
X7163039Y-15240888D01*
X7163039Y-15240888D02*
X7153515Y-15202793D01*
X7153515Y-15202793D02*
X7153515Y-15155174D01*
X7153515Y-15155174D02*
X7163039Y-15117079D01*
X7163039Y-15117079D02*
X7172563Y-15098031D01*
X7172563Y-15098031D02*
X7182086Y-15088508D01*
X7182086Y-15088508D02*
X7201134Y-15078984D01*
X7353515Y-15259936D02*
X7363039Y-15269460D01*
X7363039Y-15269460D02*
X7353515Y-15278984D01*
X7353515Y-15278984D02*
X7343991Y-15269460D01*
X7343991Y-15269460D02*
X7353515Y-15259936D01*
X7353515Y-15259936D02*
X7353515Y-15278984D01*
X7486848Y-15078984D02*
X7505896Y-15078984D01*
X7505896Y-15078984D02*
X7524944Y-15088508D01*
X7524944Y-15088508D02*
X7534467Y-15098031D01*
X7534467Y-15098031D02*
X7543991Y-15117079D01*
X7543991Y-15117079D02*
X7553515Y-15155174D01*
X7553515Y-15155174D02*
X7553515Y-15202793D01*
X7553515Y-15202793D02*
X7543991Y-15240888D01*
X7543991Y-15240888D02*
X7534467Y-15259936D01*
X7534467Y-15259936D02*
X7524944Y-15269460D01*
X7524944Y-15269460D02*
X7505896Y-15278984D01*
X7505896Y-15278984D02*
X7486848Y-15278984D01*
X7486848Y-15278984D02*
X7467801Y-15269460D01*
X7467801Y-15269460D02*
X7458277Y-15259936D01*
X7458277Y-15259936D02*
X7448753Y-15240888D01*
X7448753Y-15240888D02*
X7439229Y-15202793D01*
X7439229Y-15202793D02*
X7439229Y-15155174D01*
X7439229Y-15155174D02*
X7448753Y-15117079D01*
X7448753Y-15117079D02*
X7458277Y-15098031D01*
X7458277Y-15098031D02*
X7467801Y-15088508D01*
X7467801Y-15088508D02*
X7486848Y-15078984D01*
X7629706Y-15098031D02*
X7639229Y-15088508D01*
X7639229Y-15088508D02*
X7658277Y-15078984D01*
X7658277Y-15078984D02*
X7705896Y-15078984D01*
X7705896Y-15078984D02*
X7724944Y-15088508D01*
X7724944Y-15088508D02*
X7734467Y-15098031D01*
X7734467Y-15098031D02*
X7743991Y-15117079D01*
X7743991Y-15117079D02*
X7743991Y-15136127D01*
X7743991Y-15136127D02*
X7734467Y-15164698D01*
X7734467Y-15164698D02*
X7620182Y-15278984D01*
X7620182Y-15278984D02*
X7743991Y-15278984D01*
X7839229Y-15278984D02*
X7877325Y-15278984D01*
X7877325Y-15278984D02*
X7896372Y-15269460D01*
X7896372Y-15269460D02*
X7905896Y-15259936D01*
X7905896Y-15259936D02*
X7924944Y-15231365D01*
X7924944Y-15231365D02*
X7934467Y-15193269D01*
X7934467Y-15193269D02*
X7934467Y-15117079D01*
X7934467Y-15117079D02*
X7924944Y-15098031D01*
X7924944Y-15098031D02*
X7915420Y-15088508D01*
X7915420Y-15088508D02*
X7896372Y-15078984D01*
X7896372Y-15078984D02*
X7858277Y-15078984D01*
X7858277Y-15078984D02*
X7839229Y-15088508D01*
X7839229Y-15088508D02*
X7829706Y-15098031D01*
X7829706Y-15098031D02*
X7820182Y-15117079D01*
X7820182Y-15117079D02*
X7820182Y-15164698D01*
X7820182Y-15164698D02*
X7829706Y-15183746D01*
X7829706Y-15183746D02*
X7839229Y-15193269D01*
X7839229Y-15193269D02*
X7858277Y-15202793D01*
X7858277Y-15202793D02*
X7896372Y-15202793D01*
X7896372Y-15202793D02*
X7915420Y-15193269D01*
X7915420Y-15193269D02*
X7924944Y-15183746D01*
X7924944Y-15183746D02*
X7934467Y-15164698D01*
X8115420Y-15078984D02*
X8020182Y-15078984D01*
X8020182Y-15078984D02*
X8010658Y-15174222D01*
X8010658Y-15174222D02*
X8020182Y-15164698D01*
X8020182Y-15164698D02*
X8039229Y-15155174D01*
X8039229Y-15155174D02*
X8086848Y-15155174D01*
X8086848Y-15155174D02*
X8105896Y-15164698D01*
X8105896Y-15164698D02*
X8115420Y-15174222D01*
X8115420Y-15174222D02*
X8124944Y-15193269D01*
X8124944Y-15193269D02*
X8124944Y-15240888D01*
X8124944Y-15240888D02*
X8115420Y-15259936D01*
X8115420Y-15259936D02*
X8105896Y-15269460D01*
X8105896Y-15269460D02*
X8086848Y-15278984D01*
X8086848Y-15278984D02*
X8039229Y-15278984D01*
X8039229Y-15278984D02*
X8020182Y-15269460D01*
X8020182Y-15269460D02*
X8010658Y-15259936D01*
X8201134Y-15078984D02*
X8201134Y-15117079D01*
X8277325Y-15078984D02*
X8277325Y-15117079D01*
X8572563Y-15355174D02*
X8563039Y-15345650D01*
X8563039Y-15345650D02*
X8543991Y-15317079D01*
X8543991Y-15317079D02*
X8534468Y-15298031D01*
X8534468Y-15298031D02*
X8524944Y-15269460D01*
X8524944Y-15269460D02*
X8515420Y-15221841D01*
X8515420Y-15221841D02*
X8515420Y-15183746D01*
X8515420Y-15183746D02*
X8524944Y-15136127D01*
X8524944Y-15136127D02*
X8534468Y-15107555D01*
X8534468Y-15107555D02*
X8543991Y-15088508D01*
X8543991Y-15088508D02*
X8563039Y-15059936D01*
X8563039Y-15059936D02*
X8572563Y-15050412D01*
X8629706Y-15078984D02*
X8753515Y-15078984D01*
X8753515Y-15078984D02*
X8686849Y-15155174D01*
X8686849Y-15155174D02*
X8715420Y-15155174D01*
X8715420Y-15155174D02*
X8734468Y-15164698D01*
X8734468Y-15164698D02*
X8743991Y-15174222D01*
X8743991Y-15174222D02*
X8753515Y-15193269D01*
X8753515Y-15193269D02*
X8753515Y-15240888D01*
X8753515Y-15240888D02*
X8743991Y-15259936D01*
X8743991Y-15259936D02*
X8734468Y-15269460D01*
X8734468Y-15269460D02*
X8715420Y-15278984D01*
X8715420Y-15278984D02*
X8658277Y-15278984D01*
X8658277Y-15278984D02*
X8639230Y-15269460D01*
X8639230Y-15269460D02*
X8629706Y-15259936D01*
X8991611Y-15278984D02*
X8991611Y-15078984D01*
X9077325Y-15278984D02*
X9077325Y-15174222D01*
X9077325Y-15174222D02*
X9067801Y-15155174D01*
X9067801Y-15155174D02*
X9048753Y-15145650D01*
X9048753Y-15145650D02*
X9020182Y-15145650D01*
X9020182Y-15145650D02*
X9001134Y-15155174D01*
X9001134Y-15155174D02*
X8991611Y-15164698D01*
X9201134Y-15278984D02*
X9182087Y-15269460D01*
X9182087Y-15269460D02*
X9172563Y-15259936D01*
X9172563Y-15259936D02*
X9163039Y-15240888D01*
X9163039Y-15240888D02*
X9163039Y-15183746D01*
X9163039Y-15183746D02*
X9172563Y-15164698D01*
X9172563Y-15164698D02*
X9182087Y-15155174D01*
X9182087Y-15155174D02*
X9201134Y-15145650D01*
X9201134Y-15145650D02*
X9229706Y-15145650D01*
X9229706Y-15145650D02*
X9248753Y-15155174D01*
X9248753Y-15155174D02*
X9258277Y-15164698D01*
X9258277Y-15164698D02*
X9267801Y-15183746D01*
X9267801Y-15183746D02*
X9267801Y-15240888D01*
X9267801Y-15240888D02*
X9258277Y-15259936D01*
X9258277Y-15259936D02*
X9248753Y-15269460D01*
X9248753Y-15269460D02*
X9229706Y-15278984D01*
X9229706Y-15278984D02*
X9201134Y-15278984D01*
X9382087Y-15278984D02*
X9363039Y-15269460D01*
X9363039Y-15269460D02*
X9353515Y-15250412D01*
X9353515Y-15250412D02*
X9353515Y-15078984D01*
X9534468Y-15269460D02*
X9515420Y-15278984D01*
X9515420Y-15278984D02*
X9477325Y-15278984D01*
X9477325Y-15278984D02*
X9458277Y-15269460D01*
X9458277Y-15269460D02*
X9448753Y-15250412D01*
X9448753Y-15250412D02*
X9448753Y-15174222D01*
X9448753Y-15174222D02*
X9458277Y-15155174D01*
X9458277Y-15155174D02*
X9477325Y-15145650D01*
X9477325Y-15145650D02*
X9515420Y-15145650D01*
X9515420Y-15145650D02*
X9534468Y-15155174D01*
X9534468Y-15155174D02*
X9543992Y-15174222D01*
X9543992Y-15174222D02*
X9543992Y-15193269D01*
X9543992Y-15193269D02*
X9448753Y-15212317D01*
X9620182Y-15269460D02*
X9639230Y-15278984D01*
X9639230Y-15278984D02*
X9677325Y-15278984D01*
X9677325Y-15278984D02*
X9696373Y-15269460D01*
X9696373Y-15269460D02*
X9705896Y-15250412D01*
X9705896Y-15250412D02*
X9705896Y-15240888D01*
X9705896Y-15240888D02*
X9696373Y-15221841D01*
X9696373Y-15221841D02*
X9677325Y-15212317D01*
X9677325Y-15212317D02*
X9648753Y-15212317D01*
X9648753Y-15212317D02*
X9629706Y-15202793D01*
X9629706Y-15202793D02*
X9620182Y-15183746D01*
X9620182Y-15183746D02*
X9620182Y-15174222D01*
X9620182Y-15174222D02*
X9629706Y-15155174D01*
X9629706Y-15155174D02*
X9648753Y-15145650D01*
X9648753Y-15145650D02*
X9677325Y-15145650D01*
X9677325Y-15145650D02*
X9696373Y-15155174D01*
X9772563Y-15355174D02*
X9782087Y-15345650D01*
X9782087Y-15345650D02*
X9801134Y-15317079D01*
X9801134Y-15317079D02*
X9810658Y-15298031D01*
X9810658Y-15298031D02*
X9820182Y-15269460D01*
X9820182Y-15269460D02*
X9829706Y-15221841D01*
X9829706Y-15221841D02*
X9829706Y-15183746D01*
X9829706Y-15183746D02*
X9820182Y-15136127D01*
X9820182Y-15136127D02*
X9810658Y-15107555D01*
X9810658Y-15107555D02*
X9801134Y-15088508D01*
X9801134Y-15088508D02*
X9782087Y-15059936D01*
X9782087Y-15059936D02*
X9772563Y-15050412D01*
D12*
X4985785Y-15479784D02*
X4985785Y-15423215D01*
X4929216Y-15423215D01*
X4929216Y-15479784D01*
X4985785Y-15479784D01*
D11*
X5296372Y-15342984D02*
X5315420Y-15342984D01*
X5315420Y-15342984D02*
X5334467Y-15352508D01*
X5334467Y-15352508D02*
X5343991Y-15362031D01*
X5343991Y-15362031D02*
X5353515Y-15381079D01*
X5353515Y-15381079D02*
X5363039Y-15419174D01*
X5363039Y-15419174D02*
X5363039Y-15466793D01*
X5363039Y-15466793D02*
X5353515Y-15504888D01*
X5353515Y-15504888D02*
X5343991Y-15523936D01*
X5343991Y-15523936D02*
X5334467Y-15533460D01*
X5334467Y-15533460D02*
X5315420Y-15542984D01*
X5315420Y-15542984D02*
X5296372Y-15542984D01*
X5296372Y-15542984D02*
X5277324Y-15533460D01*
X5277324Y-15533460D02*
X5267801Y-15523936D01*
X5267801Y-15523936D02*
X5258277Y-15504888D01*
X5258277Y-15504888D02*
X5248753Y-15466793D01*
X5248753Y-15466793D02*
X5248753Y-15419174D01*
X5248753Y-15419174D02*
X5258277Y-15381079D01*
X5258277Y-15381079D02*
X5267801Y-15362031D01*
X5267801Y-15362031D02*
X5277324Y-15352508D01*
X5277324Y-15352508D02*
X5296372Y-15342984D01*
X5448753Y-15523936D02*
X5458277Y-15533460D01*
X5458277Y-15533460D02*
X5448753Y-15542984D01*
X5448753Y-15542984D02*
X5439229Y-15533460D01*
X5439229Y-15533460D02*
X5448753Y-15523936D01*
X5448753Y-15523936D02*
X5448753Y-15542984D01*
X5572563Y-15428698D02*
X5553515Y-15419174D01*
X5553515Y-15419174D02*
X5543991Y-15409650D01*
X5543991Y-15409650D02*
X5534467Y-15390603D01*
X5534467Y-15390603D02*
X5534467Y-15381079D01*
X5534467Y-15381079D02*
X5543991Y-15362031D01*
X5543991Y-15362031D02*
X5553515Y-15352508D01*
X5553515Y-15352508D02*
X5572563Y-15342984D01*
X5572563Y-15342984D02*
X5610658Y-15342984D01*
X5610658Y-15342984D02*
X5629705Y-15352508D01*
X5629705Y-15352508D02*
X5639229Y-15362031D01*
X5639229Y-15362031D02*
X5648753Y-15381079D01*
X5648753Y-15381079D02*
X5648753Y-15390603D01*
X5648753Y-15390603D02*
X5639229Y-15409650D01*
X5639229Y-15409650D02*
X5629705Y-15419174D01*
X5629705Y-15419174D02*
X5610658Y-15428698D01*
X5610658Y-15428698D02*
X5572563Y-15428698D01*
X5572563Y-15428698D02*
X5553515Y-15438222D01*
X5553515Y-15438222D02*
X5543991Y-15447746D01*
X5543991Y-15447746D02*
X5534467Y-15466793D01*
X5534467Y-15466793D02*
X5534467Y-15504888D01*
X5534467Y-15504888D02*
X5543991Y-15523936D01*
X5543991Y-15523936D02*
X5553515Y-15533460D01*
X5553515Y-15533460D02*
X5572563Y-15542984D01*
X5572563Y-15542984D02*
X5610658Y-15542984D01*
X5610658Y-15542984D02*
X5629705Y-15533460D01*
X5629705Y-15533460D02*
X5639229Y-15523936D01*
X5639229Y-15523936D02*
X5648753Y-15504888D01*
X5648753Y-15504888D02*
X5648753Y-15466793D01*
X5648753Y-15466793D02*
X5639229Y-15447746D01*
X5639229Y-15447746D02*
X5629705Y-15438222D01*
X5629705Y-15438222D02*
X5610658Y-15428698D01*
X5772562Y-15342984D02*
X5791610Y-15342984D01*
X5791610Y-15342984D02*
X5810658Y-15352508D01*
X5810658Y-15352508D02*
X5820182Y-15362031D01*
X5820182Y-15362031D02*
X5829705Y-15381079D01*
X5829705Y-15381079D02*
X5839229Y-15419174D01*
X5839229Y-15419174D02*
X5839229Y-15466793D01*
X5839229Y-15466793D02*
X5829705Y-15504888D01*
X5829705Y-15504888D02*
X5820182Y-15523936D01*
X5820182Y-15523936D02*
X5810658Y-15533460D01*
X5810658Y-15533460D02*
X5791610Y-15542984D01*
X5791610Y-15542984D02*
X5772562Y-15542984D01*
X5772562Y-15542984D02*
X5753515Y-15533460D01*
X5753515Y-15533460D02*
X5743991Y-15523936D01*
X5743991Y-15523936D02*
X5734467Y-15504888D01*
X5734467Y-15504888D02*
X5724943Y-15466793D01*
X5724943Y-15466793D02*
X5724943Y-15419174D01*
X5724943Y-15419174D02*
X5734467Y-15381079D01*
X5734467Y-15381079D02*
X5743991Y-15362031D01*
X5743991Y-15362031D02*
X5753515Y-15352508D01*
X5753515Y-15352508D02*
X5772562Y-15342984D01*
X5963039Y-15342984D02*
X5982086Y-15342984D01*
X5982086Y-15342984D02*
X6001134Y-15352508D01*
X6001134Y-15352508D02*
X6010658Y-15362031D01*
X6010658Y-15362031D02*
X6020182Y-15381079D01*
X6020182Y-15381079D02*
X6029705Y-15419174D01*
X6029705Y-15419174D02*
X6029705Y-15466793D01*
X6029705Y-15466793D02*
X6020182Y-15504888D01*
X6020182Y-15504888D02*
X6010658Y-15523936D01*
X6010658Y-15523936D02*
X6001134Y-15533460D01*
X6001134Y-15533460D02*
X5982086Y-15542984D01*
X5982086Y-15542984D02*
X5963039Y-15542984D01*
X5963039Y-15542984D02*
X5943991Y-15533460D01*
X5943991Y-15533460D02*
X5934467Y-15523936D01*
X5934467Y-15523936D02*
X5924943Y-15504888D01*
X5924943Y-15504888D02*
X5915420Y-15466793D01*
X5915420Y-15466793D02*
X5915420Y-15419174D01*
X5915420Y-15419174D02*
X5924943Y-15381079D01*
X5924943Y-15381079D02*
X5934467Y-15362031D01*
X5934467Y-15362031D02*
X5943991Y-15352508D01*
X5943991Y-15352508D02*
X5963039Y-15342984D01*
X6115420Y-15542984D02*
X6115420Y-15409650D01*
X6115420Y-15428698D02*
X6124943Y-15419174D01*
X6124943Y-15419174D02*
X6143991Y-15409650D01*
X6143991Y-15409650D02*
X6172563Y-15409650D01*
X6172563Y-15409650D02*
X6191610Y-15419174D01*
X6191610Y-15419174D02*
X6201134Y-15438222D01*
X6201134Y-15438222D02*
X6201134Y-15542984D01*
X6201134Y-15438222D02*
X6210658Y-15419174D01*
X6210658Y-15419174D02*
X6229705Y-15409650D01*
X6229705Y-15409650D02*
X6258277Y-15409650D01*
X6258277Y-15409650D02*
X6277324Y-15419174D01*
X6277324Y-15419174D02*
X6286848Y-15438222D01*
X6286848Y-15438222D02*
X6286848Y-15542984D01*
X6382086Y-15542984D02*
X6382086Y-15409650D01*
X6382086Y-15428698D02*
X6391610Y-15419174D01*
X6391610Y-15419174D02*
X6410658Y-15409650D01*
X6410658Y-15409650D02*
X6439229Y-15409650D01*
X6439229Y-15409650D02*
X6458277Y-15419174D01*
X6458277Y-15419174D02*
X6467801Y-15438222D01*
X6467801Y-15438222D02*
X6467801Y-15542984D01*
X6467801Y-15438222D02*
X6477324Y-15419174D01*
X6477324Y-15419174D02*
X6496372Y-15409650D01*
X6496372Y-15409650D02*
X6524943Y-15409650D01*
X6524943Y-15409650D02*
X6543991Y-15419174D01*
X6543991Y-15419174D02*
X6553515Y-15438222D01*
X6553515Y-15438222D02*
X6553515Y-15542984D01*
X6943991Y-15333460D02*
X6772563Y-15590603D01*
X7201134Y-15342984D02*
X7220182Y-15342984D01*
X7220182Y-15342984D02*
X7239229Y-15352508D01*
X7239229Y-15352508D02*
X7248753Y-15362031D01*
X7248753Y-15362031D02*
X7258277Y-15381079D01*
X7258277Y-15381079D02*
X7267801Y-15419174D01*
X7267801Y-15419174D02*
X7267801Y-15466793D01*
X7267801Y-15466793D02*
X7258277Y-15504888D01*
X7258277Y-15504888D02*
X7248753Y-15523936D01*
X7248753Y-15523936D02*
X7239229Y-15533460D01*
X7239229Y-15533460D02*
X7220182Y-15542984D01*
X7220182Y-15542984D02*
X7201134Y-15542984D01*
X7201134Y-15542984D02*
X7182086Y-15533460D01*
X7182086Y-15533460D02*
X7172563Y-15523936D01*
X7172563Y-15523936D02*
X7163039Y-15504888D01*
X7163039Y-15504888D02*
X7153515Y-15466793D01*
X7153515Y-15466793D02*
X7153515Y-15419174D01*
X7153515Y-15419174D02*
X7163039Y-15381079D01*
X7163039Y-15381079D02*
X7172563Y-15362031D01*
X7172563Y-15362031D02*
X7182086Y-15352508D01*
X7182086Y-15352508D02*
X7201134Y-15342984D01*
X7353515Y-15523936D02*
X7363039Y-15533460D01*
X7363039Y-15533460D02*
X7353515Y-15542984D01*
X7353515Y-15542984D02*
X7343991Y-15533460D01*
X7343991Y-15533460D02*
X7353515Y-15523936D01*
X7353515Y-15523936D02*
X7353515Y-15542984D01*
X7486848Y-15342984D02*
X7505896Y-15342984D01*
X7505896Y-15342984D02*
X7524944Y-15352508D01*
X7524944Y-15352508D02*
X7534467Y-15362031D01*
X7534467Y-15362031D02*
X7543991Y-15381079D01*
X7543991Y-15381079D02*
X7553515Y-15419174D01*
X7553515Y-15419174D02*
X7553515Y-15466793D01*
X7553515Y-15466793D02*
X7543991Y-15504888D01*
X7543991Y-15504888D02*
X7534467Y-15523936D01*
X7534467Y-15523936D02*
X7524944Y-15533460D01*
X7524944Y-15533460D02*
X7505896Y-15542984D01*
X7505896Y-15542984D02*
X7486848Y-15542984D01*
X7486848Y-15542984D02*
X7467801Y-15533460D01*
X7467801Y-15533460D02*
X7458277Y-15523936D01*
X7458277Y-15523936D02*
X7448753Y-15504888D01*
X7448753Y-15504888D02*
X7439229Y-15466793D01*
X7439229Y-15466793D02*
X7439229Y-15419174D01*
X7439229Y-15419174D02*
X7448753Y-15381079D01*
X7448753Y-15381079D02*
X7458277Y-15362031D01*
X7458277Y-15362031D02*
X7467801Y-15352508D01*
X7467801Y-15352508D02*
X7486848Y-15342984D01*
X7620182Y-15342984D02*
X7743991Y-15342984D01*
X7743991Y-15342984D02*
X7677325Y-15419174D01*
X7677325Y-15419174D02*
X7705896Y-15419174D01*
X7705896Y-15419174D02*
X7724944Y-15428698D01*
X7724944Y-15428698D02*
X7734467Y-15438222D01*
X7734467Y-15438222D02*
X7743991Y-15457269D01*
X7743991Y-15457269D02*
X7743991Y-15504888D01*
X7743991Y-15504888D02*
X7734467Y-15523936D01*
X7734467Y-15523936D02*
X7724944Y-15533460D01*
X7724944Y-15533460D02*
X7705896Y-15542984D01*
X7705896Y-15542984D02*
X7648753Y-15542984D01*
X7648753Y-15542984D02*
X7629706Y-15533460D01*
X7629706Y-15533460D02*
X7620182Y-15523936D01*
X7934467Y-15542984D02*
X7820182Y-15542984D01*
X7877325Y-15542984D02*
X7877325Y-15342984D01*
X7877325Y-15342984D02*
X7858277Y-15371555D01*
X7858277Y-15371555D02*
X7839229Y-15390603D01*
X7839229Y-15390603D02*
X7820182Y-15400127D01*
X8115420Y-15342984D02*
X8020182Y-15342984D01*
X8020182Y-15342984D02*
X8010658Y-15438222D01*
X8010658Y-15438222D02*
X8020182Y-15428698D01*
X8020182Y-15428698D02*
X8039229Y-15419174D01*
X8039229Y-15419174D02*
X8086848Y-15419174D01*
X8086848Y-15419174D02*
X8105896Y-15428698D01*
X8105896Y-15428698D02*
X8115420Y-15438222D01*
X8115420Y-15438222D02*
X8124944Y-15457269D01*
X8124944Y-15457269D02*
X8124944Y-15504888D01*
X8124944Y-15504888D02*
X8115420Y-15523936D01*
X8115420Y-15523936D02*
X8105896Y-15533460D01*
X8105896Y-15533460D02*
X8086848Y-15542984D01*
X8086848Y-15542984D02*
X8039229Y-15542984D01*
X8039229Y-15542984D02*
X8020182Y-15533460D01*
X8020182Y-15533460D02*
X8010658Y-15523936D01*
X8201134Y-15342984D02*
X8201134Y-15381079D01*
X8277325Y-15342984D02*
X8277325Y-15381079D01*
X8572563Y-15619174D02*
X8563039Y-15609650D01*
X8563039Y-15609650D02*
X8543991Y-15581079D01*
X8543991Y-15581079D02*
X8534468Y-15562031D01*
X8534468Y-15562031D02*
X8524944Y-15533460D01*
X8524944Y-15533460D02*
X8515420Y-15485841D01*
X8515420Y-15485841D02*
X8515420Y-15447746D01*
X8515420Y-15447746D02*
X8524944Y-15400127D01*
X8524944Y-15400127D02*
X8534468Y-15371555D01*
X8534468Y-15371555D02*
X8543991Y-15352508D01*
X8543991Y-15352508D02*
X8563039Y-15323936D01*
X8563039Y-15323936D02*
X8572563Y-15314412D01*
X8753515Y-15542984D02*
X8639230Y-15542984D01*
X8696372Y-15542984D02*
X8696372Y-15342984D01*
X8696372Y-15342984D02*
X8677325Y-15371555D01*
X8677325Y-15371555D02*
X8658277Y-15390603D01*
X8658277Y-15390603D02*
X8639230Y-15400127D01*
X8829706Y-15362031D02*
X8839230Y-15352508D01*
X8839230Y-15352508D02*
X8858277Y-15342984D01*
X8858277Y-15342984D02*
X8905896Y-15342984D01*
X8905896Y-15342984D02*
X8924944Y-15352508D01*
X8924944Y-15352508D02*
X8934468Y-15362031D01*
X8934468Y-15362031D02*
X8943991Y-15381079D01*
X8943991Y-15381079D02*
X8943991Y-15400127D01*
X8943991Y-15400127D02*
X8934468Y-15428698D01*
X8934468Y-15428698D02*
X8820182Y-15542984D01*
X8820182Y-15542984D02*
X8943991Y-15542984D01*
X9115420Y-15342984D02*
X9077325Y-15342984D01*
X9077325Y-15342984D02*
X9058277Y-15352508D01*
X9058277Y-15352508D02*
X9048753Y-15362031D01*
X9048753Y-15362031D02*
X9029706Y-15390603D01*
X9029706Y-15390603D02*
X9020182Y-15428698D01*
X9020182Y-15428698D02*
X9020182Y-15504888D01*
X9020182Y-15504888D02*
X9029706Y-15523936D01*
X9029706Y-15523936D02*
X9039230Y-15533460D01*
X9039230Y-15533460D02*
X9058277Y-15542984D01*
X9058277Y-15542984D02*
X9096372Y-15542984D01*
X9096372Y-15542984D02*
X9115420Y-15533460D01*
X9115420Y-15533460D02*
X9124944Y-15523936D01*
X9124944Y-15523936D02*
X9134468Y-15504888D01*
X9134468Y-15504888D02*
X9134468Y-15457269D01*
X9134468Y-15457269D02*
X9124944Y-15438222D01*
X9124944Y-15438222D02*
X9115420Y-15428698D01*
X9115420Y-15428698D02*
X9096372Y-15419174D01*
X9096372Y-15419174D02*
X9058277Y-15419174D01*
X9058277Y-15419174D02*
X9039230Y-15428698D01*
X9039230Y-15428698D02*
X9029706Y-15438222D01*
X9029706Y-15438222D02*
X9020182Y-15457269D01*
X9372563Y-15542984D02*
X9372563Y-15342984D01*
X9458277Y-15542984D02*
X9458277Y-15438222D01*
X9458277Y-15438222D02*
X9448753Y-15419174D01*
X9448753Y-15419174D02*
X9429706Y-15409650D01*
X9429706Y-15409650D02*
X9401134Y-15409650D01*
X9401134Y-15409650D02*
X9382087Y-15419174D01*
X9382087Y-15419174D02*
X9372563Y-15428698D01*
X9582087Y-15542984D02*
X9563039Y-15533460D01*
X9563039Y-15533460D02*
X9553515Y-15523936D01*
X9553515Y-15523936D02*
X9543992Y-15504888D01*
X9543992Y-15504888D02*
X9543992Y-15447746D01*
X9543992Y-15447746D02*
X9553515Y-15428698D01*
X9553515Y-15428698D02*
X9563039Y-15419174D01*
X9563039Y-15419174D02*
X9582087Y-15409650D01*
X9582087Y-15409650D02*
X9610658Y-15409650D01*
X9610658Y-15409650D02*
X9629706Y-15419174D01*
X9629706Y-15419174D02*
X9639230Y-15428698D01*
X9639230Y-15428698D02*
X9648753Y-15447746D01*
X9648753Y-15447746D02*
X9648753Y-15504888D01*
X9648753Y-15504888D02*
X9639230Y-15523936D01*
X9639230Y-15523936D02*
X9629706Y-15533460D01*
X9629706Y-15533460D02*
X9610658Y-15542984D01*
X9610658Y-15542984D02*
X9582087Y-15542984D01*
X9763039Y-15542984D02*
X9743992Y-15533460D01*
X9743992Y-15533460D02*
X9734468Y-15514412D01*
X9734468Y-15514412D02*
X9734468Y-15342984D01*
X9915420Y-15533460D02*
X9896373Y-15542984D01*
X9896373Y-15542984D02*
X9858277Y-15542984D01*
X9858277Y-15542984D02*
X9839230Y-15533460D01*
X9839230Y-15533460D02*
X9829706Y-15514412D01*
X9829706Y-15514412D02*
X9829706Y-15438222D01*
X9829706Y-15438222D02*
X9839230Y-15419174D01*
X9839230Y-15419174D02*
X9858277Y-15409650D01*
X9858277Y-15409650D02*
X9896373Y-15409650D01*
X9896373Y-15409650D02*
X9915420Y-15419174D01*
X9915420Y-15419174D02*
X9924944Y-15438222D01*
X9924944Y-15438222D02*
X9924944Y-15457269D01*
X9924944Y-15457269D02*
X9829706Y-15476317D01*
X10001134Y-15533460D02*
X10020182Y-15542984D01*
X10020182Y-15542984D02*
X10058277Y-15542984D01*
X10058277Y-15542984D02*
X10077325Y-15533460D01*
X10077325Y-15533460D02*
X10086849Y-15514412D01*
X10086849Y-15514412D02*
X10086849Y-15504888D01*
X10086849Y-15504888D02*
X10077325Y-15485841D01*
X10077325Y-15485841D02*
X10058277Y-15476317D01*
X10058277Y-15476317D02*
X10029706Y-15476317D01*
X10029706Y-15476317D02*
X10010658Y-15466793D01*
X10010658Y-15466793D02*
X10001134Y-15447746D01*
X10001134Y-15447746D02*
X10001134Y-15438222D01*
X10001134Y-15438222D02*
X10010658Y-15419174D01*
X10010658Y-15419174D02*
X10029706Y-15409650D01*
X10029706Y-15409650D02*
X10058277Y-15409650D01*
X10058277Y-15409650D02*
X10077325Y-15419174D01*
X10153515Y-15619174D02*
X10163039Y-15609650D01*
X10163039Y-15609650D02*
X10182087Y-15581079D01*
X10182087Y-15581079D02*
X10191611Y-15562031D01*
X10191611Y-15562031D02*
X10201134Y-15533460D01*
X10201134Y-15533460D02*
X10210658Y-15485841D01*
X10210658Y-15485841D02*
X10210658Y-15447746D01*
X10210658Y-15447746D02*
X10201134Y-15400127D01*
X10201134Y-15400127D02*
X10191611Y-15371555D01*
X10191611Y-15371555D02*
X10182087Y-15352508D01*
X10182087Y-15352508D02*
X10163039Y-15323936D01*
X10163039Y-15323936D02*
X10153515Y-15314412D01*
D12*
X4952500Y-15760500D02*
X4997500Y-15715500D01*
X4952500Y-15670500D01*
X4907500Y-15715500D01*
X4952500Y-15760500D01*
D11*
X5296372Y-15606984D02*
X5315420Y-15606984D01*
X5315420Y-15606984D02*
X5334467Y-15616508D01*
X5334467Y-15616508D02*
X5343991Y-15626031D01*
X5343991Y-15626031D02*
X5353515Y-15645079D01*
X5353515Y-15645079D02*
X5363039Y-15683174D01*
X5363039Y-15683174D02*
X5363039Y-15730793D01*
X5363039Y-15730793D02*
X5353515Y-15768888D01*
X5353515Y-15768888D02*
X5343991Y-15787936D01*
X5343991Y-15787936D02*
X5334467Y-15797460D01*
X5334467Y-15797460D02*
X5315420Y-15806984D01*
X5315420Y-15806984D02*
X5296372Y-15806984D01*
X5296372Y-15806984D02*
X5277324Y-15797460D01*
X5277324Y-15797460D02*
X5267801Y-15787936D01*
X5267801Y-15787936D02*
X5258277Y-15768888D01*
X5258277Y-15768888D02*
X5248753Y-15730793D01*
X5248753Y-15730793D02*
X5248753Y-15683174D01*
X5248753Y-15683174D02*
X5258277Y-15645079D01*
X5258277Y-15645079D02*
X5267801Y-15626031D01*
X5267801Y-15626031D02*
X5277324Y-15616508D01*
X5277324Y-15616508D02*
X5296372Y-15606984D01*
X5448753Y-15787936D02*
X5458277Y-15797460D01*
X5458277Y-15797460D02*
X5448753Y-15806984D01*
X5448753Y-15806984D02*
X5439229Y-15797460D01*
X5439229Y-15797460D02*
X5448753Y-15787936D01*
X5448753Y-15787936D02*
X5448753Y-15806984D01*
X5553515Y-15806984D02*
X5591610Y-15806984D01*
X5591610Y-15806984D02*
X5610658Y-15797460D01*
X5610658Y-15797460D02*
X5620182Y-15787936D01*
X5620182Y-15787936D02*
X5639229Y-15759365D01*
X5639229Y-15759365D02*
X5648753Y-15721269D01*
X5648753Y-15721269D02*
X5648753Y-15645079D01*
X5648753Y-15645079D02*
X5639229Y-15626031D01*
X5639229Y-15626031D02*
X5629705Y-15616508D01*
X5629705Y-15616508D02*
X5610658Y-15606984D01*
X5610658Y-15606984D02*
X5572563Y-15606984D01*
X5572563Y-15606984D02*
X5553515Y-15616508D01*
X5553515Y-15616508D02*
X5543991Y-15626031D01*
X5543991Y-15626031D02*
X5534467Y-15645079D01*
X5534467Y-15645079D02*
X5534467Y-15692698D01*
X5534467Y-15692698D02*
X5543991Y-15711746D01*
X5543991Y-15711746D02*
X5553515Y-15721269D01*
X5553515Y-15721269D02*
X5572563Y-15730793D01*
X5572563Y-15730793D02*
X5610658Y-15730793D01*
X5610658Y-15730793D02*
X5629705Y-15721269D01*
X5629705Y-15721269D02*
X5639229Y-15711746D01*
X5639229Y-15711746D02*
X5648753Y-15692698D01*
X5772562Y-15606984D02*
X5791610Y-15606984D01*
X5791610Y-15606984D02*
X5810658Y-15616508D01*
X5810658Y-15616508D02*
X5820182Y-15626031D01*
X5820182Y-15626031D02*
X5829705Y-15645079D01*
X5829705Y-15645079D02*
X5839229Y-15683174D01*
X5839229Y-15683174D02*
X5839229Y-15730793D01*
X5839229Y-15730793D02*
X5829705Y-15768888D01*
X5829705Y-15768888D02*
X5820182Y-15787936D01*
X5820182Y-15787936D02*
X5810658Y-15797460D01*
X5810658Y-15797460D02*
X5791610Y-15806984D01*
X5791610Y-15806984D02*
X5772562Y-15806984D01*
X5772562Y-15806984D02*
X5753515Y-15797460D01*
X5753515Y-15797460D02*
X5743991Y-15787936D01*
X5743991Y-15787936D02*
X5734467Y-15768888D01*
X5734467Y-15768888D02*
X5724943Y-15730793D01*
X5724943Y-15730793D02*
X5724943Y-15683174D01*
X5724943Y-15683174D02*
X5734467Y-15645079D01*
X5734467Y-15645079D02*
X5743991Y-15626031D01*
X5743991Y-15626031D02*
X5753515Y-15616508D01*
X5753515Y-15616508D02*
X5772562Y-15606984D01*
X5963039Y-15606984D02*
X5982086Y-15606984D01*
X5982086Y-15606984D02*
X6001134Y-15616508D01*
X6001134Y-15616508D02*
X6010658Y-15626031D01*
X6010658Y-15626031D02*
X6020182Y-15645079D01*
X6020182Y-15645079D02*
X6029705Y-15683174D01*
X6029705Y-15683174D02*
X6029705Y-15730793D01*
X6029705Y-15730793D02*
X6020182Y-15768888D01*
X6020182Y-15768888D02*
X6010658Y-15787936D01*
X6010658Y-15787936D02*
X6001134Y-15797460D01*
X6001134Y-15797460D02*
X5982086Y-15806984D01*
X5982086Y-15806984D02*
X5963039Y-15806984D01*
X5963039Y-15806984D02*
X5943991Y-15797460D01*
X5943991Y-15797460D02*
X5934467Y-15787936D01*
X5934467Y-15787936D02*
X5924943Y-15768888D01*
X5924943Y-15768888D02*
X5915420Y-15730793D01*
X5915420Y-15730793D02*
X5915420Y-15683174D01*
X5915420Y-15683174D02*
X5924943Y-15645079D01*
X5924943Y-15645079D02*
X5934467Y-15626031D01*
X5934467Y-15626031D02*
X5943991Y-15616508D01*
X5943991Y-15616508D02*
X5963039Y-15606984D01*
X6115420Y-15806984D02*
X6115420Y-15673650D01*
X6115420Y-15692698D02*
X6124943Y-15683174D01*
X6124943Y-15683174D02*
X6143991Y-15673650D01*
X6143991Y-15673650D02*
X6172563Y-15673650D01*
X6172563Y-15673650D02*
X6191610Y-15683174D01*
X6191610Y-15683174D02*
X6201134Y-15702222D01*
X6201134Y-15702222D02*
X6201134Y-15806984D01*
X6201134Y-15702222D02*
X6210658Y-15683174D01*
X6210658Y-15683174D02*
X6229705Y-15673650D01*
X6229705Y-15673650D02*
X6258277Y-15673650D01*
X6258277Y-15673650D02*
X6277324Y-15683174D01*
X6277324Y-15683174D02*
X6286848Y-15702222D01*
X6286848Y-15702222D02*
X6286848Y-15806984D01*
X6382086Y-15806984D02*
X6382086Y-15673650D01*
X6382086Y-15692698D02*
X6391610Y-15683174D01*
X6391610Y-15683174D02*
X6410658Y-15673650D01*
X6410658Y-15673650D02*
X6439229Y-15673650D01*
X6439229Y-15673650D02*
X6458277Y-15683174D01*
X6458277Y-15683174D02*
X6467801Y-15702222D01*
X6467801Y-15702222D02*
X6467801Y-15806984D01*
X6467801Y-15702222D02*
X6477324Y-15683174D01*
X6477324Y-15683174D02*
X6496372Y-15673650D01*
X6496372Y-15673650D02*
X6524943Y-15673650D01*
X6524943Y-15673650D02*
X6543991Y-15683174D01*
X6543991Y-15683174D02*
X6553515Y-15702222D01*
X6553515Y-15702222D02*
X6553515Y-15806984D01*
X6943991Y-15597460D02*
X6772563Y-15854603D01*
X7201134Y-15606984D02*
X7220182Y-15606984D01*
X7220182Y-15606984D02*
X7239229Y-15616508D01*
X7239229Y-15616508D02*
X7248753Y-15626031D01*
X7248753Y-15626031D02*
X7258277Y-15645079D01*
X7258277Y-15645079D02*
X7267801Y-15683174D01*
X7267801Y-15683174D02*
X7267801Y-15730793D01*
X7267801Y-15730793D02*
X7258277Y-15768888D01*
X7258277Y-15768888D02*
X7248753Y-15787936D01*
X7248753Y-15787936D02*
X7239229Y-15797460D01*
X7239229Y-15797460D02*
X7220182Y-15806984D01*
X7220182Y-15806984D02*
X7201134Y-15806984D01*
X7201134Y-15806984D02*
X7182086Y-15797460D01*
X7182086Y-15797460D02*
X7172563Y-15787936D01*
X7172563Y-15787936D02*
X7163039Y-15768888D01*
X7163039Y-15768888D02*
X7153515Y-15730793D01*
X7153515Y-15730793D02*
X7153515Y-15683174D01*
X7153515Y-15683174D02*
X7163039Y-15645079D01*
X7163039Y-15645079D02*
X7172563Y-15626031D01*
X7172563Y-15626031D02*
X7182086Y-15616508D01*
X7182086Y-15616508D02*
X7201134Y-15606984D01*
X7353515Y-15787936D02*
X7363039Y-15797460D01*
X7363039Y-15797460D02*
X7353515Y-15806984D01*
X7353515Y-15806984D02*
X7343991Y-15797460D01*
X7343991Y-15797460D02*
X7353515Y-15787936D01*
X7353515Y-15787936D02*
X7353515Y-15806984D01*
X7486848Y-15606984D02*
X7505896Y-15606984D01*
X7505896Y-15606984D02*
X7524944Y-15616508D01*
X7524944Y-15616508D02*
X7534467Y-15626031D01*
X7534467Y-15626031D02*
X7543991Y-15645079D01*
X7543991Y-15645079D02*
X7553515Y-15683174D01*
X7553515Y-15683174D02*
X7553515Y-15730793D01*
X7553515Y-15730793D02*
X7543991Y-15768888D01*
X7543991Y-15768888D02*
X7534467Y-15787936D01*
X7534467Y-15787936D02*
X7524944Y-15797460D01*
X7524944Y-15797460D02*
X7505896Y-15806984D01*
X7505896Y-15806984D02*
X7486848Y-15806984D01*
X7486848Y-15806984D02*
X7467801Y-15797460D01*
X7467801Y-15797460D02*
X7458277Y-15787936D01*
X7458277Y-15787936D02*
X7448753Y-15768888D01*
X7448753Y-15768888D02*
X7439229Y-15730793D01*
X7439229Y-15730793D02*
X7439229Y-15683174D01*
X7439229Y-15683174D02*
X7448753Y-15645079D01*
X7448753Y-15645079D02*
X7458277Y-15626031D01*
X7458277Y-15626031D02*
X7467801Y-15616508D01*
X7467801Y-15616508D02*
X7486848Y-15606984D01*
X7620182Y-15606984D02*
X7743991Y-15606984D01*
X7743991Y-15606984D02*
X7677325Y-15683174D01*
X7677325Y-15683174D02*
X7705896Y-15683174D01*
X7705896Y-15683174D02*
X7724944Y-15692698D01*
X7724944Y-15692698D02*
X7734467Y-15702222D01*
X7734467Y-15702222D02*
X7743991Y-15721269D01*
X7743991Y-15721269D02*
X7743991Y-15768888D01*
X7743991Y-15768888D02*
X7734467Y-15787936D01*
X7734467Y-15787936D02*
X7724944Y-15797460D01*
X7724944Y-15797460D02*
X7705896Y-15806984D01*
X7705896Y-15806984D02*
X7648753Y-15806984D01*
X7648753Y-15806984D02*
X7629706Y-15797460D01*
X7629706Y-15797460D02*
X7620182Y-15787936D01*
X7924944Y-15606984D02*
X7829706Y-15606984D01*
X7829706Y-15606984D02*
X7820182Y-15702222D01*
X7820182Y-15702222D02*
X7829706Y-15692698D01*
X7829706Y-15692698D02*
X7848753Y-15683174D01*
X7848753Y-15683174D02*
X7896372Y-15683174D01*
X7896372Y-15683174D02*
X7915420Y-15692698D01*
X7915420Y-15692698D02*
X7924944Y-15702222D01*
X7924944Y-15702222D02*
X7934467Y-15721269D01*
X7934467Y-15721269D02*
X7934467Y-15768888D01*
X7934467Y-15768888D02*
X7924944Y-15787936D01*
X7924944Y-15787936D02*
X7915420Y-15797460D01*
X7915420Y-15797460D02*
X7896372Y-15806984D01*
X7896372Y-15806984D02*
X7848753Y-15806984D01*
X7848753Y-15806984D02*
X7829706Y-15797460D01*
X7829706Y-15797460D02*
X7820182Y-15787936D01*
X8105896Y-15673650D02*
X8105896Y-15806984D01*
X8058277Y-15597460D02*
X8010658Y-15740317D01*
X8010658Y-15740317D02*
X8134467Y-15740317D01*
X8201134Y-15606984D02*
X8201134Y-15645079D01*
X8277325Y-15606984D02*
X8277325Y-15645079D01*
X8572563Y-15883174D02*
X8563039Y-15873650D01*
X8563039Y-15873650D02*
X8543991Y-15845079D01*
X8543991Y-15845079D02*
X8534468Y-15826031D01*
X8534468Y-15826031D02*
X8524944Y-15797460D01*
X8524944Y-15797460D02*
X8515420Y-15749841D01*
X8515420Y-15749841D02*
X8515420Y-15711746D01*
X8515420Y-15711746D02*
X8524944Y-15664127D01*
X8524944Y-15664127D02*
X8534468Y-15635555D01*
X8534468Y-15635555D02*
X8543991Y-15616508D01*
X8543991Y-15616508D02*
X8563039Y-15587936D01*
X8563039Y-15587936D02*
X8572563Y-15578412D01*
X8639230Y-15626031D02*
X8648753Y-15616508D01*
X8648753Y-15616508D02*
X8667801Y-15606984D01*
X8667801Y-15606984D02*
X8715420Y-15606984D01*
X8715420Y-15606984D02*
X8734468Y-15616508D01*
X8734468Y-15616508D02*
X8743991Y-15626031D01*
X8743991Y-15626031D02*
X8753515Y-15645079D01*
X8753515Y-15645079D02*
X8753515Y-15664127D01*
X8753515Y-15664127D02*
X8743991Y-15692698D01*
X8743991Y-15692698D02*
X8629706Y-15806984D01*
X8629706Y-15806984D02*
X8753515Y-15806984D01*
X8924944Y-15673650D02*
X8924944Y-15806984D01*
X8877325Y-15597460D02*
X8829706Y-15740317D01*
X8829706Y-15740317D02*
X8953515Y-15740317D01*
X9182087Y-15806984D02*
X9182087Y-15606984D01*
X9267801Y-15806984D02*
X9267801Y-15702222D01*
X9267801Y-15702222D02*
X9258277Y-15683174D01*
X9258277Y-15683174D02*
X9239230Y-15673650D01*
X9239230Y-15673650D02*
X9210658Y-15673650D01*
X9210658Y-15673650D02*
X9191611Y-15683174D01*
X9191611Y-15683174D02*
X9182087Y-15692698D01*
X9391611Y-15806984D02*
X9372563Y-15797460D01*
X9372563Y-15797460D02*
X9363039Y-15787936D01*
X9363039Y-15787936D02*
X9353515Y-15768888D01*
X9353515Y-15768888D02*
X9353515Y-15711746D01*
X9353515Y-15711746D02*
X9363039Y-15692698D01*
X9363039Y-15692698D02*
X9372563Y-15683174D01*
X9372563Y-15683174D02*
X9391611Y-15673650D01*
X9391611Y-15673650D02*
X9420182Y-15673650D01*
X9420182Y-15673650D02*
X9439230Y-15683174D01*
X9439230Y-15683174D02*
X9448753Y-15692698D01*
X9448753Y-15692698D02*
X9458277Y-15711746D01*
X9458277Y-15711746D02*
X9458277Y-15768888D01*
X9458277Y-15768888D02*
X9448753Y-15787936D01*
X9448753Y-15787936D02*
X9439230Y-15797460D01*
X9439230Y-15797460D02*
X9420182Y-15806984D01*
X9420182Y-15806984D02*
X9391611Y-15806984D01*
X9572563Y-15806984D02*
X9553515Y-15797460D01*
X9553515Y-15797460D02*
X9543992Y-15778412D01*
X9543992Y-15778412D02*
X9543992Y-15606984D01*
X9724944Y-15797460D02*
X9705896Y-15806984D01*
X9705896Y-15806984D02*
X9667801Y-15806984D01*
X9667801Y-15806984D02*
X9648753Y-15797460D01*
X9648753Y-15797460D02*
X9639230Y-15778412D01*
X9639230Y-15778412D02*
X9639230Y-15702222D01*
X9639230Y-15702222D02*
X9648753Y-15683174D01*
X9648753Y-15683174D02*
X9667801Y-15673650D01*
X9667801Y-15673650D02*
X9705896Y-15673650D01*
X9705896Y-15673650D02*
X9724944Y-15683174D01*
X9724944Y-15683174D02*
X9734468Y-15702222D01*
X9734468Y-15702222D02*
X9734468Y-15721269D01*
X9734468Y-15721269D02*
X9639230Y-15740317D01*
X9810658Y-15797460D02*
X9829706Y-15806984D01*
X9829706Y-15806984D02*
X9867801Y-15806984D01*
X9867801Y-15806984D02*
X9886849Y-15797460D01*
X9886849Y-15797460D02*
X9896373Y-15778412D01*
X9896373Y-15778412D02*
X9896373Y-15768888D01*
X9896373Y-15768888D02*
X9886849Y-15749841D01*
X9886849Y-15749841D02*
X9867801Y-15740317D01*
X9867801Y-15740317D02*
X9839230Y-15740317D01*
X9839230Y-15740317D02*
X9820182Y-15730793D01*
X9820182Y-15730793D02*
X9810658Y-15711746D01*
X9810658Y-15711746D02*
X9810658Y-15702222D01*
X9810658Y-15702222D02*
X9820182Y-15683174D01*
X9820182Y-15683174D02*
X9839230Y-15673650D01*
X9839230Y-15673650D02*
X9867801Y-15673650D01*
X9867801Y-15673650D02*
X9886849Y-15683174D01*
X9963039Y-15883174D02*
X9972563Y-15873650D01*
X9972563Y-15873650D02*
X9991611Y-15845079D01*
X9991611Y-15845079D02*
X10001134Y-15826031D01*
X10001134Y-15826031D02*
X10010658Y-15797460D01*
X10010658Y-15797460D02*
X10020182Y-15749841D01*
X10020182Y-15749841D02*
X10020182Y-15711746D01*
X10020182Y-15711746D02*
X10010658Y-15664127D01*
X10010658Y-15664127D02*
X10001134Y-15635555D01*
X10001134Y-15635555D02*
X9991611Y-15616508D01*
X9991611Y-15616508D02*
X9972563Y-15587936D01*
X9972563Y-15587936D02*
X9963039Y-15578412D01*
D12*
X4902500Y-15932000D02*
X4997500Y-16027000D01*
X4997500Y-15932000D02*
X4902500Y-16027000D01*
X4997500Y-15979500D02*
G75*
G02*
X4902500Y-15979500I-47500J0D01*
G01*
X4902500Y-15979500D02*
G75*
G02*
X4997500Y-15979500I47500J0D01*
G01*
D11*
X5296372Y-15870984D02*
X5315420Y-15870984D01*
X5315420Y-15870984D02*
X5334467Y-15880508D01*
X5334467Y-15880508D02*
X5343991Y-15890031D01*
X5343991Y-15890031D02*
X5353515Y-15909079D01*
X5353515Y-15909079D02*
X5363039Y-15947174D01*
X5363039Y-15947174D02*
X5363039Y-15994793D01*
X5363039Y-15994793D02*
X5353515Y-16032888D01*
X5353515Y-16032888D02*
X5343991Y-16051936D01*
X5343991Y-16051936D02*
X5334467Y-16061460D01*
X5334467Y-16061460D02*
X5315420Y-16070984D01*
X5315420Y-16070984D02*
X5296372Y-16070984D01*
X5296372Y-16070984D02*
X5277324Y-16061460D01*
X5277324Y-16061460D02*
X5267801Y-16051936D01*
X5267801Y-16051936D02*
X5258277Y-16032888D01*
X5258277Y-16032888D02*
X5248753Y-15994793D01*
X5248753Y-15994793D02*
X5248753Y-15947174D01*
X5248753Y-15947174D02*
X5258277Y-15909079D01*
X5258277Y-15909079D02*
X5267801Y-15890031D01*
X5267801Y-15890031D02*
X5277324Y-15880508D01*
X5277324Y-15880508D02*
X5296372Y-15870984D01*
X5448753Y-16051936D02*
X5458277Y-16061460D01*
X5458277Y-16061460D02*
X5448753Y-16070984D01*
X5448753Y-16070984D02*
X5439229Y-16061460D01*
X5439229Y-16061460D02*
X5448753Y-16051936D01*
X5448753Y-16051936D02*
X5448753Y-16070984D01*
X5553515Y-16070984D02*
X5591610Y-16070984D01*
X5591610Y-16070984D02*
X5610658Y-16061460D01*
X5610658Y-16061460D02*
X5620182Y-16051936D01*
X5620182Y-16051936D02*
X5639229Y-16023365D01*
X5639229Y-16023365D02*
X5648753Y-15985269D01*
X5648753Y-15985269D02*
X5648753Y-15909079D01*
X5648753Y-15909079D02*
X5639229Y-15890031D01*
X5639229Y-15890031D02*
X5629705Y-15880508D01*
X5629705Y-15880508D02*
X5610658Y-15870984D01*
X5610658Y-15870984D02*
X5572563Y-15870984D01*
X5572563Y-15870984D02*
X5553515Y-15880508D01*
X5553515Y-15880508D02*
X5543991Y-15890031D01*
X5543991Y-15890031D02*
X5534467Y-15909079D01*
X5534467Y-15909079D02*
X5534467Y-15956698D01*
X5534467Y-15956698D02*
X5543991Y-15975746D01*
X5543991Y-15975746D02*
X5553515Y-15985269D01*
X5553515Y-15985269D02*
X5572563Y-15994793D01*
X5572563Y-15994793D02*
X5610658Y-15994793D01*
X5610658Y-15994793D02*
X5629705Y-15985269D01*
X5629705Y-15985269D02*
X5639229Y-15975746D01*
X5639229Y-15975746D02*
X5648753Y-15956698D01*
X5829705Y-15870984D02*
X5734467Y-15870984D01*
X5734467Y-15870984D02*
X5724943Y-15966222D01*
X5724943Y-15966222D02*
X5734467Y-15956698D01*
X5734467Y-15956698D02*
X5753515Y-15947174D01*
X5753515Y-15947174D02*
X5801134Y-15947174D01*
X5801134Y-15947174D02*
X5820182Y-15956698D01*
X5820182Y-15956698D02*
X5829705Y-15966222D01*
X5829705Y-15966222D02*
X5839229Y-15985269D01*
X5839229Y-15985269D02*
X5839229Y-16032888D01*
X5839229Y-16032888D02*
X5829705Y-16051936D01*
X5829705Y-16051936D02*
X5820182Y-16061460D01*
X5820182Y-16061460D02*
X5801134Y-16070984D01*
X5801134Y-16070984D02*
X5753515Y-16070984D01*
X5753515Y-16070984D02*
X5734467Y-16061460D01*
X5734467Y-16061460D02*
X5724943Y-16051936D01*
X5963039Y-15870984D02*
X5982086Y-15870984D01*
X5982086Y-15870984D02*
X6001134Y-15880508D01*
X6001134Y-15880508D02*
X6010658Y-15890031D01*
X6010658Y-15890031D02*
X6020182Y-15909079D01*
X6020182Y-15909079D02*
X6029705Y-15947174D01*
X6029705Y-15947174D02*
X6029705Y-15994793D01*
X6029705Y-15994793D02*
X6020182Y-16032888D01*
X6020182Y-16032888D02*
X6010658Y-16051936D01*
X6010658Y-16051936D02*
X6001134Y-16061460D01*
X6001134Y-16061460D02*
X5982086Y-16070984D01*
X5982086Y-16070984D02*
X5963039Y-16070984D01*
X5963039Y-16070984D02*
X5943991Y-16061460D01*
X5943991Y-16061460D02*
X5934467Y-16051936D01*
X5934467Y-16051936D02*
X5924943Y-16032888D01*
X5924943Y-16032888D02*
X5915420Y-15994793D01*
X5915420Y-15994793D02*
X5915420Y-15947174D01*
X5915420Y-15947174D02*
X5924943Y-15909079D01*
X5924943Y-15909079D02*
X5934467Y-15890031D01*
X5934467Y-15890031D02*
X5943991Y-15880508D01*
X5943991Y-15880508D02*
X5963039Y-15870984D01*
X6115420Y-16070984D02*
X6115420Y-15937650D01*
X6115420Y-15956698D02*
X6124943Y-15947174D01*
X6124943Y-15947174D02*
X6143991Y-15937650D01*
X6143991Y-15937650D02*
X6172563Y-15937650D01*
X6172563Y-15937650D02*
X6191610Y-15947174D01*
X6191610Y-15947174D02*
X6201134Y-15966222D01*
X6201134Y-15966222D02*
X6201134Y-16070984D01*
X6201134Y-15966222D02*
X6210658Y-15947174D01*
X6210658Y-15947174D02*
X6229705Y-15937650D01*
X6229705Y-15937650D02*
X6258277Y-15937650D01*
X6258277Y-15937650D02*
X6277324Y-15947174D01*
X6277324Y-15947174D02*
X6286848Y-15966222D01*
X6286848Y-15966222D02*
X6286848Y-16070984D01*
X6382086Y-16070984D02*
X6382086Y-15937650D01*
X6382086Y-15956698D02*
X6391610Y-15947174D01*
X6391610Y-15947174D02*
X6410658Y-15937650D01*
X6410658Y-15937650D02*
X6439229Y-15937650D01*
X6439229Y-15937650D02*
X6458277Y-15947174D01*
X6458277Y-15947174D02*
X6467801Y-15966222D01*
X6467801Y-15966222D02*
X6467801Y-16070984D01*
X6467801Y-15966222D02*
X6477324Y-15947174D01*
X6477324Y-15947174D02*
X6496372Y-15937650D01*
X6496372Y-15937650D02*
X6524943Y-15937650D01*
X6524943Y-15937650D02*
X6543991Y-15947174D01*
X6543991Y-15947174D02*
X6553515Y-15966222D01*
X6553515Y-15966222D02*
X6553515Y-16070984D01*
X6943991Y-15861460D02*
X6772563Y-16118603D01*
X7201134Y-15870984D02*
X7220182Y-15870984D01*
X7220182Y-15870984D02*
X7239229Y-15880508D01*
X7239229Y-15880508D02*
X7248753Y-15890031D01*
X7248753Y-15890031D02*
X7258277Y-15909079D01*
X7258277Y-15909079D02*
X7267801Y-15947174D01*
X7267801Y-15947174D02*
X7267801Y-15994793D01*
X7267801Y-15994793D02*
X7258277Y-16032888D01*
X7258277Y-16032888D02*
X7248753Y-16051936D01*
X7248753Y-16051936D02*
X7239229Y-16061460D01*
X7239229Y-16061460D02*
X7220182Y-16070984D01*
X7220182Y-16070984D02*
X7201134Y-16070984D01*
X7201134Y-16070984D02*
X7182086Y-16061460D01*
X7182086Y-16061460D02*
X7172563Y-16051936D01*
X7172563Y-16051936D02*
X7163039Y-16032888D01*
X7163039Y-16032888D02*
X7153515Y-15994793D01*
X7153515Y-15994793D02*
X7153515Y-15947174D01*
X7153515Y-15947174D02*
X7163039Y-15909079D01*
X7163039Y-15909079D02*
X7172563Y-15890031D01*
X7172563Y-15890031D02*
X7182086Y-15880508D01*
X7182086Y-15880508D02*
X7201134Y-15870984D01*
X7353515Y-16051936D02*
X7363039Y-16061460D01*
X7363039Y-16061460D02*
X7353515Y-16070984D01*
X7353515Y-16070984D02*
X7343991Y-16061460D01*
X7343991Y-16061460D02*
X7353515Y-16051936D01*
X7353515Y-16051936D02*
X7353515Y-16070984D01*
X7486848Y-15870984D02*
X7505896Y-15870984D01*
X7505896Y-15870984D02*
X7524944Y-15880508D01*
X7524944Y-15880508D02*
X7534467Y-15890031D01*
X7534467Y-15890031D02*
X7543991Y-15909079D01*
X7543991Y-15909079D02*
X7553515Y-15947174D01*
X7553515Y-15947174D02*
X7553515Y-15994793D01*
X7553515Y-15994793D02*
X7543991Y-16032888D01*
X7543991Y-16032888D02*
X7534467Y-16051936D01*
X7534467Y-16051936D02*
X7524944Y-16061460D01*
X7524944Y-16061460D02*
X7505896Y-16070984D01*
X7505896Y-16070984D02*
X7486848Y-16070984D01*
X7486848Y-16070984D02*
X7467801Y-16061460D01*
X7467801Y-16061460D02*
X7458277Y-16051936D01*
X7458277Y-16051936D02*
X7448753Y-16032888D01*
X7448753Y-16032888D02*
X7439229Y-15994793D01*
X7439229Y-15994793D02*
X7439229Y-15947174D01*
X7439229Y-15947174D02*
X7448753Y-15909079D01*
X7448753Y-15909079D02*
X7458277Y-15890031D01*
X7458277Y-15890031D02*
X7467801Y-15880508D01*
X7467801Y-15880508D02*
X7486848Y-15870984D01*
X7620182Y-15870984D02*
X7743991Y-15870984D01*
X7743991Y-15870984D02*
X7677325Y-15947174D01*
X7677325Y-15947174D02*
X7705896Y-15947174D01*
X7705896Y-15947174D02*
X7724944Y-15956698D01*
X7724944Y-15956698D02*
X7734467Y-15966222D01*
X7734467Y-15966222D02*
X7743991Y-15985269D01*
X7743991Y-15985269D02*
X7743991Y-16032888D01*
X7743991Y-16032888D02*
X7734467Y-16051936D01*
X7734467Y-16051936D02*
X7724944Y-16061460D01*
X7724944Y-16061460D02*
X7705896Y-16070984D01*
X7705896Y-16070984D02*
X7648753Y-16070984D01*
X7648753Y-16070984D02*
X7629706Y-16061460D01*
X7629706Y-16061460D02*
X7620182Y-16051936D01*
X7810658Y-15870984D02*
X7943991Y-15870984D01*
X7943991Y-15870984D02*
X7858277Y-16070984D01*
X8105896Y-15937650D02*
X8105896Y-16070984D01*
X8058277Y-15861460D02*
X8010658Y-16004317D01*
X8010658Y-16004317D02*
X8134467Y-16004317D01*
X8201134Y-15870984D02*
X8201134Y-15909079D01*
X8277325Y-15870984D02*
X8277325Y-15909079D01*
X8572563Y-16147174D02*
X8563039Y-16137650D01*
X8563039Y-16137650D02*
X8543991Y-16109079D01*
X8543991Y-16109079D02*
X8534468Y-16090031D01*
X8534468Y-16090031D02*
X8524944Y-16061460D01*
X8524944Y-16061460D02*
X8515420Y-16013841D01*
X8515420Y-16013841D02*
X8515420Y-15975746D01*
X8515420Y-15975746D02*
X8524944Y-15928127D01*
X8524944Y-15928127D02*
X8534468Y-15899555D01*
X8534468Y-15899555D02*
X8543991Y-15880508D01*
X8543991Y-15880508D02*
X8563039Y-15851936D01*
X8563039Y-15851936D02*
X8572563Y-15842412D01*
X8734468Y-15937650D02*
X8734468Y-16070984D01*
X8686849Y-15861460D02*
X8639230Y-16004317D01*
X8639230Y-16004317D02*
X8763039Y-16004317D01*
X8991611Y-16070984D02*
X8991611Y-15870984D01*
X9077325Y-16070984D02*
X9077325Y-15966222D01*
X9077325Y-15966222D02*
X9067801Y-15947174D01*
X9067801Y-15947174D02*
X9048753Y-15937650D01*
X9048753Y-15937650D02*
X9020182Y-15937650D01*
X9020182Y-15937650D02*
X9001134Y-15947174D01*
X9001134Y-15947174D02*
X8991611Y-15956698D01*
X9201134Y-16070984D02*
X9182087Y-16061460D01*
X9182087Y-16061460D02*
X9172563Y-16051936D01*
X9172563Y-16051936D02*
X9163039Y-16032888D01*
X9163039Y-16032888D02*
X9163039Y-15975746D01*
X9163039Y-15975746D02*
X9172563Y-15956698D01*
X9172563Y-15956698D02*
X9182087Y-15947174D01*
X9182087Y-15947174D02*
X9201134Y-15937650D01*
X9201134Y-15937650D02*
X9229706Y-15937650D01*
X9229706Y-15937650D02*
X9248753Y-15947174D01*
X9248753Y-15947174D02*
X9258277Y-15956698D01*
X9258277Y-15956698D02*
X9267801Y-15975746D01*
X9267801Y-15975746D02*
X9267801Y-16032888D01*
X9267801Y-16032888D02*
X9258277Y-16051936D01*
X9258277Y-16051936D02*
X9248753Y-16061460D01*
X9248753Y-16061460D02*
X9229706Y-16070984D01*
X9229706Y-16070984D02*
X9201134Y-16070984D01*
X9382087Y-16070984D02*
X9363039Y-16061460D01*
X9363039Y-16061460D02*
X9353515Y-16042412D01*
X9353515Y-16042412D02*
X9353515Y-15870984D01*
X9534468Y-16061460D02*
X9515420Y-16070984D01*
X9515420Y-16070984D02*
X9477325Y-16070984D01*
X9477325Y-16070984D02*
X9458277Y-16061460D01*
X9458277Y-16061460D02*
X9448753Y-16042412D01*
X9448753Y-16042412D02*
X9448753Y-15966222D01*
X9448753Y-15966222D02*
X9458277Y-15947174D01*
X9458277Y-15947174D02*
X9477325Y-15937650D01*
X9477325Y-15937650D02*
X9515420Y-15937650D01*
X9515420Y-15937650D02*
X9534468Y-15947174D01*
X9534468Y-15947174D02*
X9543992Y-15966222D01*
X9543992Y-15966222D02*
X9543992Y-15985269D01*
X9543992Y-15985269D02*
X9448753Y-16004317D01*
X9620182Y-16061460D02*
X9639230Y-16070984D01*
X9639230Y-16070984D02*
X9677325Y-16070984D01*
X9677325Y-16070984D02*
X9696373Y-16061460D01*
X9696373Y-16061460D02*
X9705896Y-16042412D01*
X9705896Y-16042412D02*
X9705896Y-16032888D01*
X9705896Y-16032888D02*
X9696373Y-16013841D01*
X9696373Y-16013841D02*
X9677325Y-16004317D01*
X9677325Y-16004317D02*
X9648753Y-16004317D01*
X9648753Y-16004317D02*
X9629706Y-15994793D01*
X9629706Y-15994793D02*
X9620182Y-15975746D01*
X9620182Y-15975746D02*
X9620182Y-15966222D01*
X9620182Y-15966222D02*
X9629706Y-15947174D01*
X9629706Y-15947174D02*
X9648753Y-15937650D01*
X9648753Y-15937650D02*
X9677325Y-15937650D01*
X9677325Y-15937650D02*
X9696373Y-15947174D01*
X9772563Y-16147174D02*
X9782087Y-16137650D01*
X9782087Y-16137650D02*
X9801134Y-16109079D01*
X9801134Y-16109079D02*
X9810658Y-16090031D01*
X9810658Y-16090031D02*
X9820182Y-16061460D01*
X9820182Y-16061460D02*
X9829706Y-16013841D01*
X9829706Y-16013841D02*
X9829706Y-15975746D01*
X9829706Y-15975746D02*
X9820182Y-15928127D01*
X9820182Y-15928127D02*
X9810658Y-15899555D01*
X9810658Y-15899555D02*
X9801134Y-15880508D01*
X9801134Y-15880508D02*
X9782087Y-15851936D01*
X9782087Y-15851936D02*
X9772563Y-15842412D01*
D12*
X4897500Y-16193500D02*
X4997500Y-16293500D01*
X4997500Y-16193500D02*
X4897500Y-16293500D01*
X4947500Y-16193500D02*
X4947500Y-16293500D01*
X4897500Y-16243500D02*
X4997500Y-16243500D01*
D11*
X5363039Y-16334984D02*
X5248753Y-16334984D01*
X5305896Y-16334984D02*
X5305896Y-16134984D01*
X5305896Y-16134984D02*
X5286848Y-16163555D01*
X5286848Y-16163555D02*
X5267801Y-16182603D01*
X5267801Y-16182603D02*
X5248753Y-16192127D01*
X5448753Y-16315936D02*
X5458277Y-16325460D01*
X5458277Y-16325460D02*
X5448753Y-16334984D01*
X5448753Y-16334984D02*
X5439229Y-16325460D01*
X5439229Y-16325460D02*
X5448753Y-16315936D01*
X5448753Y-16315936D02*
X5448753Y-16334984D01*
X5582086Y-16134984D02*
X5601134Y-16134984D01*
X5601134Y-16134984D02*
X5620182Y-16144508D01*
X5620182Y-16144508D02*
X5629705Y-16154031D01*
X5629705Y-16154031D02*
X5639229Y-16173079D01*
X5639229Y-16173079D02*
X5648753Y-16211174D01*
X5648753Y-16211174D02*
X5648753Y-16258793D01*
X5648753Y-16258793D02*
X5639229Y-16296888D01*
X5639229Y-16296888D02*
X5629705Y-16315936D01*
X5629705Y-16315936D02*
X5620182Y-16325460D01*
X5620182Y-16325460D02*
X5601134Y-16334984D01*
X5601134Y-16334984D02*
X5582086Y-16334984D01*
X5582086Y-16334984D02*
X5563039Y-16325460D01*
X5563039Y-16325460D02*
X5553515Y-16315936D01*
X5553515Y-16315936D02*
X5543991Y-16296888D01*
X5543991Y-16296888D02*
X5534467Y-16258793D01*
X5534467Y-16258793D02*
X5534467Y-16211174D01*
X5534467Y-16211174D02*
X5543991Y-16173079D01*
X5543991Y-16173079D02*
X5553515Y-16154031D01*
X5553515Y-16154031D02*
X5563039Y-16144508D01*
X5563039Y-16144508D02*
X5582086Y-16134984D01*
X5772562Y-16134984D02*
X5791610Y-16134984D01*
X5791610Y-16134984D02*
X5810658Y-16144508D01*
X5810658Y-16144508D02*
X5820182Y-16154031D01*
X5820182Y-16154031D02*
X5829705Y-16173079D01*
X5829705Y-16173079D02*
X5839229Y-16211174D01*
X5839229Y-16211174D02*
X5839229Y-16258793D01*
X5839229Y-16258793D02*
X5829705Y-16296888D01*
X5829705Y-16296888D02*
X5820182Y-16315936D01*
X5820182Y-16315936D02*
X5810658Y-16325460D01*
X5810658Y-16325460D02*
X5791610Y-16334984D01*
X5791610Y-16334984D02*
X5772562Y-16334984D01*
X5772562Y-16334984D02*
X5753515Y-16325460D01*
X5753515Y-16325460D02*
X5743991Y-16315936D01*
X5743991Y-16315936D02*
X5734467Y-16296888D01*
X5734467Y-16296888D02*
X5724943Y-16258793D01*
X5724943Y-16258793D02*
X5724943Y-16211174D01*
X5724943Y-16211174D02*
X5734467Y-16173079D01*
X5734467Y-16173079D02*
X5743991Y-16154031D01*
X5743991Y-16154031D02*
X5753515Y-16144508D01*
X5753515Y-16144508D02*
X5772562Y-16134984D01*
X5963039Y-16134984D02*
X5982086Y-16134984D01*
X5982086Y-16134984D02*
X6001134Y-16144508D01*
X6001134Y-16144508D02*
X6010658Y-16154031D01*
X6010658Y-16154031D02*
X6020182Y-16173079D01*
X6020182Y-16173079D02*
X6029705Y-16211174D01*
X6029705Y-16211174D02*
X6029705Y-16258793D01*
X6029705Y-16258793D02*
X6020182Y-16296888D01*
X6020182Y-16296888D02*
X6010658Y-16315936D01*
X6010658Y-16315936D02*
X6001134Y-16325460D01*
X6001134Y-16325460D02*
X5982086Y-16334984D01*
X5982086Y-16334984D02*
X5963039Y-16334984D01*
X5963039Y-16334984D02*
X5943991Y-16325460D01*
X5943991Y-16325460D02*
X5934467Y-16315936D01*
X5934467Y-16315936D02*
X5924943Y-16296888D01*
X5924943Y-16296888D02*
X5915420Y-16258793D01*
X5915420Y-16258793D02*
X5915420Y-16211174D01*
X5915420Y-16211174D02*
X5924943Y-16173079D01*
X5924943Y-16173079D02*
X5934467Y-16154031D01*
X5934467Y-16154031D02*
X5943991Y-16144508D01*
X5943991Y-16144508D02*
X5963039Y-16134984D01*
X6115420Y-16334984D02*
X6115420Y-16201650D01*
X6115420Y-16220698D02*
X6124943Y-16211174D01*
X6124943Y-16211174D02*
X6143991Y-16201650D01*
X6143991Y-16201650D02*
X6172563Y-16201650D01*
X6172563Y-16201650D02*
X6191610Y-16211174D01*
X6191610Y-16211174D02*
X6201134Y-16230222D01*
X6201134Y-16230222D02*
X6201134Y-16334984D01*
X6201134Y-16230222D02*
X6210658Y-16211174D01*
X6210658Y-16211174D02*
X6229705Y-16201650D01*
X6229705Y-16201650D02*
X6258277Y-16201650D01*
X6258277Y-16201650D02*
X6277324Y-16211174D01*
X6277324Y-16211174D02*
X6286848Y-16230222D01*
X6286848Y-16230222D02*
X6286848Y-16334984D01*
X6382086Y-16334984D02*
X6382086Y-16201650D01*
X6382086Y-16220698D02*
X6391610Y-16211174D01*
X6391610Y-16211174D02*
X6410658Y-16201650D01*
X6410658Y-16201650D02*
X6439229Y-16201650D01*
X6439229Y-16201650D02*
X6458277Y-16211174D01*
X6458277Y-16211174D02*
X6467801Y-16230222D01*
X6467801Y-16230222D02*
X6467801Y-16334984D01*
X6467801Y-16230222D02*
X6477324Y-16211174D01*
X6477324Y-16211174D02*
X6496372Y-16201650D01*
X6496372Y-16201650D02*
X6524943Y-16201650D01*
X6524943Y-16201650D02*
X6543991Y-16211174D01*
X6543991Y-16211174D02*
X6553515Y-16230222D01*
X6553515Y-16230222D02*
X6553515Y-16334984D01*
X6943991Y-16125460D02*
X6772563Y-16382603D01*
X7201134Y-16134984D02*
X7220182Y-16134984D01*
X7220182Y-16134984D02*
X7239229Y-16144508D01*
X7239229Y-16144508D02*
X7248753Y-16154031D01*
X7248753Y-16154031D02*
X7258277Y-16173079D01*
X7258277Y-16173079D02*
X7267801Y-16211174D01*
X7267801Y-16211174D02*
X7267801Y-16258793D01*
X7267801Y-16258793D02*
X7258277Y-16296888D01*
X7258277Y-16296888D02*
X7248753Y-16315936D01*
X7248753Y-16315936D02*
X7239229Y-16325460D01*
X7239229Y-16325460D02*
X7220182Y-16334984D01*
X7220182Y-16334984D02*
X7201134Y-16334984D01*
X7201134Y-16334984D02*
X7182086Y-16325460D01*
X7182086Y-16325460D02*
X7172563Y-16315936D01*
X7172563Y-16315936D02*
X7163039Y-16296888D01*
X7163039Y-16296888D02*
X7153515Y-16258793D01*
X7153515Y-16258793D02*
X7153515Y-16211174D01*
X7153515Y-16211174D02*
X7163039Y-16173079D01*
X7163039Y-16173079D02*
X7172563Y-16154031D01*
X7172563Y-16154031D02*
X7182086Y-16144508D01*
X7182086Y-16144508D02*
X7201134Y-16134984D01*
X7353515Y-16315936D02*
X7363039Y-16325460D01*
X7363039Y-16325460D02*
X7353515Y-16334984D01*
X7353515Y-16334984D02*
X7343991Y-16325460D01*
X7343991Y-16325460D02*
X7353515Y-16315936D01*
X7353515Y-16315936D02*
X7353515Y-16334984D01*
X7486848Y-16134984D02*
X7505896Y-16134984D01*
X7505896Y-16134984D02*
X7524944Y-16144508D01*
X7524944Y-16144508D02*
X7534467Y-16154031D01*
X7534467Y-16154031D02*
X7543991Y-16173079D01*
X7543991Y-16173079D02*
X7553515Y-16211174D01*
X7553515Y-16211174D02*
X7553515Y-16258793D01*
X7553515Y-16258793D02*
X7543991Y-16296888D01*
X7543991Y-16296888D02*
X7534467Y-16315936D01*
X7534467Y-16315936D02*
X7524944Y-16325460D01*
X7524944Y-16325460D02*
X7505896Y-16334984D01*
X7505896Y-16334984D02*
X7486848Y-16334984D01*
X7486848Y-16334984D02*
X7467801Y-16325460D01*
X7467801Y-16325460D02*
X7458277Y-16315936D01*
X7458277Y-16315936D02*
X7448753Y-16296888D01*
X7448753Y-16296888D02*
X7439229Y-16258793D01*
X7439229Y-16258793D02*
X7439229Y-16211174D01*
X7439229Y-16211174D02*
X7448753Y-16173079D01*
X7448753Y-16173079D02*
X7458277Y-16154031D01*
X7458277Y-16154031D02*
X7467801Y-16144508D01*
X7467801Y-16144508D02*
X7486848Y-16134984D01*
X7620182Y-16134984D02*
X7743991Y-16134984D01*
X7743991Y-16134984D02*
X7677325Y-16211174D01*
X7677325Y-16211174D02*
X7705896Y-16211174D01*
X7705896Y-16211174D02*
X7724944Y-16220698D01*
X7724944Y-16220698D02*
X7734467Y-16230222D01*
X7734467Y-16230222D02*
X7743991Y-16249269D01*
X7743991Y-16249269D02*
X7743991Y-16296888D01*
X7743991Y-16296888D02*
X7734467Y-16315936D01*
X7734467Y-16315936D02*
X7724944Y-16325460D01*
X7724944Y-16325460D02*
X7705896Y-16334984D01*
X7705896Y-16334984D02*
X7648753Y-16334984D01*
X7648753Y-16334984D02*
X7629706Y-16325460D01*
X7629706Y-16325460D02*
X7620182Y-16315936D01*
X7839229Y-16334984D02*
X7877325Y-16334984D01*
X7877325Y-16334984D02*
X7896372Y-16325460D01*
X7896372Y-16325460D02*
X7905896Y-16315936D01*
X7905896Y-16315936D02*
X7924944Y-16287365D01*
X7924944Y-16287365D02*
X7934467Y-16249269D01*
X7934467Y-16249269D02*
X7934467Y-16173079D01*
X7934467Y-16173079D02*
X7924944Y-16154031D01*
X7924944Y-16154031D02*
X7915420Y-16144508D01*
X7915420Y-16144508D02*
X7896372Y-16134984D01*
X7896372Y-16134984D02*
X7858277Y-16134984D01*
X7858277Y-16134984D02*
X7839229Y-16144508D01*
X7839229Y-16144508D02*
X7829706Y-16154031D01*
X7829706Y-16154031D02*
X7820182Y-16173079D01*
X7820182Y-16173079D02*
X7820182Y-16220698D01*
X7820182Y-16220698D02*
X7829706Y-16239746D01*
X7829706Y-16239746D02*
X7839229Y-16249269D01*
X7839229Y-16249269D02*
X7858277Y-16258793D01*
X7858277Y-16258793D02*
X7896372Y-16258793D01*
X7896372Y-16258793D02*
X7915420Y-16249269D01*
X7915420Y-16249269D02*
X7924944Y-16239746D01*
X7924944Y-16239746D02*
X7934467Y-16220698D01*
X8105896Y-16201650D02*
X8105896Y-16334984D01*
X8058277Y-16125460D02*
X8010658Y-16268317D01*
X8010658Y-16268317D02*
X8134467Y-16268317D01*
X8201134Y-16134984D02*
X8201134Y-16173079D01*
X8277325Y-16134984D02*
X8277325Y-16173079D01*
X8572563Y-16411174D02*
X8563039Y-16401650D01*
X8563039Y-16401650D02*
X8543991Y-16373079D01*
X8543991Y-16373079D02*
X8534468Y-16354031D01*
X8534468Y-16354031D02*
X8524944Y-16325460D01*
X8524944Y-16325460D02*
X8515420Y-16277841D01*
X8515420Y-16277841D02*
X8515420Y-16239746D01*
X8515420Y-16239746D02*
X8524944Y-16192127D01*
X8524944Y-16192127D02*
X8534468Y-16163555D01*
X8534468Y-16163555D02*
X8543991Y-16144508D01*
X8543991Y-16144508D02*
X8563039Y-16115936D01*
X8563039Y-16115936D02*
X8572563Y-16106412D01*
X8629706Y-16134984D02*
X8753515Y-16134984D01*
X8753515Y-16134984D02*
X8686849Y-16211174D01*
X8686849Y-16211174D02*
X8715420Y-16211174D01*
X8715420Y-16211174D02*
X8734468Y-16220698D01*
X8734468Y-16220698D02*
X8743991Y-16230222D01*
X8743991Y-16230222D02*
X8753515Y-16249269D01*
X8753515Y-16249269D02*
X8753515Y-16296888D01*
X8753515Y-16296888D02*
X8743991Y-16315936D01*
X8743991Y-16315936D02*
X8734468Y-16325460D01*
X8734468Y-16325460D02*
X8715420Y-16334984D01*
X8715420Y-16334984D02*
X8658277Y-16334984D01*
X8658277Y-16334984D02*
X8639230Y-16325460D01*
X8639230Y-16325460D02*
X8629706Y-16315936D01*
X8991611Y-16334984D02*
X8991611Y-16134984D01*
X9077325Y-16334984D02*
X9077325Y-16230222D01*
X9077325Y-16230222D02*
X9067801Y-16211174D01*
X9067801Y-16211174D02*
X9048753Y-16201650D01*
X9048753Y-16201650D02*
X9020182Y-16201650D01*
X9020182Y-16201650D02*
X9001134Y-16211174D01*
X9001134Y-16211174D02*
X8991611Y-16220698D01*
X9201134Y-16334984D02*
X9182087Y-16325460D01*
X9182087Y-16325460D02*
X9172563Y-16315936D01*
X9172563Y-16315936D02*
X9163039Y-16296888D01*
X9163039Y-16296888D02*
X9163039Y-16239746D01*
X9163039Y-16239746D02*
X9172563Y-16220698D01*
X9172563Y-16220698D02*
X9182087Y-16211174D01*
X9182087Y-16211174D02*
X9201134Y-16201650D01*
X9201134Y-16201650D02*
X9229706Y-16201650D01*
X9229706Y-16201650D02*
X9248753Y-16211174D01*
X9248753Y-16211174D02*
X9258277Y-16220698D01*
X9258277Y-16220698D02*
X9267801Y-16239746D01*
X9267801Y-16239746D02*
X9267801Y-16296888D01*
X9267801Y-16296888D02*
X9258277Y-16315936D01*
X9258277Y-16315936D02*
X9248753Y-16325460D01*
X9248753Y-16325460D02*
X9229706Y-16334984D01*
X9229706Y-16334984D02*
X9201134Y-16334984D01*
X9382087Y-16334984D02*
X9363039Y-16325460D01*
X9363039Y-16325460D02*
X9353515Y-16306412D01*
X9353515Y-16306412D02*
X9353515Y-16134984D01*
X9534468Y-16325460D02*
X9515420Y-16334984D01*
X9515420Y-16334984D02*
X9477325Y-16334984D01*
X9477325Y-16334984D02*
X9458277Y-16325460D01*
X9458277Y-16325460D02*
X9448753Y-16306412D01*
X9448753Y-16306412D02*
X9448753Y-16230222D01*
X9448753Y-16230222D02*
X9458277Y-16211174D01*
X9458277Y-16211174D02*
X9477325Y-16201650D01*
X9477325Y-16201650D02*
X9515420Y-16201650D01*
X9515420Y-16201650D02*
X9534468Y-16211174D01*
X9534468Y-16211174D02*
X9543992Y-16230222D01*
X9543992Y-16230222D02*
X9543992Y-16249269D01*
X9543992Y-16249269D02*
X9448753Y-16268317D01*
X9620182Y-16325460D02*
X9639230Y-16334984D01*
X9639230Y-16334984D02*
X9677325Y-16334984D01*
X9677325Y-16334984D02*
X9696373Y-16325460D01*
X9696373Y-16325460D02*
X9705896Y-16306412D01*
X9705896Y-16306412D02*
X9705896Y-16296888D01*
X9705896Y-16296888D02*
X9696373Y-16277841D01*
X9696373Y-16277841D02*
X9677325Y-16268317D01*
X9677325Y-16268317D02*
X9648753Y-16268317D01*
X9648753Y-16268317D02*
X9629706Y-16258793D01*
X9629706Y-16258793D02*
X9620182Y-16239746D01*
X9620182Y-16239746D02*
X9620182Y-16230222D01*
X9620182Y-16230222D02*
X9629706Y-16211174D01*
X9629706Y-16211174D02*
X9648753Y-16201650D01*
X9648753Y-16201650D02*
X9677325Y-16201650D01*
X9677325Y-16201650D02*
X9696373Y-16211174D01*
X9772563Y-16411174D02*
X9782087Y-16401650D01*
X9782087Y-16401650D02*
X9801134Y-16373079D01*
X9801134Y-16373079D02*
X9810658Y-16354031D01*
X9810658Y-16354031D02*
X9820182Y-16325460D01*
X9820182Y-16325460D02*
X9829706Y-16277841D01*
X9829706Y-16277841D02*
X9829706Y-16239746D01*
X9829706Y-16239746D02*
X9820182Y-16192127D01*
X9820182Y-16192127D02*
X9810658Y-16163555D01*
X9810658Y-16163555D02*
X9801134Y-16144508D01*
X9801134Y-16144508D02*
X9782087Y-16115936D01*
X9782087Y-16115936D02*
X9772563Y-16106412D01*
D13*
X4877500Y-16447500D02*
X4997500Y-16567500D01*
X4997500Y-16447500D02*
X4877500Y-16567500D01*
X4979927Y-16549927D02*
X4979927Y-16465073D01*
X4895073Y-16465073D01*
X4895073Y-16549927D01*
X4979927Y-16549927D01*
D11*
X5363039Y-16598984D02*
X5248753Y-16598984D01*
X5305896Y-16598984D02*
X5305896Y-16398984D01*
X5305896Y-16398984D02*
X5286848Y-16427555D01*
X5286848Y-16427555D02*
X5267801Y-16446603D01*
X5267801Y-16446603D02*
X5248753Y-16456127D01*
X5448753Y-16579936D02*
X5458277Y-16589460D01*
X5458277Y-16589460D02*
X5448753Y-16598984D01*
X5448753Y-16598984D02*
X5439229Y-16589460D01*
X5439229Y-16589460D02*
X5448753Y-16579936D01*
X5448753Y-16579936D02*
X5448753Y-16598984D01*
X5534467Y-16418031D02*
X5543991Y-16408508D01*
X5543991Y-16408508D02*
X5563039Y-16398984D01*
X5563039Y-16398984D02*
X5610658Y-16398984D01*
X5610658Y-16398984D02*
X5629705Y-16408508D01*
X5629705Y-16408508D02*
X5639229Y-16418031D01*
X5639229Y-16418031D02*
X5648753Y-16437079D01*
X5648753Y-16437079D02*
X5648753Y-16456127D01*
X5648753Y-16456127D02*
X5639229Y-16484698D01*
X5639229Y-16484698D02*
X5524944Y-16598984D01*
X5524944Y-16598984D02*
X5648753Y-16598984D01*
X5772562Y-16398984D02*
X5791610Y-16398984D01*
X5791610Y-16398984D02*
X5810658Y-16408508D01*
X5810658Y-16408508D02*
X5820182Y-16418031D01*
X5820182Y-16418031D02*
X5829705Y-16437079D01*
X5829705Y-16437079D02*
X5839229Y-16475174D01*
X5839229Y-16475174D02*
X5839229Y-16522793D01*
X5839229Y-16522793D02*
X5829705Y-16560888D01*
X5829705Y-16560888D02*
X5820182Y-16579936D01*
X5820182Y-16579936D02*
X5810658Y-16589460D01*
X5810658Y-16589460D02*
X5791610Y-16598984D01*
X5791610Y-16598984D02*
X5772562Y-16598984D01*
X5772562Y-16598984D02*
X5753515Y-16589460D01*
X5753515Y-16589460D02*
X5743991Y-16579936D01*
X5743991Y-16579936D02*
X5734467Y-16560888D01*
X5734467Y-16560888D02*
X5724943Y-16522793D01*
X5724943Y-16522793D02*
X5724943Y-16475174D01*
X5724943Y-16475174D02*
X5734467Y-16437079D01*
X5734467Y-16437079D02*
X5743991Y-16418031D01*
X5743991Y-16418031D02*
X5753515Y-16408508D01*
X5753515Y-16408508D02*
X5772562Y-16398984D01*
X5963039Y-16398984D02*
X5982086Y-16398984D01*
X5982086Y-16398984D02*
X6001134Y-16408508D01*
X6001134Y-16408508D02*
X6010658Y-16418031D01*
X6010658Y-16418031D02*
X6020182Y-16437079D01*
X6020182Y-16437079D02*
X6029705Y-16475174D01*
X6029705Y-16475174D02*
X6029705Y-16522793D01*
X6029705Y-16522793D02*
X6020182Y-16560888D01*
X6020182Y-16560888D02*
X6010658Y-16579936D01*
X6010658Y-16579936D02*
X6001134Y-16589460D01*
X6001134Y-16589460D02*
X5982086Y-16598984D01*
X5982086Y-16598984D02*
X5963039Y-16598984D01*
X5963039Y-16598984D02*
X5943991Y-16589460D01*
X5943991Y-16589460D02*
X5934467Y-16579936D01*
X5934467Y-16579936D02*
X5924943Y-16560888D01*
X5924943Y-16560888D02*
X5915420Y-16522793D01*
X5915420Y-16522793D02*
X5915420Y-16475174D01*
X5915420Y-16475174D02*
X5924943Y-16437079D01*
X5924943Y-16437079D02*
X5934467Y-16418031D01*
X5934467Y-16418031D02*
X5943991Y-16408508D01*
X5943991Y-16408508D02*
X5963039Y-16398984D01*
X6115420Y-16598984D02*
X6115420Y-16465650D01*
X6115420Y-16484698D02*
X6124943Y-16475174D01*
X6124943Y-16475174D02*
X6143991Y-16465650D01*
X6143991Y-16465650D02*
X6172563Y-16465650D01*
X6172563Y-16465650D02*
X6191610Y-16475174D01*
X6191610Y-16475174D02*
X6201134Y-16494222D01*
X6201134Y-16494222D02*
X6201134Y-16598984D01*
X6201134Y-16494222D02*
X6210658Y-16475174D01*
X6210658Y-16475174D02*
X6229705Y-16465650D01*
X6229705Y-16465650D02*
X6258277Y-16465650D01*
X6258277Y-16465650D02*
X6277324Y-16475174D01*
X6277324Y-16475174D02*
X6286848Y-16494222D01*
X6286848Y-16494222D02*
X6286848Y-16598984D01*
X6382086Y-16598984D02*
X6382086Y-16465650D01*
X6382086Y-16484698D02*
X6391610Y-16475174D01*
X6391610Y-16475174D02*
X6410658Y-16465650D01*
X6410658Y-16465650D02*
X6439229Y-16465650D01*
X6439229Y-16465650D02*
X6458277Y-16475174D01*
X6458277Y-16475174D02*
X6467801Y-16494222D01*
X6467801Y-16494222D02*
X6467801Y-16598984D01*
X6467801Y-16494222D02*
X6477324Y-16475174D01*
X6477324Y-16475174D02*
X6496372Y-16465650D01*
X6496372Y-16465650D02*
X6524943Y-16465650D01*
X6524943Y-16465650D02*
X6543991Y-16475174D01*
X6543991Y-16475174D02*
X6553515Y-16494222D01*
X6553515Y-16494222D02*
X6553515Y-16598984D01*
X6943991Y-16389460D02*
X6772563Y-16646603D01*
X7201134Y-16398984D02*
X7220182Y-16398984D01*
X7220182Y-16398984D02*
X7239229Y-16408508D01*
X7239229Y-16408508D02*
X7248753Y-16418031D01*
X7248753Y-16418031D02*
X7258277Y-16437079D01*
X7258277Y-16437079D02*
X7267801Y-16475174D01*
X7267801Y-16475174D02*
X7267801Y-16522793D01*
X7267801Y-16522793D02*
X7258277Y-16560888D01*
X7258277Y-16560888D02*
X7248753Y-16579936D01*
X7248753Y-16579936D02*
X7239229Y-16589460D01*
X7239229Y-16589460D02*
X7220182Y-16598984D01*
X7220182Y-16598984D02*
X7201134Y-16598984D01*
X7201134Y-16598984D02*
X7182086Y-16589460D01*
X7182086Y-16589460D02*
X7172563Y-16579936D01*
X7172563Y-16579936D02*
X7163039Y-16560888D01*
X7163039Y-16560888D02*
X7153515Y-16522793D01*
X7153515Y-16522793D02*
X7153515Y-16475174D01*
X7153515Y-16475174D02*
X7163039Y-16437079D01*
X7163039Y-16437079D02*
X7172563Y-16418031D01*
X7172563Y-16418031D02*
X7182086Y-16408508D01*
X7182086Y-16408508D02*
X7201134Y-16398984D01*
X7353515Y-16579936D02*
X7363039Y-16589460D01*
X7363039Y-16589460D02*
X7353515Y-16598984D01*
X7353515Y-16598984D02*
X7343991Y-16589460D01*
X7343991Y-16589460D02*
X7353515Y-16579936D01*
X7353515Y-16579936D02*
X7353515Y-16598984D01*
X7486848Y-16398984D02*
X7505896Y-16398984D01*
X7505896Y-16398984D02*
X7524944Y-16408508D01*
X7524944Y-16408508D02*
X7534467Y-16418031D01*
X7534467Y-16418031D02*
X7543991Y-16437079D01*
X7543991Y-16437079D02*
X7553515Y-16475174D01*
X7553515Y-16475174D02*
X7553515Y-16522793D01*
X7553515Y-16522793D02*
X7543991Y-16560888D01*
X7543991Y-16560888D02*
X7534467Y-16579936D01*
X7534467Y-16579936D02*
X7524944Y-16589460D01*
X7524944Y-16589460D02*
X7505896Y-16598984D01*
X7505896Y-16598984D02*
X7486848Y-16598984D01*
X7486848Y-16598984D02*
X7467801Y-16589460D01*
X7467801Y-16589460D02*
X7458277Y-16579936D01*
X7458277Y-16579936D02*
X7448753Y-16560888D01*
X7448753Y-16560888D02*
X7439229Y-16522793D01*
X7439229Y-16522793D02*
X7439229Y-16475174D01*
X7439229Y-16475174D02*
X7448753Y-16437079D01*
X7448753Y-16437079D02*
X7458277Y-16418031D01*
X7458277Y-16418031D02*
X7467801Y-16408508D01*
X7467801Y-16408508D02*
X7486848Y-16398984D01*
X7724944Y-16465650D02*
X7724944Y-16598984D01*
X7677325Y-16389460D02*
X7629706Y-16532317D01*
X7629706Y-16532317D02*
X7753515Y-16532317D01*
X7810658Y-16398984D02*
X7943991Y-16398984D01*
X7943991Y-16398984D02*
X7858277Y-16598984D01*
X8010658Y-16418031D02*
X8020182Y-16408508D01*
X8020182Y-16408508D02*
X8039229Y-16398984D01*
X8039229Y-16398984D02*
X8086848Y-16398984D01*
X8086848Y-16398984D02*
X8105896Y-16408508D01*
X8105896Y-16408508D02*
X8115420Y-16418031D01*
X8115420Y-16418031D02*
X8124944Y-16437079D01*
X8124944Y-16437079D02*
X8124944Y-16456127D01*
X8124944Y-16456127D02*
X8115420Y-16484698D01*
X8115420Y-16484698D02*
X8001134Y-16598984D01*
X8001134Y-16598984D02*
X8124944Y-16598984D01*
X8201134Y-16398984D02*
X8201134Y-16437079D01*
X8277325Y-16398984D02*
X8277325Y-16437079D01*
X8572563Y-16675174D02*
X8563039Y-16665650D01*
X8563039Y-16665650D02*
X8543991Y-16637079D01*
X8543991Y-16637079D02*
X8534468Y-16618031D01*
X8534468Y-16618031D02*
X8524944Y-16589460D01*
X8524944Y-16589460D02*
X8515420Y-16541841D01*
X8515420Y-16541841D02*
X8515420Y-16503746D01*
X8515420Y-16503746D02*
X8524944Y-16456127D01*
X8524944Y-16456127D02*
X8534468Y-16427555D01*
X8534468Y-16427555D02*
X8543991Y-16408508D01*
X8543991Y-16408508D02*
X8563039Y-16379936D01*
X8563039Y-16379936D02*
X8572563Y-16370412D01*
X8753515Y-16598984D02*
X8639230Y-16598984D01*
X8696372Y-16598984D02*
X8696372Y-16398984D01*
X8696372Y-16398984D02*
X8677325Y-16427555D01*
X8677325Y-16427555D02*
X8658277Y-16446603D01*
X8658277Y-16446603D02*
X8639230Y-16456127D01*
X8877325Y-16398984D02*
X8896372Y-16398984D01*
X8896372Y-16398984D02*
X8915420Y-16408508D01*
X8915420Y-16408508D02*
X8924944Y-16418031D01*
X8924944Y-16418031D02*
X8934468Y-16437079D01*
X8934468Y-16437079D02*
X8943991Y-16475174D01*
X8943991Y-16475174D02*
X8943991Y-16522793D01*
X8943991Y-16522793D02*
X8934468Y-16560888D01*
X8934468Y-16560888D02*
X8924944Y-16579936D01*
X8924944Y-16579936D02*
X8915420Y-16589460D01*
X8915420Y-16589460D02*
X8896372Y-16598984D01*
X8896372Y-16598984D02*
X8877325Y-16598984D01*
X8877325Y-16598984D02*
X8858277Y-16589460D01*
X8858277Y-16589460D02*
X8848753Y-16579936D01*
X8848753Y-16579936D02*
X8839230Y-16560888D01*
X8839230Y-16560888D02*
X8829706Y-16522793D01*
X8829706Y-16522793D02*
X8829706Y-16475174D01*
X8829706Y-16475174D02*
X8839230Y-16437079D01*
X8839230Y-16437079D02*
X8848753Y-16418031D01*
X8848753Y-16418031D02*
X8858277Y-16408508D01*
X8858277Y-16408508D02*
X8877325Y-16398984D01*
X9182087Y-16598984D02*
X9182087Y-16398984D01*
X9267801Y-16598984D02*
X9267801Y-16494222D01*
X9267801Y-16494222D02*
X9258277Y-16475174D01*
X9258277Y-16475174D02*
X9239230Y-16465650D01*
X9239230Y-16465650D02*
X9210658Y-16465650D01*
X9210658Y-16465650D02*
X9191611Y-16475174D01*
X9191611Y-16475174D02*
X9182087Y-16484698D01*
X9391611Y-16598984D02*
X9372563Y-16589460D01*
X9372563Y-16589460D02*
X9363039Y-16579936D01*
X9363039Y-16579936D02*
X9353515Y-16560888D01*
X9353515Y-16560888D02*
X9353515Y-16503746D01*
X9353515Y-16503746D02*
X9363039Y-16484698D01*
X9363039Y-16484698D02*
X9372563Y-16475174D01*
X9372563Y-16475174D02*
X9391611Y-16465650D01*
X9391611Y-16465650D02*
X9420182Y-16465650D01*
X9420182Y-16465650D02*
X9439230Y-16475174D01*
X9439230Y-16475174D02*
X9448753Y-16484698D01*
X9448753Y-16484698D02*
X9458277Y-16503746D01*
X9458277Y-16503746D02*
X9458277Y-16560888D01*
X9458277Y-16560888D02*
X9448753Y-16579936D01*
X9448753Y-16579936D02*
X9439230Y-16589460D01*
X9439230Y-16589460D02*
X9420182Y-16598984D01*
X9420182Y-16598984D02*
X9391611Y-16598984D01*
X9572563Y-16598984D02*
X9553515Y-16589460D01*
X9553515Y-16589460D02*
X9543992Y-16570412D01*
X9543992Y-16570412D02*
X9543992Y-16398984D01*
X9724944Y-16589460D02*
X9705896Y-16598984D01*
X9705896Y-16598984D02*
X9667801Y-16598984D01*
X9667801Y-16598984D02*
X9648753Y-16589460D01*
X9648753Y-16589460D02*
X9639230Y-16570412D01*
X9639230Y-16570412D02*
X9639230Y-16494222D01*
X9639230Y-16494222D02*
X9648753Y-16475174D01*
X9648753Y-16475174D02*
X9667801Y-16465650D01*
X9667801Y-16465650D02*
X9705896Y-16465650D01*
X9705896Y-16465650D02*
X9724944Y-16475174D01*
X9724944Y-16475174D02*
X9734468Y-16494222D01*
X9734468Y-16494222D02*
X9734468Y-16513269D01*
X9734468Y-16513269D02*
X9639230Y-16532317D01*
X9810658Y-16589460D02*
X9829706Y-16598984D01*
X9829706Y-16598984D02*
X9867801Y-16598984D01*
X9867801Y-16598984D02*
X9886849Y-16589460D01*
X9886849Y-16589460D02*
X9896373Y-16570412D01*
X9896373Y-16570412D02*
X9896373Y-16560888D01*
X9896373Y-16560888D02*
X9886849Y-16541841D01*
X9886849Y-16541841D02*
X9867801Y-16532317D01*
X9867801Y-16532317D02*
X9839230Y-16532317D01*
X9839230Y-16532317D02*
X9820182Y-16522793D01*
X9820182Y-16522793D02*
X9810658Y-16503746D01*
X9810658Y-16503746D02*
X9810658Y-16494222D01*
X9810658Y-16494222D02*
X9820182Y-16475174D01*
X9820182Y-16475174D02*
X9839230Y-16465650D01*
X9839230Y-16465650D02*
X9867801Y-16465650D01*
X9867801Y-16465650D02*
X9886849Y-16475174D01*
X9963039Y-16675174D02*
X9972563Y-16665650D01*
X9972563Y-16665650D02*
X9991611Y-16637079D01*
X9991611Y-16637079D02*
X10001134Y-16618031D01*
X10001134Y-16618031D02*
X10010658Y-16589460D01*
X10010658Y-16589460D02*
X10020182Y-16541841D01*
X10020182Y-16541841D02*
X10020182Y-16503746D01*
X10020182Y-16503746D02*
X10010658Y-16456127D01*
X10010658Y-16456127D02*
X10001134Y-16427555D01*
X10001134Y-16427555D02*
X9991611Y-16408508D01*
X9991611Y-16408508D02*
X9972563Y-16379936D01*
X9972563Y-16379936D02*
X9963039Y-16370412D01*
D14*
X4837500Y-16691500D02*
X4997500Y-16851500D01*
X4997500Y-16691500D02*
X4837500Y-16851500D01*
X4917500Y-16851500D02*
X4997500Y-16771500D01*
X4917500Y-16691500D01*
X4837500Y-16771500D01*
X4917500Y-16851500D01*
D11*
X5363039Y-16862984D02*
X5248753Y-16862984D01*
X5305896Y-16862984D02*
X5305896Y-16662984D01*
X5305896Y-16662984D02*
X5286848Y-16691555D01*
X5286848Y-16691555D02*
X5267801Y-16710603D01*
X5267801Y-16710603D02*
X5248753Y-16720127D01*
X5448753Y-16843936D02*
X5458277Y-16853460D01*
X5458277Y-16853460D02*
X5448753Y-16862984D01*
X5448753Y-16862984D02*
X5439229Y-16853460D01*
X5439229Y-16853460D02*
X5448753Y-16843936D01*
X5448753Y-16843936D02*
X5448753Y-16862984D01*
X5629705Y-16662984D02*
X5591610Y-16662984D01*
X5591610Y-16662984D02*
X5572563Y-16672508D01*
X5572563Y-16672508D02*
X5563039Y-16682031D01*
X5563039Y-16682031D02*
X5543991Y-16710603D01*
X5543991Y-16710603D02*
X5534467Y-16748698D01*
X5534467Y-16748698D02*
X5534467Y-16824889D01*
X5534467Y-16824889D02*
X5543991Y-16843936D01*
X5543991Y-16843936D02*
X5553515Y-16853460D01*
X5553515Y-16853460D02*
X5572563Y-16862984D01*
X5572563Y-16862984D02*
X5610658Y-16862984D01*
X5610658Y-16862984D02*
X5629705Y-16853460D01*
X5629705Y-16853460D02*
X5639229Y-16843936D01*
X5639229Y-16843936D02*
X5648753Y-16824889D01*
X5648753Y-16824889D02*
X5648753Y-16777270D01*
X5648753Y-16777270D02*
X5639229Y-16758222D01*
X5639229Y-16758222D02*
X5629705Y-16748698D01*
X5629705Y-16748698D02*
X5610658Y-16739174D01*
X5610658Y-16739174D02*
X5572563Y-16739174D01*
X5572563Y-16739174D02*
X5553515Y-16748698D01*
X5553515Y-16748698D02*
X5543991Y-16758222D01*
X5543991Y-16758222D02*
X5534467Y-16777270D01*
X5772562Y-16662984D02*
X5791610Y-16662984D01*
X5791610Y-16662984D02*
X5810658Y-16672508D01*
X5810658Y-16672508D02*
X5820182Y-16682031D01*
X5820182Y-16682031D02*
X5829705Y-16701079D01*
X5829705Y-16701079D02*
X5839229Y-16739174D01*
X5839229Y-16739174D02*
X5839229Y-16786793D01*
X5839229Y-16786793D02*
X5829705Y-16824889D01*
X5829705Y-16824889D02*
X5820182Y-16843936D01*
X5820182Y-16843936D02*
X5810658Y-16853460D01*
X5810658Y-16853460D02*
X5791610Y-16862984D01*
X5791610Y-16862984D02*
X5772562Y-16862984D01*
X5772562Y-16862984D02*
X5753515Y-16853460D01*
X5753515Y-16853460D02*
X5743991Y-16843936D01*
X5743991Y-16843936D02*
X5734467Y-16824889D01*
X5734467Y-16824889D02*
X5724943Y-16786793D01*
X5724943Y-16786793D02*
X5724943Y-16739174D01*
X5724943Y-16739174D02*
X5734467Y-16701079D01*
X5734467Y-16701079D02*
X5743991Y-16682031D01*
X5743991Y-16682031D02*
X5753515Y-16672508D01*
X5753515Y-16672508D02*
X5772562Y-16662984D01*
X5963039Y-16662984D02*
X5982086Y-16662984D01*
X5982086Y-16662984D02*
X6001134Y-16672508D01*
X6001134Y-16672508D02*
X6010658Y-16682031D01*
X6010658Y-16682031D02*
X6020182Y-16701079D01*
X6020182Y-16701079D02*
X6029705Y-16739174D01*
X6029705Y-16739174D02*
X6029705Y-16786793D01*
X6029705Y-16786793D02*
X6020182Y-16824889D01*
X6020182Y-16824889D02*
X6010658Y-16843936D01*
X6010658Y-16843936D02*
X6001134Y-16853460D01*
X6001134Y-16853460D02*
X5982086Y-16862984D01*
X5982086Y-16862984D02*
X5963039Y-16862984D01*
X5963039Y-16862984D02*
X5943991Y-16853460D01*
X5943991Y-16853460D02*
X5934467Y-16843936D01*
X5934467Y-16843936D02*
X5924943Y-16824889D01*
X5924943Y-16824889D02*
X5915420Y-16786793D01*
X5915420Y-16786793D02*
X5915420Y-16739174D01*
X5915420Y-16739174D02*
X5924943Y-16701079D01*
X5924943Y-16701079D02*
X5934467Y-16682031D01*
X5934467Y-16682031D02*
X5943991Y-16672508D01*
X5943991Y-16672508D02*
X5963039Y-16662984D01*
X6115420Y-16862984D02*
X6115420Y-16729650D01*
X6115420Y-16748698D02*
X6124943Y-16739174D01*
X6124943Y-16739174D02*
X6143991Y-16729650D01*
X6143991Y-16729650D02*
X6172563Y-16729650D01*
X6172563Y-16729650D02*
X6191610Y-16739174D01*
X6191610Y-16739174D02*
X6201134Y-16758222D01*
X6201134Y-16758222D02*
X6201134Y-16862984D01*
X6201134Y-16758222D02*
X6210658Y-16739174D01*
X6210658Y-16739174D02*
X6229705Y-16729650D01*
X6229705Y-16729650D02*
X6258277Y-16729650D01*
X6258277Y-16729650D02*
X6277324Y-16739174D01*
X6277324Y-16739174D02*
X6286848Y-16758222D01*
X6286848Y-16758222D02*
X6286848Y-16862984D01*
X6382086Y-16862984D02*
X6382086Y-16729650D01*
X6382086Y-16748698D02*
X6391610Y-16739174D01*
X6391610Y-16739174D02*
X6410658Y-16729650D01*
X6410658Y-16729650D02*
X6439229Y-16729650D01*
X6439229Y-16729650D02*
X6458277Y-16739174D01*
X6458277Y-16739174D02*
X6467801Y-16758222D01*
X6467801Y-16758222D02*
X6467801Y-16862984D01*
X6467801Y-16758222D02*
X6477324Y-16739174D01*
X6477324Y-16739174D02*
X6496372Y-16729650D01*
X6496372Y-16729650D02*
X6524943Y-16729650D01*
X6524943Y-16729650D02*
X6543991Y-16739174D01*
X6543991Y-16739174D02*
X6553515Y-16758222D01*
X6553515Y-16758222D02*
X6553515Y-16862984D01*
X6943991Y-16653460D02*
X6772563Y-16910603D01*
X7201134Y-16662984D02*
X7220182Y-16662984D01*
X7220182Y-16662984D02*
X7239229Y-16672508D01*
X7239229Y-16672508D02*
X7248753Y-16682031D01*
X7248753Y-16682031D02*
X7258277Y-16701079D01*
X7258277Y-16701079D02*
X7267801Y-16739174D01*
X7267801Y-16739174D02*
X7267801Y-16786793D01*
X7267801Y-16786793D02*
X7258277Y-16824889D01*
X7258277Y-16824889D02*
X7248753Y-16843936D01*
X7248753Y-16843936D02*
X7239229Y-16853460D01*
X7239229Y-16853460D02*
X7220182Y-16862984D01*
X7220182Y-16862984D02*
X7201134Y-16862984D01*
X7201134Y-16862984D02*
X7182086Y-16853460D01*
X7182086Y-16853460D02*
X7172563Y-16843936D01*
X7172563Y-16843936D02*
X7163039Y-16824889D01*
X7163039Y-16824889D02*
X7153515Y-16786793D01*
X7153515Y-16786793D02*
X7153515Y-16739174D01*
X7153515Y-16739174D02*
X7163039Y-16701079D01*
X7163039Y-16701079D02*
X7172563Y-16682031D01*
X7172563Y-16682031D02*
X7182086Y-16672508D01*
X7182086Y-16672508D02*
X7201134Y-16662984D01*
X7353515Y-16843936D02*
X7363039Y-16853460D01*
X7363039Y-16853460D02*
X7353515Y-16862984D01*
X7353515Y-16862984D02*
X7343991Y-16853460D01*
X7343991Y-16853460D02*
X7353515Y-16843936D01*
X7353515Y-16843936D02*
X7353515Y-16862984D01*
X7486848Y-16662984D02*
X7505896Y-16662984D01*
X7505896Y-16662984D02*
X7524944Y-16672508D01*
X7524944Y-16672508D02*
X7534467Y-16682031D01*
X7534467Y-16682031D02*
X7543991Y-16701079D01*
X7543991Y-16701079D02*
X7553515Y-16739174D01*
X7553515Y-16739174D02*
X7553515Y-16786793D01*
X7553515Y-16786793D02*
X7543991Y-16824889D01*
X7543991Y-16824889D02*
X7534467Y-16843936D01*
X7534467Y-16843936D02*
X7524944Y-16853460D01*
X7524944Y-16853460D02*
X7505896Y-16862984D01*
X7505896Y-16862984D02*
X7486848Y-16862984D01*
X7486848Y-16862984D02*
X7467801Y-16853460D01*
X7467801Y-16853460D02*
X7458277Y-16843936D01*
X7458277Y-16843936D02*
X7448753Y-16824889D01*
X7448753Y-16824889D02*
X7439229Y-16786793D01*
X7439229Y-16786793D02*
X7439229Y-16739174D01*
X7439229Y-16739174D02*
X7448753Y-16701079D01*
X7448753Y-16701079D02*
X7458277Y-16682031D01*
X7458277Y-16682031D02*
X7467801Y-16672508D01*
X7467801Y-16672508D02*
X7486848Y-16662984D01*
X7724944Y-16662984D02*
X7686848Y-16662984D01*
X7686848Y-16662984D02*
X7667801Y-16672508D01*
X7667801Y-16672508D02*
X7658277Y-16682031D01*
X7658277Y-16682031D02*
X7639229Y-16710603D01*
X7639229Y-16710603D02*
X7629706Y-16748698D01*
X7629706Y-16748698D02*
X7629706Y-16824889D01*
X7629706Y-16824889D02*
X7639229Y-16843936D01*
X7639229Y-16843936D02*
X7648753Y-16853460D01*
X7648753Y-16853460D02*
X7667801Y-16862984D01*
X7667801Y-16862984D02*
X7705896Y-16862984D01*
X7705896Y-16862984D02*
X7724944Y-16853460D01*
X7724944Y-16853460D02*
X7734467Y-16843936D01*
X7734467Y-16843936D02*
X7743991Y-16824889D01*
X7743991Y-16824889D02*
X7743991Y-16777270D01*
X7743991Y-16777270D02*
X7734467Y-16758222D01*
X7734467Y-16758222D02*
X7724944Y-16748698D01*
X7724944Y-16748698D02*
X7705896Y-16739174D01*
X7705896Y-16739174D02*
X7667801Y-16739174D01*
X7667801Y-16739174D02*
X7648753Y-16748698D01*
X7648753Y-16748698D02*
X7639229Y-16758222D01*
X7639229Y-16758222D02*
X7629706Y-16777270D01*
X7810658Y-16662984D02*
X7934467Y-16662984D01*
X7934467Y-16662984D02*
X7867801Y-16739174D01*
X7867801Y-16739174D02*
X7896372Y-16739174D01*
X7896372Y-16739174D02*
X7915420Y-16748698D01*
X7915420Y-16748698D02*
X7924944Y-16758222D01*
X7924944Y-16758222D02*
X7934467Y-16777270D01*
X7934467Y-16777270D02*
X7934467Y-16824889D01*
X7934467Y-16824889D02*
X7924944Y-16843936D01*
X7924944Y-16843936D02*
X7915420Y-16853460D01*
X7915420Y-16853460D02*
X7896372Y-16862984D01*
X7896372Y-16862984D02*
X7839229Y-16862984D01*
X7839229Y-16862984D02*
X7820182Y-16853460D01*
X7820182Y-16853460D02*
X7810658Y-16843936D01*
X8058277Y-16662984D02*
X8077325Y-16662984D01*
X8077325Y-16662984D02*
X8096372Y-16672508D01*
X8096372Y-16672508D02*
X8105896Y-16682031D01*
X8105896Y-16682031D02*
X8115420Y-16701079D01*
X8115420Y-16701079D02*
X8124944Y-16739174D01*
X8124944Y-16739174D02*
X8124944Y-16786793D01*
X8124944Y-16786793D02*
X8115420Y-16824889D01*
X8115420Y-16824889D02*
X8105896Y-16843936D01*
X8105896Y-16843936D02*
X8096372Y-16853460D01*
X8096372Y-16853460D02*
X8077325Y-16862984D01*
X8077325Y-16862984D02*
X8058277Y-16862984D01*
X8058277Y-16862984D02*
X8039229Y-16853460D01*
X8039229Y-16853460D02*
X8029706Y-16843936D01*
X8029706Y-16843936D02*
X8020182Y-16824889D01*
X8020182Y-16824889D02*
X8010658Y-16786793D01*
X8010658Y-16786793D02*
X8010658Y-16739174D01*
X8010658Y-16739174D02*
X8020182Y-16701079D01*
X8020182Y-16701079D02*
X8029706Y-16682031D01*
X8029706Y-16682031D02*
X8039229Y-16672508D01*
X8039229Y-16672508D02*
X8058277Y-16662984D01*
X8201134Y-16662984D02*
X8201134Y-16701079D01*
X8277325Y-16662984D02*
X8277325Y-16701079D01*
X8572563Y-16939174D02*
X8563039Y-16929650D01*
X8563039Y-16929650D02*
X8543991Y-16901079D01*
X8543991Y-16901079D02*
X8534468Y-16882031D01*
X8534468Y-16882031D02*
X8524944Y-16853460D01*
X8524944Y-16853460D02*
X8515420Y-16805841D01*
X8515420Y-16805841D02*
X8515420Y-16767746D01*
X8515420Y-16767746D02*
X8524944Y-16720127D01*
X8524944Y-16720127D02*
X8534468Y-16691555D01*
X8534468Y-16691555D02*
X8543991Y-16672508D01*
X8543991Y-16672508D02*
X8563039Y-16643936D01*
X8563039Y-16643936D02*
X8572563Y-16634412D01*
X8629706Y-16662984D02*
X8753515Y-16662984D01*
X8753515Y-16662984D02*
X8686849Y-16739174D01*
X8686849Y-16739174D02*
X8715420Y-16739174D01*
X8715420Y-16739174D02*
X8734468Y-16748698D01*
X8734468Y-16748698D02*
X8743991Y-16758222D01*
X8743991Y-16758222D02*
X8753515Y-16777270D01*
X8753515Y-16777270D02*
X8753515Y-16824889D01*
X8753515Y-16824889D02*
X8743991Y-16843936D01*
X8743991Y-16843936D02*
X8734468Y-16853460D01*
X8734468Y-16853460D02*
X8715420Y-16862984D01*
X8715420Y-16862984D02*
X8658277Y-16862984D01*
X8658277Y-16862984D02*
X8639230Y-16853460D01*
X8639230Y-16853460D02*
X8629706Y-16843936D01*
X8991611Y-16862984D02*
X8991611Y-16662984D01*
X9077325Y-16862984D02*
X9077325Y-16758222D01*
X9077325Y-16758222D02*
X9067801Y-16739174D01*
X9067801Y-16739174D02*
X9048753Y-16729650D01*
X9048753Y-16729650D02*
X9020182Y-16729650D01*
X9020182Y-16729650D02*
X9001134Y-16739174D01*
X9001134Y-16739174D02*
X8991611Y-16748698D01*
X9201134Y-16862984D02*
X9182087Y-16853460D01*
X9182087Y-16853460D02*
X9172563Y-16843936D01*
X9172563Y-16843936D02*
X9163039Y-16824889D01*
X9163039Y-16824889D02*
X9163039Y-16767746D01*
X9163039Y-16767746D02*
X9172563Y-16748698D01*
X9172563Y-16748698D02*
X9182087Y-16739174D01*
X9182087Y-16739174D02*
X9201134Y-16729650D01*
X9201134Y-16729650D02*
X9229706Y-16729650D01*
X9229706Y-16729650D02*
X9248753Y-16739174D01*
X9248753Y-16739174D02*
X9258277Y-16748698D01*
X9258277Y-16748698D02*
X9267801Y-16767746D01*
X9267801Y-16767746D02*
X9267801Y-16824889D01*
X9267801Y-16824889D02*
X9258277Y-16843936D01*
X9258277Y-16843936D02*
X9248753Y-16853460D01*
X9248753Y-16853460D02*
X9229706Y-16862984D01*
X9229706Y-16862984D02*
X9201134Y-16862984D01*
X9382087Y-16862984D02*
X9363039Y-16853460D01*
X9363039Y-16853460D02*
X9353515Y-16834412D01*
X9353515Y-16834412D02*
X9353515Y-16662984D01*
X9534468Y-16853460D02*
X9515420Y-16862984D01*
X9515420Y-16862984D02*
X9477325Y-16862984D01*
X9477325Y-16862984D02*
X9458277Y-16853460D01*
X9458277Y-16853460D02*
X9448753Y-16834412D01*
X9448753Y-16834412D02*
X9448753Y-16758222D01*
X9448753Y-16758222D02*
X9458277Y-16739174D01*
X9458277Y-16739174D02*
X9477325Y-16729650D01*
X9477325Y-16729650D02*
X9515420Y-16729650D01*
X9515420Y-16729650D02*
X9534468Y-16739174D01*
X9534468Y-16739174D02*
X9543992Y-16758222D01*
X9543992Y-16758222D02*
X9543992Y-16777270D01*
X9543992Y-16777270D02*
X9448753Y-16796317D01*
X9620182Y-16853460D02*
X9639230Y-16862984D01*
X9639230Y-16862984D02*
X9677325Y-16862984D01*
X9677325Y-16862984D02*
X9696373Y-16853460D01*
X9696373Y-16853460D02*
X9705896Y-16834412D01*
X9705896Y-16834412D02*
X9705896Y-16824889D01*
X9705896Y-16824889D02*
X9696373Y-16805841D01*
X9696373Y-16805841D02*
X9677325Y-16796317D01*
X9677325Y-16796317D02*
X9648753Y-16796317D01*
X9648753Y-16796317D02*
X9629706Y-16786793D01*
X9629706Y-16786793D02*
X9620182Y-16767746D01*
X9620182Y-16767746D02*
X9620182Y-16758222D01*
X9620182Y-16758222D02*
X9629706Y-16739174D01*
X9629706Y-16739174D02*
X9648753Y-16729650D01*
X9648753Y-16729650D02*
X9677325Y-16729650D01*
X9677325Y-16729650D02*
X9696373Y-16739174D01*
X9772563Y-16939174D02*
X9782087Y-16929650D01*
X9782087Y-16929650D02*
X9801134Y-16901079D01*
X9801134Y-16901079D02*
X9810658Y-16882031D01*
X9810658Y-16882031D02*
X9820182Y-16853460D01*
X9820182Y-16853460D02*
X9829706Y-16805841D01*
X9829706Y-16805841D02*
X9829706Y-16767746D01*
X9829706Y-16767746D02*
X9820182Y-16720127D01*
X9820182Y-16720127D02*
X9810658Y-16691555D01*
X9810658Y-16691555D02*
X9801134Y-16672508D01*
X9801134Y-16672508D02*
X9782087Y-16643936D01*
X9782087Y-16643936D02*
X9772563Y-16634412D01*
X4897500Y-16951500D02*
X4897500Y-17151500D01*
X4797500Y-17051500D02*
X4997500Y-17051500D01*
X4997500Y-17051500D02*
G75*
G02*
X4797500Y-17051500I-100000J0D01*
G01*
X4797500Y-17051500D02*
G75*
G02*
X4997500Y-17051500I100000J0D01*
G01*
X5248753Y-16962031D02*
X5258277Y-16952508D01*
X5258277Y-16952508D02*
X5277324Y-16942984D01*
X5277324Y-16942984D02*
X5324944Y-16942984D01*
X5324944Y-16942984D02*
X5343991Y-16952508D01*
X5343991Y-16952508D02*
X5353515Y-16962031D01*
X5353515Y-16962031D02*
X5363039Y-16981079D01*
X5363039Y-16981079D02*
X5363039Y-17000127D01*
X5363039Y-17000127D02*
X5353515Y-17028698D01*
X5353515Y-17028698D02*
X5239229Y-17142984D01*
X5239229Y-17142984D02*
X5363039Y-17142984D01*
X5448753Y-17123936D02*
X5458277Y-17133460D01*
X5458277Y-17133460D02*
X5448753Y-17142984D01*
X5448753Y-17142984D02*
X5439229Y-17133460D01*
X5439229Y-17133460D02*
X5448753Y-17123936D01*
X5448753Y-17123936D02*
X5448753Y-17142984D01*
X5524944Y-16942984D02*
X5648753Y-16942984D01*
X5648753Y-16942984D02*
X5582086Y-17019174D01*
X5582086Y-17019174D02*
X5610658Y-17019174D01*
X5610658Y-17019174D02*
X5629705Y-17028698D01*
X5629705Y-17028698D02*
X5639229Y-17038222D01*
X5639229Y-17038222D02*
X5648753Y-17057270D01*
X5648753Y-17057270D02*
X5648753Y-17104889D01*
X5648753Y-17104889D02*
X5639229Y-17123936D01*
X5639229Y-17123936D02*
X5629705Y-17133460D01*
X5629705Y-17133460D02*
X5610658Y-17142984D01*
X5610658Y-17142984D02*
X5553515Y-17142984D01*
X5553515Y-17142984D02*
X5534467Y-17133460D01*
X5534467Y-17133460D02*
X5524944Y-17123936D01*
X5772562Y-16942984D02*
X5791610Y-16942984D01*
X5791610Y-16942984D02*
X5810658Y-16952508D01*
X5810658Y-16952508D02*
X5820182Y-16962031D01*
X5820182Y-16962031D02*
X5829705Y-16981079D01*
X5829705Y-16981079D02*
X5839229Y-17019174D01*
X5839229Y-17019174D02*
X5839229Y-17066793D01*
X5839229Y-17066793D02*
X5829705Y-17104889D01*
X5829705Y-17104889D02*
X5820182Y-17123936D01*
X5820182Y-17123936D02*
X5810658Y-17133460D01*
X5810658Y-17133460D02*
X5791610Y-17142984D01*
X5791610Y-17142984D02*
X5772562Y-17142984D01*
X5772562Y-17142984D02*
X5753515Y-17133460D01*
X5753515Y-17133460D02*
X5743991Y-17123936D01*
X5743991Y-17123936D02*
X5734467Y-17104889D01*
X5734467Y-17104889D02*
X5724943Y-17066793D01*
X5724943Y-17066793D02*
X5724943Y-17019174D01*
X5724943Y-17019174D02*
X5734467Y-16981079D01*
X5734467Y-16981079D02*
X5743991Y-16962031D01*
X5743991Y-16962031D02*
X5753515Y-16952508D01*
X5753515Y-16952508D02*
X5772562Y-16942984D01*
X5963039Y-16942984D02*
X5982086Y-16942984D01*
X5982086Y-16942984D02*
X6001134Y-16952508D01*
X6001134Y-16952508D02*
X6010658Y-16962031D01*
X6010658Y-16962031D02*
X6020182Y-16981079D01*
X6020182Y-16981079D02*
X6029705Y-17019174D01*
X6029705Y-17019174D02*
X6029705Y-17066793D01*
X6029705Y-17066793D02*
X6020182Y-17104889D01*
X6020182Y-17104889D02*
X6010658Y-17123936D01*
X6010658Y-17123936D02*
X6001134Y-17133460D01*
X6001134Y-17133460D02*
X5982086Y-17142984D01*
X5982086Y-17142984D02*
X5963039Y-17142984D01*
X5963039Y-17142984D02*
X5943991Y-17133460D01*
X5943991Y-17133460D02*
X5934467Y-17123936D01*
X5934467Y-17123936D02*
X5924943Y-17104889D01*
X5924943Y-17104889D02*
X5915420Y-17066793D01*
X5915420Y-17066793D02*
X5915420Y-17019174D01*
X5915420Y-17019174D02*
X5924943Y-16981079D01*
X5924943Y-16981079D02*
X5934467Y-16962031D01*
X5934467Y-16962031D02*
X5943991Y-16952508D01*
X5943991Y-16952508D02*
X5963039Y-16942984D01*
X6115420Y-17142984D02*
X6115420Y-17009650D01*
X6115420Y-17028698D02*
X6124943Y-17019174D01*
X6124943Y-17019174D02*
X6143991Y-17009650D01*
X6143991Y-17009650D02*
X6172563Y-17009650D01*
X6172563Y-17009650D02*
X6191610Y-17019174D01*
X6191610Y-17019174D02*
X6201134Y-17038222D01*
X6201134Y-17038222D02*
X6201134Y-17142984D01*
X6201134Y-17038222D02*
X6210658Y-17019174D01*
X6210658Y-17019174D02*
X6229705Y-17009650D01*
X6229705Y-17009650D02*
X6258277Y-17009650D01*
X6258277Y-17009650D02*
X6277324Y-17019174D01*
X6277324Y-17019174D02*
X6286848Y-17038222D01*
X6286848Y-17038222D02*
X6286848Y-17142984D01*
X6382086Y-17142984D02*
X6382086Y-17009650D01*
X6382086Y-17028698D02*
X6391610Y-17019174D01*
X6391610Y-17019174D02*
X6410658Y-17009650D01*
X6410658Y-17009650D02*
X6439229Y-17009650D01*
X6439229Y-17009650D02*
X6458277Y-17019174D01*
X6458277Y-17019174D02*
X6467801Y-17038222D01*
X6467801Y-17038222D02*
X6467801Y-17142984D01*
X6467801Y-17038222D02*
X6477324Y-17019174D01*
X6477324Y-17019174D02*
X6496372Y-17009650D01*
X6496372Y-17009650D02*
X6524943Y-17009650D01*
X6524943Y-17009650D02*
X6543991Y-17019174D01*
X6543991Y-17019174D02*
X6553515Y-17038222D01*
X6553515Y-17038222D02*
X6553515Y-17142984D01*
X6943991Y-16933460D02*
X6772563Y-17190603D01*
X7201134Y-16942984D02*
X7220182Y-16942984D01*
X7220182Y-16942984D02*
X7239229Y-16952508D01*
X7239229Y-16952508D02*
X7248753Y-16962031D01*
X7248753Y-16962031D02*
X7258277Y-16981079D01*
X7258277Y-16981079D02*
X7267801Y-17019174D01*
X7267801Y-17019174D02*
X7267801Y-17066793D01*
X7267801Y-17066793D02*
X7258277Y-17104889D01*
X7258277Y-17104889D02*
X7248753Y-17123936D01*
X7248753Y-17123936D02*
X7239229Y-17133460D01*
X7239229Y-17133460D02*
X7220182Y-17142984D01*
X7220182Y-17142984D02*
X7201134Y-17142984D01*
X7201134Y-17142984D02*
X7182086Y-17133460D01*
X7182086Y-17133460D02*
X7172563Y-17123936D01*
X7172563Y-17123936D02*
X7163039Y-17104889D01*
X7163039Y-17104889D02*
X7153515Y-17066793D01*
X7153515Y-17066793D02*
X7153515Y-17019174D01*
X7153515Y-17019174D02*
X7163039Y-16981079D01*
X7163039Y-16981079D02*
X7172563Y-16962031D01*
X7172563Y-16962031D02*
X7182086Y-16952508D01*
X7182086Y-16952508D02*
X7201134Y-16942984D01*
X7353515Y-17123936D02*
X7363039Y-17133460D01*
X7363039Y-17133460D02*
X7353515Y-17142984D01*
X7353515Y-17142984D02*
X7343991Y-17133460D01*
X7343991Y-17133460D02*
X7353515Y-17123936D01*
X7353515Y-17123936D02*
X7353515Y-17142984D01*
X7486848Y-16942984D02*
X7505896Y-16942984D01*
X7505896Y-16942984D02*
X7524944Y-16952508D01*
X7524944Y-16952508D02*
X7534467Y-16962031D01*
X7534467Y-16962031D02*
X7543991Y-16981079D01*
X7543991Y-16981079D02*
X7553515Y-17019174D01*
X7553515Y-17019174D02*
X7553515Y-17066793D01*
X7553515Y-17066793D02*
X7543991Y-17104889D01*
X7543991Y-17104889D02*
X7534467Y-17123936D01*
X7534467Y-17123936D02*
X7524944Y-17133460D01*
X7524944Y-17133460D02*
X7505896Y-17142984D01*
X7505896Y-17142984D02*
X7486848Y-17142984D01*
X7486848Y-17142984D02*
X7467801Y-17133460D01*
X7467801Y-17133460D02*
X7458277Y-17123936D01*
X7458277Y-17123936D02*
X7448753Y-17104889D01*
X7448753Y-17104889D02*
X7439229Y-17066793D01*
X7439229Y-17066793D02*
X7439229Y-17019174D01*
X7439229Y-17019174D02*
X7448753Y-16981079D01*
X7448753Y-16981079D02*
X7458277Y-16962031D01*
X7458277Y-16962031D02*
X7467801Y-16952508D01*
X7467801Y-16952508D02*
X7486848Y-16942984D01*
X7648753Y-17142984D02*
X7686848Y-17142984D01*
X7686848Y-17142984D02*
X7705896Y-17133460D01*
X7705896Y-17133460D02*
X7715420Y-17123936D01*
X7715420Y-17123936D02*
X7734467Y-17095365D01*
X7734467Y-17095365D02*
X7743991Y-17057270D01*
X7743991Y-17057270D02*
X7743991Y-16981079D01*
X7743991Y-16981079D02*
X7734467Y-16962031D01*
X7734467Y-16962031D02*
X7724944Y-16952508D01*
X7724944Y-16952508D02*
X7705896Y-16942984D01*
X7705896Y-16942984D02*
X7667801Y-16942984D01*
X7667801Y-16942984D02*
X7648753Y-16952508D01*
X7648753Y-16952508D02*
X7639229Y-16962031D01*
X7639229Y-16962031D02*
X7629706Y-16981079D01*
X7629706Y-16981079D02*
X7629706Y-17028698D01*
X7629706Y-17028698D02*
X7639229Y-17047746D01*
X7639229Y-17047746D02*
X7648753Y-17057270D01*
X7648753Y-17057270D02*
X7667801Y-17066793D01*
X7667801Y-17066793D02*
X7705896Y-17066793D01*
X7705896Y-17066793D02*
X7724944Y-17057270D01*
X7724944Y-17057270D02*
X7734467Y-17047746D01*
X7734467Y-17047746D02*
X7743991Y-17028698D01*
X7867801Y-16942984D02*
X7886848Y-16942984D01*
X7886848Y-16942984D02*
X7905896Y-16952508D01*
X7905896Y-16952508D02*
X7915420Y-16962031D01*
X7915420Y-16962031D02*
X7924944Y-16981079D01*
X7924944Y-16981079D02*
X7934467Y-17019174D01*
X7934467Y-17019174D02*
X7934467Y-17066793D01*
X7934467Y-17066793D02*
X7924944Y-17104889D01*
X7924944Y-17104889D02*
X7915420Y-17123936D01*
X7915420Y-17123936D02*
X7905896Y-17133460D01*
X7905896Y-17133460D02*
X7886848Y-17142984D01*
X7886848Y-17142984D02*
X7867801Y-17142984D01*
X7867801Y-17142984D02*
X7848753Y-17133460D01*
X7848753Y-17133460D02*
X7839229Y-17123936D01*
X7839229Y-17123936D02*
X7829706Y-17104889D01*
X7829706Y-17104889D02*
X7820182Y-17066793D01*
X7820182Y-17066793D02*
X7820182Y-17019174D01*
X7820182Y-17019174D02*
X7829706Y-16981079D01*
X7829706Y-16981079D02*
X7839229Y-16962031D01*
X7839229Y-16962031D02*
X7848753Y-16952508D01*
X7848753Y-16952508D02*
X7867801Y-16942984D01*
X8105896Y-16942984D02*
X8067801Y-16942984D01*
X8067801Y-16942984D02*
X8048753Y-16952508D01*
X8048753Y-16952508D02*
X8039229Y-16962031D01*
X8039229Y-16962031D02*
X8020182Y-16990603D01*
X8020182Y-16990603D02*
X8010658Y-17028698D01*
X8010658Y-17028698D02*
X8010658Y-17104889D01*
X8010658Y-17104889D02*
X8020182Y-17123936D01*
X8020182Y-17123936D02*
X8029706Y-17133460D01*
X8029706Y-17133460D02*
X8048753Y-17142984D01*
X8048753Y-17142984D02*
X8086848Y-17142984D01*
X8086848Y-17142984D02*
X8105896Y-17133460D01*
X8105896Y-17133460D02*
X8115420Y-17123936D01*
X8115420Y-17123936D02*
X8124944Y-17104889D01*
X8124944Y-17104889D02*
X8124944Y-17057270D01*
X8124944Y-17057270D02*
X8115420Y-17038222D01*
X8115420Y-17038222D02*
X8105896Y-17028698D01*
X8105896Y-17028698D02*
X8086848Y-17019174D01*
X8086848Y-17019174D02*
X8048753Y-17019174D01*
X8048753Y-17019174D02*
X8029706Y-17028698D01*
X8029706Y-17028698D02*
X8020182Y-17038222D01*
X8020182Y-17038222D02*
X8010658Y-17057270D01*
X8201134Y-16942984D02*
X8201134Y-16981079D01*
X8277325Y-16942984D02*
X8277325Y-16981079D01*
X8572563Y-17219174D02*
X8563039Y-17209650D01*
X8563039Y-17209650D02*
X8543991Y-17181079D01*
X8543991Y-17181079D02*
X8534468Y-17162031D01*
X8534468Y-17162031D02*
X8524944Y-17133460D01*
X8524944Y-17133460D02*
X8515420Y-17085841D01*
X8515420Y-17085841D02*
X8515420Y-17047746D01*
X8515420Y-17047746D02*
X8524944Y-17000127D01*
X8524944Y-17000127D02*
X8534468Y-16971555D01*
X8534468Y-16971555D02*
X8543991Y-16952508D01*
X8543991Y-16952508D02*
X8563039Y-16923936D01*
X8563039Y-16923936D02*
X8572563Y-16914412D01*
X8639230Y-16962031D02*
X8648753Y-16952508D01*
X8648753Y-16952508D02*
X8667801Y-16942984D01*
X8667801Y-16942984D02*
X8715420Y-16942984D01*
X8715420Y-16942984D02*
X8734468Y-16952508D01*
X8734468Y-16952508D02*
X8743991Y-16962031D01*
X8743991Y-16962031D02*
X8753515Y-16981079D01*
X8753515Y-16981079D02*
X8753515Y-17000127D01*
X8753515Y-17000127D02*
X8743991Y-17028698D01*
X8743991Y-17028698D02*
X8629706Y-17142984D01*
X8629706Y-17142984D02*
X8753515Y-17142984D01*
X8991611Y-17142984D02*
X8991611Y-16942984D01*
X9077325Y-17142984D02*
X9077325Y-17038222D01*
X9077325Y-17038222D02*
X9067801Y-17019174D01*
X9067801Y-17019174D02*
X9048753Y-17009650D01*
X9048753Y-17009650D02*
X9020182Y-17009650D01*
X9020182Y-17009650D02*
X9001134Y-17019174D01*
X9001134Y-17019174D02*
X8991611Y-17028698D01*
X9201134Y-17142984D02*
X9182087Y-17133460D01*
X9182087Y-17133460D02*
X9172563Y-17123936D01*
X9172563Y-17123936D02*
X9163039Y-17104889D01*
X9163039Y-17104889D02*
X9163039Y-17047746D01*
X9163039Y-17047746D02*
X9172563Y-17028698D01*
X9172563Y-17028698D02*
X9182087Y-17019174D01*
X9182087Y-17019174D02*
X9201134Y-17009650D01*
X9201134Y-17009650D02*
X9229706Y-17009650D01*
X9229706Y-17009650D02*
X9248753Y-17019174D01*
X9248753Y-17019174D02*
X9258277Y-17028698D01*
X9258277Y-17028698D02*
X9267801Y-17047746D01*
X9267801Y-17047746D02*
X9267801Y-17104889D01*
X9267801Y-17104889D02*
X9258277Y-17123936D01*
X9258277Y-17123936D02*
X9248753Y-17133460D01*
X9248753Y-17133460D02*
X9229706Y-17142984D01*
X9229706Y-17142984D02*
X9201134Y-17142984D01*
X9382087Y-17142984D02*
X9363039Y-17133460D01*
X9363039Y-17133460D02*
X9353515Y-17114412D01*
X9353515Y-17114412D02*
X9353515Y-16942984D01*
X9534468Y-17133460D02*
X9515420Y-17142984D01*
X9515420Y-17142984D02*
X9477325Y-17142984D01*
X9477325Y-17142984D02*
X9458277Y-17133460D01*
X9458277Y-17133460D02*
X9448753Y-17114412D01*
X9448753Y-17114412D02*
X9448753Y-17038222D01*
X9448753Y-17038222D02*
X9458277Y-17019174D01*
X9458277Y-17019174D02*
X9477325Y-17009650D01*
X9477325Y-17009650D02*
X9515420Y-17009650D01*
X9515420Y-17009650D02*
X9534468Y-17019174D01*
X9534468Y-17019174D02*
X9543992Y-17038222D01*
X9543992Y-17038222D02*
X9543992Y-17057270D01*
X9543992Y-17057270D02*
X9448753Y-17076317D01*
X9620182Y-17133460D02*
X9639230Y-17142984D01*
X9639230Y-17142984D02*
X9677325Y-17142984D01*
X9677325Y-17142984D02*
X9696373Y-17133460D01*
X9696373Y-17133460D02*
X9705896Y-17114412D01*
X9705896Y-17114412D02*
X9705896Y-17104889D01*
X9705896Y-17104889D02*
X9696373Y-17085841D01*
X9696373Y-17085841D02*
X9677325Y-17076317D01*
X9677325Y-17076317D02*
X9648753Y-17076317D01*
X9648753Y-17076317D02*
X9629706Y-17066793D01*
X9629706Y-17066793D02*
X9620182Y-17047746D01*
X9620182Y-17047746D02*
X9620182Y-17038222D01*
X9620182Y-17038222D02*
X9629706Y-17019174D01*
X9629706Y-17019174D02*
X9648753Y-17009650D01*
X9648753Y-17009650D02*
X9677325Y-17009650D01*
X9677325Y-17009650D02*
X9696373Y-17019174D01*
X9772563Y-17219174D02*
X9782087Y-17209650D01*
X9782087Y-17209650D02*
X9801134Y-17181079D01*
X9801134Y-17181079D02*
X9810658Y-17162031D01*
X9810658Y-17162031D02*
X9820182Y-17133460D01*
X9820182Y-17133460D02*
X9829706Y-17085841D01*
X9829706Y-17085841D02*
X9829706Y-17047746D01*
X9829706Y-17047746D02*
X9820182Y-17000127D01*
X9820182Y-17000127D02*
X9810658Y-16971555D01*
X9810658Y-16971555D02*
X9801134Y-16952508D01*
X9801134Y-16952508D02*
X9782087Y-16923936D01*
X9782087Y-16923936D02*
X9772563Y-16914412D01*
X4968211Y-17442211D02*
X4968211Y-17300789D01*
X4826789Y-17300789D01*
X4826789Y-17442211D01*
X4968211Y-17442211D01*
X4997500Y-17371500D02*
G75*
G02*
X4797500Y-17371500I-100000J0D01*
G01*
X4797500Y-17371500D02*
G75*
G02*
X4997500Y-17371500I100000J0D01*
G01*
X5239229Y-17262984D02*
X5363039Y-17262984D01*
X5363039Y-17262984D02*
X5296372Y-17339174D01*
X5296372Y-17339174D02*
X5324944Y-17339174D01*
X5324944Y-17339174D02*
X5343991Y-17348698D01*
X5343991Y-17348698D02*
X5353515Y-17358222D01*
X5353515Y-17358222D02*
X5363039Y-17377270D01*
X5363039Y-17377270D02*
X5363039Y-17424889D01*
X5363039Y-17424889D02*
X5353515Y-17443936D01*
X5353515Y-17443936D02*
X5343991Y-17453460D01*
X5343991Y-17453460D02*
X5324944Y-17462984D01*
X5324944Y-17462984D02*
X5267801Y-17462984D01*
X5267801Y-17462984D02*
X5248753Y-17453460D01*
X5248753Y-17453460D02*
X5239229Y-17443936D01*
X5448753Y-17443936D02*
X5458277Y-17453460D01*
X5458277Y-17453460D02*
X5448753Y-17462984D01*
X5448753Y-17462984D02*
X5439229Y-17453460D01*
X5439229Y-17453460D02*
X5448753Y-17443936D01*
X5448753Y-17443936D02*
X5448753Y-17462984D01*
X5534467Y-17282031D02*
X5543991Y-17272508D01*
X5543991Y-17272508D02*
X5563039Y-17262984D01*
X5563039Y-17262984D02*
X5610658Y-17262984D01*
X5610658Y-17262984D02*
X5629705Y-17272508D01*
X5629705Y-17272508D02*
X5639229Y-17282031D01*
X5639229Y-17282031D02*
X5648753Y-17301079D01*
X5648753Y-17301079D02*
X5648753Y-17320127D01*
X5648753Y-17320127D02*
X5639229Y-17348698D01*
X5639229Y-17348698D02*
X5524944Y-17462984D01*
X5524944Y-17462984D02*
X5648753Y-17462984D01*
X5772562Y-17262984D02*
X5791610Y-17262984D01*
X5791610Y-17262984D02*
X5810658Y-17272508D01*
X5810658Y-17272508D02*
X5820182Y-17282031D01*
X5820182Y-17282031D02*
X5829705Y-17301079D01*
X5829705Y-17301079D02*
X5839229Y-17339174D01*
X5839229Y-17339174D02*
X5839229Y-17386793D01*
X5839229Y-17386793D02*
X5829705Y-17424889D01*
X5829705Y-17424889D02*
X5820182Y-17443936D01*
X5820182Y-17443936D02*
X5810658Y-17453460D01*
X5810658Y-17453460D02*
X5791610Y-17462984D01*
X5791610Y-17462984D02*
X5772562Y-17462984D01*
X5772562Y-17462984D02*
X5753515Y-17453460D01*
X5753515Y-17453460D02*
X5743991Y-17443936D01*
X5743991Y-17443936D02*
X5734467Y-17424889D01*
X5734467Y-17424889D02*
X5724943Y-17386793D01*
X5724943Y-17386793D02*
X5724943Y-17339174D01*
X5724943Y-17339174D02*
X5734467Y-17301079D01*
X5734467Y-17301079D02*
X5743991Y-17282031D01*
X5743991Y-17282031D02*
X5753515Y-17272508D01*
X5753515Y-17272508D02*
X5772562Y-17262984D01*
X5963039Y-17262984D02*
X5982086Y-17262984D01*
X5982086Y-17262984D02*
X6001134Y-17272508D01*
X6001134Y-17272508D02*
X6010658Y-17282031D01*
X6010658Y-17282031D02*
X6020182Y-17301079D01*
X6020182Y-17301079D02*
X6029705Y-17339174D01*
X6029705Y-17339174D02*
X6029705Y-17386793D01*
X6029705Y-17386793D02*
X6020182Y-17424889D01*
X6020182Y-17424889D02*
X6010658Y-17443936D01*
X6010658Y-17443936D02*
X6001134Y-17453460D01*
X6001134Y-17453460D02*
X5982086Y-17462984D01*
X5982086Y-17462984D02*
X5963039Y-17462984D01*
X5963039Y-17462984D02*
X5943991Y-17453460D01*
X5943991Y-17453460D02*
X5934467Y-17443936D01*
X5934467Y-17443936D02*
X5924943Y-17424889D01*
X5924943Y-17424889D02*
X5915420Y-17386793D01*
X5915420Y-17386793D02*
X5915420Y-17339174D01*
X5915420Y-17339174D02*
X5924943Y-17301079D01*
X5924943Y-17301079D02*
X5934467Y-17282031D01*
X5934467Y-17282031D02*
X5943991Y-17272508D01*
X5943991Y-17272508D02*
X5963039Y-17262984D01*
X6115420Y-17462984D02*
X6115420Y-17329650D01*
X6115420Y-17348698D02*
X6124943Y-17339174D01*
X6124943Y-17339174D02*
X6143991Y-17329650D01*
X6143991Y-17329650D02*
X6172563Y-17329650D01*
X6172563Y-17329650D02*
X6191610Y-17339174D01*
X6191610Y-17339174D02*
X6201134Y-17358222D01*
X6201134Y-17358222D02*
X6201134Y-17462984D01*
X6201134Y-17358222D02*
X6210658Y-17339174D01*
X6210658Y-17339174D02*
X6229705Y-17329650D01*
X6229705Y-17329650D02*
X6258277Y-17329650D01*
X6258277Y-17329650D02*
X6277324Y-17339174D01*
X6277324Y-17339174D02*
X6286848Y-17358222D01*
X6286848Y-17358222D02*
X6286848Y-17462984D01*
X6382086Y-17462984D02*
X6382086Y-17329650D01*
X6382086Y-17348698D02*
X6391610Y-17339174D01*
X6391610Y-17339174D02*
X6410658Y-17329650D01*
X6410658Y-17329650D02*
X6439229Y-17329650D01*
X6439229Y-17329650D02*
X6458277Y-17339174D01*
X6458277Y-17339174D02*
X6467801Y-17358222D01*
X6467801Y-17358222D02*
X6467801Y-17462984D01*
X6467801Y-17358222D02*
X6477324Y-17339174D01*
X6477324Y-17339174D02*
X6496372Y-17329650D01*
X6496372Y-17329650D02*
X6524943Y-17329650D01*
X6524943Y-17329650D02*
X6543991Y-17339174D01*
X6543991Y-17339174D02*
X6553515Y-17358222D01*
X6553515Y-17358222D02*
X6553515Y-17462984D01*
X6943991Y-17253460D02*
X6772563Y-17510603D01*
X7201134Y-17262984D02*
X7220182Y-17262984D01*
X7220182Y-17262984D02*
X7239229Y-17272508D01*
X7239229Y-17272508D02*
X7248753Y-17282031D01*
X7248753Y-17282031D02*
X7258277Y-17301079D01*
X7258277Y-17301079D02*
X7267801Y-17339174D01*
X7267801Y-17339174D02*
X7267801Y-17386793D01*
X7267801Y-17386793D02*
X7258277Y-17424889D01*
X7258277Y-17424889D02*
X7248753Y-17443936D01*
X7248753Y-17443936D02*
X7239229Y-17453460D01*
X7239229Y-17453460D02*
X7220182Y-17462984D01*
X7220182Y-17462984D02*
X7201134Y-17462984D01*
X7201134Y-17462984D02*
X7182086Y-17453460D01*
X7182086Y-17453460D02*
X7172563Y-17443936D01*
X7172563Y-17443936D02*
X7163039Y-17424889D01*
X7163039Y-17424889D02*
X7153515Y-17386793D01*
X7153515Y-17386793D02*
X7153515Y-17339174D01*
X7153515Y-17339174D02*
X7163039Y-17301079D01*
X7163039Y-17301079D02*
X7172563Y-17282031D01*
X7172563Y-17282031D02*
X7182086Y-17272508D01*
X7182086Y-17272508D02*
X7201134Y-17262984D01*
X7353515Y-17443936D02*
X7363039Y-17453460D01*
X7363039Y-17453460D02*
X7353515Y-17462984D01*
X7353515Y-17462984D02*
X7343991Y-17453460D01*
X7343991Y-17453460D02*
X7353515Y-17443936D01*
X7353515Y-17443936D02*
X7353515Y-17462984D01*
X7553515Y-17462984D02*
X7439229Y-17462984D01*
X7496372Y-17462984D02*
X7496372Y-17262984D01*
X7496372Y-17262984D02*
X7477325Y-17291555D01*
X7477325Y-17291555D02*
X7458277Y-17310603D01*
X7458277Y-17310603D02*
X7439229Y-17320127D01*
X7629706Y-17282031D02*
X7639229Y-17272508D01*
X7639229Y-17272508D02*
X7658277Y-17262984D01*
X7658277Y-17262984D02*
X7705896Y-17262984D01*
X7705896Y-17262984D02*
X7724944Y-17272508D01*
X7724944Y-17272508D02*
X7734467Y-17282031D01*
X7734467Y-17282031D02*
X7743991Y-17301079D01*
X7743991Y-17301079D02*
X7743991Y-17320127D01*
X7743991Y-17320127D02*
X7734467Y-17348698D01*
X7734467Y-17348698D02*
X7620182Y-17462984D01*
X7620182Y-17462984D02*
X7743991Y-17462984D01*
X7915420Y-17262984D02*
X7877325Y-17262984D01*
X7877325Y-17262984D02*
X7858277Y-17272508D01*
X7858277Y-17272508D02*
X7848753Y-17282031D01*
X7848753Y-17282031D02*
X7829706Y-17310603D01*
X7829706Y-17310603D02*
X7820182Y-17348698D01*
X7820182Y-17348698D02*
X7820182Y-17424889D01*
X7820182Y-17424889D02*
X7829706Y-17443936D01*
X7829706Y-17443936D02*
X7839229Y-17453460D01*
X7839229Y-17453460D02*
X7858277Y-17462984D01*
X7858277Y-17462984D02*
X7896372Y-17462984D01*
X7896372Y-17462984D02*
X7915420Y-17453460D01*
X7915420Y-17453460D02*
X7924944Y-17443936D01*
X7924944Y-17443936D02*
X7934467Y-17424889D01*
X7934467Y-17424889D02*
X7934467Y-17377270D01*
X7934467Y-17377270D02*
X7924944Y-17358222D01*
X7924944Y-17358222D02*
X7915420Y-17348698D01*
X7915420Y-17348698D02*
X7896372Y-17339174D01*
X7896372Y-17339174D02*
X7858277Y-17339174D01*
X7858277Y-17339174D02*
X7839229Y-17348698D01*
X7839229Y-17348698D02*
X7829706Y-17358222D01*
X7829706Y-17358222D02*
X7820182Y-17377270D01*
X8058277Y-17262984D02*
X8077325Y-17262984D01*
X8077325Y-17262984D02*
X8096372Y-17272508D01*
X8096372Y-17272508D02*
X8105896Y-17282031D01*
X8105896Y-17282031D02*
X8115420Y-17301079D01*
X8115420Y-17301079D02*
X8124944Y-17339174D01*
X8124944Y-17339174D02*
X8124944Y-17386793D01*
X8124944Y-17386793D02*
X8115420Y-17424889D01*
X8115420Y-17424889D02*
X8105896Y-17443936D01*
X8105896Y-17443936D02*
X8096372Y-17453460D01*
X8096372Y-17453460D02*
X8077325Y-17462984D01*
X8077325Y-17462984D02*
X8058277Y-17462984D01*
X8058277Y-17462984D02*
X8039229Y-17453460D01*
X8039229Y-17453460D02*
X8029706Y-17443936D01*
X8029706Y-17443936D02*
X8020182Y-17424889D01*
X8020182Y-17424889D02*
X8010658Y-17386793D01*
X8010658Y-17386793D02*
X8010658Y-17339174D01*
X8010658Y-17339174D02*
X8020182Y-17301079D01*
X8020182Y-17301079D02*
X8029706Y-17282031D01*
X8029706Y-17282031D02*
X8039229Y-17272508D01*
X8039229Y-17272508D02*
X8058277Y-17262984D01*
X8201134Y-17262984D02*
X8201134Y-17301079D01*
X8277325Y-17262984D02*
X8277325Y-17301079D01*
X8572563Y-17539174D02*
X8563039Y-17529650D01*
X8563039Y-17529650D02*
X8543991Y-17501079D01*
X8543991Y-17501079D02*
X8534468Y-17482031D01*
X8534468Y-17482031D02*
X8524944Y-17453460D01*
X8524944Y-17453460D02*
X8515420Y-17405841D01*
X8515420Y-17405841D02*
X8515420Y-17367746D01*
X8515420Y-17367746D02*
X8524944Y-17320127D01*
X8524944Y-17320127D02*
X8534468Y-17291555D01*
X8534468Y-17291555D02*
X8543991Y-17272508D01*
X8543991Y-17272508D02*
X8563039Y-17243936D01*
X8563039Y-17243936D02*
X8572563Y-17234412D01*
X8734468Y-17329650D02*
X8734468Y-17462984D01*
X8686849Y-17253460D02*
X8639230Y-17396317D01*
X8639230Y-17396317D02*
X8763039Y-17396317D01*
X8991611Y-17462984D02*
X8991611Y-17262984D01*
X9077325Y-17462984D02*
X9077325Y-17358222D01*
X9077325Y-17358222D02*
X9067801Y-17339174D01*
X9067801Y-17339174D02*
X9048753Y-17329650D01*
X9048753Y-17329650D02*
X9020182Y-17329650D01*
X9020182Y-17329650D02*
X9001134Y-17339174D01*
X9001134Y-17339174D02*
X8991611Y-17348698D01*
X9201134Y-17462984D02*
X9182087Y-17453460D01*
X9182087Y-17453460D02*
X9172563Y-17443936D01*
X9172563Y-17443936D02*
X9163039Y-17424889D01*
X9163039Y-17424889D02*
X9163039Y-17367746D01*
X9163039Y-17367746D02*
X9172563Y-17348698D01*
X9172563Y-17348698D02*
X9182087Y-17339174D01*
X9182087Y-17339174D02*
X9201134Y-17329650D01*
X9201134Y-17329650D02*
X9229706Y-17329650D01*
X9229706Y-17329650D02*
X9248753Y-17339174D01*
X9248753Y-17339174D02*
X9258277Y-17348698D01*
X9258277Y-17348698D02*
X9267801Y-17367746D01*
X9267801Y-17367746D02*
X9267801Y-17424889D01*
X9267801Y-17424889D02*
X9258277Y-17443936D01*
X9258277Y-17443936D02*
X9248753Y-17453460D01*
X9248753Y-17453460D02*
X9229706Y-17462984D01*
X9229706Y-17462984D02*
X9201134Y-17462984D01*
X9382087Y-17462984D02*
X9363039Y-17453460D01*
X9363039Y-17453460D02*
X9353515Y-17434412D01*
X9353515Y-17434412D02*
X9353515Y-17262984D01*
X9534468Y-17453460D02*
X9515420Y-17462984D01*
X9515420Y-17462984D02*
X9477325Y-17462984D01*
X9477325Y-17462984D02*
X9458277Y-17453460D01*
X9458277Y-17453460D02*
X9448753Y-17434412D01*
X9448753Y-17434412D02*
X9448753Y-17358222D01*
X9448753Y-17358222D02*
X9458277Y-17339174D01*
X9458277Y-17339174D02*
X9477325Y-17329650D01*
X9477325Y-17329650D02*
X9515420Y-17329650D01*
X9515420Y-17329650D02*
X9534468Y-17339174D01*
X9534468Y-17339174D02*
X9543992Y-17358222D01*
X9543992Y-17358222D02*
X9543992Y-17377270D01*
X9543992Y-17377270D02*
X9448753Y-17396317D01*
X9620182Y-17453460D02*
X9639230Y-17462984D01*
X9639230Y-17462984D02*
X9677325Y-17462984D01*
X9677325Y-17462984D02*
X9696373Y-17453460D01*
X9696373Y-17453460D02*
X9705896Y-17434412D01*
X9705896Y-17434412D02*
X9705896Y-17424889D01*
X9705896Y-17424889D02*
X9696373Y-17405841D01*
X9696373Y-17405841D02*
X9677325Y-17396317D01*
X9677325Y-17396317D02*
X9648753Y-17396317D01*
X9648753Y-17396317D02*
X9629706Y-17386793D01*
X9629706Y-17386793D02*
X9620182Y-17367746D01*
X9620182Y-17367746D02*
X9620182Y-17358222D01*
X9620182Y-17358222D02*
X9629706Y-17339174D01*
X9629706Y-17339174D02*
X9648753Y-17329650D01*
X9648753Y-17329650D02*
X9677325Y-17329650D01*
X9677325Y-17329650D02*
X9696373Y-17339174D01*
X9772563Y-17539174D02*
X9782087Y-17529650D01*
X9782087Y-17529650D02*
X9801134Y-17501079D01*
X9801134Y-17501079D02*
X9810658Y-17482031D01*
X9810658Y-17482031D02*
X9820182Y-17453460D01*
X9820182Y-17453460D02*
X9829706Y-17405841D01*
X9829706Y-17405841D02*
X9829706Y-17367746D01*
X9829706Y-17367746D02*
X9820182Y-17320127D01*
X9820182Y-17320127D02*
X9810658Y-17291555D01*
X9810658Y-17291555D02*
X9801134Y-17272508D01*
X9801134Y-17272508D02*
X9782087Y-17243936D01*
X9782087Y-17243936D02*
X9772563Y-17234412D01*
M02*
